<svg xmlns="http://www.w3.org/2000/svg" viewBox="0 0 148.95 148.95"><defs><style>.cls-1{fill:#ccad7e;}</style></defs><g id="Layer_2" data-name="Layer 2"><g id="Layer_1-2" data-name="Layer 1"><path class="cls-1" d="M117.86,12.07a19,19,0,0,1,19,19v86.77a19,19,0,0,1-19,19H31.09a19,19,0,0,1-19-19V31.09a19.05,19.05,0,0,1,19-19h86.77m0-12.07H31.09A31.09,31.09,0,0,0,0,31.09v86.77A31.09,31.09,0,0,0,31.09,149h86.77A31.09,31.09,0,0,0,149,117.86V31.09A31.09,31.09,0,0,0,117.86,0Z"/><path class="cls-1" d="M106.83,70.26a6.43,6.43,0,0,0-4.75,1.51L74.48,95.08,46.87,71.77a6.51,6.51,0,0,0-8.4,10l31.81,26.85a6.53,6.53,0,0,0,8.4,0l31.8-26.85a6.51,6.51,0,0,0-3.65-11.47Z"/><path class="cls-1" d="M70.28,77.18a6.5,6.5,0,0,0,8.4,0l31.8-26.85a6.51,6.51,0,1,0-8.4-9.95l-27.6,23.3L46.87,40.38a6.51,6.51,0,1,0-8.4,9.95Z"/></g></g></svg>