<svg xmlns="http://www.w3.org/2000/svg" viewBox="0 0 11.83 19.85"><g id="Layer_2" data-name="Layer 2"><g id="Layer_1-2" data-name="Layer 1"><path d="M3.21,19.85V10.16s0-.06,0-.11H0V6.34H3.19c0-.41,0-.78.06-1.16a6.73,6.73,0,0,1,.6-2.62A4.35,4.35,0,0,1,7.1.13,6.21,6.21,0,0,1,8.31,0c1.1,0,2.2,0,3.29,0h.23V3.55H11.6c-.66,0-1.32,0-2,0a1.41,1.41,0,0,0-1.27.69,1.16,1.16,0,0,0-.17.47c0,.52,0,1-.07,1.59h3.27V10H8.15a2.44,2.44,0,0,0,0,.26v9.3a2,2,0,0,1,0,.25ZM4,19H7.32V9.23h3.25V7.13H7.33s0-.08,0-.11c0-.71,0-1.42,0-2.13a2.11,2.11,0,0,1,1.73-2,13.73,13.73,0,0,1,1.7-.11H11V.83h-.09C10,.82,9,.8,8.06.82A3.81,3.81,0,0,0,4.2,4.11,14.38,14.38,0,0,0,4,6.89v.26H.82V9.24H4Z"/></g></g></svg>