<svg xmlns="http://www.w3.org/2000/svg" viewBox="0 0 251.11 174.7"><defs><style>.cls-1{fill:#00a887;}.cls-2{fill:#ccad7e;}</style></defs><g id="Layer_2" data-name="Layer 2"><g id="Layer_1-2" data-name="Layer 1"><polygon class="cls-1" points="83.07 0 76.27 0 76.27 72.84 67.77 72.84 60.97 79.64 98.36 79.64 91.57 72.84 83.07 72.84 83.07 0"/><polygon class="cls-1" points="174.84 0 168.04 0 168.04 72.84 159.54 72.84 152.75 79.64 190.14 79.64 183.34 72.84 174.84 72.84 174.84 0"/><path class="cls-1" d="M183.34,13.66v50h6.8V20.83A42.36,42.36,0,0,1,183.34,13.66Z"/><path class="cls-1" d="M217.33,30.71c-1.15,0-2.28-.06-3.4-.15V63.69h6.8V30.56C219.61,30.65,218.47,30.71,217.33,30.71Z"/><path class="cls-1" d="M198.64,63.69h6.79V29a41.9,41.9,0,0,1-6.79-2.64Z"/><path class="cls-1" d="M122.16,30.56V63.69H129V30.56c-1.12.09-2.25.15-3.39.15S123.28,30.65,122.16,30.56Z"/><path class="cls-1" d="M106.86,63.69h6.8V29a42,42,0,0,1-6.8-2.64Z"/><path class="cls-1" d="M91.57,13.66v50h6.79V20.83A42.3,42.3,0,0,1,91.57,13.66Z"/><path class="cls-1" d="M137.45,63.69h6.8V26.37a42,42,0,0,1-6.8,2.64Z"/><path class="cls-1" d="M159.54,13.66a42.3,42.3,0,0,1-6.79,7.17V63.69h6.79Z"/><path class="cls-1" d="M30.38,30.56V63.69h6.8V30.56c-1.12.09-2.25.15-3.4.15S31.51,30.65,30.38,30.56Z"/><path class="cls-1" d="M45.68,63.69h6.79V26.37A41.9,41.9,0,0,1,45.68,29Z"/><path class="cls-1" d="M67.77,13.66A42.36,42.36,0,0,1,61,20.83V63.69h6.8Z"/><polygon class="cls-2" points="119.89 132.07 124.71 132.07 124.71 104.79 119.89 106.27 119.89 132.07"/><path class="cls-2" d="M93.47,132a6.65,6.65,0,0,0,4.22-1.51A6.6,6.6,0,0,0,101.9,132l5.22,0a6.49,6.49,0,0,0,6.49-6.48V104.79l-4.82,1.48v19.31a1.67,1.67,0,0,1-1.66,1.67l-5.22,0a1.81,1.81,0,0,1-1.81-1.8v-4a7.73,7.73,0,0,0-2.91-6.13c-2.44-2-6-2.64-9.8-1.83-3.32.72-7.66,2.92-10.92,5v-5l-4.82,1.49v12.39H67a5.68,5.68,0,0,1-1.09-.11,6.18,6.18,0,0,1-2.54-1.25,12.48,12.48,0,0,1-2.26-3c-.5-.79-1-1.57-1.51-2.35a19.23,19.23,0,0,0-3-3.66c-5.15-4.82-12.35-3.8-17.6-3.07l.67,4.78c5.76-.81,10.42-1.2,13.65,1.81a19.67,19.67,0,0,1,3.16,4.3c.53.87,1.07,1.76,1.68,2.61H22.83a2.72,2.72,0,0,1-2.71-2.71V112.66l-4.82,1.48v1.37a6.86,6.86,0,0,0-2.23-.37H7A6.9,6.9,0,0,0,.1,122v3.1A6.9,6.9,0,0,0,7,132h8.3l1-3.8a7.52,7.52,0,0,0,6.55,3.82Zm-17-7.81c2.44-1.92,8.36-5.34,11.93-6.1a7,7,0,0,1,5.76.86,2.93,2.93,0,0,1,1.12,2.38v4a1.81,1.81,0,0,1-1.81,1.8h-17ZM4.92,122A2.08,2.08,0,0,1,7,120h6.07a2.23,2.23,0,0,1,2.23,2.23v2.35a7.43,7.43,0,0,0,.51,2.68H7a2.08,2.08,0,0,1-2.08-2.08Z"/><rect class="cls-2" x="231.08" y="137.36" width="4.64" height="4.64" transform="translate(-30.41 205.95) rotate(-45)"/><rect class="cls-2" x="11.34" y="104.69" width="4.64" height="4.64" transform="translate(-71.66 41) rotate(-45)"/><rect class="cls-2" x="4.24" y="104.69" width="4.64" height="4.64" transform="translate(-73.75 35.98) rotate(-45)"/><rect class="cls-2" x="43.82" y="151.9" width="4.76" height="22.37"/><path class="cls-2" d="M61.83,151.9H53v22.37h8.82c7,0,11.87-4.43,11.87-11.17S68.84,151.9,61.83,151.9Zm0,18.18H57.77v-14h4.06c4.59,0,7,3,7,7A6.7,6.7,0,0,1,61.83,170.08Z"/><path class="cls-2" d="M86.79,166h6v2.72a7.66,7.66,0,0,1-4.83,1.71c-4.06,0-7-3.12-7-7.35s3-7.35,7-7.35a6.36,6.36,0,0,1,5.3,2.82l4-2.14a10.47,10.47,0,0,0-9.25-4.9C81.39,151.53,76,156,76,163.1s5.37,11.6,11.91,11.6a12.39,12.39,0,0,0,9.52-4.22v-8.55H86.79Z"/><polygon class="cls-2" points="101.25 174.27 117.08 174.27 117.08 170.14 106.02 170.14 106.02 164.94 116.85 164.94 116.85 160.85 106.02 160.85 106.02 155.99 117.08 155.99 117.08 151.9 101.25 151.9 101.25 174.27"/><polygon class="cls-2" points="144.73 160.69 134.16 160.69 134.16 151.9 129.4 151.9 129.4 174.27 134.16 174.27 134.16 164.88 144.73 164.88 144.73 174.27 149.52 174.27 149.52 151.9 144.73 151.9 144.73 160.69"/><polygon class="cls-2" points="153.93 174.27 169.76 174.27 169.76 170.14 158.69 170.14 158.69 164.94 169.52 164.94 169.52 160.85 158.69 160.85 158.69 155.99 169.76 155.99 169.76 151.9 153.93 151.9 153.93 174.27"/><path class="cls-2" d="M179.76,151.9l-8.66,22.37h5.24l1.4-3.86h10l1.41,3.86h5.19l-8.61-22.37ZM179,166.28,182.74,156l3.69,10.26Z"/><polygon class="cls-2" points="201.19 151.9 196.43 151.9 196.43 174.27 210.65 174.27 210.65 170.07 201.19 170.07 201.19 151.9"/><polygon class="cls-2" points="209.25 156.09 215.79 156.09 215.79 174.27 220.58 174.27 220.58 156.09 227.09 156.09 227.09 151.9 209.25 151.9 209.25 156.09"/><polygon class="cls-2" points="245.48 160.69 234.91 160.69 234.91 151.9 230.15 151.9 230.15 174.27 234.91 174.27 234.91 164.88 245.48 164.88 245.48 174.27 250.27 174.27 250.27 151.9 245.48 151.9 245.48 160.69"/><path class="cls-2" d="M247.47,125.86a15.83,15.83,0,0,1-2.75-3.72,23.78,23.78,0,0,0-4-5.32c-5.16-4.82-12.35-3.8-17.61-3.07l.67,4.78c5.76-.81,10.42-1.2,13.65,1.81a17.54,17.54,0,0,1,2.82,3.75,17,17,0,0,0-4.74,1.64,12.38,12.38,0,0,1-6,1.52h-46.4a1.78,1.78,0,0,1-1.78-1.78V113.66l-4.82,1.48v9.78a2.3,2.3,0,0,1-2.3,2.3h-2.27a2.3,2.3,0,0,1-2.3-2.3V113.66l-4.82,1.48v9.78a2.3,2.3,0,0,1-2.31,2.3h-2.26a2.31,2.31,0,0,1-2.31-2.3v-4.14a7.44,7.44,0,0,0-7.43-7.44H140.23v17.45a6.49,6.49,0,0,1-6.48,6.48v4.82A11.31,11.31,0,0,0,145,130.79V118.16h5.44a2.62,2.62,0,0,1,2.61,2.62v4.14a7.13,7.13,0,0,0,7.13,7.12h2.26a7.08,7.08,0,0,0,4.72-1.8,7.07,7.07,0,0,0,4.71,1.8h2.27a7.05,7.05,0,0,0,4.54-1.64,6.55,6.55,0,0,0,4.36,1.66h46.4a17.1,17.1,0,0,0,8.17-2c2.47-1.21,5-2.09,7-.23l0,0a10.73,10.73,0,0,0,6.42,2.27v-4.81A6,6,0,0,1,247.47,125.86Z"/><path class="cls-2" d="M40.22,159.11c0-4.16-2.85-7.21-7.51-7.21H22.24v22.37H27v-8h3.48l4.4,8h5.46l-5-8.52A6.41,6.41,0,0,0,40.22,159.11Zm-8.22,3H27V156h5a3.1,3.1,0,1,1,0,6.17Z"/><path class="cls-2" d="M14.35,162.73a5,5,0,0,0,3.86-5.13c0-3-2.18-5.7-6.44-5.7H0v22.37H12.14c4.26,0,6.5-2.69,6.5-6A5.42,5.42,0,0,0,14.35,162.73ZM4.76,156h6a2.47,2.47,0,1,1,0,4.93h-6Zm6.14,14.25H4.76v-5.27H10.9a2.61,2.61,0,0,1,2.88,2.62A2.57,2.57,0,0,1,10.9,170.21Z"/></g></g></svg>