<svg xmlns="http://www.w3.org/2000/svg" viewBox="0 0 19.59 19.62"><defs><style>.cls-1{fill:#fff;}</style></defs><g id="Layer_2" data-name="Layer 2"><g id="Layer_1-2" data-name="Layer 1"><path d="M4.56,0H15l.15,0a4.9,4.9,0,0,1,4.12,3.32,8.48,8.48,0,0,1,.28,1.21v10.5l-.09.54a5,5,0,0,1-4.9,4q-4.8,0-9.6,0a4.89,4.89,0,0,1-.54,0A4.94,4.94,0,0,1,0,14.71Q0,9.81,0,4.9A4.92,4.92,0,0,1,3.39.27,11.67,11.67,0,0,1,4.56,0ZM18.24,9.81c0-1.57,0-3.14,0-4.71a3.79,3.79,0,0,0-.09-.89,3.59,3.59,0,0,0-3.63-2.86H5.07a3.67,3.67,0,0,0-.66,0A3.61,3.61,0,0,0,1.36,5q0,4.77,0,9.54a3.35,3.35,0,0,0,0,.63A3.59,3.59,0,0,0,5,18.26h9.54a3.62,3.62,0,0,0,3.67-3.68C18.26,13,18.24,11.4,18.24,9.81Z"/><path class="cls-1" d="M19.59,4.56a8.48,8.48,0,0,0-.28-1.21A4.9,4.9,0,0,0,15.19,0L15,0h4.55Z"/><path d="M9.79,4.65a5,5,0,1,1-5,5A5,5,0,0,1,9.79,4.65Zm3.62,5a3.61,3.61,0,1,0-3.62,3.61A3.6,3.6,0,0,0,13.41,9.62Z"/><path d="M15.36,2.45a1.8,1.8,0,1,1-1.8,1.78A1.79,1.79,0,0,1,15.36,2.45Zm0,2.23a.44.44,0,0,0,.43-.44.44.44,0,1,0-.43.44Z"/></g></g></svg>