<svg xmlns="http://www.w3.org/2000/svg" viewBox="0 0 20.97 20.08"><defs><style>.cls-1{fill:none;stroke:#000;stroke-miterlimit:10;}</style></defs><g id="Layer_2" data-name="Layer 2"><g id="Layer_1-2" data-name="Layer 1"><path class="cls-1" d="M20.46,9.64c0-2.49,0-5,0-7.46a1.53,1.53,0,0,0-.9-1.51,1.78,1.78,0,0,0-.75-.16H2.16A1.58,1.58,0,0,0,.52,1.83a.17.17,0,0,1,0,0V18.2a1.71,1.71,0,0,0,.56,1,1.62,1.62,0,0,0,1.08.38H18.73a1.63,1.63,0,0,0,1.41-.64,1.67,1.67,0,0,0,.33-1.06C20.46,15.13,20.46,12.39,20.46,9.64ZM6.13,18H3.25V8.53H6.13Zm0-11.18a.86.86,0,0,1-.17,0c-.84-.19-1.68-.39-2.53-.57A.22.22,0,0,1,3.23,6c0-.53,0-1,0-1.59H6.13Zm11.59,11a1.48,1.48,0,0,1,0,.2H14.82v-.25c0-1.93,0-3.85,0-5.78a3.89,3.89,0,0,0-.21-1.12,1.23,1.23,0,0,0-1.18-.92,3.32,3.32,0,0,0-.89,0,1.54,1.54,0,0,0-1.37,1.51,13.29,13.29,0,0,0-.08,1.4c0,1.63,0,3.26,0,4.89V18H8.21V8.06h2.51V9L11,8.86a5.42,5.42,0,0,1,2.61-1.13,3.85,3.85,0,0,1,3.05.78,2.71,2.71,0,0,1,.93,1.75,12.66,12.66,0,0,1,.15,1.63C17.73,13.86,17.72,15.83,17.72,17.8Z"/><path d="M6.13,4.36V6.81a.86.86,0,0,1-.17,0c-.84-.19-1.68-.39-2.53-.57A.22.22,0,0,1,3.23,6c0-.53,0-1,0-1.59Z"/><rect x="3.25" y="8.53" width="2.88" height="9.46"/><path d="M17.72,11.89c0,2,0,3.94,0,5.91a1.48,1.48,0,0,1,0,.2H14.82v-.25c0-1.93,0-3.85,0-5.78a3.89,3.89,0,0,0-.21-1.12,1.23,1.23,0,0,0-1.18-.92,3.32,3.32,0,0,0-.89,0,1.54,1.54,0,0,0-1.37,1.51,13.29,13.29,0,0,0-.08,1.4c0,1.63,0,3.26,0,4.89V18H8.21V8.06h2.51V9L11,8.86a5.42,5.42,0,0,1,2.61-1.13,3.85,3.85,0,0,1,3.05.78,2.71,2.71,0,0,1,.93,1.75A12.66,12.66,0,0,1,17.72,11.89Z"/></g></g></svg>