<svg xmlns="http://www.w3.org/2000/svg" viewBox="0 0 199.47 84.77"><defs><style>.cls-1{fill:#c9c9c9;}</style></defs><g id="Layer_2" data-name="Layer 2"><g id="Layer_1-2" data-name="Layer 1"><path class="cls-1" d="M95.69,22.22v7.93a4.8,4.8,0,0,1-4.76,4.76H80.11V10.6H76.3a1.49,1.49,0,0,0-1.49,1.49V34.94H63.29v-3.3A13.54,13.54,0,0,0,49.77,18.12H45.1V21.9a1.49,1.49,0,0,0,1.49,1.49h3.18A8.23,8.23,0,0,1,58,31.64v3.27H44.27a1.49,1.49,0,0,0-1.49,1.49v3.81H90.93a10,10,0,0,0,10-10V20.72H97.15a1.46,1.46,0,0,0-1.46,1.5"/><path class="cls-1" d="M38.21,34.91H10a4.8,4.8,0,0,1-4.76-4.76V22.22a1.5,1.5,0,0,0-1.49-1.5H0v9.37a10,10,0,0,0,10,10H39.7V36.31a1.49,1.49,0,0,0-1.49-1.4"/><path class="cls-1" d="M85.76,42.59a2.89,2.89,0,1,0,2.88,2.89,2.9,2.9,0,0,0-2.88-2.89"/><path class="cls-1" d="M24.34,42.59a2.89,2.89,0,1,0,2.89,2.89,2.9,2.9,0,0,0-2.89-2.89"/><path class="cls-1" d="M18.09,42.59A2.89,2.89,0,1,0,21,45.48a2.9,2.9,0,0,0-2.89-2.89"/><path class="cls-1" d="M2.38,56.91a5.94,5.94,0,0,1,5.36-2.86c4.07,0,7.24,2.6,7.24,7.39s-3.17,7.4-7.27,7.4A6,6,0,0,1,2.41,66l-.09,2.61H0V49.51H2.41v7.4Zm.1,4.5a5,5,0,0,0,5.07,5.21,4.85,4.85,0,0,0,5.05-5.18,4.8,4.8,0,0,0-5-5.17,5,5,0,0,0-5.07,5.14"/><path class="cls-1" d="M31.61,68.65l0-2.6a6,6,0,0,1-5.27,2.88A7.09,7.09,0,0,1,19,61.44a7,7,0,0,1,7.36-7.36,6,6,0,0,1,5.3,2.86l0-2.6H34V68.59H31.71ZM26.37,56.33a5.21,5.21,0,0,0,0,10.42c6.92,0,6.92-10.45,0-10.42Z"/><rect class="cls-1" x="39.89" y="49.54" width="2.38" height="19.07"/><path class="cls-1" d="M60,68.65l0-2.6a6,6,0,0,1-5.27,2.88,7.09,7.09,0,0,1-7.33-7.49,7,7,0,0,1,7.37-7.36A6,6,0,0,1,60,56.94l0-2.6h2.32V68.59H60.08ZM54.75,56.33a5.21,5.21,0,0,0,0,10.42c6.92,0,6.92-10.45,0-10.42Z"/><path class="cls-1" d="M82.17,49.54V68.62H80l-.1-2.6a6,6,0,0,1-5.36,2.88c-4.06,0-7.24-2.69-7.24-7.39s3.18-7.4,7.18-7.4A6.07,6.07,0,0,1,79.79,57V49.61h2.38v-.07Zm-7.55,6.7a4.81,4.81,0,0,0-5.05,5.17,4.84,4.84,0,0,0,5.05,5.18,5.18,5.18,0,0,0,0-10.35Z"/><polygon class="cls-1" points="98.39 54.34 95.21 61.79 93.69 65.86 92.14 61.76 89.31 54.34 86.64 54.34 92.36 68.43 89.95 74.11 92.45 74.11 100.96 54.34 98.39 54.34"/><path class="cls-1" d="M157.07,0V9.55c-.47.48-1.52,1.88-2.89,6.48,0,.09-.19.19-.28.09-.83-.66-4.51-3-10.67-.82-.12,0-.12.22,0,.32a12.48,12.48,0,0,1,4,2.57c.1.09,0,.28-.13.28-2.31-.09-15.55.29-25.74,16.25-.09.13.1.32.23.22,2.5-1.77,11.55-7.68,19.48-7,.19,0,.23.22,0,.32-2.86,1.3-15.49,8.25-18.38,28a.17.17,0,0,0,.32.09c1.77-3.11,9-14.85,18.88-19a.19.19,0,0,1,.19.29c-1.9,2.38-9.52,12.92-7.87,30.28,0,.19.29.19.32,0,1-3.36,5.39-16.54,12.72-24.5a.16.16,0,0,1,.29.12c-.48,3-2.67,17.84-.1,29.46,0,.19.32.12.32,0,.41-4.38,2.29-21.71,6.19-27a.21.21,0,0,1,.13,0h.13L155,56.53h-1.4l1.11,14.21h-1.39l.7,14a42.44,42.44,0,0,1,3-84.77"/><path class="cls-1" d="M157.1,0V9.55c.48.48,1.53,1.88,2.89,6.48,0,.09.19.19.29.09.82-.66,4.5-3,10.66-.82.13,0,.13.22,0,.32a12.59,12.59,0,0,0-4,2.57.18.18,0,0,0,.13.28c2.32-.09,15.55.29,25.74,16.25.1.13-.1.32-.22.22-2.51-1.77-11.55-7.68-19.49-7-.19,0-.19.22,0,.32,2.86,1.3,15.49,8.25,18.38,28a.17.17,0,0,1-.32.09c-1.78-3.11-8.95-14.85-18.89-19a.2.2,0,0,0-.19.29C174,40,181.6,50.53,180,67.89a.16.16,0,0,1-.31,0c-1-3.36-5.4-16.54-12.73-24.5a.16.16,0,0,0-.29.12c.48,3,2.67,17.84.1,29.46,0,.19-.32.12-.32,0-.41-4.38-2.28-21.71-6.19-27a.18.18,0,0,0-.12,0H160l-.83,10.64h1.46l-1.11,14.21h1.4l-.7,14A42.44,42.44,0,0,0,157.1,0"/></g></g></svg>