<svg xmlns="http://www.w3.org/2000/svg" xmlns:xlink="http://www.w3.org/1999/xlink" viewBox="0 0 80.88 98.29"><defs><style>.cls-1,.cls-4,.cls-5{fill:none;}.cls-2{fill:#c9c9c9;}.cls-3{clip-path:url(#clip-path);}.cls-4{stroke:#231f20;stroke-miterlimit:10;stroke-width:0.18px;}.cls-5{stroke:#010101;stroke-linejoin:round;stroke-width:0.16px;}.cls-6{fill:#aaa;}.cls-7{fill:#010101;}.cls-8{fill:#00904e;}.cls-9{fill:#fff;}</style><clipPath id="clip-path"><path class="cls-1" d="M40.43,36.81a21.66,21.66,0,0,0-11.89-3.94A17.59,17.59,0,0,0,16.27,38L7.86,70.74C12.76,74,20,70.18,20,70c11.91-7.68,20.42,2.34,20.42,2.34S49,62.37,60.86,70c0,.15,7.24,4,12.15.71L64.59,38a17.59,17.59,0,0,0-12.27-5.09c-7.65,0-7.42,1-11.9,3.94"/></clipPath></defs><g id="Layer_2" data-name="Layer 2"><g id="Layer_1-2" data-name="Layer 1"><path class="cls-2" d="M80.88,30a9.22,9.22,0,0,0-.1-1,19,19,0,0,0-1.25-5,14.19,14.19,0,0,0-7-7.59,22.16,22.16,0,0,0-9.71-2l-.48-.91-.07-.1a27.55,27.55,0,0,0-1.79-2.27A23.92,23.92,0,0,0,57.3,7.92a15,15,0,0,0-4.83-2.5,26.49,26.49,0,0,0-4-.89c-.42-.07-.87-.12-1.31-.17A15.26,15.26,0,0,1,44.81,4a6.09,6.09,0,0,1-3.16-2.06l-.39-.56L40.43,0l-.82,1.37c-.12.19-.25.39-.38.56A6.09,6.09,0,0,1,36.07,4a18.18,18.18,0,0,1-2.37.37c-.46,0-.89.1-1.32.17a27.07,27.07,0,0,0-4,.89,15.09,15.09,0,0,0-4.83,2.5,23.09,23.09,0,0,0-3.17,3.13c-.56.66-1.22,1.45-1.8,2.27l-.54,1a21.7,21.7,0,0,0-9.72,2,14,14,0,0,0-5.5,4.76A17.26,17.26,0,0,0,.1,29c0,.38-.08.74-.1,1.15V98.29H80.88V30ZM2,29.22a15.36,15.36,0,0,1,2.4-6.94A11.94,11.94,0,0,1,9.16,18.2a20.37,20.37,0,0,1,9-1.8h1l1-1.91c.51-.72,1.11-1.45,1.63-2.06a20.78,20.78,0,0,1,2.9-2.86,13,13,0,0,1,4.22-2.19,26.31,26.31,0,0,1,3.7-.83c.4-.06.81-.09,1.24-.14A18.75,18.75,0,0,0,36.51,6a7.87,7.87,0,0,0,3.91-2.41A7.85,7.85,0,0,0,44.34,6,18.75,18.75,0,0,0,47,6.41c.43,0,.84.08,1.24.14a26.31,26.31,0,0,1,3.7.83,13,13,0,0,1,4.22,2.19A20.78,20.78,0,0,1,59,12.43c.54.65,1.12,1.34,1.61,2.05l1,1.91h1a20.45,20.45,0,0,1,9,1.79,12,12,0,0,1,6,6.54,17.1,17.1,0,0,1,1.1,4.48c0,.31.07.61.08.81V87.36H72V82.93H61.56V78.36H19.27v4.57H8.88v4.43h-7V30.17c0-.31.05-.64.08-1"/><path class="cls-2" d="M77.49,73.49,70.06,42.43,40.25,37.78,10.8,42.43,3.38,73.49l0,.11H38.28a1.74,1.74,0,0,0,.93,1.49,3.12,3.12,0,0,0,.93.33h.61a3,3,0,0,0,.92-.33,1.77,1.77,0,0,0,.94-1.49H77.52l0-.11Z"/><path class="cls-2" d="M77.49,73.49,70.06,42.43,40.25,37.78,10.8,42.43,3.38,73.49l0,.11H38.28a1.74,1.74,0,0,0,.93,1.49,3.12,3.12,0,0,0,.93.33h.61a3,3,0,0,0,.92-.33,1.77,1.77,0,0,0,.94-1.49H77.52l0-.11Z"/><path class="cls-2" d="M68.09,40.66l-1.35-.24c-4.9-.93-17.28-4.85-26.32-3.1-9-1.73-21.43,2.17-26.32,3.1l-1.35.24L4.5,72.58c8.17,2.08,14.72.56,18.69-1.64,7.51-4.17,17.23,1.87,17.23,1.87s9.71-6,17.22-1.87c4,2.2,10.53,3.72,18.7,1.64L68.09,40.66Z"/><path class="cls-2" d="M68.09,40.66l-1.35-.24c-4.9-.93-17.28-4.85-26.32-3.1-9-1.73-21.43,2.17-26.32,3.1l-1.35.24L4.5,72.58c8.17,2.08,14.72.56,18.69-1.64,7.51-4.17,17.23,1.87,17.23,1.87s9.71-6,17.22-1.87c4,2.2,10.53,3.72,18.7,1.64L68.09,40.66Z"/><path class="cls-2" d="M65.93,38.79S49.89,34,40.43,37h0C31,34,14.94,38.79,14.94,38.79l-8.71,33c5.69,2.05,11.49.48,14.52-.8,11.33-6.82,19.68,1.56,19.68,1.56h0S48.8,64.18,60.11,71c3,1.28,8.83,2.85,14.53.8l-8.71-33Z"/><path class="cls-2" d="M65.93,38.79S49.89,34,40.43,37h0C31,34,14.94,38.79,14.94,38.79l-8.71,33c5.69,2.05,11.49.48,14.52-.8,11.33-6.82,19.68,1.56,19.68,1.56h0S48.8,64.18,60.11,71c3,1.28,8.83,2.85,14.53.8l-8.71-33Z"/><g class="cls-3"><rect class="cls-2" x="7.86" y="32.87" width="65.15" height="41.16"/></g><path class="cls-4" d="M64.61,38S55,27.32,40.43,36.79C25.91,27.32,16.26,38,16.26,38L7.84,70.74C12.75,74,20,70.18,20,70c11.91-7.68,20.43,2.34,20.43,2.34s8.51-10,20.42-2.34c0,.15,7.25,4,12.15.71L64.58,38Z"/><line class="cls-5" x1="40.43" y1="72.58" x2="40.43" y2="36.74"/><path class="cls-6" d="M39.87,80.24,40,79.6a3.7,3.7,0,0,0-.76,2.21.42.42,0,0,0,.55.29c.24-.08.54-.28.57-.54a1.16,1.16,0,0,0-.51-1.34m.33,1.11c-.21.11-.44.33-.69.25a1.27,1.27,0,0,1,.15-.73c.18.12.54.18.54.48"/><path class="cls-6" d="M39.43,82.79l-.33,1c.33,2.4.39,4.94.59,7.41-.15,1,.58,2.52-.59,3A2,2,0,0,1,37,93.73c.66-.48,1.83-.36,1.87-1.48-1.21-1.22-3.35-1-4.88-.61-.72,0-.79.85-1,1.33l.69-.15a2.29,2.29,0,0,1,1.54.83,3.74,3.74,0,0,1-2.15.71,1,1,0,0,1-.77-.68c-.63-2.52-.63-5.47-2.35-7.41l-.15.82c.51,1.73,1.45,3.35,1.38,5.26-1.32,1.79-3.16,3.16-5.34,3.09a.86.86,0,0,1-.57-.9c1.05-.86,2.58-1.67,2.88-3.07.61-3.13-.18-6.29-.15-9.4.15.15.27.36.45.39a9.71,9.71,0,0,0-.94-2.66l-.3.72c.26,3.56.48,7.31.63,11A8.17,8.17,0,0,1,25.4,93.3a3,3,0,0,0,.21-1c-.3.47-.18,1.19-.76,1.49a4.88,4.88,0,0,1-3.88.57,2.42,2.42,0,0,1-1.31-2.27,7,7,0,0,1,.8-2.67c-.07.15-.25.46-.48.4-.45-.68.11-1.3.18-2-.36.73-.91,1.73-.3,2.55a5.09,5.09,0,0,0-.43,2.24,3.07,3.07,0,0,0,1.42,2.85c1.42.66,2.88,0,4.07-.69l.18,1.09a1.29,1.29,0,0,0,1.09.79,6.65,6.65,0,0,0,5.3-4c.25.88.12,1.88.77,2.59,1.32.87,2.56-.25,3.64-.86a3.51,3.51,0,0,0,2.77,1.16c.73-.09,1.09-.91,1.32-1.49.69-2.85-.15-5.89-.12-8.86l.51.3a9.18,9.18,0,0,0-1-2.62m-3.92,9.67a2.37,2.37,0,0,1,1.64.15l-.9.42-.76-.57Z"/><path class="cls-6" d="M42.59,79.75c-.26.1-.21.39-.33.57l.4-.1c.46.5-.45,1-.58,1.37a1.94,1.94,0,0,0,1-1.61c-.07-.22-.26-.25-.48-.25"/><path class="cls-6" d="M30.63,80.31c0-.22-.21-.22-.36-.28a.57.57,0,0,0-.43.61l.4-.1c.33.51-.45,1-.59,1.36a1.88,1.88,0,0,0,1-1.61"/><path class="cls-6" d="M46.2,81.94l.39.24c0-.18.27-.32.12-.54-.58-.21,0-.67-.18-1.09s-.66,0-.91.19c-.43.39,0,.93.36,1.15a23.59,23.59,0,0,1-2.76,1.88,5.4,5.4,0,0,0,3-1.83M45.8,81c.07-.18.43-.26.43,0v.18c-.15.09-.3-.1-.43-.21"/><path class="cls-6" d="M48.88,86.1l-.18.47c.87-.25,1.68-.76,2.52-.94.12,2.63.46,5.27.4,7.92,1.12-2.42.24-5.47.26-8.07L56,83.81l.12-.36c-1.45.61-2.84.94-4.29,1.55a6.53,6.53,0,0,1-.18-2c.18.07.33.4.51.33a10,10,0,0,0-1-2.6l-.36,1a13.14,13.14,0,0,1,.27,3.49l-2.26.87Z"/><path class="cls-6" d="M23.72,82.88a.36.36,0,0,0,.42.29c.33-.18.33-.57.43-.87l-.43.4c-.59-.58.07-1.31.1-2a3.37,3.37,0,0,0-.51,2.16"/><path class="cls-6" d="M34.78,82.73c.07.29,0,.72.45.67s.33-.57.43-.87c-.15.15-.18.43-.43.4-.51-.61,0-1.34.11-2a4.14,4.14,0,0,0-.57,1.79"/><path class="cls-6" d="M53.3,83a.4.4,0,0,0,.44.39c.3-.18.3-.57.43-.87l-.43.4c-.51-.55,0-1.44.07-2A3.54,3.54,0,0,0,53.3,83"/><path class="cls-6" d="M41.29,82.48l-.4,1.09c.4,3.85.7,7.92.76,11.74a5.53,5.53,0,0,0,.55-2.19l-.45-8.35.51.36a13.27,13.27,0,0,0-1-2.67"/><path class="cls-6" d="M30.45,82.73A4.57,4.57,0,0,0,29.83,85c.06.21.26.21.43.28s.57-.18.65-.48a1.15,1.15,0,0,0-.47-1.4l.18-.66h-.17Zm.3,1.64a.53.53,0,0,1-.54.33h-.15c-.12-.24.06-.51.15-.72a4.56,4.56,0,0,1,.54.39"/><path class="cls-6" d="M58.71,83.88A3.88,3.88,0,0,0,58,86.15c0,.28.33.28.54.25a.79.79,0,0,0,.58-.86,1,1,0,0,0-.51-1c0-.28.25-.51.11-.69m.22,1.68c-.08.25-.4.33-.63.33-.21-.25,0-.51.09-.72a1,1,0,0,1,.54.39"/><path class="cls-6" d="M45.84,84.61a2,2,0,0,0-.91-.55l-.4.86,1,.67.39-.67.91.57a2.28,2.28,0,0,0,.44-.88,6.7,6.7,0,0,0-1-.65c-.15.22-.25.55-.45.65"/><path class="cls-6" d="M31.51,87a4.77,4.77,0,0,0,3.06-2.09c.15.11.4.32.58.11.39.4.42,1,.62,1.45.3-.61.27-1.4.69-1.94l.4.24c.08-.1.08-.21.15-.29-.07-.25-.25-.51-.55-.46-.51.42-.39,1.25-.69,1.61-.15-.51-.24-1.22-.9-1.4-.73,1.45-2.36,1.94-3.38,2.77"/><path class="cls-6" d="M22.63,85.4c.69.06,1.63-.12,2.19.21-.66.54-1.48.76-2.08,1.33,1.27-.24,2.74-.93,3.05-2.33a4.54,4.54,0,0,0-2.14-.25c-.61,0-.79.61-1,1"/><path class="cls-6" d="M55.55,86.94c.07.15.22.4.43.3s.33-.58.45-.87c-.15.08-.25.39-.48.39-.48-.61.06-1.33.11-2a3.6,3.6,0,0,0-.51,2.15"/><path class="cls-6" d="M47.88,85.36A14,14,0,0,1,46.23,88l-1-1c.12-.18.36-.07.55-.08v-.1a4.83,4.83,0,0,0-1.42-.83c-.72,1.27,1,1.91,1.35,2.92a4.89,4.89,0,0,0-1,3.36.71.71,0,0,0,1,.43c.81-.3,1.81-1,1.83-2a3.3,3.3,0,0,0-.94-2.37c.58-.91,1.45-1.8,1.27-2.92m-.69,5.2a2.21,2.21,0,0,1-2,.91c-.29-.25,0-.58,0-.82l.87-1.37a3.44,3.44,0,0,1,1.09,1.27"/><path class="cls-6" d="M53.69,87.34a2.15,2.15,0,0,0,.4-.89,2.58,2.58,0,0,0-1-.61l-.39.86,1,.64Z"/><path class="cls-6" d="M33.19,88.82,38,86.88l.08-.3c-1.6.58-3.2,1.09-4.73,1.76l-.18.48Z"/><path class="cls-6" d="M43.28,89.78c.43-.07.4-.55.48-.88-.15.15-.18.48-.48.4-.43-.61.07-1.37.15-1.91a3.7,3.7,0,0,0-.51,2.06c0,.15.18.43.36.33"/><path class="cls-6" d="M59.87,91.16a3,3,0,0,0-1.32-2.82,1.21,1.21,0,0,0-1.3.55,2.13,2.13,0,0,0-.33,1.48c.4,1.19,2.14.12,2.55,1.19a8.11,8.11,0,0,1-4.58,3.06,1.85,1.85,0,0,1-1.3-.43c.66-.58,1.57-1.12,1.68-2,.51-1.22-.47-2-.72-3l.39.1A7.54,7.54,0,0,0,53.77,88c-.59,1.52,1,2.55,1.31,3.89a8.72,8.72,0,0,1-2,1.58c-.3-1,.21-1.91.26-2.77a9.36,9.36,0,0,0-.69,3,6,6,0,0,1-2.44.88A1.53,1.53,0,0,1,49.08,94a3.46,3.46,0,0,0,1.45-1.84c.51-1.22-.51-2-.76-3l.4.1A6.14,6.14,0,0,0,49,88c-.62,1.43.79,2.42,1.24,3.64V92a5.53,5.53,0,0,1-1.57,1.18,14,14,0,0,1,.37-2.52,7.64,7.64,0,0,0-.69,2.82c-1.12.69-2.66,1.65-3.92.69-1-.94-.25-2.49-.15-3.52a6.32,6.32,0,0,0-.4,1c-.29,1.27-.51,3,.69,3.89,1.42.54,2.77-.33,4-1.09a2.61,2.61,0,0,0,.69,1c1.27.72,2.62-.15,3.74-.76a2.47,2.47,0,0,0,.84.94c1.2.51,2.32-.15,3.24-.79,1.09-1,2.87-2,2.8-3.64M58.71,90c-.39-.15-1.16.18-1.2-.43.15-.25.51-.15.73-.1a2.13,2.13,0,0,1,.47.43V90Z"/><path class="cls-6" d="M25,90.93c.07.25.15.54.48.46a1,1,0,0,0,.4-.86c-.15.12-.18.43-.43.4-.54-.61,0-1.33.11-2a3.56,3.56,0,0,0-.57,2"/><path class="cls-6" d="M22.63,92.41c0,.15.18.4.43.3s.33-.58.43-.87c-.12.08-.22.39-.45.39-.48-.61,0-1.33.12-2a3.38,3.38,0,0,0-.51,2.16"/><path class="cls-6" d="M30.16,90.57c0-.25-.25-.36-.48-.3a.63.63,0,0,0-.33.58l.39-.1c.33.49-.32.9-.6,1.3a2.1,2.1,0,0,0,1-1.48"/><polygon class="cls-6" points="57.33 96.48 61.4 93.53 61.4 93.06 57.33 96.08 57.33 96.48"/><path class="cls-6" d="M43.25,94.83a.58.58,0,0,0-.33.58l.36-.08c.51.48-.44.94-.54,1.36a2.06,2.06,0,0,0,1-1.48.35.35,0,0,0-.48-.36"/><path class="cls-2" d="M19.17,28.79c-.46-.05-.49-.61-.9-.71-.89.45-1.06,1.47-1.45,2.22-.12.22-.33.47-.61.4-.6-.4-.33-1.3-.37-1.89a2.81,2.81,0,0,0,0,1.94c.14.18.27.46.55.43.89-.5.69-1.65,1.45-2.31s.62.63,1.25.53A1.48,1.48,0,0,0,20,29c-.06.44-.21,1.05.1,1.46.69.27,1.14-.51,1.65-.76.33.91-.92.78-1,1.37l.89-.53a1.32,1.32,0,0,0,.33.68.92.92,0,0,0,.81.13,4.82,4.82,0,0,0,2.75-3.06l1.08-.66c.27,0,.52.31.83.33a2,2,0,0,0,1.89-1l.08.4c.14.24.42.23.66.23a2.26,2.26,0,0,0,1.07-.84,1,1,0,0,0,.22.49c.16.12.33.07.51.05.34-.12.46-.48.61-.74.11.21.26.53.54.56a1.11,1.11,0,0,0,.78-.36,1.68,1.68,0,0,0,.57,1.38c.76.12.78-.77,1-1.22s.49-.87.95-.81a1.85,1.85,0,0,0,1.49,1.11,13.53,13.53,0,0,0,1.45.11l.08-.21v-.38a10.51,10.51,0,0,1-2.22-.33c-.35-.28-.38-.81-.83-.91-.82.28-1,1.17-1.33,1.82-.12.21-.35.46-.63.34A1.28,1.28,0,0,1,34,26.38c.39-1.48,0-3-.05-4.52l.05-.05c.08.05.14.21.24.14a6.71,6.71,0,0,0-.51-1.31c.05-.1,0-.25.09-.32a6.88,6.88,0,0,1,1.84,2.77,3,3,0,0,1-.49,2.73A2.6,2.6,0,0,0,36,24.36a4.84,4.84,0,0,0-2.26-4.74c-.2.42,0,.9-.12,1.35,0,1.68.3,3.37.28,5.1l-.14.23a1,1,0,0,1-.71.22c-.27-.09-.33-.37-.28-.65h0a2.48,2.48,0,0,1-.64.79.47.47,0,0,1-.58,0c-.16-.15-.1-.35,0-.55-.34.28-.61.79-1.07.89a.75.75,0,0,1-.74-.1c-.15-.15-.05-.34-.05-.52-.3.13-.51.49-.79.72a1.42,1.42,0,0,1-1.53.18c.36-.31.89-.41,1-.95A2.62,2.62,0,0,0,26,26.24a1,1,0,0,0-.84.9.86.86,0,0,1,.44-.15.88.88,0,0,1,.71.32l-.85.49c-.15-.2-.25-.44-.48-.56a.51.51,0,0,0-.61.12,1.19,1.19,0,0,0-.36,1c.26.43.87.11,1.23.06v.2c-.67,1-1.66,2.11-3,2.14a.75.75,0,0,1-.44-.38c.44-.31.92-.51,1.37-.79l.09-.19c-.47.23-.92.51-1.38.77h-.11l0-.59c.48-.51,1.09-.93,1.53-1.47a1.17,1.17,0,0,0-.1-1.27c-.58-.28-1.28-.26-1.79-.69.11-.07.28-.05.33-.15a2.24,2.24,0,0,0-.91-.21v.41A3.27,3.27,0,0,0,23,27.34c.15.08.38.12.41.31a14.06,14.06,0,0,1-2.78,2.26.4.4,0,0,1-.48-.1,1.48,1.48,0,0,1,.53-1.63c0,.16-.09.36-.09.51a1.88,1.88,0,0,0,.32-.84c0-.11,0-.25-.14-.25-.51.35-.88,1.26-1.64,1.16m8.27-2.06-.48.31-.46-.26a1.69,1.69,0,0,1,.92-.05m-3,1.35v-.13A.37.37,0,0,1,25,28a.8.8,0,0,1-.59.06"/><path class="cls-2" d="M41.37,27.32a11.68,11.68,0,0,0,3.16-.75c.07.14.09.34.17.47a.7.7,0,0,0,.74.37.78.78,0,0,0,.4-.38,1.38,1.38,0,0,0-.12-1.27c0,.13-.1.28-.15.39s.28.45.07.65a.74.74,0,0,1-.63-.05c-.21-.18-.16-.53-.16-.76a14.35,14.35,0,0,1-3.48.77v.43a.83.83,0,0,0,0,.15Z"/><path class="cls-2" d="M53.51,22a.27.27,0,0,0,.25-.22c.11-.29-.07-.52-.27-.71l.09-.31c-.3.18-.33.64-.42,1a.27.27,0,0,0,.35.22m-.13-.65a.63.63,0,0,1,.3.24.26.26,0,0,1-.35.11c-.1-.11,0-.25.05-.35"/><path class="cls-2" d="M29.4,21.76a.61.61,0,0,0-.25-.76c0-.12.13-.23.1-.31s-.15.21-.2.33c-.1.31-.34.77-.05,1a.55.55,0,0,0,.42-.26m-.38-.4a.46.46,0,0,1,.31.17.48.48,0,0,1-.36.19c-.07-.11,0-.26.05-.36"/><path class="cls-2" d="M51.8,22.33c.16-.06.18-.26.21-.41,0,.07-.13.18-.21.17-.27-.3,0-.73,0-1a1.62,1.62,0,0,0-.26.92.28.28,0,0,0,.23.31"/><path class="cls-2" d="M56.18,22.38c.13-.11.13-.24.18-.38l-.2.15c-.34-.26,0-.67,0-1a1.36,1.36,0,0,0-.27,1,.23.23,0,0,0,.27.2"/><path class="cls-2" d="M48.39,22.51a.47.47,0,0,0,.2-.42c-.05.08-.14.19-.22.18-.25-.32,0-.69.07-1a1.61,1.61,0,0,0-.3,1c0,.12.1.26.25.26"/><path class="cls-2" d="M27.37,22.66c.2-.1.23-.31.28-.49-.08.06-.13.25-.28.23-.18-.31,0-.69.1-1a2.48,2.48,0,0,0-.29,1c0,.11,0,.33.19.29"/><path class="cls-2" d="M47.24,25.84a1.39,1.39,0,0,0-.19.51l.2-.05c.41-.06.66.27.92.53-.54.23-1.15.31-1.69.53-1,.1-1.34,1.61-2.42,1.43-.74-.56,0-1.4.06-2a2.85,2.85,0,0,0-.52,1.41,1.07,1.07,0,0,0,.52,1c.76.26,1.09-.59,1.63-.95a10,10,0,0,1,2.79-1,1.74,1.74,0,0,0,1.53.72,1,1,0,0,0,.54-.56c.4-1.41-.08-2.9,0-4.33.65,1.09,1.51,2.09,1.63,3.43a2.18,2.18,0,0,1-1.09,1.53v-1l-.1.23c-.13.43,0,1.06-.51,1.24.16,0,.28-.12.41-.17s.05.12.05.15c.15.46.25,1.17.87,1.2.65-.39.56-1.21,1.22-1.64.15-.07.36-.15.48,0,.28.54.68,1.27,1.43,1.2a.94.94,0,0,0,.61-.41,1.23,1.23,0,0,0,0-1.06c.63.55,1.1,1.6,2.09,1.44.35-.09.41-.45.51-.73l.08.41a2.69,2.69,0,0,0,2,1.54l0-.37c0-.18-.27-.26-.42-.36-.24-.25-.69-.38-.74-.74l1.24-.21a2.1,2.1,0,0,0,.69.82c.18.08.48.16.56-.1a1.09,1.09,0,0,0-.23-1.19,1.15,1.15,0,0,0-.82-.13,6.16,6.16,0,0,1-.28-1.92l1.18-.1a.16.16,0,0,0,.15-.2l-1.33.11a14.23,14.23,0,0,1-.1-2.37l.26.25a13.33,13.33,0,0,0-.49-1.47c-.09,0-.12.2-.18.32.09,1.05.06,2.22.19,3.27-.28.15-.82,0-.87.33l.87-.08c.12.63.12,1.32.25,1.93l-.86.18a.87.87,0,0,0-.51.64L58.75,29c-.68-1.53-.36-3.46-.59-5.19a6,6,0,0,0-.38-1.63l-.14.4A33.32,33.32,0,0,1,58,28.31c0,.18-.18.31-.33.38a1,1,0,0,1-.82-.2,50.11,50.11,0,0,0-4.15-3.88,12.52,12.52,0,0,1,3.55-1.09c.37,0,.88-.17,1.08.18-.33.4-.89.72-.93,1.25.32-.62,1.21-.89,1.19-1.66-.15-.38-.71-.28-1.07-.27a11,11,0,0,0-3.81,1.12,1.69,1.69,0,0,0-.11.89l2.19,2.18a2.72,2.72,0,0,1,.77,1.27.86.86,0,0,1-.75.21c-.7-.05-.78-.82-1.21-1.22-.84-.1-1.08.89-1.41,1.42-.1.16-.27.44-.55.34s-.46-.59-.51-.95a3,3,0,0,0,1.2-1.2c.48-1.85-.87-3.28-1.66-4.8-.2-.23-.18-.61-.44-.77-.1.23-.25.54,0,.76.12,1.58.27,3.14.3,4.74,0,.13,0,.3-.21.35a1.18,1.18,0,0,1-1.22-.3c.36-.18.92-.13,1-.66a2.2,2.2,0,0,0-.87-.54,3,3,0,0,0-1.95,0M61.37,29v.09a.63.63,0,0,1-.51-.33.67.67,0,0,1,.51.24M49.2,26.48l-.48.17-.45-.4a1.57,1.57,0,0,1,.91.23"/><path class="cls-2" d="M30.57,22.51a14.51,14.51,0,0,1-1.42,1.12,3.69,3.69,0,0,0,1.55-1.1l.2.1c0-.1.16-.2.05-.3s-.05-.24-.09-.36c.1-.46-.41-.18-.49,0s0,.46.18.54m.15-.44v.13a.47.47,0,0,1-.21-.13c0-.08.23-.17.21,0"/><path class="cls-2" d="M61.43,23.19c.17-.33-.06-.61-.24-.84,0-.1.13-.2.09-.3A1.13,1.13,0,0,0,61,23.26a.37.37,0,0,0,.48-.07m-.38-.54a.57.57,0,0,1,.3.31A.44.44,0,0,1,61,23c-.1-.12,0-.25,0-.35"/><path class="cls-2" d="M58.58,22.5a1.89,1.89,0,0,1,.28.76.4.4,0,0,0-.16.37c0-.05.21-.14.29,0l-.31.12a12.32,12.32,0,0,0,.17,1.91A4.43,4.43,0,0,0,58.7,24a1.68,1.68,0,0,1,.59-.12c.2-.28-.2-.49-.34-.66l.19-.69c.09-.28.23,0,.33,0h0a.33.33,0,0,0-.14-.4c-.41,0-.29.5-.44.75-.13-.32-.15-.73-.53-.86l-.16.23c.08.1.18.28.33.2"/><path class="cls-2" d="M32.33,23.34a.71.71,0,0,0,.25-.46c-.09.05-.12.23-.25.19-.21-.29,0-.7.07-1a1.87,1.87,0,0,0-.27,1.05c0,.1.08.21.2.2"/><path class="cls-2" d="M54.94,22.14c-.84.14-1.69.23-2.5.44l0,.2,2.5-.48,0-.15Z"/><path class="cls-2" d="M45.08,23.37l2.48-.69.09-.17-1.53.37c-.33.18-.91.06-1,.49"/><path class="cls-2" d="M28.23,23.11l.16.11a.29.29,0,0,0,.07-.24l-.12-.14c-.42.1-.32.6-.47.91a1.44,1.44,0,0,0-.3-.59c-.08,0-.2-.14-.26,0s-.2.24,0,.34.19.05.23,0a1,1,0,0,1,.27.73,12.82,12.82,0,0,1-1.53,1.28,4.41,4.41,0,0,0,1.17-.71c.57-.42.44-1.17.82-1.66"/><path class="cls-2" d="M19.63,23.6c-.08.07-.15.25-.28.25-.16-.31,0-.68.1-1a1.48,1.48,0,0,0-.18,1.27c.28,0,.28-.33.36-.51"/><path class="cls-2" d="M46.58,23.88l2.52-.64,0-.15c-.84.17-1.67.36-2.47.59l-.1.2Z"/><path class="cls-2" d="M25.64,24.05l.17.06c.36-.29-.33-.33,0-.64,0-.12,0-.28-.14-.26a.72.72,0,0,0-.44.57c0,.13.18.17.26.25-.39.51-1,.79-1.4,1.22a4.34,4.34,0,0,0,1.57-1.19m-.23-.46c0-.11.21-.18.21,0v.13a.3.3,0,0,1-.21-.12"/><path class="cls-2" d="M35.13,24.69a1,1,0,0,0,.23-.46.44.44,0,0,0-.23-.15c-.43-.12.08-.35,0-.56l-.48-.3-.23.46.23.14c.4.08,0,.36,0,.56l.5.31Z"/><path class="cls-2" d="M22.37,23.93a.22.22,0,0,0,.31,0,1.47,1.47,0,0,1,.3.66c.19-.29.14-.69.31-1,.06-.13.16,0,.25,0s.06-.16.06-.28a.25.25,0,0,0-.18-.11c-.33.18-.28.59-.38.9-.08,0-.06-.13-.1-.2s-.18-.39-.43-.39c-.34.76-1.18,1.23-1.79,1.76a3.32,3.32,0,0,0,1.63-1.42"/><path class="cls-2" d="M15.75,26.55a6.92,6.92,0,0,0,1.13-.82c.56-.45.55-1.14.78-1.73.05-.09.14-.09.18,0s.11-.12.13-.2a.24.24,0,0,0-.17-.15c-.36.2-.29.68-.44,1a1,1,0,0,0-.28-.56h-.26c0,.12-.2.22-.07.33s.23.1.26,0a1.33,1.33,0,0,1,.3.66,14.72,14.72,0,0,1-1.56,1.5"/><path class="cls-2" d="M31,23.9c-.18.23.16.57-.15.76s-.12-.43-.26-.63l-.12.13c0,.17,0,.36.07.59,0,.07.09.19.19.15a.46.46,0,0,0,.3-.29l.13.14c.08,0,.18,0,.23-.05.28-.29-.05-.6-.06-.92-.18.23,0,.46.08.68-.46.26-.22-.45-.43-.6"/><path class="cls-2" d="M20.55,23.85c-.85.43-1.66,1-2.5,1.46l-.06.25,2.43-1.5.13-.21Z"/><path class="cls-2" d="M62.49,29.65l-.27-4.29.05-.05.25.28A7.31,7.31,0,0,0,62,24.1l-.18.44c.18,2,.35,4.1.36,6.11a2.06,2.06,0,0,0,.3-1"/><path class="cls-2" d="M46.15,25.28a.23.23,0,0,0,.23.2.51.51,0,0,0,.2-.43c0,.08-.14.21-.23.18-.22-.31,0-.71.06-1a1.75,1.75,0,0,0-.26,1"/><path class="cls-2" d="M61,25.53a.41.41,0,0,0,.2-.4.24.24,0,0,1-.22.15c-.26-.3,0-.71,0-1a1.7,1.7,0,0,0-.28,1,.37.37,0,0,0,.25.25"/><path class="cls-2" d="M55,24.92c.08,0,0,.16.15.15s.17-.05.13-.15-.24-.2-.41-.26-.74-.12-.92.13c.2.46.89.61.95,1.12a5.82,5.82,0,0,1-1.38-1.16c-.05.66.76.94,1.19,1.27a.34.34,0,0,0,.39-.15c.07-.57-.71-.64-.9-1.12a1.22,1.22,0,0,1,.82.17"/><path class="cls-2" d="M29,25.76c0,.11.09.26.23.23a.66.66,0,0,0,.2-.45c-.08.07-.11.22-.23.2-.21-.33,0-.72.08-1a1.89,1.89,0,0,0-.28,1"/><path class="cls-2" d="M51.32,25.2l-.21.41.41.35-.2.38a6.11,6.11,0,0,0,.51.41.87.87,0,0,0,.2-.41,3.22,3.22,0,0,0-.38-.35c0-.1.08-.13.11-.21.19-.3-.28-.45-.44-.6"/><path class="cls-2" d="M19,26c-.06.08-.18.18-.11.28s-.05.46.16.57.33-.2.41-.33l.12.13c.13,0,.21,0,.28-.13.16-.28,0-.59-.13-.84-.23.28.18.51,0,.74-.41.05-.13-.42-.31-.59-.3.17.2.58-.2.79-.41,0-.07-.46-.25-.59"/><path class="cls-2" d="M56.49,27.06c0,.15.07.35.27.33A.42.42,0,0,0,57,27l-.18.15c-.33-.27-.05-.7,0-1a1.71,1.71,0,0,0-.29.89"/><path class="cls-2" d="M58.85,27.62c0,.08.13.2.21.2s.18-.32.2-.4-.1.17-.2.15c-.31-.31,0-.67,0-1a1.5,1.5,0,0,0-.26,1"/><path class="cls-2" d="M17.13,27.26a1.63,1.63,0,0,0,.46.15,1.11,1.11,0,0,0,.2-.51l-.48-.19-.2.38-.49-.15-.2.52.48.19c.13-.11.11-.31.25-.39"/><path class="cls-2" d="M15.66,28.64c.22-.08.27-.38.27-.51a.44.44,0,0,1-.23.25c-.2-.32,0-.71.09-1a2.12,2.12,0,0,0-.29,1.1c0,.08.06.18.16.16"/><path class="cls-2" d="M44.85,28c.11-.27-.3-.37-.46-.53l-.23.44.41.32c.16.11.18-.15.28-.23"/><path class="cls-2" d="M31.72,28.1v-.18l-.26.31c-1-.21-1.25,1-2,1.33.38-.06.59-.46.87-.7.3-.55.91-.12,1.24-.56a.29.29,0,0,0,.39-.09c0-.13.13-.34,0-.44-.05.08-.11.18-.05.28s-.16,0-.23.05"/><path class="cls-2" d="M32.63,28.94a.16.16,0,0,0,.16.15.53.53,0,0,0,.25-.47.28.28,0,0,1-.23.2c-.25-.29,0-.66.08-1a1.66,1.66,0,0,0-.26,1.1"/><path class="cls-2" d="M48.11,29.61a1.06,1.06,0,0,0,1-.15c-.34,0-.8.12-1.07-.11-.05-.46.68-.59.73-1-.18.08-.45.33-.63,0l.05-.11c0-.14.21-.1.23,0,.05-.08.12-.12.13-.2s-.11-.13-.18-.13-.41.31-.41.54a.61.61,0,0,0,.23.25l-.21.33c-.07.15-.14.43.08.54"/><polygon class="cls-2" points="33.88 29.32 36.38 28.21 36.4 28.07 33.94 29.09 33.88 29.32"/><path class="cls-2" d="M42.54,28.66l-.49-.32-.2.45.49.33.2-.31c.15.11.31.23.48.34l.16-.25c.22-.34-.28-.37-.42-.56l-.2.32Z"/><path class="cls-2" d="M26.85,30.12a1.25,1.25,0,0,0,.85-.44c-.33.11-.67.34-1.05.15,0-.51.74-.71.72-1.22l-.21.25a.3.3,0,0,1-.38,0l0-.15c.07-.1.18-.12.25,0l.1-.23-.05-.08a.93.93,0,0,0-.53.64c0,.14.13.15.22.22a1.34,1.34,0,0,0-.27.69.25.25,0,0,0,.32.2"/><path class="cls-2" d="M28.58,29.53c0,.1.06.23.19.2s.18-.3.25-.46l-.21.21c-.32-.25,0-.71,0-1a2.07,2.07,0,0,0-.26,1.05"/><path class="cls-2" d="M50.25,29.68a.21.21,0,0,0,.21.18.41.41,0,0,0,.2-.4c0,.07-.11.17-.2.15-.31-.28,0-.67,0-1a1.41,1.41,0,0,0-.26,1.05"/><path class="cls-2" d="M53.18,30.09a.76.76,0,0,0,.54-.66.23.23,0,0,0-.28-.2.31.31,0,0,0-.13.27h0a.13.13,0,0,1,.2.05c0,.24-.23.39-.38.56"/><path class="cls-2" d="M56.74,31.06a.25.25,0,0,0,.25.18.43.43,0,0,0,.18-.38L57,31c-.28-.29,0-.67,0-1a1.42,1.42,0,0,0-.26,1"/><path class="cls-2" d="M61,31h0c.21-.1.51-.33.49-.61s-.16-.21-.3-.21a.32.32,0,0,0-.13.24.2.2,0,0,1,.27.07c.05.25-.27.36-.38.53"/><path class="cls-2" d="M18.92,30.63c-.05.2-.19,0-.31,0-.36-.26-.33.3-.46.45l.51.19.2-.38.46.19c.08-.17.23-.33.21-.51l-.47-.2-.15.29Z"/><path class="cls-2" d="M59.19,31.7l.15,0c.21-.14.46-.37.4-.66a.22.22,0,0,0-.23-.15c-.15,0-.17.16-.15.26h0a.19.19,0,0,1,.23.07c0,.24-.28.36-.41.54"/><path class="cls-2" d="M17.38,31.87c0,.11.08.23.21.18a.78.78,0,0,0,.23-.51c-.08.1-.13.26-.26.23-.18-.35.06-.66.11-1a2,2,0,0,0-.29,1.07"/><path class="cls-2" d="M62.39,31.92h.06c.07,0,.17,0,.2.1s-.25.34-.41.51c.08,0,.11,0,.15-.05.21-.13.46-.35.39-.64a.31.31,0,0,0-.24-.15c-.14,0-.17.13-.17.25"/><polygon class="cls-7" points="66.01 35.08 66.01 35.08 65.96 35.1 66.01 35.08"/><path class="cls-8" d="M44.44,13.26c2.22-.33,3.72,2.42,3.72,2.42-.3-4.4-5-3.76-5-3.76,1.19-.93,3.59.25,3.59.25a4,4,0,0,0-4.25-1.74c.3-.56,2.09-.45,2.09-.45-1.63-1.6-3.52,0-3.52,0a5.4,5.4,0,0,0-.66-2.27A5.11,5.11,0,0,0,39.79,10s-1.91-1.61-3.52,0c0,0,1.79-.13,2.09.45a4,4,0,0,0-4.25,1.74s2.4-1.18,3.59-.25c0,0-4.68-.65-5,3.76,0,0,1.5-2.75,3.72-2.42,0,0-4.76,1.35-2.48,5.58,0,0-.12-3.51,2.62-4.31,0,0-3.61,2.88-.37,5.3,0,0-.67-2.73,1.22-4a5.26,5.26,0,0,0,1.27,5.65s-.53-2.62,1.14-4.07V22c0,.66-.07,1.43-.1,2,0,1-.12,1.78-.12,1.81a7.77,7.77,0,0,0-.15,1.07h0v.69s-.06.22-.06.22v.05a.66.66,0,0,0-.15.43.62.62,0,0,0,.15.39l-.17,3.23a6.1,6.1,0,0,0-.87,1.38l-.06.15h4.21l-.06-.15a6.55,6.55,0,0,0-.88-1.38l-.16-3.23a.57.57,0,0,0,.15-.39,1,1,0,0,0-.12-.43l0-.12-.05-.15v-.42a1.26,1.26,0,0,0,0-.27h0a5.11,5.11,0,0,0-.15-1.07s0-.79-.12-1.83c0-.57-.08-1.35-.1-2V17.43c1.68,1.43,1.14,4.06,1.14,4.06a5.26,5.26,0,0,0,1.27-5.65c1.87,1.26,1.22,4,1.22,4,3.24-2.43-.37-5.3-.37-5.3,2.74.79,2.62,4.32,2.62,4.32,2.28-4.24-2.48-5.59-2.48-5.59"/><path class="cls-2" d="M44.44,13.26c2.22-.33,3.72,2.42,3.72,2.42-.3-4.4-5-3.76-5-3.76,1.19-.93,3.59.25,3.59.25a4,4,0,0,0-4.25-1.74c.3-.56,2.09-.45,2.09-.45-1.63-1.6-3.52,0-3.52,0a5.4,5.4,0,0,0-.66-2.27A5.11,5.11,0,0,0,39.79,10s-1.91-1.61-3.52,0c0,0,1.79-.13,2.09.45a4,4,0,0,0-4.25,1.74s2.4-1.18,3.59-.25c0,0-4.68-.65-5,3.76,0,0,1.5-2.75,3.72-2.42,0,0-4.76,1.35-2.48,5.58,0,0-.12-3.51,2.62-4.31,0,0-3.61,2.88-.37,5.3,0,0-.67-2.73,1.22-4a5.26,5.26,0,0,0,1.27,5.65s-.53-2.62,1.14-4.07V22c0,.66-.07,1.43-.1,2,0,1-.12,1.78-.12,1.81a7.77,7.77,0,0,0-.15,1.07h0v.69s-.06.22-.06.22v.05a.66.66,0,0,0-.15.43.62.62,0,0,0,.15.39l-.17,3.23a6.1,6.1,0,0,0-.87,1.38l-.06.15h4.21l-.06-.15a6.55,6.55,0,0,0-.88-1.38l-.16-3.23a.57.57,0,0,0,.15-.39,1,1,0,0,0-.12-.43l0-.12-.05-.15v-.42a1.26,1.26,0,0,0,0-.27h0a5.11,5.11,0,0,0-.15-1.07s0-.79-.12-1.83c0-.57-.08-1.35-.1-2V17.43c1.68,1.43,1.14,4.06,1.14,4.06a5.26,5.26,0,0,0,1.27-5.65c1.87,1.26,1.22,4,1.22,4,3.24-2.43-.37-5.3-.37-5.3,2.74.79,2.62,4.32,2.62,4.32,2.28-4.24-2.48-5.59-2.48-5.59Z"/><path class="cls-8" d="M51.27,33.17c-.71.13-1.42.28-2.11.46a21.45,21.45,0,0,0-2.34.79,20.09,20.09,0,0,0-2.45,1.24,23.56,23.56,0,0,0-2.52,1.74c-.89.69-1.73,1.44-2.55,2.19L38,40.81l-.94.91-.19.16-.05,0,0,.07a1,1,0,0,0,.71.64h.06l0,0,.08-.13a2.84,2.84,0,0,1,.26-.31,1.28,1.28,0,0,1,.88-.45.53.53,0,0,1,.21,0,1,1,0,0,1,.71.93,1.18,1.18,0,0,1-.69,1h0l-.08,0a1.46,1.46,0,0,1-.35,0,3.24,3.24,0,0,1-2.3-1.33l-.07-.07-.07,0-.21.15-1.32.79a3.17,3.17,0,0,1-1.53.48,1.14,1.14,0,0,1-1.28-1.09.78.78,0,0,1,0-.3.85.85,0,0,1,.88-.67,1.05,1.05,0,0,1,.49.1,1,1,0,0,1,.25.18l.11.11h0s0,0,0,0l.18,0H34c.18,0,.64-.12,1.64-1l0,0v-.05h0a.9.9,0,0,0-.28-.71l-.05-.05-.07,0-.08,0-.21.08a2.28,2.28,0,0,1-.66.13,1,1,0,0,1-.73-.28.94.94,0,0,1-.26-.66,1,1,0,0,1,1.13-1h.14a1.11,1.11,0,0,1,.92.75c.2.42.31.89.46,1.24l.05.15.11-.12.17-.16h0c8-8.8,17.13-7.76,17.34-7.74a5.92,5.92,0,0,0-.62.06c-.58.07-1.16.15-1.73.27"/><path class="cls-6" d="M51.27,33.17c-.71.13-1.42.28-2.11.46a21.45,21.45,0,0,0-2.34.79,20.09,20.09,0,0,0-2.45,1.24,23.56,23.56,0,0,0-2.52,1.74c-.89.69-1.73,1.44-2.55,2.19L38,40.81l-.94.91-.19.16-.05,0,0,.07a1,1,0,0,0,.71.64h.06l0,0,.08-.13a2.84,2.84,0,0,1,.26-.31,1.28,1.28,0,0,1,.88-.45.53.53,0,0,1,.21,0,1,1,0,0,1,.71.93,1.18,1.18,0,0,1-.69,1h0l-.08,0a1.46,1.46,0,0,1-.35,0,3.24,3.24,0,0,1-2.3-1.33l-.07-.07-.07,0-.21.15-1.32.79a3.17,3.17,0,0,1-1.53.48,1.14,1.14,0,0,1-1.28-1.09.78.78,0,0,1,0-.3.85.85,0,0,1,.88-.67,1.05,1.05,0,0,1,.49.1,1,1,0,0,1,.25.18l.11.11h0s0,0,0,0l.18,0H34c.18,0,.64-.12,1.64-1l0,0v-.05h0a.9.9,0,0,0-.28-.71l-.05-.05-.07,0-.08,0-.21.08a2.28,2.28,0,0,1-.66.13,1,1,0,0,1-.73-.28.94.94,0,0,1-.26-.66,1,1,0,0,1,1.13-1h.14a1.11,1.11,0,0,1,.92.75c.2.42.31.89.46,1.24l.05.15.11-.12.17-.16h0c8-8.8,17.13-7.76,17.34-7.74a5.92,5.92,0,0,0-.62.06c-.58.07-1.16.15-1.73.27Z"/><path class="cls-8" d="M29.6,33.17c.7.13,1.41.28,2.1.46a20.75,20.75,0,0,1,2.34.79,19.52,19.52,0,0,1,2.46,1.24A23.56,23.56,0,0,1,39,37.4c.89.69,1.73,1.44,2.55,2.19l1.28,1.22.94.91.2.16,0,0L44,42a1,1,0,0,1-.71.64h-.07l0,0-.08-.13a3.1,3.1,0,0,0-.27-.31A1.24,1.24,0,0,0,42,41.7a.51.51,0,0,0-.21,0,1,1,0,0,0-.71.93,1.18,1.18,0,0,0,.69,1h0l.09,0a1.29,1.29,0,0,0,.34,0,3.25,3.25,0,0,0,2.31-1.33l.06-.07.07,0,.21.15,1.32.79a3.23,3.23,0,0,0,1.53.48A1.15,1.15,0,0,0,49,42.74a.63.63,0,0,0,0-.3.85.85,0,0,0-.87-.67,1.07,1.07,0,0,0-.5.1,1.19,1.19,0,0,0-.25.18l-.11.11h0s0,0,0,0l-.18,0h-.08c-.19,0-.65-.12-1.65-1l0,0v-.05h0a.9.9,0,0,1,.28-.71l.05-.05.06,0,.08,0,.22.08a2.21,2.21,0,0,0,.66.13,1,1,0,0,0,.72-.28.94.94,0,0,0,.26-.66,1,1,0,0,0-1.13-1H46.3a1.12,1.12,0,0,0-.93.75c-.19.42-.31.89-.46,1.24l0,.15-.11-.12-.17-.16h0c-8-8.8-17.12-7.76-17.34-7.74a6.12,6.12,0,0,1,.63.06c.57.07,1.15.15,1.73.27"/><path class="cls-6" d="M29.6,33.17c.7.13,1.41.28,2.1.46a20.75,20.75,0,0,1,2.34.79,19.52,19.52,0,0,1,2.46,1.24A23.56,23.56,0,0,1,39,37.4c.89.69,1.73,1.44,2.55,2.19l1.28,1.22.94.91.2.16,0,0L44,42a1,1,0,0,1-.71.64h-.07l0,0-.08-.13a3.1,3.1,0,0,0-.27-.31A1.24,1.24,0,0,0,42,41.7a.51.51,0,0,0-.21,0,1,1,0,0,0-.71.93,1.18,1.18,0,0,0,.69,1h0l.09,0a1.29,1.29,0,0,0,.34,0,3.25,3.25,0,0,0,2.31-1.33l.06-.07.07,0,.21.15,1.32.79a3.23,3.23,0,0,0,1.53.48A1.15,1.15,0,0,0,49,42.74a.63.63,0,0,0,0-.3.85.85,0,0,0-.87-.67,1.07,1.07,0,0,0-.5.1,1.19,1.19,0,0,0-.25.18l-.11.11h0s0,0,0,0l-.18,0h-.08c-.19,0-.65-.12-1.65-1l0,0v-.05h0a.9.9,0,0,1,.28-.71l.05-.05.06,0,.08,0,.22.08a2.21,2.21,0,0,0,.66.13,1,1,0,0,0,.72-.28.94.94,0,0,0,.26-.66,1,1,0,0,0-1.13-1H46.3a1.12,1.12,0,0,0-.93.75c-.19.42-.31.89-.46,1.24l0,.15-.11-.12-.17-.16h0c-8-8.8-17.12-7.76-17.34-7.74a6.12,6.12,0,0,1,.63.06c.57.07,1.15.15,1.73.27Z"/><path class="cls-9" d="M63.13,56.61a12.32,12.32,0,0,1-2.42,3.19,10.27,10.27,0,0,1-7.2,2.85,9.88,9.88,0,0,1-7.26-3.14,11.25,11.25,0,0,1-1.55-2.16,7.33,7.33,0,0,1-.35-.71h0s18.81,0,18.81,0Z"/><path class="cls-6" d="M63.13,56.61a12.32,12.32,0,0,1-2.42,3.19,10.27,10.27,0,0,1-7.2,2.85,9.88,9.88,0,0,1-7.26-3.14,11.25,11.25,0,0,1-1.55-2.16,7.33,7.33,0,0,1-.35-.71h0s18.81,0,18.81,0Z"/><polygon class="cls-5" points="53.73 32.87 44.3 56.34 63.15 56.34 53.73 32.87"/><path class="cls-9" d="M36.63,56.61a12.32,12.32,0,0,1-2.42,3.19A10.27,10.27,0,0,1,27,62.65a9.88,9.88,0,0,1-7.26-3.14,11.25,11.25,0,0,1-1.55-2.16,7.33,7.33,0,0,1-.35-.71h0s18.81,0,18.81,0Z"/><path class="cls-6" d="M36.63,56.61a12.32,12.32,0,0,1-2.42,3.19A10.27,10.27,0,0,1,27,62.65a9.88,9.88,0,0,1-7.26-3.14,11.25,11.25,0,0,1-1.55-2.16,7.33,7.33,0,0,1-.35-.71h0s18.81,0,18.81,0Z"/><polygon class="cls-5" points="27.23 32.87 17.8 56.34 36.65 56.34 27.23 32.87"/></g></g></svg>