<svg xmlns="http://www.w3.org/2000/svg" viewBox="0 0 214 59.61"><defs><style>.cls-1{fill:#c9c9c9;}</style></defs><g id="Layer_2" data-name="Layer 2"><g id="Layer_1-2" data-name="Layer 1"><path class="cls-1" d="M5.32,3.9A1.21,1.21,0,0,1,6.55,2.73,1.16,1.16,0,0,1,7.7,3.9,1.21,1.21,0,0,1,6.55,5.13,1.3,1.3,0,0,1,5.32,3.9m5.42,3.61h2V18.17c0,3.42-3.29,4.84-6.33,4.84C3.53,23,.08,21.62.08,18.17V13l2-1.28V18c0,2.3,2.24,3.08,4.33,3.08s4.35-.89,4.35-3Z"/><path class="cls-1" d="M20.87,9.46H18.92c-1,0-1.39.45-1.39,1.5v3.23c0,1.33.61,1.49,1.82,1.49h1.52ZM16.49,21.22h.29c2.32,0,4.09-.7,4.09-3v-.61H19.18c-2.16,0-3.66-1.05-3.66-3.45V11A3.17,3.17,0,0,1,19,7.51h3.88V17.88c0,3.23-1.42,4.83-5.05,5.1Z"/><path class="cls-1" d="M31,9.46H29c-1,0-1.38.45-1.38,1.5v3.23c0,1.33.61,1.49,1.81,1.49H31ZM27.44,5.1V4.3h.88a1.65,1.65,0,0,1-.24-.83A1.49,1.49,0,0,1,29.66,1.9h.85v.8H30c-.66,0-1,.27-1,.8s.43.83,1,.83H31.1v.8H27.44ZM33,17.64v.24c0,3.23-1.41,4.83-5,5.1l-1.31-1.76h.3c2.32,0,4.09-.7,4.09-3v-.61H29.31c-2.16,0-3.66-1.05-3.66-3.45V11A3.17,3.17,0,0,1,29.1,7.51H33v8.17h1.2v2Z"/><rect class="cls-1" x="34.04" y="15.68" width="5.34" height="1.95"/><rect class="cls-1" x="39.22" y="15.68" width="3.29" height="1.95"/><rect class="cls-1" x="42.35" y="15.68" width="3.29" height="1.95"/><rect class="cls-1" x="45.5" y="15.68" width="3.29" height="1.95"/><rect class="cls-1" x="48.63" y="15.68" width="3.29" height="1.95"/><rect class="cls-1" x="51.78" y="15.68" width="3.29" height="1.95"/><rect class="cls-1" x="54.91" y="15.68" width="3.29" height="1.95"/><path class="cls-1" d="M70,2.43a1.18,1.18,0,0,1-1.17-1.2,1.18,1.18,0,1,1,2.35,0A1.21,1.21,0,0,1,70,2.43M71.61,5.1a1.2,1.2,0,1,1,0-2.4,1.18,1.18,0,0,1,1.18,1.23A1.17,1.17,0,0,1,71.61,5.1m-3,0a1.23,1.23,0,0,1-1.23-1.17A1.24,1.24,0,0,1,68.59,2.7a1.2,1.2,0,0,1,1.18,1.23A1.17,1.17,0,0,1,68.59,5.1M58.06,17.64v-2h5.72V7.51H65.7v8.17h3.42V7.51h2v8.17h3.39V7.51h2v8.17h.83v2Z"/><path class="cls-1" d="M77.11,17.64v-2h.78c1.07,0,1.55-.34,1.55-1.49V3.39h2v11c0,1.92-1,3.29-3.45,3.29Z"/><polygon class="cls-1" points="84.22 18.73 84.22 3.39 86.2 3.39 86.2 17.64 84.22 18.73"/><path class="cls-1" d="M96.83,3.9a1.18,1.18,0,0,1,2.35,0,1.18,1.18,0,1,1-2.35,0m1.34,5.56h-2c-.83,0-1.42.29-1.42,1.5v3.28c0,1.15.78,1.47,1.69,1.47s1.68-.29,1.68-1.47ZM93.81,3.9A1.21,1.21,0,0,1,95,2.73,1.23,1.23,0,0,1,96.25,3.9a1.22,1.22,0,1,1-2.44,0m6.34,10.29c0,2.62-1.82,3.45-3.66,3.45-2,0-3.66-1.05-3.66-3.51V11a3.15,3.15,0,0,1,3.39-3.45h3.93Z"/><path class="cls-1" d="M102.07,21.24c2-.64,2.43-1.44,2.43-3.31V7.54h2v11a4.61,4.61,0,0,1-3,4.46Z"/><polygon class="cls-1" points="109.28 18.73 109.28 3.39 111.29 3.39 111.29 17.64 109.28 18.73"/><path class="cls-1" d="M115.43,3.9a1.19,1.19,0,0,1,1.18-1.2,1.18,1.18,0,0,1,1.14,1.2,1.21,1.21,0,0,1-1.14,1.23,1.25,1.25,0,0,1-1.18-1.23m-2.24,17.34c2-.64,2.43-1.44,2.43-3.31V7.54h1.95v11a4.61,4.61,0,0,1-3,4.46Z"/><path class="cls-1" d="M125.77,9.46h-2c-1,0-1.39.45-1.39,1.5v3.23c0,1.33.62,1.49,1.82,1.49h1.52Zm-4.41,11.76h.3c2.32,0,4.08-.7,4.08-3v-.61h-1.68c-2.16,0-3.66-1.05-3.66-3.45V11a3.17,3.17,0,0,1,3.45-3.45h3.87V17.88c0,3.23-1.39,4.83-5,5.1Z"/><path class="cls-1" d="M4,27.36a1.21,1.21,0,0,1,2.41,0,1.27,1.27,0,0,1-1.21,1.23A1.26,1.26,0,0,1,4,27.36M5.32,33H3.37C2.54,33,2,33.24,2,34.39V37.7c0,.88.24,1.47,1.52,1.47H5.32ZM1,27.36a1.21,1.21,0,0,1,1.23-1.17,1.19,1.19,0,0,1,1.18,1.17,1.25,1.25,0,0,1-1.18,1.23A1.27,1.27,0,0,1,1,27.36M5.32,41.1V39.81L4.38,41.1H3.66C1.23,41.1,0,39.81,0,37.65V34.42A3.2,3.2,0,0,1,3.45,31H7.32v8.17h1.2v2Z"/><rect class="cls-1" x="8.36" y="39.14" width="3.29" height="1.95"/><path class="cls-1" d="M15.1,45.26a1.18,1.18,0,0,1,2.35,0,1.15,1.15,0,0,1-1.15,1.18,1.17,1.17,0,0,1-1.2-1.18m-1.82,1.18a1.18,1.18,0,1,1,0-2.35,1.18,1.18,0,1,1,0,2.35M11.52,41.1v-2h2.37c1,0,1.45-.45,1.45-1.33V31h1.95V37.7c0,2.41-1.63,3.4-3.53,3.4Z"/><path class="cls-1" d="M25.41,33H23.46c-1,0-1.39.45-1.39,1.49v3.24c0,1.33.62,1.49,1.82,1.49h1.52ZM21,44.68h.29c2.33,0,4.09-.7,4.09-3V41.1H23.73c-2.17,0-3.66-1.05-3.66-3.45V34.42A3.17,3.17,0,0,1,23.51,31h3.88V41.34c0,3.23-1.42,4.83-5.05,5.1Z"/><path class="cls-1" d="M29.31,44.7c2-.64,2.43-1.44,2.43-3.31V31h1.95v8.17h1.23v1.95H33.69V42a4.6,4.6,0,0,1-3,4.47Z"/><rect class="cls-1" x="34.76" y="39.14" width="3.29" height="1.95"/><path class="cls-1" d="M44.11,27.36a1.23,1.23,0,0,1,1.23-1.17,1.21,1.21,0,0,1,1.21,1.17,1.26,1.26,0,0,1-1.21,1.23,1.31,1.31,0,0,1-1.23-1.23M45.5,33h-2c-.82,0-1.41.29-1.41,1.49v4.73H45.5V33Zm-4.38-5.59a1.21,1.21,0,0,1,1.23-1.17,1.16,1.16,0,0,1,1.15,1.17,1.21,1.21,0,0,1-1.15,1.23,1.28,1.28,0,0,1-1.23-1.23M37.92,41.1v-2h2.24V34.42A3.16,3.16,0,0,1,43.55,31h3.93v8.17h1.2v2Z"/><path class="cls-1" d="M48.55,41.1v-2h.75c1.07,0,1.55-.34,1.55-1.49V26.85H52.8v11c0,1.92-1,3.29-3.45,3.29Z"/><polygon class="cls-1" points="55.66 42.22 55.66 26.88 57.63 26.88 57.63 41.09 55.66 42.22"/><path class="cls-1" d="M65.76,33h-2c-1,0-1.42.45-1.42,1.49v3.24c0,1.33.62,1.49,1.82,1.49h1.52V33ZM61.38,44.68h.29c2.32,0,4.09-.7,4.09-3V41.1H64.07c-2.16,0-3.66-1.05-3.66-3.45V34.42A3.17,3.17,0,0,1,63.86,31h3.88V41.34c0,3.23-1.39,4.83-5.06,5.1Z"/><path class="cls-1" d="M78.4,27.36a1.2,1.2,0,0,1,2.4,0,1.2,1.2,0,1,1-2.4,0M79.73,33h-2c-.83,0-1.39.29-1.39,1.44V37.7c0,.88.24,1.47,1.53,1.47h1.81Zm-4.35-5.59a1.22,1.22,0,0,1,2.43,0,1.22,1.22,0,1,1-2.43,0M79.73,41.1V39.81L78.8,41.1h-.72c-2.44,0-3.66-1.29-3.66-3.45V34.42A3.19,3.19,0,0,1,77.86,31h3.88v8.17h1.17v2Z"/><rect class="cls-1" x="82.78" y="39.14" width="3.1" height="1.95"/><path class="cls-1" d="M89.32,45.26a1.17,1.17,0,0,1,1.21-1.17,1.18,1.18,0,0,1,0,2.35,1.18,1.18,0,0,1-1.21-1.18m-1.81,1.18a1.18,1.18,0,1,1,1.17-1.18,1.17,1.17,0,0,1-1.17,1.18M85.74,41.1v-2h2.38c1,0,1.45-.45,1.45-1.33V31h2V37.7c0,2.41-1.61,3.4-3.53,3.4Z"/><path class="cls-1" d="M94.29,41.1v-2h5.88V35.86a2.59,2.59,0,0,0-2.86-2.94H96V31h1.45a4.49,4.49,0,0,1,4.67,4.67v3.5h1.23v2Z"/><rect class="cls-1" x="103.17" y="39.14" width="3.29" height="1.95"/><polygon class="cls-1" points="106.32 41.09 106.32 39.15 108.62 39.15 108.62 26.85 110.54 26.85 110.54 39.15 111.77 39.15 111.77 41.09 106.32 41.09"/><path class="cls-1" d="M115.24,45.26a1.17,1.17,0,0,1,1.21-1.17,1.18,1.18,0,0,1,0,2.35,1.16,1.16,0,0,1-1.21-1.18m-3.6-4.16v-2h3.82V31h2v8.17h1.23v2Z"/><path class="cls-1" d="M118.48,41.1v-2h.77c1.07,0,1.55-.34,1.55-1.49V26.85h2v11c0,1.92-1,3.29-3.45,3.29Z"/><polygon class="cls-1" points="125.58 42.22 125.58 26.88 127.56 26.88 127.56 41.09 125.58 42.22"/><polygon class="cls-1" points="5 57.9 5 53.09 3.47 57.9 2.46 57.9 0.94 53.09 0.94 57.9 0.16 57.9 0.16 52.1 1.42 52.1 2.97 57.18 4.54 52.1 5.77 52.1 5.77 57.9 5 57.9"/><path class="cls-1" d="M8.31,57.85a1.5,1.5,0,0,1-.69.13A.6.6,0,0,1,7,57.37V53.79h.83v3.39c0,.13,0,.21.18.21a.9.9,0,0,0,.22,0ZM7.37,53a.52.52,0,1,1,0-1,.54.54,0,0,1,.54.53.51.51,0,0,1-.54.51"/><path class="cls-1" d="M13,57.85a1.5,1.5,0,0,1-.67.13.62.62,0,0,1-.7-.61V55.12c0-.53-.13-.66-.53-.66A2.43,2.43,0,0,0,9.75,55V57.9H8.92V53.79h.83v.56a2.43,2.43,0,0,1,1.47-.62c.78,0,1.23.19,1.23,1.34v2.11c0,.13.05.21.19.21a.86.86,0,0,0,.21,0Z"/><path class="cls-1" d="M15,57.85a1.5,1.5,0,0,1-.69.13.6.6,0,0,1-.67-.61V53.79h.83v3.39c0,.13.05.21.19.21a.86.86,0,0,0,.21,0ZM14,53a.52.52,0,1,1,0-1,.53.53,0,0,1,.53.53A.49.49,0,0,1,14,53"/><path class="cls-1" d="M15.63,57.07a2.94,2.94,0,0,0,1.1.24c.58,0,1-.13,1-.58,0-.75-2.14-.56-2.14-1.87,0-.91.85-1.15,1.63-1.15a2.81,2.81,0,0,1,1.17.21l-.13.67a2.31,2.31,0,0,0-1-.21c-.56,0-.82.13-.82.42,0,.67,2.13.48,2.13,1.93,0,.77-.74,1.25-1.65,1.25a5,5,0,0,1-1.42-.18Z"/><path class="cls-1" d="M21.43,57.82a2.12,2.12,0,0,1-.94.16c-.56,0-.85-.24-.85-1.07V54.43H19l.13-.67h.54V52.67l.83-.27v1.39h.85v.67h-.85v2.37c0,.43.1.48.42.48a1.08,1.08,0,0,0,.41-.1Z"/><path class="cls-1" d="M22.15,57.9V53.79H23v.53a.93.93,0,0,1,.77-.61,1.63,1.63,0,0,1,.78.21l-.16.7a1.94,1.94,0,0,0-.7-.14c-.37,0-.61.38-.72.56v2.89h-.8Z"/><path class="cls-1" d="M24.8,53.79h.88l1.07,3,.91-3h.9l-1.47,4.27c-.42,1.23-.82,1.55-1.57,1.55a2.26,2.26,0,0,1-.86-.16l.16-.69a1.94,1.94,0,0,0,.7.13c.21,0,.53,0,.88-1.09Z"/><path class="cls-1" d="M33.77,55.87c0-1.28-.48-1.52-1.12-1.52s-1.12.24-1.12,1.52.45,1.47,1.12,1.47,1.12-.21,1.12-1.47m-3.15,0c0-1.71.94-2.16,2-2.16s2,.45,2,2.16-.94,2.11-2,2.11-2-.4-2-2.11"/><path class="cls-1" d="M35.83,57.9V54.43h-.67l.14-.67h.53v-.59c0-.72.14-1.33,1.15-1.33a2.19,2.19,0,0,1,.86.13l-.16.7a1.92,1.92,0,0,0-.57-.11c-.37,0-.48.08-.48.51v.69h.91v.67h-.91V57.9Z"/><polygon class="cls-1" points="44.81 57.9 44.81 53.09 43.29 57.9 42.27 57.9 40.75 53.09 40.75 57.9 39.95 57.9 39.95 52.1 41.23 52.1 42.78 57.18 44.35 52.1 45.58 52.1 45.58 57.9 44.81 57.9"/><path class="cls-1" d="M50.71,57.85a1.55,1.55,0,0,1-.66.13.62.62,0,0,1-.7-.61A2.33,2.33,0,0,1,48,58c-.77,0-1.25-.18-1.25-1.33V53.79h.82v2.75c0,.56.17.67.54.67a2,2,0,0,0,1.28-.59V53.79h.83v3.39a.19.19,0,0,0,.21.21.9.9,0,0,0,.22,0Z"/><path class="cls-1" d="M55.39,57.85a1.47,1.47,0,0,1-.67.13.61.61,0,0,1-.69-.61V55.12c0-.53-.14-.66-.54-.66a2.36,2.36,0,0,0-1.33.58V57.9h-.83V53.79h.83v.56a2.41,2.41,0,0,1,1.47-.62c.77,0,1.23.19,1.23,1.34v2.11c0,.13,0,.21.18.21a.9.9,0,0,0,.22,0Z"/><path class="cls-1" d="M57.37,57.85a1.55,1.55,0,0,1-.7.13.6.6,0,0,1-.67-.61V53.79h.83v3.39c0,.13.06.21.19.21a.86.86,0,0,0,.21,0ZM56.43,53a.52.52,0,1,1,0-1,.52.52,0,1,1,0,1"/><path class="cls-1" d="M60.92,57.8a4.05,4.05,0,0,1-1.23.18,1.9,1.9,0,0,1-1.84-2.16,2,2,0,0,1,2-2.11,3.26,3.26,0,0,1,1.28.21l-.14.7a3.15,3.15,0,0,0-1-.19c-1.09,0-1.2.88-1.2,1.44,0,1.1.56,1.42,1.34,1.42a3.17,3.17,0,0,0,1-.19Z"/><path class="cls-1" d="M63.27,57.85a1.5,1.5,0,0,1-.69.13.6.6,0,0,1-.67-.61V53.79h.83v3.39c0,.13,0,.21.19.21a.86.86,0,0,0,.21,0ZM62.34,53a.52.52,0,1,1,0-1,.53.53,0,0,1,.53.53.52.52,0,0,1-.53.51"/><path class="cls-1" d="M64.72,56.91a1.6,1.6,0,0,0,1,.38c.75,0,1.15-.3,1.15-1.42s-.24-1.44-1-1.44a1,1,0,0,0-1.09,1.07Zm-.83,2.65V53.79h.83v.53a1.62,1.62,0,0,1,1.36-.61c.77,0,1.63.48,1.63,2.13,0,1.21-.54,2.14-1.85,2.14a1.68,1.68,0,0,1-1.14-.35v1.93Z"/><path class="cls-1" d="M71,56l-.58,0c-.67,0-1,.19-1,.75s.54.61.75.61a.88.88,0,0,0,.91-.9V56Zm1.34,1.87a1.26,1.26,0,0,1-.67.13c-.61,0-.69-.43-.69-.59a1.2,1.2,0,0,1-1.2.59c-.91,0-1.31-.45-1.31-1.2,0-1.1.88-1.42,1.84-1.42a3.85,3.85,0,0,1,.67.06V55c0-.58-.51-.61-1-.61a3.8,3.8,0,0,0-1.23.21l.13-.69a4.14,4.14,0,0,1,1.31-.22c1.07,0,1.58.32,1.58,1.53v1.92c0,.16,0,.21.21.21a.82.82,0,0,0,.22,0Z"/><path class="cls-1" d="M74.31,57.85a1.5,1.5,0,0,1-.67.13.61.61,0,0,1-.69-.61V52.1h.82v5.08c0,.13.06.21.19.21a.86.86,0,0,0,.21,0Z"/><path class="cls-1" d="M77.89,55.2c-.22.08-.64.3-.64,1.1s.56,1,1.07,1a1.57,1.57,0,0,0,1-.43,16.5,16.5,0,0,1-1.47-1.63m3.53,2.73a2.2,2.2,0,0,1-.57,0,1.42,1.42,0,0,1-1-.61,2.13,2.13,0,0,1-1.58.61c-1,0-1.87-.45-1.87-1.57a1.71,1.71,0,0,1,1.12-1.77,2.34,2.34,0,0,1-.5-1.33A1.29,1.29,0,0,1,78.42,52a3.41,3.41,0,0,1,1.37.26l-.14.75a2.62,2.62,0,0,0-1.09-.24c-.43,0-.7.14-.7.56,0,.67.46,1.23,2,2.86a3.4,3.4,0,0,0,.27-1.68H81.6l-.13.72h-.7a3.2,3.2,0,0,1-.42,1.58c.32.37.45.5.77.5a1.56,1.56,0,0,0,.4-.05Z"/><path class="cls-1" d="M86.17,55c.43,0,.91-.22.91-1.07,0-.67-.37-1.1-.91-1.1H85V55Zm1,2.88-1.13-2.14H85V57.9h-.89V52.08H86c1.41,0,2,.75,2,1.84a1.66,1.66,0,0,1-1,1.68l1.23,2.3Z"/><path class="cls-1" d="M93,57.85a1.56,1.56,0,0,1-.67.13.61.61,0,0,1-.69-.61,2.33,2.33,0,0,1-1.39.61C89.49,58,89,57.8,89,56.65V53.79h.83v2.75c0,.56.16.67.54.67a2,2,0,0,0,1.28-.59V53.79h.83v3.39a.19.19,0,0,0,.21.21.94.94,0,0,0,.22,0Z"/><path class="cls-1" d="M93.6,57.9V53.79h.83v.53a.93.93,0,0,1,.77-.61,1.66,1.66,0,0,1,.78.21l-.16.7a1.94,1.94,0,0,0-.7-.14c-.34,0-.61.38-.72.56v2.89h-.8Z"/><path class="cls-1" d="M99,56l-.59,0c-.67,0-1,.19-1,.75s.53.61.75.61a.88.88,0,0,0,.9-.9V56Zm1.33,1.87a1.24,1.24,0,0,1-.66.13c-.62,0-.7-.43-.7-.59a1.19,1.19,0,0,1-1.2.59c-.91,0-1.31-.45-1.31-1.2,0-1.1.88-1.42,1.84-1.42a3.75,3.75,0,0,1,.67.06V55c0-.58-.51-.61-1-.61a3.85,3.85,0,0,0-1.23.21l.14-.69a4,4,0,0,1,1.31-.22c1.06,0,1.57.32,1.57,1.53v1.92c0,.16.06.21.22.21a.75.75,0,0,0,.21,0Z"/><path class="cls-1" d="M102.31,57.85a1.47,1.47,0,0,1-.67.13.61.61,0,0,1-.69-.61V52.1h.83v5.08c0,.13,0,.21.18.21a.9.9,0,0,0,.22,0Z"/><path class="cls-1" d="M106.56,53.23l-.86,2.61h1.66Zm1.5,4.67-.43-1.33h-2.14l-.43,1.33h-.93l2-5.82h1l2,5.82Z"/><path class="cls-1" d="M112.81,57.9V54.43h-.67l.14-.67h.53v-.59c0-.72.14-1.33,1.15-1.33a2.19,2.19,0,0,1,.86.13l-.16.7a2.11,2.11,0,0,0-.57-.11c-.37,0-.48.08-.48.51v.69h.91v.67h-.91V57.9Zm-2.86,0V54.43h-.67l.14-.67H110v-.59c0-.72.14-1.33,1.15-1.33A2.19,2.19,0,0,1,112,52l-.16.7a2,2,0,0,0-.56-.11c-.38,0-.49.08-.49.51v.69h.91v.67h-.91V57.9Z"/><path class="cls-1" d="M117.62,56,117,56c-.66,0-1,.19-1,.75s.54.61.75.61a.88.88,0,0,0,.91-.9V56ZM119,57.85a1.3,1.3,0,0,1-.67.13c-.62,0-.7-.43-.7-.59a1.19,1.19,0,0,1-1.2.59c-.91,0-1.31-.45-1.31-1.2,0-1.1.88-1.42,1.85-1.42a3.63,3.63,0,0,1,.66.06V55c0-.58-.5-.61-1-.61a3.8,3.8,0,0,0-1.23.21l.13-.69a4,4,0,0,1,1.31-.22c1.07,0,1.58.32,1.58,1.53v1.92c0,.16,0,.21.21.21a.75.75,0,0,0,.21,0Z"/><path class="cls-1" d="M120.93,57.85a1.5,1.5,0,0,1-.69.13.6.6,0,0,1-.67-.61V53.79h.83v3.39c0,.13,0,.21.19.21a.86.86,0,0,0,.21,0ZM120,53a.52.52,0,1,1,0-1,.53.53,0,0,1,.53.53A.49.49,0,0,1,120,53"/><path class="cls-1" d="M121.58,57.9V53.79h.82v.53a.93.93,0,0,1,.78-.61,1.59,1.59,0,0,1,.77.21l-.16.7a1.84,1.84,0,0,0-.69-.14c-.38,0-.62.38-.72.56v2.89h-.8Z"/><path class="cls-1" d="M124.68,57.07a2.93,2.93,0,0,0,1.09.24c.59,0,1-.13,1-.58,0-.75-2.14-.56-2.14-1.87,0-.91.86-1.15,1.63-1.15a2.9,2.9,0,0,1,1.18.21l-.14.67a2.29,2.29,0,0,0-1-.21c-.56,0-.83.13-.83.42,0,.67,2.14.48,2.14,1.93,0,.77-.72,1.25-1.66,1.25a5,5,0,0,1-1.42-.18Z"/><path class="cls-1" d="M181.62,59.61A32.44,32.44,0,0,1,149.2,27.2l.24-4.49h5.08V15.93h.56v-1.1h2.43l.7,1.18h1.25v8.65h1v1.2h.37V18.92h4.09v1.79h1.36v3.34h2.28V20.81h3l1.1,1.39v3.69H179v.94h-7.19V22.52l-.61-.77h-1.66v4.36h-1.25V25h-2.89V21.64H164V19.85h-2.22v7h-2.25V25.6h-1V16.94h-.86L157,15.76h-1v1.1h-.56v6.79h-5.11l-.18,3.55a31.45,31.45,0,0,0,62.89.11h-3.2V21.78H208V18.94h-2.22v-1.2H203v.86l-.53.61v5.13h-2.75V20.52l-.7-.77h-1.52V18.46H195.8v8.37H193v-3.1h-2.49v3.1h-6.6v-.94h5.67v-3.1h4.33v3.1h.93V17.53h3.61v1.28h1l1.21,1.36v3.24h.88V18.86l.53-.61V16.81h4.6V18h2.22v2.83h1.89V26.4H214v.83a32.42,32.42,0,0,1-32.38,32.38"/><path class="cls-1" d="M169.35,46.6a1.62,1.62,0,0,0-.77.21,1.6,1.6,0,0,0-.48,2.11,1.38,1.38,0,0,0,1,.7c.13,0,.29,0,.48,0,2,0,3.72-1.23,5.19-2.38l.26-.22.19.3a4.66,4.66,0,0,0,3.05,2.16h.26a1.94,1.94,0,0,0,2-1.33,1.68,1.68,0,0,0-.93-1.71,2,2,0,0,0-1.55.13c-.16,0-.22.27-.3.56s-.18.78-.66.78a1.51,1.51,0,0,1-1.13-.7.64.64,0,0,1,0-.64A16.8,16.8,0,0,1,179.64,43c.59-.49,1.2-1,1.76-1.5l.22-.19.21.19c.56.51,1.15,1,1.74,1.47a12.41,12.41,0,0,1,3.63,3.82.4.4,0,0,1,0,.4,1.57,1.57,0,0,1-1.1.8.49.49,0,0,1-.48-.1.66.66,0,0,1-.13-.54.9.9,0,0,0,0-.32c-.19-.4-.59-.48-1-.59a1.57,1.57,0,0,0-1.79,1.23,1.39,1.39,0,0,0,.19,1.07,2.08,2.08,0,0,0,1.68.86,4.77,4.77,0,0,0,3.48-2.2l.19-.29.26.21c1.34,1.07,3.08,2.3,4.84,2.3a3.3,3.3,0,0,0,1.36-.27,1.19,1.19,0,0,0,.67-.8,1.34,1.34,0,0,0-.19-1.15,1.59,1.59,0,0,0-1.31-.69,1.61,1.61,0,0,0-1.31.67l-.13.21-.24-.08a4.78,4.78,0,0,1-2.59-1.84,1.3,1.3,0,0,1,0-1.18c.19-.32.38-.4.54-.4a.61.61,0,0,1,.18,0,2.51,2.51,0,0,0,1.31.43,1.5,1.5,0,0,0,1.53-1.17,1.33,1.33,0,0,0-.25-1.1,1.67,1.67,0,0,0-1-.69c-.06,0-.16,0-.24,0a2.51,2.51,0,0,0-1.85.88,3.29,3.29,0,0,0-.56,1.23,5.08,5.08,0,0,1-.51,1.18l-.21.29L183,39.87l.24-.24c6.07-5.83,14.16-7.89,20.82-8.5-.86-.08-1.71-.11-2.57-.11a29.64,29.64,0,0,0-19.53,7.11l-.19.16-.21-.16a35.49,35.49,0,0,0-10.66-5.77,32.07,32.07,0,0,0-11.71-1.28c6.66.58,14.78,2.64,20.85,8.49l.24.24L174.64,45l-.21-.3a4.83,4.83,0,0,1-.51-1.17,3.22,3.22,0,0,0-.56-1.23,4,4,0,0,0-1.42-.88,1.53,1.53,0,0,0-1.89,1.23,1.7,1.7,0,0,0,.93,1.71,1.51,1.51,0,0,0,.38,0,2.89,2.89,0,0,0,1.22-.35l.19-.08a.47.47,0,0,1,.19,0,.76.76,0,0,1,.64.46,1.2,1.2,0,0,1,0,1.12,4.78,4.78,0,0,1-2.57,1.82l-.21.08-.14-.19a1.93,1.93,0,0,0-1.36-.64m.21,3.66a4,4,0,0,1-.58,0,2.08,2.08,0,0,1-1.47-1,2.25,2.25,0,0,1,.69-2.94,2.28,2.28,0,0,1,2.83.48,4,4,0,0,0,2.06-1.47.43.43,0,0,0,0-.35.67.67,0,0,0-.16-.29l-.13.05a3.71,3.71,0,0,1-1.47.38,1.69,1.69,0,0,1-.62-.11,2.39,2.39,0,0,1-1.31-2.41,2.18,2.18,0,0,1,2.14-1.76,4.93,4.93,0,0,1,.54.05l0,0a4.62,4.62,0,0,1,1.68,1,3.55,3.55,0,0,1,.7,1.47c.08.24.16.46.24.67l4.54-4.22c-6.92-6.49-16.51-8.07-23.38-8.28l-2.83-.08,2.78-.54A32.32,32.32,0,0,1,171,31.8a34.64,34.64,0,0,1,10.66,5.71,30.1,30.1,0,0,1,19.74-7.1,32.75,32.75,0,0,1,5.86.53l2.86.54-2.89.08c-6.87.18-16.46,1.79-23.38,8.28l4.54,4.22c.08-.21.16-.45.24-.67a4.09,4.09,0,0,1,.7-1.44,3,3,0,0,1,2.7-1.07,2.31,2.31,0,0,1,1.39,1,2,2,0,0,1,.32,1.61,2.12,2.12,0,0,1-2.11,1.65,3,3,0,0,1-1.47-.4c-.08.16-.16.46-.08.56a3.83,3.83,0,0,0,2,1.5,2.26,2.26,0,0,1,3.53.21,1.91,1.91,0,0,1,.27,1.69,1.84,1.84,0,0,1-1,1.2,4.15,4.15,0,0,1-1.6.32c-1.84,0-3.61-1.15-5-2.22a5.31,5.31,0,0,1-3.8,2.19A2.75,2.75,0,0,1,182.36,49a2,2,0,0,1-.29-1.6,2.27,2.27,0,0,1,2.11-1.74,3.44,3.44,0,0,1,.45.05,1.94,1.94,0,0,1,1.42.89,1.16,1.16,0,0,1,.13.66h0a1.45,1.45,0,0,0,.49-.34,12.1,12.1,0,0,0-3.42-3.53c-.54-.4-1.07-.83-1.58-1.28-.51.48-1.07.91-1.58,1.33a16,16,0,0,0-3.47,3.5.84.84,0,0,0,.56.35,1.93,1.93,0,0,0,.11-.32,1.26,1.26,0,0,1,.66-1A2.67,2.67,0,0,1,180,45.9a2.38,2.38,0,0,1,1.28,2.38,2.61,2.61,0,0,1-3,1.85A5.3,5.3,0,0,1,175,48c-1.57,1.15-3.34,2.3-5.4,2.3"/><path class="cls-1" d="M193.4,8.5l.77.58-.56-.8c-3.63-5.18-7.69-5.34-9-5.23A3.91,3.91,0,0,1,186,2.11l.45-.16L186,1.82a3.7,3.7,0,0,0-3.5.48,4.69,4.69,0,0,0-.91-2.22.35.35,0,0,0-.19,0c-.32.08-.85.91-1.12,2.27a3.32,3.32,0,0,0-3.42-.38l-.35.16.38.14a2.71,2.71,0,0,1,1.23.93c-5.3.14-7.22,2.73-8.77,4.81a4.67,4.67,0,0,1-.35.46l.24.21c2.17-2,5.51-2.7,7.11-2.27-1.92.77-5.64,3.05-6.89,9.4l-.16.83.45-.72c2.11-3.34,4.2-5.37,6.63-6.49-1.58,2.4-3.77,6.57-2.91,10.31l.16.7.16-.7a17.22,17.22,0,0,1,4.41-8.15,17.79,17.79,0,0,0-.11,9.65l.27.69,0-.74a33.17,33.17,0,0,1,1.84-8.8l.48,3.37-.29.08.21,4.62h-.37l.35,4.76-.43.11,0,.13s.29,3,.4,4.65a5.17,5.17,0,0,0-1.29,1v.32h4.15v-.29l0,0a4.64,4.64,0,0,0-1.25-1l.45-5-.45,0,.32-4.86-.32.05.21-4.62h-.35c.08-.4.24-1.52.4-3.42.91,1.52,1.69,4.7,2.09,8.68l.13,1.18.19-1.18a24.79,24.79,0,0,0-.3-9.78,25.2,25.2,0,0,1,4.52,8.45l.24.9.08-.93a13.86,13.86,0,0,0-3.18-10.39A9.3,9.3,0,0,1,190,11.76a18.33,18.33,0,0,1,3.13,4.06l.37.72-.08-.8a12,12,0,0,0-6.81-9.46c2.3-.46,5.77,1.42,6.84,2.22"/></g></g></svg>