<svg xmlns="http://www.w3.org/2000/svg" viewBox="0 0 167.42 88.63"><defs><style>.cls-1{fill:#c9c9c9;}</style></defs><g id="Layer_2" data-name="Layer 2"><g id="Layer_1-2" data-name="Layer 1"><path class="cls-1" d="M134.05,0,87.31,88.63H120.6L167.42,0Z"/><path class="cls-1" d="M86.87,88.63h33.37L96.66,44.15H63.29Z"/><path class="cls-1" d="M84.92,22.69H51.47l9,16.94H93.86Z"/><path class="cls-1" d="M5.77,27.72H7.14a.65.65,0,0,0,.5-.22A.7.7,0,0,0,7.86,27V25.33a.65.65,0,0,0-.22-.51.67.67,0,0,0-.5-.22H5.77a.69.69,0,0,0-.51.22.7.7,0,0,0-.22.51V27a.65.65,0,0,0,.22.51A.58.58,0,0,0,5.77,27.72Z"/><path class="cls-1" d="M33.81,41.92a1.1,1.1,0,0,0-.15-.44l-1.3-3.31-.28-.79a15.55,15.55,0,0,0-1.95-3.61,8.84,8.84,0,0,0-2.23-2.16,8.26,8.26,0,0,0-2.6-1.09,12.64,12.64,0,0,0-2.95-.28,11.47,11.47,0,0,0-1.44.07c-.58.07-1.09.15-1.52.22a1,1,0,0,0-.43.22.58.58,0,0,0-.15.36v1.3c0,.36.22.5.72.43a1.85,1.85,0,0,0,.58-.07,1.87,1.87,0,0,0,.66-.08,1.39,1.39,0,0,0,.57-.07h.36a7.81,7.81,0,0,1,4.61,1.15,8.24,8.24,0,0,1,2.74,3.54L29.77,39l1.15,2.66H7.64V32.4A1,1,0,0,0,7.49,32c-.07-.14-.22-.14-.36-.14H5.62a1,1,0,0,0-.43.14,1.15,1.15,0,0,0-.15.44V46.25a8.63,8.63,0,0,1-.15,1.66,1.41,1.41,0,0,1-.58.94,2.48,2.48,0,0,1-1.08.43,11.45,11.45,0,0,1-1.66.07H.92c-.36,0-.5.15-.5.44v1.36a.54.54,0,0,0,.07.36.6.6,0,0,0,.44.15,1.45,1.45,0,0,1,.79,0h.65a8,8,0,0,0,2.89-.43A3.47,3.47,0,0,0,7,49.71a4.92,4.92,0,0,0,.44-1.44,14.44,14.44,0,0,0,.14-1.87v-2H32.87a.93.93,0,0,0,.72-.22.67.67,0,0,0,.22-.57V42.44a.67.67,0,0,0,0-.52Z"/><path class="cls-1" d="M44.62,27.72H46a.69.69,0,0,0,.51-.22.7.7,0,0,0,.22-.51V25.33a.72.72,0,0,0-.22-.51A.7.7,0,0,0,46,24.6H44.62a.68.68,0,0,0-.5.22.7.7,0,0,0-.22.51V27a.65.65,0,0,0,.22.51A.67.67,0,0,0,44.62,27.72Z"/><path class="cls-1" d="M46.72,34.13a15.31,15.31,0,0,0-.08-1.8,1.08,1.08,0,0,0-.14-.43c-.08-.15-.22-.15-.44-.15H44.55a.55.55,0,0,0-.36.15,1.11,1.11,0,0,0-.15.43c0,.8.08,1.59.08,2.24v6c0,.51-.08.87-.22.94a3.18,3.18,0,0,1-1.16.15h-.93a3,3,0,0,1-.86-.07,3.2,3.2,0,0,1-.66-.22,2.29,2.29,0,0,1-.43-.58,3.38,3.38,0,0,1-.15-1V22.45a1,1,0,0,0-.14-.43.52.52,0,0,0-.44-.22H37.62a.58.58,0,0,0-.43.22.5.5,0,0,0-.15.43v18a4.93,4.93,0,0,0,.29,1.94,2.73,2.73,0,0,0,.79,1.23,3.57,3.57,0,0,0,1.29.65,1.3,1.3,0,0,0,.58.08,1.88,1.88,0,0,0,.66.07h2.51a6.46,6.46,0,0,0,1.16-.07c.36,0,.72-.08,1-.08a1.32,1.32,0,0,0,.65-.14.91.91,0,0,0,.5-.36c.08-.15.15-.36.22-.51.08-.51.08-1.15.15-2v-5.7C46.79,35.07,46.79,34.56,46.72,34.13Z"/><path class="cls-1" d="M13.55,70a.62.62,0,0,1-.22.44.66.66,0,0,1-.43.22H11.38a.66.66,0,0,1-.43-.22.62.62,0,0,1-.22-.44V59.72a7,7,0,0,0-.22-1.94,2.77,2.77,0,0,0-.65-1.23,2.65,2.65,0,0,0-1.08-.65,4.8,4.8,0,0,0-1.51-.22A7.71,7.71,0,0,0,5.18,56,15.52,15.52,0,0,0,3,56.9V70.1a.58.58,0,0,1-.22.43.58.58,0,0,1-.43.22H1a.62.62,0,0,1-.43-.22A1,1,0,0,1,.35,70V54.09a1,1,0,0,1,.14-.43.54.54,0,0,1,.44-.21H2.51a.62.62,0,0,1,.44.22.52.52,0,0,1,.14.43v.57a10.56,10.56,0,0,1,2.46-1.08,8.7,8.7,0,0,1,2.52-.36,5,5,0,0,1,4.11,1.66,7.84,7.84,0,0,1,1.3,4.83V70Z"/><path class="cls-1" d="M27,67.29a10.19,10.19,0,0,1-2.09.94,6.56,6.56,0,0,1-2.09.29,3.57,3.57,0,0,1-2.09-.58c-.51-.36-.72-1.08-.72-2.23v-.36a4,4,0,0,1,.22-1.45,1.78,1.78,0,0,1,.72-.93,4.74,4.74,0,0,1,1.44-.51,19.59,19.59,0,0,1,2.3-.14H27ZM29.7,70l-.07-10.88a6.15,6.15,0,0,0-1.44-4.32c-.93-1.09-2.52-1.59-4.68-1.59a25,25,0,0,0-2.74.15c-.72.07-1.45.22-2.1.28-.43.08-.65.22-.65.58v1.08c0,.22,0,.36.15.44a.56.56,0,0,0,.36.07h.14c.66,0,1.3-.07,2.1-.15s1.66-.07,2.66-.07a3.59,3.59,0,0,1,2.59.79,3.88,3.88,0,0,1,.72,2.74v1.23h-2.3a17,17,0,0,0-3.53.28,6.23,6.23,0,0,0-2.31.94,4,4,0,0,0-1.29,1.59A6.77,6.77,0,0,0,17,65.42v.36a6,6,0,0,0,.43,2.45,4.57,4.57,0,0,0,1.15,1.59,4.4,4.4,0,0,0,1.66.79,8.64,8.64,0,0,0,1.95.22,7.09,7.09,0,0,0,2.52-.43A13.78,13.78,0,0,0,27,69.32V70a.62.62,0,0,0,.22.43.66.66,0,0,0,.44.22h1.44a.62.62,0,0,0,.43-.22A.65.65,0,0,0,29.7,70Z"/><path class="cls-1" d="M36.77,70.47a5.61,5.61,0,0,1-.29,2,3.86,3.86,0,0,1-.72,1.3,2.31,2.31,0,0,1-1.23.65,6.64,6.64,0,0,1-1.66.22H32c-.22,0-.51-.08-.87-.08s-.58-.22-.58-.5V72.93c0-.29.22-.44.66-.44h1.3a1.45,1.45,0,0,0,1.15-.36A2.62,2.62,0,0,0,34,70.55V54.11a1.11,1.11,0,0,1,.15-.43.43.43,0,0,1,.43-.22h1.66a.62.62,0,0,1,.44.22,1.09,1.09,0,0,1,.14.43V70.47Z"/><path class="cls-1" d="M44.41,70a.62.62,0,0,1-.22.44.66.66,0,0,1-.43.22H42.24a.66.66,0,0,1-.43-.22.62.62,0,0,1-.22-.44V54.1a.58.58,0,0,1,.22-.43.66.66,0,0,1,.43-.22h1.52a.66.66,0,0,1,.43.22.62.62,0,0,1,.22.44Z"/><path class="cls-1" d="M60.7,70a.78.78,0,0,1-.66.66H50.67a1.73,1.73,0,0,1-1.43-.51A1.76,1.76,0,0,1,48.8,69v-.58A4.31,4.31,0,0,1,49,67.37a2.69,2.69,0,0,1,.58-.94l8.08-10c.07-.14.14-.22.14-.28s-.08-.22-.29-.22H49.74a.66.66,0,0,1-.43-.22.63.63,0,0,1-.21-.44V54.17a.62.62,0,0,1,.22-.43.58.58,0,0,1,.43-.22H58.9a1.86,1.86,0,0,1,1.37.43,1.51,1.51,0,0,1,.36,1.16v.72a2.42,2.42,0,0,1-.15.86,2.65,2.65,0,0,1-.58.79L51.76,67.72a.61.61,0,0,0-.15.36.2.2,0,0,0,.22.22h8.22a.58.58,0,0,1,.43.22.66.66,0,0,1,.22.43Z"/><path class="cls-1" d="M34,48a.69.69,0,0,1,.22-.51.7.7,0,0,1,.51-.22h1.37a.62.62,0,0,1,.5.22.65.65,0,0,1,.22.51v1.65a.62.62,0,0,1-.22.44.67.67,0,0,1-.5.22H34.68a.7.7,0,0,1-.51-.22.66.66,0,0,1-.22-.44Z"/><path class="cls-1" d="M41.66,48a.69.69,0,0,1,.22-.51.7.7,0,0,1,.51-.22h1.37a.75.75,0,0,1,.73.73v1.65a.62.62,0,0,1-.22.44.69.69,0,0,1-.51.22H42.39a.72.72,0,0,1-.51-.22.66.66,0,0,1-.22-.44Z"/><path class="cls-1" d="M26.31,48a.65.65,0,0,1,.22-.51.69.69,0,0,1,.51-.22H28.4a.75.75,0,0,1,.73.73v1.65a.62.62,0,0,1-.22.44.69.69,0,0,1-.51.22H27a.69.69,0,0,1-.51-.22.62.62,0,0,1-.22-.44Z"/><path class="cls-1" d="M44.41,70a.62.62,0,0,1-.22.44.66.66,0,0,1-.43.22H42.24a.66.66,0,0,1-.43-.22.62.62,0,0,1-.22-.44V54.1a.58.58,0,0,1,.22-.43.66.66,0,0,1,.43-.22h1.52a.66.66,0,0,1,.43.22.62.62,0,0,1,.22.44Z"/><path class="cls-1" d="M1.51,77.1l.36.07c.08,0,.08,0,.08-.07v-.36c0-.08,0-.08-.08-.08H1.59c-.08,0-.08,0-.08.08v.36Zm-.86,0,.43.07c.07,0,.07,0,.07-.07v-.36c0-.08,0-.08-.07-.08H.72c-.07,0-.07,0-.07.08v.36ZM.5,79.69v-.51a.93.93,0,0,1,.87-.86.87.87,0,0,1,.86.86v1.38H1.37A.94.94,0,0,1,.5,79.69Zm3.25.87h-1V79.18a1.66,1.66,0,0,0-.43-.94,1.18,1.18,0,0,0-.94-.43,1.66,1.66,0,0,0-.94.43,1.18,1.18,0,0,0-.43.94v.51a1.66,1.66,0,0,0,.43.94,1.18,1.18,0,0,0,.94.43H3.82Z"/><path class="cls-1" d="M5.33,81.64H5.05c-.08,0-.08,0-.08.08v.36c0,.07,0,.07.08.07h.28c.08,0,.08,0,.08-.07v-.36A.07.07,0,0,0,5.33,81.64Zm-.86,0H4.11c-.08,0-.08,0-.08.08v.36c0,.07,0,.07.08.07h.36c.07,0,.07,0,.07-.07v-.36S4.54,81.64,4.47,81.64Zm.29-1.44c0,.22-.07.36-.29.36h-1v.5h.94A.81.81,0,0,0,5,80.84a1,1,0,0,0,.72.22h.22v-.5H5.62c-.15,0-.29,0-.36-.08s-.07-.07-.07-.14V78c0-.07,0-.07-.08-.07H4.83c-.08,0-.08,0-.08.07V80.2Z"/><path class="cls-1" d="M7.57,76.66H7.28c-.07,0-.07,0-.07.08v.36c0,.07,0,.07.07.07h.29c.07,0,.07,0,.07-.07v-.36C7.64,76.66,7.64,76.59,7.57,76.66ZM7.13,80.2c0,.28-.07.36-.29.28H5.77V81h1a.78.78,0,0,0,.86-.79V78c0-.07,0-.07-.07-.07H7.21c-.07,0-.07,0-.07.07V80.2Z"/><path class="cls-1" d="M8.94,79.69v-.51a.92.92,0,0,1,.86-.86.87.87,0,0,1,.87.86v1.38H9.8a.93.93,0,0,1-.86-.87Zm1.8,1.45a.8.8,0,0,1-.79.79H9.3c-.08,0-.08,0-.08.07v.29c0,.07,0,.07.08.07H10a1.16,1.16,0,0,0,.93-.36,1.13,1.13,0,0,0,.36-.86v-2a1.66,1.66,0,0,0-.43-.94,1.14,1.14,0,0,0-.94-.43,1.6,1.6,0,0,0-.93.43,1.18,1.18,0,0,0-.44.94v.51a1.61,1.61,0,0,0,.44.94,1.15,1.15,0,0,0,.93.43Z"/><path class="cls-1" d="M12.54,81.28V78c0-.08,0-.08.08-.08h.28C13,78,13,78,13,78v2.52h1.08v.51h-1v.22A1,1,0,0,1,12,82.37h-.36c-.07,0-.07,0-.07-.07V82c0-.07,0-.07.07-.07h.29a.58.58,0,0,0,.64-.66Z"/><path class="cls-1" d="M15.64,77.17h.29c.07,0,.07,0,.07-.07v-.36c0-.08,0-.08-.07-.08h-.29c-.07,0-.07,0-.07.08v.36A.07.07,0,0,0,15.64,77.17Zm-.86,0h.35c.08,0,.08,0,.08-.07v-.36c0-.08,0-.08-.08-.08h-.35c-.08,0-.08,0-.08.08v.36A.08.08,0,0,0,14.78,77.17Zm.35,3c0,.22-.07.36-.28.36H13.7v.5h1.08a.77.77,0,0,0,.57-.22,1.07,1.07,0,0,0,.72.22h.22v-.5H16c-.15,0-.29,0-.36-.08s-.08-.07-.08-.14V78c0-.07,0-.07-.07-.07h-.29c-.07,0-.07,0-.07.07V80.2Z"/><path class="cls-1" d="M18.74,76.59h.51c.07,0,.07,0,.07.07V77c0,.07,0,.07-.07.07h-.51a1.07,1.07,0,0,0-1.15,1.09h1.22a1.22,1.22,0,0,1,1,.43,1.83,1.83,0,0,1,.43,1.08v.72c0,.08,0,.15.07.15a.57.57,0,0,0,.36.07h.36v.51h-.28a1,1,0,0,1-.72-.22.93.93,0,0,1-.65.29H16.23v-.51H19.4a.34.34,0,0,0,.36-.36v-.58a.93.93,0,0,0-.94-1H17.38a.23.23,0,0,1-.22-.22C17.09,77.31,17.66,76.59,18.74,76.59Z"/><path class="cls-1" d="M21.91,80.2V76.44c0-.07,0-.07.08-.07h.28c.08,0,.08,0,.08.07V80.2a.76.76,0,0,1-.8.79h-.72v-.51h.72C21.84,80.56,21.91,80.42,21.91,80.2Z"/><path class="cls-1" d="M24.22,79.91l.36.07c.07,0,.07,0,.07-.07V77c0-.08,0-.08-.07-.08h-.29c-.07,0-.07,0-.07.08v3ZM24.36,82c0-.14.08-.22.22-.28s.15.07.22.14v.08c0,.07.08.07.08.07l.14-.07a.08.08,0,0,0,.08-.08v-.07a.4.4,0,0,0-.44-.29.49.49,0,0,0-.5.48v.39h-.22c-.08,0-.08,0-.08.07v.15c0,.07,0,.07.08.07H25c.07,0,.07,0,.07-.07v-.15c0-.07,0-.07-.07-.07h-.66V82Zm1.52-2.09a.58.58,0,0,1-.66.65H23.28c-.07,0-.07,0-.07.08v.28c0,.08,0,.08.07.08h1.94a1,1,0,0,0,1.08-1.08V76.46c0-.08,0-.08-.07-.08h-.29c-.07,0-.07,0-.07.08v3.45Z"/><path class="cls-1" d="M27.76,81.06h-.29c-.07,0-.07,0-.07-.07V76.44c0-.07,0-.07.07-.07h.29c.07,0,.07,0,.07.07l-.07,4.62C27.82,81,27.82,81.06,27.76,81.06Z"/><path class="cls-1" d="M31.72,77.1c0,.07.08.07,0,0l.36.07c.08,0,.08,0,.08-.07v-.36c0-.08,0-.08-.08-.08H31.8c-.08,0-.08,0-.08.08Zm-.86,0,.43.07c.07,0,.07,0,.07-.07v-.36c0-.08,0-.08-.07-.08h-.36c-.07,0-.07,0-.07.08v.36c0,.07.07.07,0,0Zm-.08,2.59v-.51a.87.87,0,0,1,1.74,0v1.38h-.87A.88.88,0,0,1,30.78,79.69Zm3.25.87H33V79.19a1.31,1.31,0,0,0-.43-.94,1.14,1.14,0,0,0-.94-.43,1.6,1.6,0,0,0-.93.43,1.18,1.18,0,0,0-.44.94v.51a1.61,1.61,0,0,0,.44.94,1.15,1.15,0,0,0,.93.43H34v-.51Z"/><path class="cls-1" d="M35.32,81.64c-.07,0-.07,0-.07.08v.36c0,.07,0,.07.07.07h.29c.07,0,.07,0,.07-.07v-.36Zm-.93,0c-.08,0-.08,0-.08.08v.36c0,.07,0,.07.08.07h.36c.07,0,.07,0,.07-.07v-.36ZM35,80.2c0,.22-.07.36-.36.36h-1v.5h1a.79.79,0,0,0,.58-.22,1,1,0,0,0,.72.22h.22v-.5H35.9c-.15,0-.29,0-.36-.08s-.07-.07-.07-.14V78c0-.07,0-.07-.08-.07h-.28C35,78,35,78,35,78V80.2Z"/><path class="cls-1" d="M37.2,80.2V76.44c0-.07,0-.07.07-.07h.29c.07,0,.07,0,.07.07V80.2a.76.76,0,0,1-.79.79h-.72v-.51h.72C37.13,80.56,37.2,80.42,37.2,80.2Z"/><path class="cls-1" d="M41.52,80.56h.29v.5h-.22a.69.69,0,0,1-.64-.28l-.08-.08a1.16,1.16,0,0,1-.86.36H38.64c-.07,0-.07,0-.07-.07V80.7c0-.07,0-.07.07-.07H40c.43,0,.65-.15.65-.58V79a.78.78,0,0,0-.72-.72,1.44,1.44,0,0,0-.65.15l-.15.07H39l-.14-.22v-.07a.07.07,0,0,1,.07-.07l.15-.08a1.62,1.62,0,0,1,.86-.22,1.55,1.55,0,0,1,.87.36,1.16,1.16,0,0,1,.36.8v1.22c-.07.16.14.3.36.3Z"/><path class="cls-1" d="M43.4,78.54a.86.86,0,0,1,.64-.28,1.16,1.16,0,0,1,.66.22c.22.22.36.36.36.58l-.72,1.51h-.58L43,79.05A1.84,1.84,0,0,1,43.4,78.54Zm2.88,2.52v-.57H44.91l.65-1.37v-.07a1.86,1.86,0,0,0-.5-.87,1.82,1.82,0,0,0-1-.36,1.42,1.42,0,0,0-1,.44,1.49,1.49,0,0,0-.51.86v.08l.65,1.37H41.67v.51h4.47Z"/><path class="cls-1" d="M47.08,80.2V76.44c0-.07,0-.07.07-.07h.29c.07,0,.07,0,.07.07V80.2a.76.76,0,0,1-.79.79H46v-.51h.72C46.93,80.56,47.08,80.42,47.08,80.2Z"/><path class="cls-1" d="M49,81.06h-.29c-.07,0-.07,0-.07-.07V76.44c0-.07,0-.07.07-.07H49c.07,0,.07,0,.07.07L49,81.06C49,81,49,81.06,49,81.06Z"/><path class="cls-1" d="M54.21,77.68l.44.07c.07,0,.07,0,.07-.07v-.36c0-.08,0-.08-.07-.08h-.36c-.08,0-.08,0-.08.08v.36Zm-.86,0h0l.36.07c.07,0,.07,0,.07-.07v-.36c0-.08,0-.08-.07-.08h-.29c-.07,0-.07,0-.07.08v.36Zm2.16,2.52c0,.28-.14.36-.36.36h-2.3a1,1,0,0,1-.94-.94.92.92,0,0,1,.51-.87l.15-.07c.07,0,.07,0,.07-.08l-.15-.28c0-.08,0-.08-.07-.08h-.07l-.15.08a1.25,1.25,0,0,0-.58.5,1.27,1.27,0,0,0-.22.72,1.37,1.37,0,0,0,.43,1,1.48,1.48,0,0,0,1,.43h2.31a.76.76,0,0,0,.79-.79V78c0-.07,0-.07-.07-.07h-.29c-.07,0-.07,0-.07.07Z"/><path class="cls-1" d="M57.82,80.56h.29v.5h-.29a.71.71,0,0,1-.79-.79V76.52c0-.07,0-.07.07-.07h.29c.07,0,.07,0,.07.07v3.75c0,.22.14.29.36.29Z"/><path class="cls-1" d="M60.41,80.56h-.87V79.19a.87.87,0,0,1,1.74,0v.51a.88.88,0,0,1-.87.86Zm.94-2.31a1.31,1.31,0,0,0-1-.43,1.66,1.66,0,0,0-.94.43,1.16,1.16,0,0,0-.43.93v1.38H57.89v.5h2.45a1.64,1.64,0,0,0,1-.43,1.14,1.14,0,0,0,.43-.94v-.51a1.26,1.26,0,0,0-.43-.93Z"/><path class="cls-1" d="M65.68,80.56H66v.5h-.22a.73.73,0,0,1-.65-.28L65,80.7a1.15,1.15,0,0,1-.87.36H62.78c-.07,0-.07,0-.07-.07V80.7c0-.07,0-.07.07-.07h1.38c.43,0,.65-.15.65-.58V79a.78.78,0,0,0-.72-.72,1.44,1.44,0,0,0-.65.15l-.14.07h-.15L63,78.32v-.07a.07.07,0,0,1,.08-.07l.14-.08a1.64,1.64,0,0,1,.87-.22,1.58,1.58,0,0,1,.87.36,1.16,1.16,0,0,1,.36.8v1.22c-.08.16.07.3.36.3Z"/><path class="cls-1" d="M67.84,77.1l.43.07c.08,0,.08,0,.08-.07v-.36c0-.08,0-.08-.08-.08h-.36c-.07,0-.07,0-.07.08v.36Zm1.29,2.81c0,.43-.14.65-.64.72H65.75v.51h2.74a1.2,1.2,0,0,0,.86-.36.8.8,0,0,0,.8.36h.22v-.51h-.29a.54.54,0,0,1-.36-.07c-.07,0-.07-.08-.07-.15v-1a1.46,1.46,0,0,0-.44-1.08,1.5,1.5,0,0,0-1.08-.44,1.68,1.68,0,0,0-1.43.66l-.08.14v.08l.08.07.22.15H67l.07-.08.08-.14a1.09,1.09,0,0,1,1-.51.94.94,0,0,1,.72.29.92.92,0,0,1,.29.72v.65Z"/><path class="cls-1" d="M71.3,80.2V76.44c0-.07,0-.07.07-.07h.29c.07,0,.07,0,.07.07V80.2a.76.76,0,0,1-.79.79h-.72v-.51h.72C71.23,80.56,71.3,80.42,71.3,80.2Z"/><path class="cls-1" d="M73.25,81.06H73c-.07,0-.07,0-.07-.07V76.44c0-.07,0-.07.07-.07h.29c.07,0,.07,0,.07.07l-.07,4.62C73.31,81,73.31,81.06,73.25,81.06Z"/><path class="cls-1" d="M1.15,83.73h.51v3.53a1.3,1.3,0,0,1-.22.79.76.76,0,0,1-.72.29H.29c-.08,0-.08,0-.15-.07l.07-.44a.78.78,0,0,0,.36.08.33.33,0,0,0,.36-.22A1,1,0,0,0,1,87.18V83.71Z"/><path class="cls-1" d="M3.31,85v2.3c0,.14.08.22.08.29l.22.22a.43.43,0,0,0,.28.07c.15,0,.22,0,.29-.07s.15-.07.22-.15l.22-.22c.07-.07.07-.14.15-.28V85h.5v2.81a.86.86,0,0,0,.08.44H5l-.15-.51a1.18,1.18,0,0,1-.43.43,1,1,0,0,1-.65.15c-.15,0-.36,0-.43-.07s-.22-.15-.36-.22a1.22,1.22,0,0,1-.22-.44A1.79,1.79,0,0,1,2.67,87V85S3.31,85,3.31,85Z"/><path class="cls-1" d="M7.5,87.91a.65.65,0,0,1-.36-.07c-.15-.07-.22-.22-.29-.29s-.07-.22-.15-.36a1.24,1.24,0,0,1-.07-.5,1.64,1.64,0,0,1,.29-.94.88.88,0,0,1,.72-.29c.14,0,.28.07.36.07s.22.08.28.15v1.59a1.24,1.24,0,0,1-.28.5A1,1,0,0,1,7.5,87.91Zm1.29-4.32h-.5V85c-.07,0-.22-.07-.29-.07H7.64a1.49,1.49,0,0,0-1.08.43,2.12,2.12,0,0,0-.36,1.3,2.22,2.22,0,0,0,.28,1.3,1.1,1.1,0,0,0,.94.43A1.32,1.32,0,0,0,8,88.19a.78.78,0,0,0,.36-.36l.15.44h.36a1.29,1.29,0,0,1-.07-.51S8.79,83.59,8.79,83.59Z"/><path class="cls-1" d="M10,85h.51v3.24H10Zm-.15-.94a.39.39,0,0,1,.08-.29c.07-.07.14-.07.28-.07s.22,0,.29.07a.39.39,0,0,1,.15.29c0,.07-.08.22-.15.22s-.15.07-.29.07-.22,0-.28-.07S9.8,84.16,9.8,84.09Z"/><path class="cls-1" d="M13.77,88.05l-.43.22a1.3,1.3,0,0,1-.58.08,2.19,2.19,0,0,1-.65-.15,1.87,1.87,0,0,1-.43-.36.73.73,0,0,1-.22-.51c0-.14-.08-.43-.08-.72a2.36,2.36,0,0,1,.36-1.3,1.25,1.25,0,0,1,1-.43,1.06,1.06,0,0,1,.5.07.53.53,0,0,1,.36.15l-.14.43c-.08-.07-.22-.07-.36-.14a.61.61,0,0,0-.36-.08c-.66,0-.94.44-.94,1.23a1.47,1.47,0,0,0,.07.51c.07.22.07.28.15.36a.51.51,0,0,0,.28.28,1,1,0,0,0,.44.08.84.84,0,0,0,.43-.08,1.31,1.31,0,0,0,.29-.14Z"/><path class="cls-1" d="M14.56,85h.51v3.24h-.51Zm-.07-.94a.43.43,0,0,1,.07-.29c.08-.07.15-.07.29-.07s.22,0,.28.07a.36.36,0,0,1,.15.29c0,.07-.07.22-.15.22s-.14.07-.28.07-.22,0-.29-.07A.29.29,0,0,1,14.49,84.09Z"/><path class="cls-1" d="M17.09,87.91a1.88,1.88,0,0,1-.51-.14.61.61,0,0,1-.15-.36c0-.15,0-.22.08-.29s.14-.07.22-.15.22-.07.36-.07h.79v.51a.24.24,0,0,0-.07.14c0,.08-.08.08-.15.15s-.15.15-.22.15A.72.72,0,0,1,17.09,87.91Zm-.8-2.3c.08,0,.15-.08.22-.08s.22-.07.29-.07a.58.58,0,0,1,.29-.07h.22a.83.83,0,0,1,.5.14A.81.81,0,0,1,18,86v.36h-.29c-.22,0-.44.07-.66.07a1.08,1.08,0,0,0-.5.15.7.7,0,0,0-.36.29,1,1,0,0,0-.15.5.65.65,0,0,0,.07.36c.08.15.15.15.22.29s.15.15.29.22a.56.56,0,0,0,.36.07.65.65,0,0,0,.36-.07c.15-.07.22-.07.29-.15s.14-.14.22-.14.07-.08.14-.15l.15.43h.36a3.29,3.29,0,0,1-.07-.36v-2.3a.51.51,0,0,0-.15-.29A1.06,1.06,0,0,0,18,85.1a1.44,1.44,0,0,0-.58-.07,2.06,2.06,0,0,0-.65.07,4.29,4.29,0,0,0-.57.22Z"/><path class="cls-1" d="M20,87.48a.54.54,0,0,0,.07.36.29.29,0,0,0,.22.07h.22a.27.27,0,0,0,.22-.07l.08.43c-.08,0-.15.08-.29.08h-.29a1.08,1.08,0,0,1-.5-.15.7.7,0,0,1-.22-.57v-3.9h.5v3.75Z"/><path class="cls-1" d="M23.14,83.73h2.45v.5H23.65v1.52h1.79v.5H23.65v1.59h1.94v.51H23.07l.07-4.62Z"/><path class="cls-1" d="M27.1,87.48c0,.15,0,.29.08.36a.27.27,0,0,0,.22.07h.22a.29.29,0,0,0,.22-.07l.07.43c-.07,0-.15.08-.29.08h-.28a1.1,1.1,0,0,1-.51-.15.7.7,0,0,1-.22-.57v-3.9h.51l0,3.75Z"/><path class="cls-1" d="M30.14,85.68a1,1,0,0,1,.22.72H28.77a1.39,1.39,0,0,1,.29-.72,1,1,0,0,1,.65-.22c.21,0,.35,0,.43.22Zm.43,1.87a1.65,1.65,0,0,1-.36.22.84.84,0,0,1-.43.08,1,1,0,0,1-.51-.08c-.07-.07-.22-.14-.29-.22s-.14-.22-.22-.36a1.06,1.06,0,0,1-.07-.5h2.09a1.3,1.3,0,0,0,.08-.51,1.44,1.44,0,0,0-.15-.65c-.07-.15-.22-.22-.29-.36a.38.38,0,0,0-.36-.22.81.81,0,0,0-.43-.08,1.25,1.25,0,0,0-1.08.44,2.09,2.09,0,0,0-.36,1.29,2,2,0,0,0,.07.72c.08.15.22.36.29.51a.79.79,0,0,0,.43.36,2.23,2.23,0,0,0,.66.14,2,2,0,0,0,.64-.07c.22,0,.36-.15.51-.22Z"/><path class="cls-1" d="M33.88,88.05l-.43.22a1.3,1.3,0,0,1-.58.08,2.19,2.19,0,0,1-.65-.15c-.22-.07-.28-.22-.43-.36a.77.77,0,0,1-.22-.51,2.84,2.84,0,0,1,.29-2,1.24,1.24,0,0,1,1-.43,1.06,1.06,0,0,1,.5.07.53.53,0,0,1,.36.15l-.14.43c-.08-.07-.22-.07-.36-.14a.61.61,0,0,0-.36-.08c-.65,0-.94.44-.94,1.23a1.47,1.47,0,0,0,.07.51c.08.22.08.28.15.36a.53.53,0,0,0,.29.28.89.89,0,0,0,.43.08.84.84,0,0,0,.43-.08,1.31,1.31,0,0,0,.29-.14Z"/><path class="cls-1" d="M34.17,85h.51v-.66l.51-.14V85h.86v.43h-.86v1.8a1.13,1.13,0,0,0,.07.51.39.39,0,0,0,.29.15h.28c.08,0,.15-.08.29-.08l.15.36c-.15.08-.22.08-.36.15a1,1,0,0,1-.44.07.72.72,0,0,1-.58-.22,1.1,1.1,0,0,1-.14-.72V85.53h-.51V85h-.07Z"/><path class="cls-1" d="M38.28,85.53a.82.82,0,0,0-.36-.07.56.56,0,0,0-.43.15c-.15.07-.15.22-.22.36v2.3h-.51V85h.36l.07.36a.75.75,0,0,1,.29-.36.93.93,0,0,1,.87-.08Z"/><path class="cls-1" d="M39.36,86.69c0-.87.29-1.3.87-1.23a.8.8,0,0,1,.43.07.58.58,0,0,1,.29.29c.07.07.07.22.14.36a1.24,1.24,0,0,1,.08.51c0,.79-.29,1.22-.87,1.22a.78.78,0,0,1-.43-.07c-.15-.07-.22-.22-.29-.29s-.07-.14-.15-.36A1.44,1.44,0,0,1,39.36,86.69Zm-.57,0a2.26,2.26,0,0,0,.07.72c.07.14.22.36.29.5a.72.72,0,0,0,.43.36,1.92,1.92,0,0,0,.65.15A1.26,1.26,0,0,0,41.3,88a2.23,2.23,0,0,0,.36-1.3,2.07,2.07,0,0,0-.07-.72c-.07-.14-.22-.36-.29-.5a.67.67,0,0,0-.43-.36,1.92,1.92,0,0,0-.64-.15,1.27,1.27,0,0,0-1.08.43A2.21,2.21,0,0,0,38.79,86.69Z"/><path class="cls-1" d="M44.55,88.27V86.4a2,2,0,0,0-.15-.79.58.58,0,0,0-.5-.29.79.79,0,0,0-.58.22c-.15.15-.29.29-.29.43v2.24h-.51V85h.36l.08.36c.07-.15.22-.22.43-.36a1,1,0,0,1,.65-.15c.14,0,.36,0,.43.08s.22.14.36.22a1.19,1.19,0,0,1,.22.43,1.83,1.83,0,0,1,.07.65v1.94h-.58A.66.66,0,0,1,44.55,88.27Z"/><path class="cls-1" d="M46.14,85h.5v3.24h-.5ZM46,84.09a.43.43,0,0,1,.07-.29c.07-.07.15-.07.29-.07s.22,0,.28.07a.36.36,0,0,1,.15.29c0,.07-.07.22-.15.22s-.14.07-.28.07a.43.43,0,0,1-.29-.07C46.06,84.23,46,84.16,46,84.09Z"/><path class="cls-1" d="M50,88.05l-.44.22a1.25,1.25,0,0,1-.57.08,2.19,2.19,0,0,1-.65-.15c-.22-.07-.29-.22-.44-.36a.76.76,0,0,1-.21-.51,2.84,2.84,0,0,1,.29-2,1.24,1.24,0,0,1,1-.43,1.13,1.13,0,0,1,.51.07.55.55,0,0,1,.36.15l-.15.43c-.07-.07-.22-.07-.36-.14a.59.59,0,0,0-.36-.08c-.65,0-.94.44-.94,1.23a1.47,1.47,0,0,0,.07.51c.08.22.08.28.15.36a.53.53,0,0,0,.29.28.89.89,0,0,0,.43.08.81.81,0,0,0,.43-.08c.15-.07.22-.07.29-.14Z"/><path class="cls-1" d="M54.35,87.12a.6.6,0,0,0-.14-.43.7.7,0,0,0-.44-.29l-.5-.22a1.19,1.19,0,0,1-.51-.29,2.18,2.18,0,0,1-.43-.43c-.15-.15-.15-.36-.15-.65a1.2,1.2,0,0,1,.36-.86,1.49,1.49,0,0,1,1.08-.29,2.26,2.26,0,0,1,.72.07c.22.08.36.08.51.15l-.15.51c-.07-.08-.22-.08-.43-.15a2.09,2.09,0,0,0-.65-.07.85.85,0,0,0-.65.22.58.58,0,0,0-.22.43,1,1,0,0,0,.14.43.66.66,0,0,0,.44.29,1.16,1.16,0,0,1,.5.29,4.5,4.5,0,0,1,.51.28,2.25,2.25,0,0,1,.43.44.74.74,0,0,1,.15.57,1.13,1.13,0,0,1-.07.51,2,2,0,0,1-.29.43,1.17,1.17,0,0,1-.51.29,2.06,2.06,0,0,1-.65.07,2.5,2.5,0,0,1-.79-.07c-.22-.08-.36-.08-.51-.15l.22-.51a.58.58,0,0,0,.43.15,2.12,2.12,0,0,0,.66.07,1,1,0,0,0,.43-.07,3.88,3.88,0,0,0,.36-.15c.15-.07.15-.14.22-.22S54.35,87.26,54.35,87.12Z"/><path class="cls-1" d="M57.39,85.68a1,1,0,0,1,.22.72H56a1.39,1.39,0,0,1,.29-.72,1,1,0,0,1,.65-.22c.21,0,.43,0,.43.22Zm.43,1.87a1.65,1.65,0,0,1-.36.22.84.84,0,0,1-.43.08,1,1,0,0,1-.51-.08c-.07-.07-.22-.14-.29-.22s-.14-.22-.22-.36a1.06,1.06,0,0,1-.07-.5H58a1.3,1.3,0,0,0,.08-.51,1.44,1.44,0,0,0-.15-.65c-.07-.15-.22-.22-.29-.36a.38.38,0,0,0-.36-.22.81.81,0,0,0-.43-.08,1.25,1.25,0,0,0-1.08.44,2.09,2.09,0,0,0-.36,1.29,2,2,0,0,0,.07.72c.08.15.22.36.29.51a.79.79,0,0,0,.43.36,2.23,2.23,0,0,0,.66.14,2,2,0,0,0,.64-.07c.22,0,.36-.15.51-.22Z"/><path class="cls-1" d="M60.56,85.53a.82.82,0,0,0-.36-.07.6.6,0,0,0-.44.15c-.14.07-.14.22-.22.36v2.3H59V85h.36l.07.36a.7.7,0,0,1,.29-.36.91.91,0,0,1,.86-.08Z"/><path class="cls-1" d="M62.14,87l.22.66.15-.66.72-1.87h.58l-1.37,3.32h-.22L60.78,85.1h.57Z"/><path class="cls-1" d="M64.45,85H65v3.24h-.51Zm-.15-.94a.39.39,0,0,1,.08-.29c.07-.07.14-.07.28-.07a.43.43,0,0,1,.29.07.39.39,0,0,1,.15.29c0,.07-.08.22-.15.22s-.15.07-.29.07-.22,0-.28-.07S64.3,84.16,64.3,84.09Z"/><path class="cls-1" d="M68.27,88.05l-.44.22a1.23,1.23,0,0,1-.57.08,2.19,2.19,0,0,1-.65-.15c-.22-.07-.29-.22-.43-.36a.73.73,0,0,1-.22-.51,2.29,2.29,0,0,1-.07-.72,2.36,2.36,0,0,1,.36-1.3,1.24,1.24,0,0,1,1-.43,1.13,1.13,0,0,1,.51.07.55.55,0,0,1,.36.15l-.15.43c-.07-.07-.22-.07-.36-.14a.59.59,0,0,0-.36-.08c-.65,0-.94.44-.94,1.23a1.3,1.3,0,0,0,.08.51c.07.22.07.28.14.36a.56.56,0,0,0,.29.28.92.92,0,0,0,.43.08.81.81,0,0,0,.43-.08c.15-.07.22-.07.29-.14Z"/><path class="cls-1" d="M70.51,85.68a1,1,0,0,1,.22.72h-1.6a1.48,1.48,0,0,1,.29-.72,1,1,0,0,1,.65-.22c.22,0,.43,0,.44.22Zm.5,1.87a1.93,1.93,0,0,1-.36.22.86.86,0,0,1-.44.08.94.94,0,0,1-.5-.08,3.15,3.15,0,0,1-.29-.22c-.15-.07-.15-.22-.22-.36a1.06,1.06,0,0,1-.07-.5h2.09a1.47,1.47,0,0,0,.07-.51,1.44,1.44,0,0,0-.14-.65c-.08-.15-.22-.22-.29-.36A.4.4,0,0,0,70.5,85a.84.84,0,0,0-.43-.08,1.25,1.25,0,0,0-1.08.44,2.09,2.09,0,0,0-.36,1.29,2,2,0,0,0,.07.72c.07.15.22.36.29.51a.79.79,0,0,0,.43.36,2.17,2.17,0,0,0,.65.14,2,2,0,0,0,.65-.07c.22,0,.36-.15.51-.22Z"/><path class="cls-1" d="M73.53,87.41a.37.37,0,0,0-.14-.29,1.06,1.06,0,0,0-.29-.22,3.88,3.88,0,0,1-.36-.15c-.15-.07-.29-.07-.36-.14a.58.58,0,0,1-.29-.29,1.09,1.09,0,0,1-.14-.43.74.74,0,0,1,.28-.66,1.56,1.56,0,0,1,1.3-.14c.15.07.29.07.44.14l-.15.44c-.07-.08-.22-.08-.36-.15a1,1,0,0,0-.43-.07c-.22,0-.36,0-.44.07a.43.43,0,0,0-.14.36.37.37,0,0,0,.14.29.4.4,0,0,0,.29.14c.15.08.22.08.36.15a1.41,1.41,0,0,1,.36.22.55.55,0,0,1,.29.29,1,1,0,0,1,.14.5.54.54,0,0,1-.07.36.89.89,0,0,1-.22.29,1.65,1.65,0,0,1-.36.22,1.13,1.13,0,0,1-.51.07,2.06,2.06,0,0,1-.65-.07c-.15-.07-.29-.07-.43-.15l.14-.43a.61.61,0,0,0,.36.15,1.13,1.13,0,0,0,.51.07.56.56,0,0,0,.43-.15c.3-.06.3-.21.3-.42Z"/></g></g></svg>