<svg xmlns="http://www.w3.org/2000/svg" viewBox="0 0 299.22 82.06"><defs><style>.cls-1{fill:#c9c9c9;}</style></defs><g id="Layer_2" data-name="Layer 2"><g id="Layer_1-2" data-name="Layer 1"><path class="cls-1" d="M66.64,56.63h-.41a11.58,11.58,0,0,0-7.33,2.91A33,33,0,0,1,58.45,54c0-1.93.15-3.55.22-4.61a2.89,2.89,0,0,1,1.06,2.53,7.34,7.34,0,0,1-.26,1.78,4.69,4.69,0,0,0,1.13-3.06,5,5,0,0,0-.53-2.27,4.3,4.3,0,0,1,1.59,3.55,3.19,3.19,0,0,1,0,.65,4.5,4.5,0,0,0,.49-2,4.7,4.7,0,0,0-1.66-3.48,3.56,3.56,0,0,1,2.64,3.56c0,.9,0,.94,0,.07a3.81,3.81,0,0,0,.19-1.21,2.9,2.9,0,0,0-.23-1.21,3.79,3.79,0,0,0-2.72-2.19,2.2,2.2,0,0,1,.49,0,3,3,0,0,1,2.2.76,3.08,3.08,0,0,1,.56.64,2.72,2.72,0,0,0-.56-1.36A3,3,0,0,0,60.68,45a3.13,3.13,0,0,0-1,.19,2.18,2.18,0,0,1,1.85-.87,1.67,1.67,0,0,1,.79.19,2.45,2.45,0,0,0-1.78-.87,2.29,2.29,0,0,0-1.85,1.06,3.2,3.2,0,0,1-.26-.56A3.75,3.75,0,0,1,58.07,43,.08.08,0,0,0,58,43a.08.08,0,0,0-.07.07,9.13,9.13,0,0,1-.34,1.14,5.52,5.52,0,0,1-.3.56,2.19,2.19,0,0,0-1.78-1.06,2.27,2.27,0,0,0-1.78.91,2.67,2.67,0,0,1,.84-.19,2,2,0,0,1,1.73.91,2.29,2.29,0,0,0-1-.23,3.19,3.19,0,0,0-2.35,1,2.26,2.26,0,0,0-.53,1.36,1.9,1.9,0,0,1,.53-.64,3.21,3.21,0,0,1,2.16-.76,2.78,2.78,0,0,1,.56,0,3.55,3.55,0,0,0-2.72,2.19,3,3,0,0,0-.22,1.17,4.63,4.63,0,0,0,.22,1.29v-.08a3.59,3.59,0,0,1,2.69-3.51,4.7,4.7,0,0,0-1.7,3.48,4.54,4.54,0,0,0,.49,2,4.59,4.59,0,0,1,0-.76,4,4,0,0,1,1.59-3.4,4.29,4.29,0,0,0-.57,2.23,4.74,4.74,0,0,0,1.13,3.06,5.06,5.06,0,0,1-.3-1.77,2.79,2.79,0,0,1,1.1-2.54c.07,1.06.22,2.65.22,4.5a30,30,0,0,1-.45,5.63,11.67,11.67,0,0,0-7.33-2.91H49.3a9.35,9.35,0,0,0-4,1.1l0,0a0,0,0,0,0,0,0h0a10.91,10.91,0,0,1,3.1-.49,6.12,6.12,0,0,1,.87,0,10.07,10.07,0,0,1,3.55,1A19.73,19.73,0,0,1,57,61.13a54.62,54.62,0,0,1-4.34,3.66,1.14,1.14,0,0,0-.8-.41.43.43,0,0,0-.22,0,1,1,0,0,0-.76.75.55.55,0,0,0,0,.23.8.8,0,0,0,.23.6,1.33,1.33,0,0,0,1,.46,2.12,2.12,0,0,0,.76-.19c1.21-.49,2.76-2.16,4.68-3.89.19-.16.34-.31.49-.46.19.19.34.3.49.46,1.93,1.73,3.48,3.32,4.69,3.89a3,3,0,0,0,.75.19,1.5,1.5,0,0,0,1-.46.79.79,0,0,0,.22-.6.51.51,0,0,0,0-.23,1,1,0,0,0-.76-.75c-.08,0-.15,0-.23,0a1,1,0,0,0-.79.41A48.3,48.3,0,0,1,59,61.13a19.48,19.48,0,0,1,4.19-2.76,12,12,0,0,1,3.55-1,6.56,6.56,0,0,1,.87,0,11.13,11.13,0,0,1,3.1.49h0l0,0s0,0,0,0a8.71,8.71,0,0,0-4-1.14Z"/><polygon class="cls-1" points="0 25.84 0.49 26.26 28.26 3.17 24.22 1.44 0 25.84"/><polygon class="cls-1" points="30.11 1.59 28.26 3.17 54.71 15.04 63.96 13.9 30.11 1.59"/><polygon class="cls-1" points="25.65 0 24.22 1.44 28.26 3.17 30.11 1.59 25.65 0"/><polygon class="cls-1" points="32.98 17.68 33.66 20.33 40.31 20.06 37.25 17.15 32.98 17.68"/><polygon class="cls-1" points="63.85 19.16 54.71 15.04 41.33 16.66 44.85 19.91 63.85 19.16"/><polygon class="cls-1" points="30.41 20.48 29.96 18.02 13.41 20.02 14.02 21.16 30.41 20.48"/><polygon class="cls-1" points="63.96 13.9 54.71 15.04 63.85 19.16 63.96 13.9"/><polygon class="cls-1" points="14.02 21.16 11.94 21.2 43.22 82.06 39.74 65.32 14.02 21.16"/><polygon class="cls-1" points="13.41 20.02 11.94 21.2 14.02 21.16 13.41 20.02"/><polygon class="cls-1" points="31.43 11.52 27.84 8.09 29.96 18.02 32.98 17.68 31.43 11.52"/><polygon class="cls-1" points="39.74 65.32 48.59 80.51 33.66 20.33 30.41 20.48 39.74 65.32"/><polygon class="cls-1" points="29.96 18.02 30.41 20.48 33.66 20.33 32.98 17.68 29.96 18.02"/><polygon class="cls-1" points="43.22 82.06 48.59 80.51 39.74 65.32 43.22 82.06"/><polygon class="cls-1" points="44.85 19.91 40.31 20.06 81.83 60.07 85.95 57.99 44.85 19.91"/><polygon class="cls-1" points="37.25 17.15 41.33 16.66 30.11 6.27 31.43 11.52 37.25 17.15"/><polygon class="cls-1" points="86.37 64.53 91.39 62.94 87.84 59.69 83.76 61.96 86.37 64.53"/><polygon class="cls-1" points="41.33 16.66 37.25 17.15 40.31 20.06 44.85 19.91 41.33 16.66"/><polygon class="cls-1" points="30.11 6.27 27.84 8.09 31.43 11.52 30.11 6.27"/><polygon class="cls-1" points="69.7 69.82 53.08 79.15 90.64 68.61 86.37 64.53 69.7 69.82"/><polygon class="cls-1" points="90.64 68.61 91.39 62.94 86.37 64.53 90.64 68.61"/><polygon class="cls-1" points="83.76 61.96 81.83 60.07 51.08 75.71 69.7 69.82 83.76 61.96"/><polygon class="cls-1" points="85.95 57.99 87.84 59.69 90.71 58.07 89.54 56.14 85.95 57.99"/><polygon class="cls-1" points="103.14 51.12 104.35 48.62 92.83 54.48 94 56.22 103.14 51.12"/><polygon class="cls-1" points="81.83 60.07 83.76 61.96 87.84 59.69 85.95 57.99 81.83 60.07"/><polygon class="cls-1" points="51.08 75.71 53.08 79.15 69.7 69.82 51.08 75.71"/><polygon class="cls-1" points="103.14 51.12 98.04 61.81 101.86 67.21 105.6 49.72 103.14 51.12"/><polygon class="cls-1" points="105.6 49.72 104.35 48.62 103.14 51.12 105.6 49.72"/><polygon class="cls-1" points="94 56.22 90.71 58.07 95.85 66.46 98.04 61.81 94 56.22"/><polygon class="cls-1" points="69.36 21.54 68.65 21.99 89.54 56.14 92.83 54.48 69.36 21.54"/><polygon class="cls-1" points="92.83 54.48 89.54 56.14 90.71 58.07 94 56.22 92.83 54.48"/><polygon class="cls-1" points="95.85 66.46 101.86 67.21 98.04 61.81 95.85 66.46"/><path class="cls-1" d="M124.71,60.68V52.55h.91v8.13Zm12.21,0h.9V52.55h-.9Zm110.24,0h.91V52.55h-.91Zm25.92-8.13h-.91v8.13h.91ZM142.32,56.9V55.84c-.87-.26-1.47-.53-1.47-1.21a1.5,1.5,0,0,1,1.47-1.32V52.4a2.35,2.35,0,0,0-2.49,2.19c0,1.55,1.32,2,2.49,2.31Zm.53-3.55a2.27,2.27,0,0,1,1.74.9l.07.15.64-.71-.07-.08a3.57,3.57,0,0,0-2.42-1.13l0,.87Zm-.53,6.57a3,3,0,0,1-2-1.06l-.08-.15-.6.72.07.07a3.76,3.76,0,0,0,2.73,1.29v-.87Zm.53-3.89v1.06c.91.3,1.62.6,1.62,1.43,0,.64-.45,1.36-1.62,1.4v.91c1.93-.08,2.64-1.29,2.64-2.35C145.53,56.82,144.1,56.37,142.85,56Zm12.47-3.48h-.91v8.13h.91Zm.52.87h1.48a1.51,1.51,0,1,1,0,3h-1.48v.84h2a2.28,2.28,0,0,0,2-2.42,2.37,2.37,0,0,0-2.5-2.46h-1.58C155.84,52.48,155.84,53.42,155.84,53.42ZM158.3,58h-1.13l1.77,2.75h1.21L158.3,58Zm3.4-5.41h-1.13l3.25,4.69v3.47h1V57.09Zm3.4,4.12,2.83-4.08H166.8l-2.23,3.29.53.79Zm-45.83,2.65L122,52.55h-1l-2.27,5.59ZM116,52.55h-1l3.32,8.13h1Zm5.74,2.35v5.78h1V52.55h0Zm-7.33-2.35h0v8.13h.91V54.86l-.91-2.31Zm100,6.77,2-5,.72-1.74h-1l-2.26,5.59Zm2.41-4.42v5.78h1V52.55h0ZM211,52.55h-1l3.33,8,0,.08h1Zm-1.54,0h0v8.13h.9V54.86l-.9-2.31Zm11.56,0h-1l.08.15,3.25,7.9,0,.08h1L221,52.55Zm3.36,6.77,2-5,.72-1.74h-1l-2.26,5.59Zm2.38-4.42v5.78h1V52.55h0Zm-7.29-2.35h0v8.13h.9V54.86l-.9-2.31Zm-70.73,0h-2v.91h2Zm2,0v.91h2v-.91Zm-1.51,8.13h.91V52.55h-.91ZM176,59.92a3,3,0,0,1-2.64-3.29A3,3,0,0,1,176,53.35v-.87a4.19,4.19,0,0,0,0,8.31v-.87Zm.57-7.44v.9a3,3,0,0,1,2.75,3.29A3,3,0,0,1,176.59,60v.86a3.89,3.89,0,0,0,3.77-4.15c0-2.46-1.58-4.16-3.77-4.23Zm6.83.07v.91h3.78v-.91Zm-.56,0H182v8.13h.91Zm.56,4.42h3.67v-.9h-3.67Zm14.93,1.78-.08.07a2.54,2.54,0,0,1-2,1.06v.91a3.68,3.68,0,0,0,2.84-1.44l.07-.15Zm-2.08-5.44a2.73,2.73,0,0,1,2,1.06l.08.07.79-.49-.08-.15a3.71,3.71,0,0,0-2.79-1.44v.91A0,0,0,0,1,196.27,53.31Zm-.6,6.61a3.34,3.34,0,0,1,0-6.57v-.91A4,4,0,0,0,192,56.6a4,4,0,0,0,3.71,4.15Zm8.27,0a3.36,3.36,0,0,1,0-6.57v-.87a4.19,4.19,0,0,0,0,8.31v-.87Zm.6-7.44v.9a3,3,0,0,1,2.76,3.29A3,3,0,0,1,204.54,60v.86a3.9,3.9,0,0,0,3.78-4.15c-.07-2.46-1.58-4.16-3.78-4.23Zm74,7.44a3.36,3.36,0,0,1,0-6.57v-.87a4.19,4.19,0,0,0,0,8.31v-.87Zm.53-7.44v.9a3,3,0,0,1,2.76,3.29A3,3,0,0,1,279.05,60v.86a3.9,3.9,0,0,0,3.78-4.15c0-2.46-1.52-4.16-3.78-4.23Zm-46.17,7.33c-1.29-.08-2-.91-2-2.35V52.52h-1v5c0,2,1.06,3.21,2.95,3.29v-1Zm2.49-7.26v5a2.07,2.07,0,0,1-1.92,2.34v.91c1.85-.07,2.91-1.32,2.91-3.29v-5l-1,.07Zm18.29,7.37a3.34,3.34,0,0,1,0-6.57v-.91A4,4,0,0,0,250,56.6a4,4,0,0,0,3.7,4.15Zm.53-6.61a2.73,2.73,0,0,1,2,1.06l.07.07.8-.49L257,53.8a3.72,3.72,0,0,0-2.79-1.44v.91A0,0,0,0,1,254.19,53.31Zm2.15,5.44-.07.07a2.55,2.55,0,0,1-2,1.06v.91a3.66,3.66,0,0,0,2.83-1.44l.07-.15ZM129,52.55h-1.17l5.74,8.13h1.21Zm5.59,6.92V52.55h-.9v5.59ZM128,53.76v6.92h.91v-5.6Zm138.47-1.17h-2v.91h2Zm1.55,0h-1v8.12h.91l.08-8.12Zm.52,0v.91h2v-.91ZM245,59.5v-7h-.91v5.63Zm-5.63-7h-1.14L244,60.68h1.21l-5.82-8.13Zm-1,1.21v6.92h.9v-5.6Zm47.22-1.21h-1.13l5.74,8.13h1.21l-5.82-8.13Zm5.63,7v-7h-.9v5.59Zm-6.61-5.74v6.92h.91v-5.6Zm-22.1,3.86h-1.93l-.34.9h2.69Zm-.19-4.46-.49,1.28,2.49,6.2h1.06Zm-.3-.61h-1l-3.25,7.94-.08.22h1.06L262,52.55Z"/><path class="cls-1" d="M295.52,56.9V55.84c-.87-.26-1.47-.53-1.47-1.21a1.5,1.5,0,0,1,1.47-1.32V52.4A2.35,2.35,0,0,0,293,54.59c0,1.59,1.28,2,2.49,2.31Z"/><path class="cls-1" d="M296,53.35a2.27,2.27,0,0,1,1.74.9l.07.15.65-.71,0-.08A3.57,3.57,0,0,0,296,52.48v.87Z"/><path class="cls-1" d="M295.52,59.92a3,3,0,0,1-2-1.06l-.08-.15-.6.72.08.07a3.72,3.72,0,0,0,2.72,1.29v-.87Z"/><path class="cls-1" d="M296,56v1.06c.91.3,1.63.6,1.63,1.43,0,.64-.46,1.36-1.63,1.4v.91c1.93-.08,2.65-1.29,2.65-2.35C298.69,56.82,297.26,56.37,296,56Z"/><rect class="cls-1" x="142.09" y="65.81" width="0.91" height="8.12"/><rect class="cls-1" x="199.18" y="65.81" width="0.91" height="8.12"/><polygon class="cls-1" points="292.91 65.81 291.78 65.81 295.03 70.46 295.03 73.94 295.94 73.94 295.94 70.31 292.91 65.81"/><polygon class="cls-1" points="296.35 69.89 299.22 65.81 298.09 65.81 295.82 69.1 296.35 69.89"/><polygon class="cls-1" points="177.53 65.81 176.59 65.81 176.62 65.97 179.87 73.86 179.91 73.94 180.89 73.94 177.53 65.81"/><polygon class="cls-1" points="180.93 72.58 182.97 67.59 183.69 65.81 182.71 65.81 180.44 71.44 180.93 72.58"/><polygon class="cls-1" points="176.02 65.81 176.02 65.81 176.02 73.94 176.93 73.94 176.93 68.12 176.02 65.81"/><polygon class="cls-1" points="183.31 68.19 183.31 73.94 184.26 73.94 184.26 65.81 184.26 65.81 183.31 68.19"/><rect class="cls-1" x="194.42" y="65.81" width="0.91" height="8.12"/><rect class="cls-1" x="195.85" y="65.81" width="2" height="0.91"/><rect class="cls-1" x="191.81" y="65.81" width="2.04" height="0.91"/><path class="cls-1" d="M163.29,73.14a3.36,3.36,0,0,1,0-6.57V65.7a4.19,4.19,0,0,0,0,8.31v-.87Z"/><path class="cls-1" d="M163.85,65.7v.91a3,3,0,0,1,2.76,3.28,3,3,0,0,1-2.76,3.33v.87a3.91,3.91,0,0,0,3.78-4.16c-.07-2.45-1.58-4.15-3.78-4.23Z"/><path class="cls-1" d="M205.26,73.14a3.36,3.36,0,0,1,0-6.57V65.7a4.19,4.19,0,0,0,0,8.31v-.87Z"/><path class="cls-1" d="M205.83,65.7v.91a3,3,0,0,1,2.76,3.28,3,3,0,0,1-2.76,3.33v.87a3.92,3.92,0,0,0,3.78-4.16,4,4,0,0,0-3.78-4.23Z"/><rect class="cls-1" x="230.76" y="69.33" width="3.66" height="0.91"/><rect class="cls-1" x="230.76" y="73.03" width="3.78" height="0.91"/><polygon class="cls-1" points="118.44 66.46 117.91 67.74 120.37 73.94 121.47 73.94 118.44 66.46"/><polygon class="cls-1" points="118.59 70.91 116.63 70.91 116.25 71.86 118.97 71.86 118.59 70.91"/><polygon class="cls-1" points="118.1 65.81 117.08 65.81 113.83 73.75 113.8 73.94 114.85 73.94 118.1 65.81"/><polygon class="cls-1" points="128.98 72.73 128.98 65.81 128.08 65.81 128.08 71.44 128.98 72.73"/><polygon class="cls-1" points="123.35 65.81 122.22 65.81 127.92 73.94 129.17 73.94 123.35 65.81"/><polygon class="cls-1" points="122.37 67.02 122.37 73.94 123.35 73.94 123.35 68.31 122.37 67.02"/><polygon class="cls-1" points="211.04 67.06 211.04 73.94 211.99 73.94 211.99 68.38 211.04 67.06"/><polygon class="cls-1" points="217.69 72.8 217.69 65.81 216.75 65.81 216.75 71.44 217.69 72.8"/><polygon class="cls-1" points="216.6 73.94 217.84 73.94 211.99 65.81 210.89 65.81 216.56 73.9 216.6 73.94"/><polygon class="cls-1" points="259.21 72.73 259.21 65.81 258.19 65.81 258.19 71.44 259.21 72.73"/><polygon class="cls-1" points="253.51 65.81 252.37 65.81 258.08 73.94 259.33 73.94 253.51 65.81"/><polygon class="cls-1" points="252.56 67.06 252.56 73.94 253.47 73.94 253.47 68.38 252.56 67.06"/><polygon class="cls-1" points="151.46 72.73 151.46 65.81 150.52 65.81 150.52 71.44 151.46 72.73"/><polygon class="cls-1" points="144.85 67.06 144.85 73.94 145.76 73.94 145.76 68.38 144.85 67.06"/><polygon class="cls-1" points="150.41 73.94 151.65 73.94 145.83 65.81 144.62 65.81 150.37 73.9 150.41 73.94"/><rect class="cls-1" x="130.83" y="65.81" width="0.91" height="8.12"/><path class="cls-1" d="M133.52,65.81h-1.14v.91h1.14a2.89,2.89,0,0,1,3.09,3.1,3,3,0,0,1-3.09,3.25h-1.14V74h1.14a4.08,4.08,0,1,0,0-8.16Z"/><rect class="cls-1" x="153.28" y="65.81" width="0.91" height="8.12"/><rect class="cls-1" x="154.79" y="65.81" width="3.78" height="0.91"/><rect class="cls-1" x="154.79" y="69.33" width="3.66" height="0.91"/><path class="cls-1" d="M170.35,66.72h1.48a1.51,1.51,0,1,1,0,3h-1.48v.83h2a2.26,2.26,0,0,0,2-2.41,2.37,2.37,0,0,0-2.5-2.46h-1.59A9,9,0,0,1,170.35,66.72Z"/><polygon class="cls-1" points="172.77 71.18 171.64 71.18 173.49 73.94 174.66 73.94 172.77 71.18"/><rect class="cls-1" x="168.88" y="65.81" width="0.91" height="8.12"/><polygon class="cls-1" points="190.15 70.91 188.22 70.91 187.81 71.86 190.49 71.86 190.15 70.91"/><polygon class="cls-1" points="190 66.46 189.51 67.7 191.96 73.94 192.98 73.94 190 66.46"/><polygon class="cls-1" points="189.62 65.81 188.68 65.81 185.43 73.75 185.24 73.94 186.37 73.94 189.62 65.81"/><polygon class="cls-1" points="249.2 70.2 249.2 69.33 245.04 69.33 245.04 65.81 244.14 65.81 244.14 70.2 249.2 70.2"/><rect class="cls-1" x="244.14" y="70.76" width="0.91" height="3.21"/><path class="cls-1" d="M288.27,66.61a2.63,2.63,0,0,1,2,1.06l.07.07.79-.49-.07-.15a3.68,3.68,0,0,0-2.83-1.44v1Z"/><polygon class="cls-1" points="287.7 70.5 291.25 70.5 291.25 70.5 291.25 69.7 287.7 69.7 287.7 70.5"/><path class="cls-1" d="M290.34,71.07v1.2a2.92,2.92,0,0,1-2,.87v.91a4,4,0,0,0,2.95-1.32l0,0V71.07Z"/><path class="cls-1" d="M287.7,73.14A3.09,3.09,0,0,1,285,69.86a3.13,3.13,0,0,1,2.68-3.29v-.91a4.19,4.19,0,0,0,0,8.31Z"/><rect class="cls-1" x="271.53" y="73.03" width="3.25" height="0.91"/><rect class="cls-1" x="224.49" y="65.81" width="0.91" height="8.12"/><rect class="cls-1" x="225.97" y="65.81" width="2" height="0.91"/><rect class="cls-1" x="221.96" y="65.81" width="2.04" height="0.91"/><rect class="cls-1" x="229.29" y="65.81" width="0.91" height="8.12"/><rect class="cls-1" x="230.76" y="69.33" width="3.66" height="0.91"/><rect class="cls-1" x="230.76" y="65.81" width="3.66" height="0.91"/><rect class="cls-1" x="249.77" y="65.81" width="0.91" height="8.12"/><rect class="cls-1" x="269.98" y="65.81" width="0.91" height="8.12"/><path class="cls-1" d="M278.52,73.14a3.36,3.36,0,0,1,0-6.57V65.7a4.19,4.19,0,0,0,0,8.31v-.87Z"/><path class="cls-1" d="M279.05,65.7v.91a3,3,0,0,1,2.76,3.28,3,3,0,0,1-2.76,3.33v.87a4.22,4.22,0,0,0,0-8.39Z"/><path class="cls-1" d="M264.28,73.14a3.36,3.36,0,0,1,0-6.57V65.7a4.19,4.19,0,0,0,0,8.31v-.87Z"/><path class="cls-1" d="M264.84,65.7v.91a3,3,0,0,1,2.76,3.28,3,3,0,0,1-2.76,3.33v.87a3.92,3.92,0,0,0,3.78-4.16,4,4,0,0,0-3.78-4.23Z"/><path class="cls-1" d="M239.49,73.14a3.34,3.34,0,0,1,0-6.57v-.91a4,4,0,0,0-3.7,4.16,4,4,0,0,0,3.7,4.15Z"/><path class="cls-1" d="M240,66.61a2.7,2.7,0,0,1,2,1.06l.08.07.79-.49-.08-.15a3.71,3.71,0,0,0-2.79-1.44v.91A0,0,0,0,1,240,66.61Z"/><path class="cls-1" d="M242.14,72l-.08.08a2.56,2.56,0,0,1-2,1v.91a3.66,3.66,0,0,0,2.83-1.44l.08-.15Z"/><path class="cls-1" d="M211.68,25.8a2.06,2.06,0,0,1,.34,1.36v1.93h.91v-2a2.91,2.91,0,0,0-.6-1.85,2.35,2.35,0,0,0-2-.87h-4.15v.91h4.27a1.67,1.67,0,0,1,1.24.56Zm31.63-2.34h-.91v5.71h.91ZM263.9,36.72H263v5.63h.91ZM242.1,21.46h-1v1.36h1Zm14.69,0h-.9v9.22h.9Zm-8,9.22a4.54,4.54,0,0,0,2.9-.83,2.69,2.69,0,0,0,1-2.19V21.46h-.91v6a1.85,1.85,0,0,1-.72,1.67,3.27,3.27,0,0,1-1.89.53H245.5l.07.9,3.22,0Zm0-7.9h-.9v6.35h.9Zm-119.38,0h-.91v6.35h.91ZM198,38.54l.08-.15-.08-.08-.53-.42-.07-.07-1.89,4.57h1L198,38.54Zm7.75-15.12h-.91v5.71h.91ZM190.91,37.89c-.23.16-.34.31-.53.46l-.08.07,1.59,4H193l-1.89-4.57-.15.07Zm-5.45,4.5V34.76h-.9v7.55h.9v.08Zm11-4,.34-.87a5.6,5.6,0,0,0-2.64-.79,5.77,5.77,0,0,0-2.65.79l.34.87a4.1,4.1,0,0,1,2.27-.75,5,5,0,0,1,2.34.75ZM235,36.12V34.76h-1v1.36Zm-97.52-14.7h-.9v7.67h.9Zm105.83,8.24H136.54v.9H243.31v-.9Zm1.09-8.2h-1v1.36h1Zm37.18,20.93h.91V36.76h-.91Zm.91-7.67h-1v1.36h1Zm6.42,1.4V34.76h-1v1.36Zm-4.72-14.7h-.91v9.22h.91Zm3.62,11.49c1.63,0,1.85-1.29,1.85-2.42V23.42h-.9v7.07c0,.87-.15,1.43-.83,1.43a1.48,1.48,0,0,1-.42-.07l-.19-.08-.34.87.19.08A.94.94,0,0,0,287.81,32.91ZM297,30.64h0l0-.91h-.34c-2.34,0-3.1-1.43-3.1-2.64a2.94,2.94,0,0,1,3.1-2.65h.34v-.9h0c-2.68,0-4.42,1.4-4.42,3.59S294.24,30.64,297,30.64Zm-7.37-9.14h-1v1.36h1Zm-17.11,9.14h0l0-.91h-.42c-1.77,0-3.06-1.05-3.06-2.64a2.93,2.93,0,0,1,3.06-2.65h.42v-.9h0c-2.61,0-4.35,1.47-4.35,3.59C268.24,28.79,269.38,30.64,272.55,30.64Zm5.1,2.27c1.62,0,1.85-1.29,1.85-2.42V23.42h-.91v7.07c0,.87-.15,1.43-.83,1.43a1.47,1.47,0,0,1-.41-.07l-.19-.08-.34.87.19.08A.92.92,0,0,0,277.65,32.91Zm-3.55-2.27V23.46h-.91v7.18Zm-2.84,11.75V36.76h-.9v5.63Zm.53-20.89h-1v1.36h1Zm2.31,0h-1v1.36h1V21.5Zm5.14,14.66h1V34.8h-1Zm-.87,6.27a2.87,2.87,0,0,1-1-2,2.79,2.79,0,0,1,3-2.65h.64v-.9h-.3c-2.65,0-4.35,1.36-4.35,3.59a3.36,3.36,0,0,0,.65,2l1.32,0Zm-7.11-7.67h-1v1.36h1Zm-39.78,5.55c0,1.74,1.14,3.59,4.35,3.59h0V43h-.34c-1.77,0-3.06-1.05-3.06-2.64a2.92,2.92,0,0,1,3.06-2.64h.34V36.8h0C233.3,36.72,231.48,38.23,231.48,40.31Zm30.19,5.93h1V44.88h-1Zm-43-2.34h.91V34.8h-.91Zm17.68-7.74h1V34.8h-1Zm0,7.74h.91V36.76h-.91ZM209.08,43a.59.59,0,0,0,.07-.26.14.14,0,0,1,0-.08l0-.07a.51.51,0,0,0,.07-.23,5.13,5.13,0,0,0,.19-1.13,4.41,4.41,0,0,0-.53-2,3.33,3.33,0,0,0-1.58-1.4,3.64,3.64,0,0,0-1.4-.34v.91a2.89,2.89,0,0,1,2.61,2.91A2.74,2.74,0,0,1,206,44.09V45a3.65,3.65,0,0,0,1.47-.42h0a.14.14,0,0,1,.08,0l.07,0a.8.8,0,0,0,.23-.16l.07,0c.08-.08.19-.08.23-.19s.08-.08.19-.15l0,0,.07-.08a3.38,3.38,0,0,0,.57-.75l0-.12Zm5.48-.56h.9V34.8h-.9Zm-4.95.6a2.54,2.54,0,0,1-.42.64l-.15.23h6.42V43h-5.85v0Zm88,.8v.07a.4.4,0,0,0,0,.15c-.08.8-.64,1.29-1.7,1.29a3.7,3.7,0,0,1-1.74-.57l-.19-.08-.45.84.19.07a4.35,4.35,0,0,0,2.15.64c1.66,0,2.76-.9,2.76-2.38V36.8h-1v7Zm-.57.07h0l0-.91h-.34c-2.34,0-3.1-1.39-3.1-2.64,0-1.62,1.63-2.64,3.1-2.64h.34V36.8h0c-2.68,0-4.42,1.4-4.42,3.59S294.24,43.9,297,43.9Zm-33,2.34h1V44.88h-1ZM297.6,23.46v7.22h0c-.08.79-.64,1.28-1.7,1.28a3.68,3.68,0,0,1-1.74-.56l-.19-.08-.45.83.19.08a4.35,4.35,0,0,0,2.15.64c1.66,0,2.76-.91,2.76-2.42V23.39l-1,.07ZM237.87,43.9h52.25V43H237.87Zm52.4-7.74h1V34.8h-1Zm-1.06,6.27h.91V36.8h-.91ZM120,34.76v1.36h1V34.76Zm-4-5.59a1.85,1.85,0,0,1-.72-1.67V24.75h-.91v2.91a2.89,2.89,0,0,0,1,2.19,4.23,4.23,0,0,0,2.91.83h6.35v-.91h-6.76a3.9,3.9,0,0,1-1.85-.6Zm5-7.67h-1v1.36h1Zm2.65,20.93h.9V36.8h-.9Zm0-13.26h.9V23.46h-.9Zm-5-7.67h-1v1.36h1V21.5Zm0,13.26h-1v1.36h1V34.76Zm13.6-4.95a2.68,2.68,0,0,0,1-2.19V21.46h-.9v6a1.85,1.85,0,0,1-.72,1.67,3.27,3.27,0,0,1-1.66.53h-3.9l.08.9h3.21a4.27,4.27,0,0,0,2.91-.79ZM116,42.43a1.84,1.84,0,0,1-.72-1.66V38h-.91v2.91a3,3,0,0,0,1,2.19,4.23,4.23,0,0,0,2.91.83h6.31V43h-6.68a3.3,3.3,0,0,1-1.89-.6Zm51.26,1.47h0l0-.91h-.41c-2.35,0-3.1-1.39-3.1-2.64,0-1.62,1.62-2.64,3.1-2.64h.41V36.8h0c-2.68,0-4.42,1.4-4.42,3.59S164.5,43.9,167.25,43.9Zm.61-.07V44c-.08.83-.72,1.32-1.74,1.32a3.7,3.7,0,0,1-1.74-.57l-.19-.07-.45.83.19.07a4.36,4.36,0,0,0,2.15.65c1.36,0,2.76-.23,2.76-1.86V36.8h-.91l-.07,7Zm-39.78-1.44V34.76h-.91v7.55h.91v.08Zm74.31-3h0a4.29,4.29,0,0,0-.41,1.78A3.72,3.72,0,0,0,205.49,45V44a2.84,2.84,0,0,1-2.61-2.83,2.92,2.92,0,0,1,2.61-2.91v-.91a1.72,1.72,0,0,0-.79.16A3.45,3.45,0,0,0,202.39,39.44ZM201.82,43l0-.07H169.33v.9h33.06l-.19-.22a4.36,4.36,0,0,0-.38-.61Zm-48,0,0-.07H127.09v.9h27.24l-.15-.22a4.07,4.07,0,0,0-.41-.61Zm5.59-5.32a3.43,3.43,0,0,0-1.4-.34v.9a2.89,2.89,0,0,1,2.61,2.91A2.73,2.73,0,0,1,158,44v.91a3.81,3.81,0,0,0,1.47-.41h0a.14.14,0,0,1,.08,0l0,0c.07,0,.18-.08.22-.15a.14.14,0,0,1,.08,0c.07-.07.19-.07.22-.19s.08-.07.23-.19l.08-.07A3.72,3.72,0,0,0,161,43l.08-.22h0a.68.68,0,0,0,.07-.27.1.1,0,0,1,0-.07l0,0a.53.53,0,0,0,.08-.23,5.8,5.8,0,0,0,.18-1.13,4.53,4.53,0,0,0-.52-2,4.68,4.68,0,0,0-1.59-1.32Zm-5,1.73h0a4.29,4.29,0,0,0-.41,1.78A3.72,3.72,0,0,0,157.43,45V44a2.84,2.84,0,0,1-2.61-2.83,2.92,2.92,0,0,1,2.61-2.91v-.91a1.75,1.75,0,0,0-.79.16A3.56,3.56,0,0,0,154.33,39.44Z"/></g></g></svg>