<svg xmlns="http://www.w3.org/2000/svg" viewBox="0 0 261.68 80.29"><defs><style>.cls-1{fill:#c9c9c9;}</style></defs><g id="Layer_2" data-name="Layer 2"><g id="Layer_1-2" data-name="Layer 1"><g id="Group_6887" data-name="Group 6887"><path id="Path_1" data-name="Path 1" class="cls-1" d="M3.81,45.68a1.13,1.13,0,0,0,1.23-1s0-.09,0-.13a1.24,1.24,0,0,0-2.48,0,1.12,1.12,0,0,0,1.12,1.13Z"/><path id="Path_2" data-name="Path 2" class="cls-1" d="M7.09,45.68a1.12,1.12,0,0,0,1.23-1,.57.57,0,0,0,0-.13,1.24,1.24,0,0,0-2.48,0A1.13,1.13,0,0,0,7,45.68Z"/><path id="Path_3" data-name="Path 3" class="cls-1" d="M10,57.86a1.14,1.14,0,0,0-1.23,1,.22.22,0,0,0,0,.08,1.24,1.24,0,1,0,2.48,0,1.14,1.14,0,0,0-1.17-1.13Z"/><path id="Path_4" data-name="Path 4" class="cls-1" d="M13.25,57.86a1.16,1.16,0,0,0-1.24,1V59a1.24,1.24,0,1,0,2.48,0,1.15,1.15,0,0,0-1.16-1.13Z"/><path id="Path_5" data-name="Path 5" class="cls-1" d="M20.93,51.76a2.31,2.31,0,0,1,2.12-2.48h.28a5.84,5.84,0,0,1,2.4.61l.62-1.82a8.41,8.41,0,0,0-3.19-.78A3.83,3.83,0,0,0,19,50.8a3,3,0,0,0,0,.6,8.87,8.87,0,0,0,.62,2.93h-4.2V47.42h-2v6.92H8.2V47.42H5c-3,0-5,1.86-5,4.46H0a4.4,4.4,0,0,0,4.34,4.44l.44,0H26.71v-2H21.84A4.84,4.84,0,0,1,20.93,51.76ZM6.29,54.35H4.61a2.53,2.53,0,0,1-2.75-2.27,1.48,1.48,0,0,1,0-.21h0a2.5,2.5,0,0,1,2.5-2.5l.26,0H6.29Z"/><path id="Path_6" data-name="Path 6" class="cls-1" d="M44.2,46.08a1.13,1.13,0,0,0,1.24-1V45A1.24,1.24,0,1,0,43,45a1.14,1.14,0,0,0,1.14,1.14Z"/><path id="Path_7" data-name="Path 7" class="cls-1" d="M47.48,46.08a1.13,1.13,0,0,0,.18-2.25h-.18a1.16,1.16,0,0,0-1.24,1.05V45a1.13,1.13,0,0,0,1.14,1.13Z"/><path id="Path_8" data-name="Path 8" class="cls-1" d="M56.35,47.22a7.15,7.15,0,0,0-3.25.91l.71,1.8a4.25,4.25,0,0,1,2.42-.73c2.38,0,2.84,2.76,4.17,5.16h-10V47.43h-2v6.93h-5.3V52c0-2.83-1.74-4.73-4.33-4.73h0c-2.62,0-4.34,1.89-4.34,4.71v0c0,1.69-.82,2.45-2.37,2.45H30.75V43.82H28.8v12.5h3.33a3.31,3.31,0,0,0,3.22-1.44,4,4,0,0,0,3.52,1.44H63v-2C61.16,53.52,61.12,47.22,56.35,47.22ZM41.21,54.35h-2.4a2.2,2.2,0,0,1-2.4-2,2,2,0,0,1,0-.42h0a2.42,2.42,0,0,1,2.13-2.7l.27,0h0a2.42,2.42,0,0,1,2.4,2.44,1.37,1.37,0,0,1,0,.28Z"/><path id="Path_9" data-name="Path 9" class="cls-1" d="M57.6,57.86a1.15,1.15,0,1,0,1.24,1,1.13,1.13,0,0,0-.37-.75A1.16,1.16,0,0,0,57.6,57.86Z"/><path id="Path_10" data-name="Path 10" class="cls-1" d="M72.37,54.35h-7v2h8.91V43.83h-2V54.35Z"/><rect id="Rectangle_1" data-name="Rectangle 1" class="cls-1" x="67.5" y="45.06" width="1.97" height="8.25"/><rect id="Rectangle_2" data-name="Rectangle 2" class="cls-1" x="76.88" y="43.83" width="1.96" height="12.5"/><path id="Path_11" data-name="Path 11" class="cls-1" d="M85.8,44.55A1.24,1.24,0,1,0,87,43.31h0A1.23,1.23,0,0,0,85.8,44.55Z"/><path id="Path_12" data-name="Path 12" class="cls-1" d="M89.07,44.55a1.24,1.24,0,1,0,1.24-1.24h0A1.24,1.24,0,0,0,89.07,44.55Z"/><path id="Path_13" data-name="Path 13" class="cls-1" d="M93.18,57.86a1.14,1.14,0,0,0-1.23,1,.22.22,0,0,0,0,.08,1.24,1.24,0,1,0,2.48,0,1.14,1.14,0,0,0-1.16-1.13Z"/><path id="Path_14" data-name="Path 14" class="cls-1" d="M96.46,57.86a1.14,1.14,0,0,0-1.23,1,.22.22,0,0,0,0,.08,1.24,1.24,0,1,0,2.48,0,1.15,1.15,0,0,0-1.15-1.13Z"/><path id="Path_15" data-name="Path 15" class="cls-1" d="M114,46.09a1.14,1.14,0,0,0,1.24-1,.57.57,0,0,0,0-.13,1.24,1.24,0,0,0-2.47-.2,1.24,1.24,0,0,0,1.14,1.34Z"/><path id="Path_16" data-name="Path 16" class="cls-1" d="M120.57,43.83a1.14,1.14,0,0,0-1.23,1.05s0,0,0,.07a1.24,1.24,0,1,0,2.48,0,1.14,1.14,0,0,0-1.16-1.13Z"/><path id="Path_17" data-name="Path 17" class="cls-1" d="M122.78,45a1.24,1.24,0,1,0,1.35-1.12H124a1.14,1.14,0,0,0-1.23,1.05S122.78,44.92,122.78,45Z"/><path id="Path_18" data-name="Path 18" class="cls-1" d="M131.36,54.35h-4.11V47.42h-2v6.93h-5.93V47.42h-2v6.93h-5.58V52c0-2.83-1.74-4.73-4.34-4.73h0c-2.61,0-4.33,1.89-4.33,4.72v0c0,1.69-.82,2.45-2.37,2.45h-2V47.42h-2v6.93H91.47V47.42H88.26c-3,0-5,1.86-5,4.46h0a4.38,4.38,0,0,0,4.34,4.44,3.23,3.23,0,0,0,.44,0h12.71a3.31,3.31,0,0,0,3.22-1.44,4,4,0,0,0,3.52,1.44h25.86V43.83h-2Zm-41.87,0H87.83a2.53,2.53,0,0,1-2.75-2.27,1.48,1.48,0,0,1,0-.21h0a2.49,2.49,0,0,1,2.51-2.49h1.91Zm20.34,0h-2.39a2.22,2.22,0,0,1-2.41-2,2,2,0,0,1,0-.42h0a2.43,2.43,0,0,1,2.13-2.7h.26a2.42,2.42,0,0,1,2.42,2.43,2.64,2.64,0,0,1,0,.28Z"/><rect id="Rectangle_3" data-name="Rectangle 3" class="cls-1" x="135.85" y="43.83" width="1.96" height="12.5"/><path id="Path_19" data-name="Path 19" class="cls-1" d="M144.51,47.42c-3,0-5,1.86-5,4.47h0a4.4,4.4,0,0,0,4.34,4.44l.44,0h1.49c-.05,1.08-.8,1.42-1.86,1.42a8.45,8.45,0,0,1-2.59-.41l.4,2.08a8.68,8.68,0,0,0,2.27.3c2.51,0,3.77-.92,3.77-3.9V47.42Zm1.24,4.41h0v2.52h-1.66a2.53,2.53,0,0,1-2.75-2.27,1.48,1.48,0,0,1,0-.21h0a2.49,2.49,0,0,1,2.5-2.49h1.92Z"/><path id="Path_20" data-name="Path 20" class="cls-1" d="M102.68,31.87c0-2.82-1.29-4.27-4.17-4.27H97.14v2h1.64a1.85,1.85,0,0,1,2.06,2.12v2.85H95.4v2h7.28V31.87Z"/><path id="Path_21" data-name="Path 21" class="cls-1" d="M107.67,36.14V27.6h-2v8.86c0,1.24-.58,1.65-1.4,1.65-.41,0-.74,0-1.24-.07l-.19,1.71a5.68,5.68,0,0,0,1.24.14C106.21,39.89,107.67,39.06,107.67,36.14Z"/><rect id="Rectangle_4" data-name="Rectangle 4" class="cls-1" x="109.95" y="24.01" width="1.96" height="12.5"/><path id="Path_22" data-name="Path 22" class="cls-1" d="M118.35,36.5h1.49c0,1.08-.8,1.42-1.86,1.42a8.72,8.72,0,0,1-2.59-.42l.4,2.08a5.63,5.63,0,0,0,1.86.31c2.35,0,4-.81,4.14-3.39H126a3.18,3.18,0,0,0,3-1.43,4,4,0,0,0,3.51,1.44h10.39V24h-2V34.57H136.9v-2.4c0-2.83-1.74-4.72-4.34-4.72h0c-2.61,0-4.34,1.86-4.34,4.71v0c0,1.69-.81,2.48-2.37,2.48h-4v-7h-3.21c-3,0-5,1.86-5,4.47h0C113.57,34.68,115.5,36.5,118.35,36.5Zm11.77-4.41a2.42,2.42,0,0,1,2.13-2.7l.27,0h0a2.42,2.42,0,0,1,2.4,2.44,1.37,1.37,0,0,1,0,.28v2.44h-2.39a2.21,2.21,0,0,1-2.41-2,2.16,2.16,0,0,1,0-.44Zm-14.7,0a2.5,2.5,0,0,1,2.49-2.5,1.23,1.23,0,0,1,.27,0h1.66v2.48h0v2.52H118.2a2.52,2.52,0,0,1-2.75-2.27,1.48,1.48,0,0,1,0-.21Z"/><rect id="Rectangle_5" data-name="Rectangle 5" class="cls-1" x="145.48" y="24.01" width="1.96" height="12.5"/><path id="Path_23" data-name="Path 23" class="cls-1" d="M40.25,25.85a1.11,1.11,0,0,0,1.23-1s0-.08,0-.12a1.24,1.24,0,0,0-2.48,0,1.13,1.13,0,0,0,1.13,1.13Z"/><path id="Path_24" data-name="Path 24" class="cls-1" d="M37,25.85a1.12,1.12,0,0,0,1.23-1s0-.08,0-.12A1.25,1.25,0,0,0,37,23.49a1.23,1.23,0,0,0-1.24,1.24,1.13,1.13,0,0,0,1.13,1.13Z"/><path id="Path_25" data-name="Path 25" class="cls-1" d="M37.93,36.49H48.64v-8.9h-2v6.93H41.39V27.59H38.2c-3,0-5,1.87-5,4.47h0a4.38,4.38,0,0,0,4.33,4.45A3.31,3.31,0,0,0,37.93,36.49ZM35,32.05a2.5,2.5,0,0,1,2.51-2.49l.25,0h1.66v5H37.77A2.53,2.53,0,0,1,35,32.27c0-.07,0-.14,0-.21Z"/><path id="Path_26" data-name="Path 26" class="cls-1" d="M66.11,24.83a1,1,0,0,0,1.14-.93.45.45,0,0,0,0-.11,1.16,1.16,0,1,0-1.26,1Z"/><path id="Path_27" data-name="Path 27" class="cls-1" d="M64.53,27.3a1.09,1.09,0,1,0-1.18-1,1.15,1.15,0,0,0,.35.72A1.08,1.08,0,0,0,64.53,27.3Z"/><path id="Path_28" data-name="Path 28" class="cls-1" d="M66.52,26.21a1.19,1.19,0,1,0,1.29-1.08h-.1a1.1,1.1,0,0,0-1.19,1Z"/><path id="Path_29" data-name="Path 29" class="cls-1" d="M86.35,24H84.4V34.57H80.55v-7h-2v6.93H73.31V27.59h-2v6.93H67.23V28.83h-2v5.69H61.69V28.83h-2v5.69h-5V27.41h-2v9.05c0,1.24-.57,1.65-1.4,1.65A11.81,11.81,0,0,1,50.07,38l-.18,1.71a5.75,5.75,0,0,0,1.24.14c2,0,3.46-.77,3.56-3.39H86.37Z"/><rect id="Rectangle_6" data-name="Rectangle 6" class="cls-1" x="88.89" y="24.01" width="1.96" height="12.5"/><path id="Path_30" data-name="Path 30" class="cls-1" d="M44.23,39.16a1.24,1.24,0,0,0-2.48,0A1.23,1.23,0,0,0,43,40.4h0A1.24,1.24,0,0,0,44.23,39.16Z"/><path id="Path_31" data-name="Path 31" class="cls-1" d="M47.5,39.16a1.24,1.24,0,1,0-1.24,1.24h0A1.23,1.23,0,0,0,47.5,39.16Z"/><path id="Path_32" data-name="Path 32" class="cls-1" d="M75.92,38.06a1.15,1.15,0,0,0-1.23,1.06s0,0,0,.06A1.24,1.24,0,1,0,76,38.07Z"/><path id="Path_33" data-name="Path 33" class="cls-1" d="M199.76,20.75,201,21a63.57,63.57,0,0,1,6.54-9.8A70.47,70.47,0,0,0,186.81,0Zm33.46,26.32-21.34-6.92,25.06,40.13a69.4,69.4,0,0,0-3.73-33.21Z"/><path id="Path_34" data-name="Path 34" class="cls-1" d="M198.22,31.61C207.46,16.81,219.52,6,237,0L211.87,40.15,186.79,80.29C184.55,62,189,46.41,198.22,31.61Z"/><path id="Path_35" data-name="Path 35" class="cls-1" d="M162.06,24l26.68,8.67a96.07,96.07,0,0,1,8.71-4.26q.57-1.41,1.23-2.82c.73-1.58,1.51-3.1,2.32-4.6A80.78,80.78,0,0,0,162.06,24ZM235,32.63l-23.13,7.52,49.81,16.18A80.63,80.63,0,0,0,235,32.62Z"/><path id="Path_36" data-name="Path 36" class="cls-1" d="M162.06,56.32l28.47-9.25a75.77,75.77,0,0,1,3.57-8.16,68.28,68.28,0,0,1,3.34-10.54A82.36,82.36,0,0,0,162.06,56.32ZM224,20.75l-12.12,19.4L261.68,24A80.6,80.6,0,0,0,224,20.75Z"/></g></g></g></svg>