<svg xmlns="http://www.w3.org/2000/svg" viewBox="0 0 252.56 57.27"><defs><style>.cls-1{fill:#c9c9c9;}</style></defs><g id="Layer_2" data-name="Layer 2"><g id="Layer_1-2" data-name="Layer 1"><g id="Layer_2-2" data-name="Layer 2"><g id="Layer_1-2-2" data-name="Layer 1-2"><rect class="cls-1" x="67.05" width="0.76" height="57.27"/><path class="cls-1" d="M83.23,26.63l-1.11.7a2.41,2.41,0,1,0-3.66,3.14,2.38,2.38,0,0,0,1.79.84,2.45,2.45,0,0,0,1.87-.92l1.11.7a3.7,3.7,0,1,1-.7-5.19,3.87,3.87,0,0,1,.7.7Z"/><path class="cls-1" d="M90.28,29.9a2.86,2.86,0,1,1-3-2.67h.18a2.72,2.72,0,0,1,2.86,2.57Zm-4.48,0a1.63,1.63,0,1,0,1.64-1.61h0a1.58,1.58,0,0,0-1.62,1.53Z"/><path class="cls-1" d="M96.75,28.06a3.12,3.12,0,0,1,2.17-.83,1.69,1.69,0,0,1,1.83,1.54,1.31,1.31,0,0,1,0,.28v3.42H99.5v-3a1,1,0,0,0-.87-1.17h-.19a2.43,2.43,0,0,0-1.53.55,2.77,2.77,0,0,1,.07.7v2.95H95.74v-3a1,1,0,0,0-.87-1.17h-.2a2.22,2.22,0,0,0-1.45.55v3.68H92V27.33h1.25V28a2.94,2.94,0,0,1,2-.79A1.61,1.61,0,0,1,96.75,28.06Z"/><path class="cls-1" d="M107.38,28.06a3.12,3.12,0,0,1,2.17-.83,1.68,1.68,0,0,1,1.83,1.53,1.4,1.4,0,0,1,0,.29v3.42h-1.25v-3c0-.78-.42-1.18-1.07-1.18a2.42,2.42,0,0,0-1.52.55,3.33,3.33,0,0,1,.07.7v2.95h-1.25v-3a1,1,0,0,0-.87-1.17h-.2a2.17,2.17,0,0,0-1.44.55v3.68h-1.26V27.33h1.26V28a2.94,2.94,0,0,1,2-.79A1.63,1.63,0,0,1,107.38,28.06Z"/><path class="cls-1" d="M118.39,27.33v5.14h-1.26v-.66a3.52,3.52,0,0,1-2.09.76,1.72,1.72,0,0,1-1.89-1.51,1.41,1.41,0,0,1,0-.29V27.33h1.24v3.05a1,1,0,0,0,.93,1.16.81.81,0,0,0,.22,0,2.44,2.44,0,0,0,1.59-.63V27.33Z"/><path class="cls-1" d="M125.56,29.05v3.42h-1.24v-3a1.07,1.07,0,0,0-.93-1.18h-.23a2.44,2.44,0,0,0-1.58.65v3.58H120.3V27.33h1.25V28a3.43,3.43,0,0,1,2.1-.75,1.69,1.69,0,0,1,1.9,1.47A1.37,1.37,0,0,1,125.56,29.05Z"/><path class="cls-1" d="M128.79,26a.7.7,0,1,1-.7-.69A.7.7,0,0,1,128.79,26Zm0,6.45H127.5V27.33h1.24Z"/><path class="cls-1" d="M135.51,28.29l-1,.54a1.61,1.61,0,1,0-2.46,2.07,1.59,1.59,0,0,0,1.22.57,1.56,1.56,0,0,0,1.27-.58l1,.54a2.85,2.85,0,0,1-2.26,1.11,2.67,2.67,0,1,1,0-5.34h0A2.79,2.79,0,0,1,135.51,28.29Z"/><path class="cls-1" d="M142.19,27.33v5.14h-1.25v-.6a2.24,2.24,0,0,1-1.67.7,2.68,2.68,0,0,1,0-5.34,2.2,2.2,0,0,1,1.67.7v-.6Zm-1.25,3.49V29a1.67,1.67,0,0,0-1.4-.7,1.61,1.61,0,0,0,0,3.21,1.7,1.7,0,0,0,1.4-.73Z"/><path class="cls-1" d="M147.52,32.21a2.75,2.75,0,0,1-1.35.36A1.66,1.66,0,0,1,144.42,31V28.33h-.81v-1h.81V25.88h1.25v1.4h1.46v1h-1.46v2.25a.86.86,0,0,0,.76.93h.13a1.84,1.84,0,0,0,.8-.18Z"/><path class="cls-1" d="M150.45,26a.7.7,0,0,1-1.4.13.71.71,0,0,1,.64-.76h.06a.66.66,0,0,1,.7.61Zm-.08,6.45h-1.25V27.33h1.25Z"/><path class="cls-1" d="M157.89,29.9a2.86,2.86,0,1,1-3-2.67H155a2.7,2.7,0,0,1,2.86,2.55A.49.49,0,0,1,157.89,29.9Zm-4.49,0a1.63,1.63,0,1,0,1.66-1.61h0a1.57,1.57,0,0,0-1.61,1.53A.22.22,0,0,0,153.4,29.9Z"/><path class="cls-1" d="M164.83,29.05v3.42h-1.25v-3a1.06,1.06,0,0,0-.92-1.18h-.23a2.46,2.46,0,0,0-1.59.65v3.58h-1.26V27.33h1.28V28a3.43,3.43,0,0,1,2.1-.75,1.69,1.69,0,0,1,1.86,1.51C164.83,28.85,164.83,29,164.83,29.05Z"/><path class="cls-1" d="M170.65,27.79l-.42.81a3.55,3.55,0,0,0-1.68-.48c-.55,0-.84.18-.84.56s.18.41.89.61l.57.15c1.22.33,1.66.75,1.66,1.5,0,1-.79,1.63-2.14,1.63a4.36,4.36,0,0,1-2.4-.7l.44-.79a3.83,3.83,0,0,0,2,.59c.63,0,.94-.21.94-.64s-.16-.42-.81-.61l-.64-.17c-1.26-.35-1.7-.7-1.7-1.46,0-1,.78-1.57,2.1-1.57A4.06,4.06,0,0,1,170.65,27.79Z"/><path class="cls-1" d="M181.21,31l.74.78-.88.75-.65-.7a3.61,3.61,0,0,1-2.26.7c-1.58,0-2.58-.7-2.58-2,0-.86.49-1.45,1.81-2.1l-.11-.11a1.83,1.83,0,0,1,1.44-3.22,1.74,1.74,0,0,1,1.91,1.56v.1c0,.88-.48,1.4-1.58,1.92l1.4,1.5a5.82,5.82,0,0,0,.75-1.33l.91.42A7.22,7.22,0,0,1,181.21,31Zm-1.52,0-1.62-1.8c-.92.47-1.21.8-1.21,1.26,0,.65.53,1,1.35,1a2.49,2.49,0,0,0,1.48-.5Zm-1.95-4.13a1.56,1.56,0,0,0,.46.95l.17.19c1-.48,1.21-.7,1.21-1.19a.78.78,0,0,0-.79-.77h-.09a.87.87,0,0,0-.95.79v0Z"/><path class="cls-1" d="M188.6,32.47h-1.34v-7.2h1.34Z"/><path class="cls-1" d="M196,29.05v3.42h-1.25v-3a1.06,1.06,0,0,0-.92-1.18h-.23a2.51,2.51,0,0,0-1.6.65v3.58h-1.25V27.33H192V28a3.49,3.49,0,0,1,2.1-.75A1.7,1.7,0,0,1,196,28.71,2,2,0,0,1,196,29.05Z"/><path class="cls-1" d="M199.33,27v.36h1.5v1h-1.5v4.14h-1.25V28.33h-.77v-1h.77V27a1.65,1.65,0,0,1,1.53-1.78h.3a3.73,3.73,0,0,1,1.15.17l-.19.86a2.33,2.33,0,0,0-.7-.11.78.78,0,0,0-.84.73A.33.33,0,0,0,199.33,27Z"/><path class="cls-1" d="M207.72,29.9a2.86,2.86,0,1,1-3-2.67h.18a2.72,2.72,0,0,1,2.86,2.56Zm-4.48,0a1.63,1.63,0,1,0,1.64-1.61h0a1.58,1.58,0,0,0-1.63,1.52v.09Z"/><path class="cls-1" d="M212.76,28.31a2.77,2.77,0,0,0-2.1,1v3.2h-1.25V27.33h1.25v1a2.81,2.81,0,0,1,2.1-1.06Z"/><path class="cls-1" d="M218.91,28.06a3.12,3.12,0,0,1,2.17-.83,1.69,1.69,0,0,1,1.83,1.54,1.31,1.31,0,0,1,0,.28v3.42h-1.26v-3c0-.78-.42-1.18-1.05-1.18a2.46,2.46,0,0,0-1.54.55,2.77,2.77,0,0,1,.07.7v2.95H217.9v-3a1,1,0,0,0-.87-1.17h-.22a2.22,2.22,0,0,0-1.45.55v3.68h-1.25V27.33h1.25V28a3,3,0,0,1,2-.79A1.63,1.63,0,0,1,218.91,28.06Z"/><path class="cls-1" d="M229.92,27.33v5.14H228.7v-.6a2.24,2.24,0,0,1-1.68.7,2.68,2.68,0,0,1,0-5.34,2.21,2.21,0,0,1,1.68.7v-.6Zm-1.22,3.44V29a1.67,1.67,0,0,0-1.4-.7,1.61,1.61,0,0,0,0,3.18A1.67,1.67,0,0,0,228.7,30.77Z"/><path class="cls-1" d="M235.25,32.21a2.86,2.86,0,0,1-1.34.36A1.67,1.67,0,0,1,232.15,31a1.85,1.85,0,0,1,0-.23V28.33h-.81v-1h.81V25.88h1.24v1.4h1.46v1H233.4v2.25a.86.86,0,0,0,.77.93h.13a1.82,1.82,0,0,0,.79-.18Z"/><path class="cls-1" d="M238.18,26a.66.66,0,0,1-.68.64h0a.64.64,0,0,1,.12-1.27A.65.65,0,0,1,238.18,26Zm-.05,6.45h-1.25V27.33h1.25Z"/><path class="cls-1" d="M245.62,29.9a2.86,2.86,0,1,1-3-2.67h.17a2.73,2.73,0,0,1,2.87,2.57Zm-4.48,0a1.62,1.62,0,1,0,1.63-1.61h0a1.57,1.57,0,0,0-1.61,1.53Z"/><path class="cls-1" d="M252.55,29.05v3.42h-1.24v-3a1.06,1.06,0,0,0-.92-1.18h-.23a2.51,2.51,0,0,0-1.6.65v3.58h-1.25V27.33h1.25V28a3.49,3.49,0,0,1,2.1-.75,1.69,1.69,0,0,1,1.88,1.48A1.29,1.29,0,0,1,252.55,29.05Z"/><path class="cls-1" d="M82.36,40.56h-2.3v6H78.72v-6h-2.3V39.42h5.94Z"/><path class="cls-1" d="M88.3,44.43H84.15a1.45,1.45,0,0,0,1.52,1.3,2.12,2.12,0,0,0,1.54-.55l.7.65a3.3,3.3,0,0,1-2.27.88,2.66,2.66,0,0,1-2.75-2.55v-.1a2.63,2.63,0,0,1,2.6-2.66h.11a2.59,2.59,0,0,1,2.7,2.48v.55Zm-1.21-.77a1.4,1.4,0,0,0-1.47-1.33h0a1.4,1.4,0,0,0-1.46,1.33Z"/><path class="cls-1" d="M94.71,42.44l-.95.54a1.61,1.61,0,1,0-.17,2.27l.17-.17,1,.53a2.86,2.86,0,0,1-2.26,1.11,2.67,2.67,0,1,1,0-5.34h0A2.76,2.76,0,0,1,94.71,42.44Z"/><path class="cls-1" d="M101.64,43.2v3.41H100.4v-3a1.06,1.06,0,0,0-.93-1.17h-.23a2.53,2.53,0,0,0-1.59.64v3.58H96.4V39.42h1.25v2.7a3.56,3.56,0,0,1,2.1-.75,1.7,1.7,0,0,1,1.88,1.49A2,2,0,0,1,101.64,43.2Z"/><path class="cls-1" d="M108.73,43.2v3.41h-1.25v-3a1,1,0,0,0-.91-1.17h-.26a2.5,2.5,0,0,0-1.6.64v3.58h-1.2V41.47h1.25v.65a3.56,3.56,0,0,1,2.1-.75,1.7,1.7,0,0,1,1.86,1.53A1.51,1.51,0,0,1,108.73,43.2Z"/><path class="cls-1" d="M116.1,44.06a2.86,2.86,0,1,1-3-2.66h.17A2.72,2.72,0,0,1,116.1,44Zm-4.48,0a1.63,1.63,0,1,0,1.65-1.6h0a1.57,1.57,0,0,0-1.64,1.5v.1Z"/><path class="cls-1" d="M119,46.61h-1.26V39.42H119Z"/><path class="cls-1" d="M126.44,44.06a2.86,2.86,0,1,1-3-2.66h.18A2.7,2.7,0,0,1,126.43,44S126.44,44,126.44,44.06Zm-4.49,0a1.63,1.63,0,1,0,1.66-1.6h0A1.58,1.58,0,0,0,122,44Z"/><path class="cls-1" d="M133.28,41.47v4.75a2.37,2.37,0,0,1-2.66,2.52A4.92,4.92,0,0,1,128,48l.4-.87a3.74,3.74,0,0,0,2,.56A1.39,1.39,0,0,0,132,46.55a1.43,1.43,0,0,0,0-.36V46a2.24,2.24,0,0,1-1.69.7,2.66,2.66,0,0,1,0-5.32,2.24,2.24,0,0,1,1.69.7v-.58ZM132,45V43.13a1.68,1.68,0,0,0-1.4-.7,1.61,1.61,0,0,0,0,3.21,1.75,1.75,0,0,0,1.4-.7Z"/><path class="cls-1" d="M138,47.12a2.11,2.11,0,0,1-2,1.6,4,4,0,0,1-1.4-.28l.42-.88a2.43,2.43,0,0,0,.84.18c.48,0,.79-.24,1.11-.82l.07-.17-2.28-5.3H136l1.52,3.79,1.4-3.79h1.3Z"/><path class="cls-1" d="M151.31,40.77l-1.11.7a2.41,2.41,0,0,0-3.66,3.15,2.34,2.34,0,0,0,3.66-.08l1.11.7a3.71,3.71,0,1,1-.71-5.2,4,4,0,0,1,.71.71Z"/><path class="cls-1" d="M158.41,44.06a2.86,2.86,0,1,1-3-2.66h.18A2.71,2.71,0,0,1,158.4,44S158.41,44,158.41,44.06Zm-4.49,0a1.63,1.63,0,1,0,1.66-1.6h0A1.58,1.58,0,0,0,153.92,44Z"/><path class="cls-1" d="M164.87,42.2a3.21,3.21,0,0,1,2.18-.83,1.7,1.7,0,0,1,1.83,1.55v3.69h-1.26v-3a1,1,0,0,0-.86-1.16h-.2a2.38,2.38,0,0,0-1.52.55,4.15,4.15,0,0,1,.07.7v3h-1.25v-3A1,1,0,0,0,163,42.4h-.19a2.22,2.22,0,0,0-1.45.55v3.67h-1.25V41.47h1.25v.7a3,3,0,0,1,2-.8A1.63,1.63,0,0,1,164.87,42.2Z"/><path class="cls-1" d="M175.51,42.2a3.14,3.14,0,0,1,2.16-.83,1.69,1.69,0,0,1,1.83,1.55,1.31,1.31,0,0,1,0,.28v3.41h-1.25v-3a1,1,0,0,0-.87-1.16h-.19a2.37,2.37,0,0,0-1.53.55,3.33,3.33,0,0,1,.07.7v3h-1.25v-3a1,1,0,0,0-.87-1.16h-.16a2.22,2.22,0,0,0-1.45.55v3.67h-1.25V41.47H172v.7a3,3,0,0,1,2-.8A1.66,1.66,0,0,1,175.51,42.2Z"/><path class="cls-1" d="M182.74,40.17a.7.7,0,1,1-.53-.53A.7.7,0,0,1,182.74,40.17Zm-.05,6.44h-1.25V41.47h1.25Z"/><path class="cls-1" d="M188.69,42l-.42.81a3.74,3.74,0,0,0-1.72-.48c-.55,0-.84.19-.84.57s.17.41.88.61l.57.15c1.22.33,1.67.74,1.67,1.5,0,1-.79,1.62-2.15,1.62a4.31,4.31,0,0,1-2.39-.7l.43-.79a4,4,0,0,0,2,.59c.63,0,.94-.21.94-.65s-.15-.41-.8-.6l-.65-.17c-1.26-.35-1.7-.7-1.7-1.46,0-1,.79-1.58,2.1-1.58A4.23,4.23,0,0,1,188.69,42Z"/><path class="cls-1" d="M194.5,42l-.42.81a3.67,3.67,0,0,0-1.71-.48c-.56,0-.85.19-.85.57s.18.41.89.61l.57.15c1.21.33,1.67.74,1.67,1.5,0,1-.79,1.62-2.15,1.62a4.31,4.31,0,0,1-2.39-.7l.43-.79a3.92,3.92,0,0,0,2,.59c.63,0,.94-.21.94-.65s-.16-.41-.8-.6l-.65-.17c-1.26-.35-1.7-.7-1.7-1.46,0-1,.79-1.58,2.07-1.58A4.1,4.1,0,0,1,194.5,42Z"/><path class="cls-1" d="M197.71,40.17a.7.7,0,1,1-.7-.7A.7.7,0,0,1,197.71,40.17Zm-.05,6.44h-1.24V41.47h1.24Z"/><path class="cls-1" d="M205.15,44.06a2.86,2.86,0,1,1-3-2.66h.18A2.72,2.72,0,0,1,205.15,44Zm-4.48,0a1.62,1.62,0,1,0,3.24,0,1.61,1.61,0,0,0-1.6-1.64h0A1.58,1.58,0,0,0,200.67,44v.07Z"/><path class="cls-1" d="M212.08,43.2v3.41h-1.23v-3a1.07,1.07,0,0,0-.94-1.17h-.22a2.53,2.53,0,0,0-1.59.64v3.58h-1.25V41.47h1.25v.65a3.54,3.54,0,0,1,2.1-.75,1.68,1.68,0,0,1,1.88,1.83Z"/><path class="cls-1" d="M82.88,12.33a.77.77,0,1,0-.77-.77A.77.77,0,0,0,82.88,12.33Z"/><path class="cls-1" d="M80.79,12.33a.77.77,0,1,0-.78-.77.76.76,0,0,0,.76.77Z"/><path class="cls-1" d="M85.93,15.69a5.06,5.06,0,0,1-2,.32H79.6c-1.2,0-1.92-.48-1.92-1.64a5,5,0,0,1,.2-1.27l-1.16-.22a6.52,6.52,0,0,0-.3,1.86c0,2,1.3,2.58,3.1,2.58h4.2a7.6,7.6,0,0,0,3.49-.65V12H85.94Z"/><path class="cls-1" d="M96.2,12.3a2.63,2.63,0,0,0-2.72,2.56v.23a3.27,3.27,0,0,0,.08.7,3.73,3.73,0,0,1-1.4.25,3.81,3.81,0,0,1-1.66-.35V9.52H89.23v6.35a.82.82,0,0,0,.51.87,4.81,4.81,0,0,0,4.31.13,2.73,2.73,0,0,0,4.83-1.79,2.64,2.64,0,0,0-2.5-2.78A1.08,1.08,0,0,0,96.2,12.3Zm0,4.32a1.43,1.43,0,0,1-1.44-1.42.49.49,0,0,1,0-.12,1.45,1.45,0,0,1,2.89-.29,1.41,1.41,0,0,1,0,.29,1.44,1.44,0,0,1-1.33,1.54H96.2Z"/><path class="cls-1" d="M128.49,15.67a4,4,0,0,1-1.66.34,3.43,3.43,0,0,1-1.34-.25,2.68,2.68,0,0,0,.08-.7,2.71,2.71,0,0,0-5.42-.27,1.22,1.22,0,0,0,0,.27,3.26,3.26,0,0,0,.07.7,3.32,3.32,0,0,1-1.32.24h-2.24A2.82,2.82,0,0,0,118,13.7c0-1.4-1.12-2.1-2.7-2.1a6.43,6.43,0,0,0-2.79.7l-.22,1L114,16h-2.27a3.6,3.6,0,0,1-1.65-.34V9.52h-1.28v6.15a3.9,3.9,0,0,1-1.65.34h-1.63V12.66a5.18,5.18,0,0,0-2.35-.59,2.63,2.63,0,0,0-2.93,2.65c0,1.58,1.1,2.6,3.08,2.6h.93c-.06,1-.6,1.56-1.85,1.56a5,5,0,0,1-1.72-.3l-.23,1.21a5.92,5.92,0,0,0,1.91.31c1.72,0,3-.77,3.15-2.8h1.64a4.66,4.66,0,0,0,2.28-.58,4.84,4.84,0,0,0,2.16.58h7.51a3.7,3.7,0,0,0,1.72-.45,2.79,2.79,0,0,0,3.94.29,2.76,2.76,0,0,0,.3-.29,4.28,4.28,0,0,0,4.77-.66V9.52h-1.27ZM104.21,16h-1.13c-.93,0-1.62-.48-1.62-1.4a1.4,1.4,0,0,1,1.39-1.41h.21a2.56,2.56,0,0,1,1.15.27Zm10.92-.2-1.44-2.59a3.69,3.69,0,0,1,1.56-.37c.9,0,1.46.41,1.46,1.14a2.14,2.14,0,0,1-1.62,1.82Zm7.75.81a1.43,1.43,0,0,1-1.41-1.46s0-.05,0-.08a1.45,1.45,0,0,1,2.89-.29,1.41,1.41,0,0,1,0,.29A1.44,1.44,0,0,1,123,16.62h-.16Z"/><rect class="cls-1" x="131.92" y="9.52" width="1.27" height="7.81"/><path class="cls-1" d="M141.54,10.94a.77.77,0,1,0-.77-.77A.77.77,0,0,0,141.54,10.94Z"/><path class="cls-1" d="M139.45,10.94a.77.77,0,1,0-.77-.77.76.76,0,0,0,.77.77Z"/><path class="cls-1" d="M145.72,18.1a.77.77,0,1,0,.76.78h0a.76.76,0,0,0-.75-.77Z"/><path class="cls-1" d="M147.8,18.1a.77.77,0,1,0,.15,0Z"/><path class="cls-1" d="M151.34,11a.74.74,0,0,0,.76-.75h0a.76.76,0,0,0-.74-.79h0a.78.78,0,0,0-.79.77v0a.77.77,0,0,0,.78.75Z"/><path class="cls-1" d="M158.48,10.49a.77.77,0,0,0,0-1.54.78.78,0,0,0-.78.76h0a.77.77,0,0,0,.76.77Z"/><path class="cls-1" d="M156.39,10.49a.77.77,0,1,0,0-1.54.77.77,0,0,0,0,1.54Z"/><path class="cls-1" d="M162.47,11a.76.76,0,1,0-.76-.76.76.76,0,0,0,.76.76Z"/><path class="cls-1" d="M162.91,15.73a4.94,4.94,0,0,1-1.83.28h-2a2.66,2.66,0,0,0,1.11-2.13,2.72,2.72,0,0,0-5.42,0A2.64,2.64,0,0,0,155.82,16h-2.18a3.9,3.9,0,0,1-1.65-.34V12h-1.27v3.7a4,4,0,0,1-1.66.34,3.83,3.83,0,0,1-1.64-.34V12h-1.27v3.7a4,4,0,0,1-1.66.34h-1.63V12.46a5,5,0,0,0-2.34-.59,2.65,2.65,0,0,0-2.92,2.73c0,1.67,1.21,2.72,3.07,2.72h3.83a4.7,4.7,0,0,0,2.27-.58,4.77,4.77,0,0,0,4.58,0,4.66,4.66,0,0,0,2.28.58h7.64a5.52,5.52,0,0,0,2.94-.78V12h-1.27ZM141.56,16h-1.1a1.48,1.48,0,1,1-.26-2.94h.2a2.6,2.6,0,0,1,1.16.27Zm15.87-.18A2.1,2.1,0,0,1,156,14a1.44,1.44,0,0,1,2.88,0A2.1,2.1,0,0,1,157.43,15.83Z"/><path class="cls-1" d="M164.57,9.48a.76.76,0,1,0,0,1.52.76.76,0,0,0,0-1.52Z"/><path class="cls-1" d="M165.76,14.69c0,1.51,1.09,2.61,3.07,2.61h.93c-.06,1-.6,1.56-1.84,1.56a5.34,5.34,0,0,1-1.73-.31L166,19.76a5.88,5.88,0,0,0,1.91.31A2.82,2.82,0,0,0,171,16.92V12.66a5.24,5.24,0,0,0-2.35-.59A2.63,2.63,0,0,0,165.76,14.69Zm4,1.29h-1.13c-.93,0-1.61-.48-1.61-1.4a1.4,1.4,0,0,1,1.38-1.41h.21a2.56,2.56,0,0,1,1.15.27Z"/><path class="cls-1" d="M182,12.33a.77.77,0,1,0,0-1.54h0a.77.77,0,0,0,0,1.54Z"/><path class="cls-1" d="M179.9,12.33a.77.77,0,1,0-.79-.77.77.77,0,0,0,.79.77Z"/><path class="cls-1" d="M185,15.69a5.11,5.11,0,0,1-2,.32h-4.32c-1.2,0-1.92-.48-1.92-1.64a5,5,0,0,1,.2-1.27l-1.16-.22a6.52,6.52,0,0,0-.3,1.86c0,2,1.29,2.58,3.1,2.58h4.19a7.6,7.6,0,0,0,3.46-.65V12H185Z"/><path class="cls-1" d="M192.77,15.6a3,3,0,0,1-1.57.41L190,10.88h-1.26L189.91,16h-2v1.31h3.28a4.19,4.19,0,0,0,2.9-1.11V9.52h-1.27Z"/><path class="cls-1" d="M211.22,11a.76.76,0,0,0,0-1.52.76.76,0,1,0,0,1.52Z"/><path class="cls-1" d="M211.67,15.73A4.46,4.46,0,0,1,210,16h-1.56V14.58c0-2-1.12-3-2.66-3-1.36,0-2.5.77-3.73,2.05V12.38h-1.27V16h-1.66a4,4,0,0,1-1.66-.34V9.52H196.2v6.35a.83.83,0,0,0,.52.87,4.84,4.84,0,0,0,2.29.58h11.08a5.39,5.39,0,0,0,2.85-.78V12h-1.27ZM207.2,16h-5.14v-.78c1.36-1.58,2.41-2.37,3.5-2.37s1.61,1,1.61,1.92Z"/><path class="cls-1" d="M213.31,9.48a.76.76,0,1,0,.77.76A.76.76,0,0,0,213.31,9.48Z"/><path class="cls-1" d="M219.4,15.6a3,3,0,0,1-1.57.41l-1.2-5.13h-1.26L216.55,16H214.5v1.31h3.28a4.19,4.19,0,0,0,2.89-1.11V9.52H219.4Z"/><rect class="cls-1" x="222.83" y="9.52" width="1.27" height="7.81"/><path class="cls-1" d="M230.37,10.94a.77.77,0,1,0-.78-.77.77.77,0,0,0,.78.77Z"/><path class="cls-1" d="M232.46,10.94a.77.77,0,0,0,.77-.76.76.76,0,0,0-.76-.78.77.77,0,0,0-.77.76h0A.78.78,0,0,0,232.46,10.94Z"/><path class="cls-1" d="M238.81,10.15h-.62c-.49,0-.7-.23-.7-.48a.39.39,0,0,1,.37-.41h0a.51.51,0,0,1,.33.13l.47-.5a1.27,1.27,0,0,0-.88-.36,1,1,0,0,0-1,.91V9.5a1,1,0,0,0,.24.65h-.51V11h2.26Z"/><path class="cls-1" d="M243.3,18.1a.76.76,0,0,0-.69.84.75.75,0,0,0,.69.69.77.77,0,1,0,.14-1.53Z"/><path class="cls-1" d="M241.21,18.1a.77.77,0,1,0,.78.78.77.77,0,0,0-.78-.78Z"/><path class="cls-1" d="M249.55,16a2.24,2.24,0,1,0-4-1.52,2.1,2.1,0,0,0,.58,1.52h-1.64a3.9,3.9,0,0,1-1.65-.34V12h-1.27v3.7A4,4,0,0,1,240,16a3.9,3.9,0,0,1-1.65-.34V12H237v3.7a3.92,3.92,0,0,1-1.66.34h-1.62V12.46a5.17,5.17,0,0,0-2.34-.59,2.65,2.65,0,0,0-2.92,2.73c0,1.67,1.2,2.72,3.07,2.72h3.93a4.57,4.57,0,0,0,2.17-.58,4.76,4.76,0,0,0,4.57,0,4.85,4.85,0,0,0,2.17.58h8.15V14.69c0-3.23-2-4.45-4.49-4.45a8.64,8.64,0,0,0-1.34.1v1.17a9.67,9.67,0,0,1,1.31-.12,2.93,2.93,0,0,1,3.25,3.23V16Zm-17.07,0h-1.11a1.48,1.48,0,0,1-.25-2.94h.19a2.64,2.64,0,0,1,1.17.27Zm15.38,0a1.24,1.24,0,0,1-1.11-1.32,1.12,1.12,0,1,1,2.23,0A1.24,1.24,0,0,1,247.85,16Z"/><path class="cls-1" d="M2.87,19.35l-.26-.12-.18.37.25.12Z"/><path class="cls-1" d="M2.8,15.83l-.4-.25-.18.27.37.25A.68.68,0,0,1,2.8,15.83Z"/><path class="cls-1" d="M2.69,17.66l-.24-.13-.18.3.22.13C2.55,17.86,2.62,17.76,2.69,17.66Z"/><path class="cls-1" d="M3.59,18.18,3.29,18l-.2.33.3.17A1,1,0,0,1,3.59,18.18Z"/><path class="cls-1" d="M3.13,21.07,3,21c-.05.12-.09.23-.13.35l.13.06C3,21.3,3.08,21.18,3.13,21.07Z"/><path class="cls-1" d="M3.1,16.46l.29.2.21-.28-.31-.2C3.23,16.28,3.16,16.37,3.1,16.46Z"/><path class="cls-1" d="M1.48,17l-.16.28.32.18.19-.28Z"/><path class="cls-1" d="M3.8,14.57l-.45-.34-.27.34.42.33.14-.17A1.21,1.21,0,0,1,3.8,14.57Z"/><path class="cls-1" d="M2.19,20.71,2,20.63c0,.1-.07.2-.12.3l.19.08Z"/><path class="cls-1" d="M6.13,12.29l-.53-.54c-.17.15-.33.3-.48.46l.5.5Z"/><path class="cls-1" d="M5.11,16.14l.3-.34L5,15.51l-.28.35Z"/><path class="cls-1" d="M5.32,14.46l.39-.38-.42-.37-.39.4Z"/><path class="cls-1" d="M4.72,17.56l.37.25.23-.33-.39-.25Z"/><path class="cls-1" d="M4.46,16.94l-.35-.23L3.9,17l.33.22Z"/><path class="cls-1" d="M4.25,14.91l-.16.18L4,15.26l.34.26.3-.33Z"/><path class="cls-1" d="M1.92,18.92l-.18-.09-.15.34.15.08Z"/><path class="cls-1" d="M4.07,13.36l.46.41.37-.39L4.41,13Z"/><path class="cls-1" d="M4.5,18.65l-.3-.18L4,18.83l.3.18Z"/><path class="cls-1" d="M3.8,19.78l-.25-.11-.19.4.22.11C3.65,20,3.73,19.91,3.8,19.78Z"/><path class="cls-1" d="M7.76,14l-.44.42.42.44.45-.42Z"/><path class="cls-1" d="M8.31,12.37l-.57.45,1,1.17c.17-.15.36-.29.54-.43Z"/><path class="cls-1" d="M1.21,20.34l-.11-.06c0,.09-.06.17-.1.26l.09,0Z"/><path class="cls-1" d="M8.2,9.62c-.24.17-.48.35-.7.53l.56.7.7-.46Z"/><path class="cls-1" d="M6.73,15l-.36.4.45.4,0,0,.33-.35Z"/><path class="cls-1" d="M9.62,8.71c-.29.17-.57.35-.86.54l2.1,3.15.7-.43Z"/><path class="cls-1" d="M21,5.67a23,23,0,0,0-9.5,2.06l1.81,3.41a19.19,19.19,0,0,1,14.36-.46L29,7.08A23,23,0,0,0,21,5.67Z"/><path class="cls-1" d="M11.11,7.92c-.34.16-.7.33-1,.51L12,11.73q.42-.23.84-.42Z"/><path class="cls-1" d="M8.93,10.64l-.7.49,1.56,2c.2-.15.41-.29.63-.43Z"/><path class="cls-1" d="M.22,20.21A.48.48,0,0,1,.31,20l-.23-.09a.64.64,0,0,1-.08.2Z"/><path class="cls-1" d="M6,14.37c-.13.14-.26.26-.37.39l.39.36.39-.37Z"/><path class="cls-1" d="M5.5,16.44l.42.33.3-.35-.44-.33Z"/><path class="cls-1" d="M.62,18.67l.26.14c.06-.1.11-.2.16-.3l-.29-.13Z"/><path class="cls-1" d="M7.64,11.57,7.06,12l.47.54.6-.42Z"/><path class="cls-1" d="M6.42,12.59,6,13l.44.43.49-.4Z"/><path class="cls-1" d="M7.57,13.79l-.44-.46-.46.43.41.42Z"/><path class="cls-1" d="M7.41,11.3l-.54-.66-.58.5.54.61A5.54,5.54,0,0,1,7.41,11.3Z"/><path class="cls-1" d="M34.65,46.92l-.38-.49c-.15.1-.29.21-.45.3l.39.52Z"/><path class="cls-1" d="M34,46l-.31-.41-.45.29.33.44Z"/><path class="cls-1" d="M34.84,42.66l-.32-.33-.29.25.35.34Z"/><path class="cls-1" d="M32.93,45.54l.44-.32-.32-.42-.45.3Z"/><path class="cls-1" d="M33.39,47.84,33,47.25l-.57.32.4.63Z"/><path class="cls-1" d="M35.85,45.92l-.35-.4c-.07,0-.14.12-.21.16l-.13.11.36.41A1.56,1.56,0,0,0,35.85,45.92Z"/><path class="cls-1" d="M34.93,45.24l.19-.16-.28-.33-.35.27.29.34Z"/><path class="cls-1" d="M35.82,41.59l-.28-.25-.28.29.3.26Z"/><path class="cls-1" d="M35.52,43.36l-.27-.28a3.08,3.08,0,0,1-.27.24l.29.29Z"/><path class="cls-1" d="M36.2,44.06,36,43.82,35.7,44l.26.25Z"/><path class="cls-1" d="M33.14,43.49l.37.42.35-.29-.36-.42Z"/><path class="cls-1" d="M31.47,47.64,31.12,47l-.7.3.37.7Z"/><path class="cls-1" d="M29.45,48.9l.4.89.82-.38-.4-.82C30,48.71,29.72,48.8,29.45,48.9Z"/><path class="cls-1" d="M26.49,47c-.31.09-.62.18-.93.25l1.07,3.68c.37-.09.74-.19,1.11-.31Z"/><path class="cls-1" d="M32.17,46l-.33-.51c-.18.11-.37.21-.55.3l.34.53Z"/><path class="cls-1" d="M34.48,44.33,34.19,44c-.12.1-.24.18-.37.27l.32.36A3.24,3.24,0,0,0,34.48,44.33Z"/><path class="cls-1" d="M32.75,46.86l-.34-.51-.57.3.36.55Z"/><path class="cls-1" d="M32.06,48.67l-.4-.7c-.23.11-.46.23-.7.32l.41.76Z"/><path class="cls-1" d="M31.16,45.59l.53-.33-.34-.5-.53.32Z"/><path class="cls-1" d="M39.61,41.17l.2.13.1-.17L39.73,41Z"/><path class="cls-1" d="M38.86,42.66l.19-.24-.24-.18-.2.24Z"/><path class="cls-1" d="M32.37,44.8l.44-.32L32.43,44l-.1.07h0L32,44.3Z"/><path class="cls-1" d="M39,40.5l-.09,0-.14.21.09.06Z"/><path class="cls-1" d="M30.3,47.06l.66-.33-.75-1.31-.62.32Z"/><path class="cls-1" d="M36.56,42.25,36.33,42l-.26.28.25.21A2.78,2.78,0,0,1,36.56,42.25Z"/><path class="cls-1" d="M28.27,50.42l1-.36-1.46-3.5-.82.29Z"/><path class="cls-1" d="M29.37,48.64c.27-.1.54-.21.79-.33L29.05,46l-.7.31Z"/><path class="cls-1" d="M25.18,47.31A19.19,19.19,0,0,1,11,44.94L9,48.2A23,23,0,0,0,26.21,51Z"/><path class="cls-1" d="M37.27,42.89l-.2-.17-.24.25.2.18A2.84,2.84,0,0,0,37.27,42.89Z"/><path class="cls-1" d="M37.21,41.45l.24-.31L37.26,41l-.26.27Z"/><path class="cls-1" d="M37,44.85l-.31-.32-.24.21.33.33Z"/><path class="cls-1" d="M36.66,40.51l-.22-.17-.29.34.25.18C36.49,40.75,36.57,40.63,36.66,40.51Z"/><path class="cls-1" d="M38.24,40l-.13-.09-.18.25.15.09C38.13,40.12,38.19,40,38.24,40Z"/><path class="cls-1" d="M37.59,43.61l.3.25.2-.24-.27-.26Z"/><path class="cls-1" d="M38,42l.21-.28-.14-.11-.23.27Z"/><path class="cls-1" d="M37.26,39.27l-.21.29.17.11.19-.29Z"/><path class="cls-1" d="M23.71,31.34a3.83,3.83,0,1,1,0-5.41h0l2.71-2.7a7.66,7.66,0,1,0,0,10.83h0Z"/><path class="cls-1" d="M55.74,31.34a3.83,3.83,0,1,1,0-5.41h0l2.71-2.7a7.66,7.66,0,1,0,0,10.83h0Z"/><rect class="cls-1" x="28.19" y="21.75" width="3.83" height="13.77"/><polygon class="cls-1" points="44.42 21.75 34.2 21.75 34.2 25.58 39.59 25.58 37.4 26.83 37.4 35.52 41.22 35.52 41.22 25.58 44.42 25.58 44.42 21.75"/><path class="cls-1" d="M13.39,37.35l-.4-.28-.38.39.38.37Z"/><path class="cls-1" d="M12.17,36.28l-.32.28c.11.15.23.28.35.42l.35-.32Z"/><path class="cls-1" d="M13.74,38.84l-.45-.29L13,39l.45.35Z"/><path class="cls-1" d="M10.88,36.45l-.31-.38-.16.12c.09.14.18.27.28.4Z"/><path class="cls-1" d="M12.69,38.14l-.44-.34-.29.3a5.14,5.14,0,0,0,.41.4Z"/><path class="cls-1" d="M11.51,37.62l.25-.24-.39-.4-.24.21Z"/><path class="cls-1" d="M27.37,38.19a11.58,11.58,0,0,1-8.49,1.74l-.7,3.75a15.52,15.52,0,0,0,2.8.26,15.2,15.2,0,0,0,8.49-2.56Z"/><path class="cls-1" d="M9,37.19l-.23.16.3.42.25-.19A1.48,1.48,0,0,1,9,37.19Z"/><path class="cls-1" d="M17.82,39.67l-1,3.65.79.23.28.06.75-3.74Z"/><path class="cls-1" d="M9.9,38.26l-.26.23c.13.16.26.32.4.47l.3-.26Z"/><path class="cls-1" d="M13.52,38.24l.42.32.4-.56-.42-.23Z"/><path class="cls-1" d="M14.52,40l.36-.64-.57-.23-.36.56Z"/><path class="cls-1" d="M10.11,37l-.32-.4-.15.12.28.41Z"/><path class="cls-1" d="M11.73,35.82c-.11-.12-.21-.24-.31-.37l-.24.18.27.39Z"/><path class="cls-1" d="M15.21,41.8l-.77-.31-.35.7.79.41Z"/><path class="cls-1" d="M16.62,42.24c-.3-.07-.6-.16-.9-.26l-.33.83c.3.13.62.25.93.36Z"/><path class="cls-1" d="M15.64,40.8c-.25-.08-.48-.17-.7-.26l-.33.65.73.35Z"/><path class="cls-1" d="M17.44,39.55l-.7-.24-.95,2.44c.28.11.58.21.86.3Z"/><path class="cls-1" d="M14.46,38.91l.51.3.34-.6q-.24-.13-.48-.3Z"/><path class="cls-1" d="M11.06,38a5.44,5.44,0,0,1-.42-.41l-.22.18.39.46Z"/><path class="cls-1" d="M15,40.31a6.4,6.4,0,0,0,.7.3l.6-1.44-.57-.28Z"/><path class="cls-1" d="M12.59,40.49l-.26-.18a1.73,1.73,0,0,1-.28-.19l-.34.44.53.42Z"/><path class="cls-1" d="M12,38.88l-.47-.37-.26.27.44.42Z"/><path class="cls-1" d="M14.37,40.31,13.76,40l-.32.51.6.38Z"/><path class="cls-1" d="M11.38,39.62l-.48-.41-.31.33.47.45Z"/><path class="cls-1" d="M13.86,41.22l-.65-.35-.36.56.66.41Z"/><path class="cls-1" d="M12.85,40.1l.32-.44a5.39,5.39,0,0,1-.5-.33l-.31.39.24.2Z"/><path class="cls-1" d="M19.33,16l0-.31a3.09,3.09,0,0,0-.61.08l0,.36C18.94,16.09,19.14,16,19.33,16Z"/><path class="cls-1" d="M19.47,17.06l0-.42-.59.07.08.47C19.09,17.14,19.28,17.09,19.47,17.06Z"/><path class="cls-1" d="M11.45,16.73l.62.75c.22-.2.45-.39.7-.58l-.52-.74C12,16.34,11.71,16.53,11.45,16.73Z"/><path class="cls-1" d="M14.37,17,14,16.4l-.7.41.45.7C14,17.34,14.17,17.18,14.37,17Z"/><path class="cls-1" d="M18.38,13.8l.06.4c.21,0,.43-.09.65-.12L19,13.72Z"/><path class="cls-1" d="M15,15.43l-.27-.62-.7.32.33.66C14.6,15.66,14.81,15.54,15,15.43Z"/><path class="cls-1" d="M13.85,16.09l-.39-.7c-.26.14-.51.28-.75.44l.47.7A4.5,4.5,0,0,0,13.85,16.09Z"/><path class="cls-1" d="M19.93,13.65V14l.58-.05v-.27Z"/><path class="cls-1" d="M20.56,14.87v-.18H20v.23Z"/><path class="cls-1" d="M11.09,17c-.18.14-.36.29-.53.45a3.41,3.41,0,0,0-.26.25L13,20.42l.56-.51Z"/><path class="cls-1" d="M20.65,16.88v-.29h-.54v.35Z"/><path class="cls-1" d="M19.21,15l0-.29a2.72,2.72,0,0,0-.63.08l.06.34Z"/><path class="cls-1" d="M20.6,15.83v-.19H20v.24Z"/><path class="cls-1" d="M17.69,14.39l-.09-.45c-.23,0-.44.09-.66.15l.13.49Z"/><path class="cls-1" d="M18.13,16.32,18,15.9l-.58.14.12.46Z"/><path class="cls-1" d="M18.36,17.34l-.12-.52L17.7,17l.16.56Z"/><path class="cls-1" d="M14.5,17.28a5.6,5.6,0,0,0-.61.38L14.77,19a4.66,4.66,0,0,1,.53-.32Z"/><path class="cls-1" d="M15.45,16.38l-.26-.57-.64.3.32.61C15.06,16.6,15.25,16.48,15.45,16.38Z"/><path class="cls-1" d="M16,17.55l-.53.26.31.62c.17-.08.33-.17.5-.24Z"/><path class="cls-1" d="M10,18A15.3,15.3,0,0,0,5.7,28.68H9.53a11.4,11.4,0,0,1,3.23-8Z"/><path class="cls-1" d="M12.89,17.11c-.24.17-.48.33-.7.52l1.66,2c.17-.14.35-.27.54-.41Z"/><path class="cls-1" d="M16.14,14.92l.15-.06-.2-.54-.65.21.22.58Z"/><path class="cls-1" d="M15.86,17.31l-.27-.6A6.19,6.19,0,0,0,15,17l.33.64C15.51,17.52,15.68,17.41,15.86,17.31Z"/><path class="cls-1" d="M16.6,15.82l-.16-.49-.13,0-.45.17.23.55Z"/><path class="cls-1" d="M17.24,17.74l-.2-.6-.5.18.25.63Z"/><path class="cls-1" d="M16.92,16.79l-.18-.52c-.18.05-.36.12-.54.19l.22.56Z"/><path class="cls-1" d="M17.91,15.39,17.83,15l-.62.14.12.44A1.21,1.21,0,0,1,17.91,15.39Z"/></g></g></g></g></svg>