<svg xmlns="http://www.w3.org/2000/svg" viewBox="0 0 375.73 53.26"><defs><style>.cls-1{fill:#c9c9c9;}</style></defs><g id="Layer_2" data-name="Layer 2"><g id="Layer_1-2" data-name="Layer 1"><g id="Layer_2-2" data-name="Layer 2"><g id="Layer_1-2-2" data-name="Layer 1-2"><path class="cls-1" d="M348.29,32.87a2.09,2.09,0,0,1,1.67.78l-.79.39a.74.74,0,0,0-.39-.39,1.06,1.06,0,0,0-1.08.1.53.53,0,0,0-.29.39c0,.2.2.39.69.59l.58.2a2.24,2.24,0,0,1,1.08.58,1.24,1.24,0,0,1,.39.89,1.11,1.11,0,0,1-.58,1.07,2.37,2.37,0,0,1-2.65.1,1.7,1.7,0,0,1-.59-1.08l.88-.19a1.43,1.43,0,0,0,.2.59,1.14,1.14,0,0,0,.78.29,1.41,1.41,0,0,0,.69-.2.64.64,0,0,0,.2-.88.31.31,0,0,0-.1-.19c-.1-.1-.2-.1-.3-.2s-.29-.1-.39-.2l-.59-.19c-.78-.3-1.27-.69-1.27-1.28a1,1,0,0,1,.49-.88,6.7,6.7,0,0,1,1.37-.29"/><polygon class="cls-1" points="354.07 33.65 351.92 33.65 351.92 34.93 353.98 34.93 353.98 35.61 351.92 35.61 351.92 37.96 351.04 37.96 351.04 32.97 354.07 32.97 354.07 33.65"/><path class="cls-1" d="M356.13,37.18h.39a3.24,3.24,0,0,0,1-.1,1.56,1.56,0,0,0,.69-.39,1.67,1.67,0,0,0,.69-1.27,1.45,1.45,0,0,0-.69-1.28,3.72,3.72,0,0,0-1.76-.49h-.3Zm-.88.78v-4.9h1.27a7.27,7.27,0,0,1,1.47.1,3.11,3.11,0,0,1,1,.49,2.2,2.2,0,0,1,.59,3l-.59.59a3.11,3.11,0,0,1-1,.49,3.85,3.85,0,0,1-1.47.1Z"/><path class="cls-1" d="M363.58,36l-.88-1.66-1,1.66Zm.39.69h-2.55l-.68,1.18h-1l2.94-5.2,2.84,5.2h-1Z"/><path class="cls-1" d="M343.88,10C332.51,2.59,311,27.18,311,27.18v.89l6.67-6.47c13-11.37,19.21-4.9,19.21-4.9,9.4,10.19-28.62,34.79-28.62,34.79l.1.29c8.23-3.23,25.28-17.34,25.28-17.34C353.19,16.6,343.88,10.13,343.88,10"/><path class="cls-1" d="M375.73,13.86v-.4a205.71,205.71,0,0,0-24.4,10.29s-.88-7,11.86-10.78l-.1-.68s-17.54,3.82-18,15.38c0,0-18.82,13.92-12.15,22.84,0,0,5.39,6.76,21.16-2.26,0,0,10.59-6.46,14.31-9.6l-.1-.78S348,54.72,340.94,44.63,371.42,15,375.73,13.86"/><path class="cls-1" d="M351,.53a4.84,4.84,0,0,0-4.9,4.9,4.9,4.9,0,1,0,9.8,0A5,5,0,0,0,351,.53"/><path class="cls-1" d="M.69,17.58c-.3-.29-.49-.49-.49-1.47a3.82,3.82,0,0,1,3.72-3.53A7.32,7.32,0,0,1,6,13.17l-.49,1a3.27,3.27,0,0,0-1.67-.39c-1.27,0-2.74,1.08-2.74,2.06,0,.78,0,1.07.39,1.37.39.49,1.18.39,2.25.39H6.17l-.58,1.08H0V17.58Z"/><rect class="cls-1" x="8.53" y="0.23" width="2.35" height="18.33"/><path class="cls-1" d="M29.11,15.42c0,7.45-3,8.24-8.43,8.33H18.13s-.59-.88-1.47-2.35c4.21,0,7.94.39,9-1.17.49-.69,1.17-1.77,1.17-4.61,0-4.31-1.66-8-5.49-7.94-2.54,0-5.58,1.18-5.58,6.08,0,2.15,1.08,2.64,3,2.64h6.07l-1.57,2.36H19.8c-4.81,0-6.47-.59-6.47-5a8.12,8.12,0,0,1,7.94-8.33c5.68-.1,7.84,5.29,7.84,10"/><path class="cls-1" d="M32.34,18.66l-1.18-2.35h8.92c2.45,0,3.92.19,4.8-1,.59-.69.79-1.38.79-3.14,0-2.16-2.94-4.51-5.69-4.51-3.92,0-5,2.35-6.07,5.29H31.46a14.64,14.64,0,0,1,.59-2A8,8,0,0,1,40,5.43c4.61,0,8.24,4,8.24,7.54a7.18,7.18,0,0,1-.79,3.24H50v2.35H32.34Z"/><polygon class="cls-1" points="52.33 16.31 52.33 0.23 54.59 0.23 54.59 18.66 48.71 18.66 48.71 16.31 52.33 16.31"/><rect class="cls-1" x="57.72" y="0.23" width="2.35" height="18.33"/><path class="cls-1" d="M78.3,15.42c0,7.45-3,8.24-8.43,8.33H67.33s-.59-.88-1.47-2.35c4.21,0,7.84.39,9-1.17.49-.69,1.18-1.77,1.18-4.61,0-4.31-1.67-8-5.49-7.94C68,7.68,65,8.86,65,13.76c0,2.15,1.08,2.64,3,2.64h6.27l-1.56,2.36H69.19c-4.8,0-6.47-.59-6.47-5a8.12,8.12,0,0,1,7.94-8.33c5.49-.1,7.64,5.29,7.64,10"/><path class="cls-1" d="M87.91,17.58c-.3-.29-.49-.49-.49-1.47a3.74,3.74,0,0,1,3.82-3.43,12.67,12.67,0,0,1,2.06.49l-.49,1a3.35,3.35,0,0,0-1.67-.49c-1.27,0-2.74,1.08-2.74,2.06,0,.78,0,1.08.29,1.37.39.49,1.18.49,2.25.49h2.45l-.58,1.08H87.22V17.58Z"/><rect class="cls-1" x="95.84" y="0.23" width="2.35" height="18.33"/><path class="cls-1" d="M110,2.19A1.51,1.51,0,0,1,108.68,4h0a1.56,1.56,0,0,1-1.76-1.37A1.56,1.56,0,0,1,108.29.82c.69-.19,1.47.49,1.67,1.37h0m-8.53,16.47-1.18-2.35h8.92c2.45,0,3.92.19,4.8-1,.59-.69.79-1.38.79-3.14,0-2.16-2.94-4.51-5.69-4.51-3.92,0-5,2.35-6.07,5.29h-2.45a14.64,14.64,0,0,1,.59-2,8,8,0,0,1,7.93-5.58c4.61,0,8.24,4,8.24,7.54a7.18,7.18,0,0,1-.79,3.24h2.55v2.35H101.43Z"/><path class="cls-1" d="M128.28,1.8a1.58,1.58,0,1,1-3.13.39,1.58,1.58,0,1,1,3.13-.39h0m6.57,10.49c0-2.16-2.75-4.51-6.76-4.51-2.75,0-6.67,2.35-6.67,4.51,0,1.66,0,2.35.59,3.13.88,1.08,3.53,1,6,1s5.19.2,6.07-1c.79-.78.79-1.47.79-3.13m-17,4h2.35c-.59-.59-1-1.08-1-3.24a7,7,0,0,1,2.55-5.29h-2.45l2-2.35h7.55c4.61,0,8.23,4,8.23,7.54,0,2.26-.39,2.75-1,3.24h2.35v2.35H117.7V16.31Z"/><polygon class="cls-1" points="141.32 16.31 141.32 0.33 143.67 0.33 143.67 16.31 146.61 16.31 146.61 18.66 137.79 18.66 137.79 16.31 141.32 16.31"/><polygon class="cls-1" points="149.45 16.31 149.45 0.23 151.7 0.23 151.7 18.66 145.82 18.66 145.82 16.31 149.45 16.31"/><path class="cls-1" d="M172.19,1.41a1.58,1.58,0,0,1-3.14.39A1.56,1.56,0,0,1,170.42,0a1.68,1.68,0,0,1,1.77,1.37h0m-3.43,0a1.56,1.56,0,0,1-1.38,1.76h0a1.64,1.64,0,0,1-1.86-1.27A1.63,1.63,0,0,1,166.8,0a1.73,1.73,0,0,1,2,1.37h0m-5.49,10.88c0,1.66-.1,2.45.39,3.13.88,1.08,2.84.89,5.29.89h5.29c2,0,.89-3.83.89-3.83-1.08-2.94-2.16-4.7-6-4.7-2.84,0-5.88,2.35-5.88,4.51m14.31-6.86V16.31h1.86v2.35h-14.8a5.28,5.28,0,0,1-2.94-2.06c-.59-1.18-.69-1.27-.69-3.53,0-3.53,3.53-7.54,8.24-7.54a8.42,8.42,0,0,1,6,2.45V5.53Z"/><path class="cls-1" d="M189.34,11.6a6,6,0,0,1,1.37,5.69,3.7,3.7,0,0,1-.79,1.66c-.78,1.08-2,2.35-3.13,1.67-1.86-1.08-4-2.26-4-2.26l.39-2.54c.1,0,3.14,2.15,4.12,2.35,0,0,1.27-.1,1.27-2.45a3.14,3.14,0,0,0-2.94-3.24h-.39c-2.06,0-2.55,1-2.94,2.65-.29,1.47-.1,2.74-1.57,3.43a3,3,0,0,1-1.57.2h-.68V16.4h.68c.4,0,.89,0,.89-.39,0-2.45,1-5.78,5.58-5.78a4.93,4.93,0,0,1,3.73,1.37"/><polygon class="cls-1" points="198.74 18.66 192.86 18.66 192.86 0.23 195.22 0.23 195.22 16.31 198.74 16.31 198.74 18.66"/><path class="cls-1" d="M214.82,12.29c0-2.16-2.75-4.51-6.67-4.51-2.74,0-6.66,2.35-6.66,4.51a5.2,5.2,0,0,0,.59,3.13c.88,1.08,3.52,1,6,1s5.3.2,6.08-1c.69-.78.69-1.47.69-3.13m-17.06,4h2.36c-.59-.59-1-1.08-1-3.24a7.37,7.37,0,0,1,2.54-5.29h-2.35l2.06-2.35h7.55c4.6,0,8.23,4,8.23,7.54,0,2.26-.39,2.75-1,3.24h2.35v2.35H197.76Z"/><polygon class="cls-1" points="221.28 16.31 221.28 0.23 223.64 0.23 223.64 18.66 217.76 18.66 217.76 16.31 221.28 16.31"/><rect class="cls-1" x="226.77" y="0.23" width="2.35" height="18.33"/><path class="cls-1" d="M248.92,1.41a1.63,1.63,0,0,1-1.47,1.76,1.53,1.53,0,0,1-1.67-1.27A1.57,1.57,0,0,1,247.06,0a1.56,1.56,0,0,1,1.86,1.27v.1m-3.43,0a1.55,1.55,0,0,1-1.37,1.76h0a1.57,1.57,0,0,1-1.77-1.37,1.58,1.58,0,0,1,3.14-.39h0M240,12.29c0,1.66-.19,2.45.39,3.13.89,1.08,2.85.89,5.3.89H251c2,0,.88-3.73.88-3.73-1.08-2.94-2.16-4.7-6-4.7-2.74-.1-5.88,2.25-5.88,4.41m14.31-6.86V16.31h1.86v2.35h-14.8a5.32,5.32,0,0,1-2.94-2.06c-.58-1.18-.68-1.27-.68-3.53,0-3.53,3.53-7.54,8.23-7.54a8.81,8.81,0,0,1,6,2.35V5.43Z"/><path class="cls-1" d="M258.13,6.21c-.19-.19-.29-.39-.29-1.08a2.84,2.84,0,0,1,2.74-2.54,4.53,4.53,0,0,1,1.57.39l-.39.68a2.7,2.7,0,0,0-1.18-.29c-.88,0-2,.78-2,1.47,0,.49,0,.78.2,1,.29.39.88.29,1.66.29h1.77l-.39.69h-4V6.11h.29Zm.79,10.1V9.05h2.35v7.26h2.94v2.35h-8.92V16.31Z"/><path class="cls-1" d="M270.48,21.4a1.57,1.57,0,0,1-1.37,1.77h0a1.58,1.58,0,1,1-.39-3.14,1.56,1.56,0,0,1,1.76,1.37h0m-3.33,0A1.58,1.58,0,1,1,265.38,20a1.68,1.68,0,0,1,1.77,1.37h0m-.59-5.09V9.05h2.35v7.26h2.94v2.35H263V16.31Z"/><path class="cls-1" d="M287.73,12.29c0-2.06-3.33-4.51-5.88-4.51v8.53c2.55,0,4.41.09,5.19-1,.59-.69.69-1.38.69-3m-8.14-4.41c-2.64,0-5.19,2.55-5.19,4.31s.1,2.35.59,3.14c.78,1,4.6,1,4.6,1V7.88Zm0-3.24L282,3.57v2c4.6,0,8.23,4,8.23,7.54,0,2.26-.39,2.75-1,3.24h2.35v2.35H270.77V16.31h2.36c-.59-.59-1-1.08-1-3.24,0-3,2.74-6.56,7.54-7.45Z"/><polygon class="cls-1" points="294.1 16.31 294.1 0.23 296.45 0.23 296.45 18.66 290.47 18.66 290.47 16.31 294.1 16.31"/><rect class="cls-1" x="299.59" y="0.23" width="2.35" height="18.33"/><path class="cls-1" d="M10.29,35,8.43,36.1a2.88,2.88,0,0,0-1-1.17,2.69,2.69,0,0,0-1.28-.3,2.23,2.23,0,0,0-1.56.59A1.39,1.39,0,0,0,4,36.59c0,.79.59,1.37,1.66,1.77l1.47.58A6.59,6.59,0,0,1,9.9,40.81a4.26,4.26,0,0,1,.88,2.64A5.32,5.32,0,0,1,9.41,47a5.34,5.34,0,0,1-3.53,1.37,4.86,4.86,0,0,1-3.23-1.17A6,6,0,0,1,1,43.84l2.35-.49a3.26,3.26,0,0,0,.59,1.87A2.26,2.26,0,0,0,6,46.2a2.37,2.37,0,0,0,1.76-.69,2.6,2.6,0,0,0,.69-1.86,1.9,1.9,0,0,0-.1-.79,1.62,1.62,0,0,0-.39-.68,4.22,4.22,0,0,0-.69-.59,4.28,4.28,0,0,0-1-.49L4.8,40.51c-2.06-.88-3.13-2.15-3.13-3.92a3.87,3.87,0,0,1,1.27-2.84,4.35,4.35,0,0,1,3.23-1.08A4.19,4.19,0,0,1,10.29,35"/><path class="cls-1" d="M15.58,43.16a3.32,3.32,0,0,0,.79,2.25,2.62,2.62,0,0,0,3.92,0,3.83,3.83,0,0,0,0-4.51,2.62,2.62,0,0,0-3.92,0,4,4,0,0,0-.79,2.26m5.29-4.8h2.26v9.7H20.87v-1a4.32,4.32,0,0,1-6.07.1l-.2-.2a5.23,5.23,0,0,1-1.27-3.72,5.3,5.3,0,0,1,1.27-3.63,4.06,4.06,0,0,1,3.24-1.47,4,4,0,0,1,3,1.37Z"/><path class="cls-1" d="M29.79,38.45v5.49c0,1.57.59,2.35,1.86,2.35s1.87-.78,1.87-2.35V38.45h2.25V44a6.49,6.49,0,0,1-.29,2,4.49,4.49,0,0,1-1,1.37,4.37,4.37,0,0,1-2.85,1,4.19,4.19,0,0,1-2.84-1,3.54,3.54,0,0,1-1-1.37,6.49,6.49,0,0,1-.29-2V38.45Z"/><path class="cls-1" d="M41.65,43.16a3.36,3.36,0,0,0,.78,2.25,2.62,2.62,0,0,0,3.92,0,3.83,3.83,0,0,0,0-4.51,2.64,2.64,0,0,0-3.72-.19c-.1.1-.2.1-.2.19a2.94,2.94,0,0,0-.78,2.26M46.94,31.3H49.2V48.06H46.94v-1A4.25,4.25,0,0,1,44,48.35a4.39,4.39,0,0,1-3.33-1.47,5.23,5.23,0,0,1-1.27-3.72,5.48,5.48,0,0,1,1.27-3.63A4.19,4.19,0,0,1,46.55,39c.2.1.29.3.39.39Z"/><path class="cls-1" d="M55.47,48.06H53.31V38.45h2.26v9.61ZM52.92,34.44a1.47,1.47,0,0,1,2.94,0,1.81,1.81,0,0,1-.39,1,1.28,1.28,0,0,1-1,.39,1.52,1.52,0,0,1-1.57-1.37h0"/><polygon class="cls-1" points="75.17 34.93 69.87 34.93 69.87 38.65 74.97 38.65 74.97 40.81 69.87 40.81 69.87 48.06 67.52 48.06 67.52 32.77 75.17 32.77 75.17 34.93"/><path class="cls-1" d="M80.85,43.16a3.21,3.21,0,0,0,.78,2.25,3,3,0,0,0,4.12,0,3.54,3.54,0,0,0,0-4.51A2.85,2.85,0,0,0,83.69,40a2.71,2.71,0,0,0-2.06.88,2.94,2.94,0,0,0-.78,2.26m-2.25,0a4.66,4.66,0,0,1,1.47-3.53,5.33,5.33,0,0,1,7.35,0,5.2,5.2,0,0,1,0,7.25,5.28,5.28,0,0,1-3.73,1.47,5,5,0,0,1-3.62-1.47,4.86,4.86,0,0,1-1.47-3.72"/><path class="cls-1" d="M94.18,43.16A3.17,3.17,0,0,0,95,45.41a3,3,0,0,0,4.12,0,3.54,3.54,0,0,0,0-4.51A2.86,2.86,0,0,0,97,40,2.71,2.71,0,0,0,95,40.9a3.93,3.93,0,0,0-.78,2.26m-2.26,0a4.66,4.66,0,0,1,1.47-3.53,5.13,5.13,0,1,1,7.26,7.25,5.28,5.28,0,0,1-3.73,1.47,5,5,0,0,1-3.62-1.47,5.17,5.17,0,0,1-1.38-3.72"/><path class="cls-1" d="M108,43.16a3.31,3.31,0,0,0,.78,2.25,2.62,2.62,0,0,0,3.92,0,3.83,3.83,0,0,0,0-4.51,2.62,2.62,0,0,0-3.92,0,2.91,2.91,0,0,0-.78,2.26m5.29-11.86h2.25V48.06h-2.25v-1a4.27,4.27,0,0,1-2.94,1.27A4.23,4.23,0,0,1,107,46.88a5.05,5.05,0,0,1-1.28-3.72A5.18,5.18,0,0,1,107,39.63a4.19,4.19,0,0,1,5.88-.49,1.59,1.59,0,0,1,.39.39Z"/><path class="cls-1" d="M131.61,38l.2-.09c.29-.2.59-.49.78-.59s.3-.3.49-.49a1.58,1.58,0,0,0,.3-.88,1.25,1.25,0,0,0-.39-1,1.47,1.47,0,0,0-1.08-.4,1.46,1.46,0,0,0-1.08.4.92.92,0,0,0-.39,1,1.82,1.82,0,0,0,.49,1.27l.59.69.09.09m-.49,2.94L131,41a14.35,14.35,0,0,0-2,1.57,2,2,0,0,0-.49,1.27,2.56,2.56,0,0,0,2.54,2.45c.89,0,1.87-.58,3-1.76ZM133,39.63,135.73,43l.1-.1c.29-.29.59-.68.88-1s.49-.58.78-1L139,42.47a3,3,0,0,1-.78.88,14,14,0,0,0-1.08,1.18l2.84,3.53H137.1l-1.57-1.86a6.16,6.16,0,0,1-4.41,2.15,4.84,4.84,0,0,1-3.43-1.27,4.3,4.3,0,0,1-1.37-3.24A4.38,4.38,0,0,1,128.48,40l1-.68h.1l.09-.1a4.82,4.82,0,0,1-1.56-3.14,3.47,3.47,0,0,1,1-2.55,4.15,4.15,0,0,1,5.29,0,3.07,3.07,0,0,1,1,2.36,2.75,2.75,0,0,1-.59,1.76,9.83,9.83,0,0,1-2.06,2"/><path class="cls-1" d="M152.68,45.9h1.08a11,11,0,0,0,2.55-.29,5.18,5.18,0,0,0,3.53-5.1,5,5,0,0,0-1.67-4,6.66,6.66,0,0,0-4.51-1.37h-1.07Zm-2.25,2.16V32.77h3.23a11.26,11.26,0,0,1,3.63.49,6.1,6.1,0,0,1,2.65,1.57,7.36,7.36,0,0,1,2.35,5.68,7.45,7.45,0,0,1-5.1,7.25,11.17,11.17,0,0,1-3.62.4Z"/><path class="cls-1" d="M165.91,38.45h2.26v.79a2.92,2.92,0,0,1,1.08-.88,2.54,2.54,0,0,1,1.17-.3,3.21,3.21,0,0,1,1.86.59l-1,2.06a2,2,0,0,0-1.27-.49c-1.18,0-1.86.88-1.86,2.74v5.1h-2.26Z"/><path class="cls-1" d="M177.67,38.45v5.49c0,1.57.59,2.35,1.87,2.35s1.86-.78,1.86-2.35V38.45h2.25V44a6.49,6.49,0,0,1-.29,2,4.49,4.49,0,0,1-1,1.37,4.83,4.83,0,0,1-5.78,0,3.35,3.35,0,0,1-1-1.37,6.19,6.19,0,0,1-.3-2V38.45Z"/><path class="cls-1" d="M194.73,43.26a3.35,3.35,0,0,0-.79-2.26,2.45,2.45,0,0,0-2-.88,2.56,2.56,0,0,0-2,1,3.85,3.85,0,0,0,0,4.31,2.2,2.2,0,0,0,2,.88,2.66,2.66,0,0,0,2.06-.88,3.34,3.34,0,0,0,.69-2.15m2.05,4.6a4.44,4.44,0,0,1-.09,1.18,2.93,2.93,0,0,0-.1.88,4.28,4.28,0,0,1-1,1.86,5.15,5.15,0,0,1-6.76.39,4.19,4.19,0,0,1-1.47-2.94h2.25a3.62,3.62,0,0,0,.39,1.08,2.38,2.38,0,0,0,2.06.88c1.67,0,2.45-1,2.45-3V46.78a4,4,0,0,1-3,1.38,4.2,4.2,0,0,1-3.13-1.38,5.25,5.25,0,0,1-1.28-3.62,5.63,5.63,0,0,1,1.18-3.53,4.33,4.33,0,0,1,3.33-1.57,4,4,0,0,1,3,1.37V38.36h2.25Z"/><path class="cls-1" d="M217.07,42.18,214.82,37l-2.36,5.2Zm1,2.15h-6.57l-1.66,3.73h-2.45l7.54-16.27,7.35,16.27h-2.54Z"/><path class="cls-1" d="M227,38.45v5.49c0,1.57.59,2.35,1.86,2.35s1.86-.78,1.86-2.35V38.45H233V44a6.19,6.19,0,0,1-.3,2,4.32,4.32,0,0,1-1,1.37,4.83,4.83,0,0,1-5.78,0,3.54,3.54,0,0,1-1-1.37,6.19,6.19,0,0,1-.29-2V38.45Z"/><polygon class="cls-1" points="239.81 40.51 239.81 48.06 237.65 48.06 237.65 40.51 236.67 40.51 236.67 38.45 237.65 38.45 237.65 34.93 239.81 34.93 239.81 38.45 241.57 38.45 241.57 40.51 239.81 40.51"/><path class="cls-1" d="M244.61,31.3h2.25v7.84a3.79,3.79,0,0,1,2.65-1.08,3.46,3.46,0,0,1,2.64,1.18,5.17,5.17,0,0,1,.89,2.94v5.88h-2.26V42.37a3.26,3.26,0,0,0-.39-1.66,1.36,1.36,0,0,0-1.37-.49,1.77,1.77,0,0,0-1.67.68,5.69,5.69,0,0,0-.49,2.55v4.71h-2.25V31.3Z"/><path class="cls-1" d="M258.52,43.16a3.18,3.18,0,0,0,.79,2.25,2.81,2.81,0,0,0,2.06.88,2.65,2.65,0,0,0,2.05-.88,3.54,3.54,0,0,0,0-4.51,2.83,2.83,0,0,0-2.05-.88,2.69,2.69,0,0,0-2.06.88,4,4,0,0,0-.79,2.26m-2.25,0a4.66,4.66,0,0,1,1.47-3.53,5.13,5.13,0,1,1,3.53,8.72,5,5,0,0,1-3.63-1.47,5.63,5.63,0,0,1-1.37-3.72"/><path class="cls-1" d="M270.28,38.45h2.26v.79a2.92,2.92,0,0,1,1.08-.88,2.54,2.54,0,0,1,1.17-.3,3.21,3.21,0,0,1,1.86.59l-1,2.06a2,2,0,0,0-1.27-.49c-1.18,0-1.86.88-1.86,2.74v5.1h-2.26Z"/><path class="cls-1" d="M281.75,48.06H279.5V38.45h2.25ZM279.2,34.44A1.51,1.51,0,0,1,280.67,33a1.11,1.11,0,0,1,1,.39,1.23,1.23,0,0,1,.39,1,1.73,1.73,0,0,1-.39,1,1.27,1.27,0,0,1-1,.39,1.81,1.81,0,0,1-1-.39,1.19,1.19,0,0,1-.49-.88"/><polygon class="cls-1" points="288.02 40.51 288.02 48.06 285.77 48.06 285.77 40.51 284.89 40.51 284.89 38.45 285.77 38.45 285.77 34.93 288.02 34.93 288.02 38.45 289.79 38.45 289.79 40.51 288.02 40.51"/><polygon class="cls-1" points="296.06 46.29 291.75 38.45 294.29 38.45 297.23 43.94 299.98 38.45 302.53 38.45 294.88 53.25 292.33 53.25 296.06 46.29"/><rect class="cls-1" x="0.2" y="27.58" width="301.45" height="0.69"/></g></g></g></g></svg>