<svg xmlns="http://www.w3.org/2000/svg" viewBox="0 0 101.01 92.09"><defs><style>.cls-1,.cls-2{fill:#c9c9c9;}.cls-2{fill-rule:evenodd;}</style></defs><g id="Layer_2" data-name="Layer 2"><g id="Layer_1-2" data-name="Layer 1"><path class="cls-1" d="M32.55,88.33a.72.72,0,0,1-1-.31c-.1-.23,0-.13-.05-4.83h1.45v-.55H31.46V80.43h-.37c-.27,1.37-.62,2.44-2,2.44v.32h1.12c0,4.62-.05,4.69.08,5.17a1.13,1.13,0,0,0,1.19.89,1.89,1.89,0,0,0,1.74-1l-.32-.22A1.1,1.1,0,0,1,32.55,88.33ZM21,80.23c.49.93,2,0,1.19-.71C21.6,79,20.7,79.61,21,80.23Zm3.66,3.57c0-.9,1.89-1.52,3,.33l.47-.42a2.63,2.63,0,0,0-1.65-1.15c-1.71-.28-2.81.66-2.81,1.76,0,1.3,1.19,1.75,2.37,2.29,2,.94.87,2.56-.63,2.13a2.76,2.76,0,0,1-1.35-1.16l-.52.47a2.85,2.85,0,0,0,1.2,1,3.28,3.28,0,0,0,3-.34,1.73,1.73,0,0,0,0-2.63C26.84,85.16,24.67,85,24.67,83.8Zm12.41-1.29c-.75,0-1.43.74-1.85,1.36V82.64H34v6.47h1.28V84.63a5.34,5.34,0,0,1,.53-.72.7.7,0,0,1,1-.14,1.07,1.07,0,0,0,1.13,0,.67.67,0,0,0-.1-1A1.14,1.14,0,0,0,37.08,82.51Zm-25.71-3a.58.58,0,0,0,0,.91c.68.6,1.72-.3,1-.91A.8.8,0,0,0,11.37,79.52Zm4,4.31V82.64H14.1v6.47h1.28V84.32c1.37-1.32,2.85-1.27,2.85.37v4.42h1.29V84.47A2.22,2.22,0,0,0,19,83.08C18.1,82,16.43,82.65,15.38,83.83ZM4.77,87.16H4.7L1.44,80.72H0v8.39H.62V82.29h.1L4.2,89.11h.29l3.44-6.87H8v6.87H9.39V80.72H8m13.08,2.16v6.23h1.28v-6.6H22m-10.7.37v6.23h1.27v-6.6h-.37M88.45,79.7v9.41h1.28V79.33h-.37m4.75,9a.72.72,0,0,1-1-.31c-.1-.23,0-.11,0-4.83h1.45v-.55H93V80.43h-.37c-.27,1.38-.63,2.44-2,2.44v.32h1.13c0,4.63-.06,4.68.07,5.17a1.13,1.13,0,0,0,.63.78A1.94,1.94,0,0,0,94.05,89a1.86,1.86,0,0,0,.69-.7l-.32-.22A1.1,1.1,0,0,1,94.11,88.33Zm-8-5.35a3.62,3.62,0,0,0-2.79-.35c-2.11.52-1.83,2.15-.93,2.15.49,0,.63-.37.63-.86a1,1,0,0,1,.21-.67A1.36,1.36,0,0,1,84.65,83a1.07,1.07,0,0,1,.65.76,5.26,5.26,0,0,1,.08,1.15,10.49,10.49,0,0,0-2.58.89c-2.86,1.53-.5,4.92,2.13,2.76l.45-.35v.88h1.29C86.63,84.08,86.87,83.57,86.16,83Zm-.78,4.78a3.61,3.61,0,0,1-1.12.65,1.12,1.12,0,0,1-1.35-1.55,4.65,4.65,0,0,1,2.47-1.52Zm15.42-4.05c-.64-1.85-2.69-1.36-4,.12v-4.5h-.37l-.91.37v9.41H96.8V84.32c1.34-1.31,2.85-1.28,2.85.37v4.42h1.28C100.89,84.43,101,84.33,100.8,83.71Zm-50.74-.19a3.35,3.35,0,0,0,2.45,5.73A3.44,3.44,0,0,0,55,83.44,3.59,3.59,0,0,0,50.06,83.52Zm4.29,3.77a1.83,1.83,0,0,1-1.6,1.49c-2.32,0-3-4.47-1.18-5.6A1.83,1.83,0,0,1,54,84,5,5,0,0,1,54.35,87.29Zm-12.13,0-2.5-4.67H38.26l3.31,6.16c-.51,1.14-.7,1.71-1.12,2a.71.71,0,0,1-.65.07c-.2-.08-.2-.12-.42-.2a.78.78,0,0,0-1.08.66c0,1,2.27,1.3,3.34-1.1l3.3-7.6h-.69Zm19.46-7.66a2.48,2.48,0,0,0-3,.42,3.31,3.31,0,0,0-.71,2.56H56.59v.55h1.35v5.92h1.29V83.19H61v-.55H59.23c0-1.22-.11-1.88.25-2.43a.82.82,0,0,1,.64-.4c1,0,.42,1.23,1.36,1.23C62.24,81,62.4,80.12,61.68,79.66ZM80,87.27a2.48,2.48,0,0,1-1.23.86c-1.78.64-3.09-.87-3.09-2.89h4.83c0-2.66-3.49-3.67-5.19-1.71-1.9,2.23-.6,5.72,2.3,5.72a3.4,3.4,0,0,0,3.06-2.4l-.37-.16A1.73,1.73,0,0,1,80,87.27ZM75.87,84a1.58,1.58,0,0,1,3,.69H75.71A2.18,2.18,0,0,1,75.87,84Zm-4.32.52H67.34V80.72H65.93v8.39h1.41v-4h4.21v4H73V80.72H71.55"/><path class="cls-2" d="M74.33,24.17C62.82,25.83,37.74,47.48,37.74,47.48H48A112.62,112.62,0,0,1,69.4,29.23a16.6,16.6,0,0,1,7.09-2.61A10.31,10.31,0,0,1,87.73,38.1C88.57,30.12,84.59,22.7,74.33,24.17Z"/><path class="cls-2" d="M26.54,24.17C16.28,22.7,12.3,30.12,13.15,38.1A10.31,10.31,0,0,1,24.39,26.62a16.54,16.54,0,0,1,7.08,2.61A113.13,113.13,0,0,1,52.89,47.48H63.13S38.05,25.83,26.54,24.17Z"/><path class="cls-1" d="M49.93,71.44H45.38a15.09,15.09,0,0,0,.25-2.38c0-5.42-4.05-7.65-8-4.85-2.84,2-3.43,3.94-5.16,7.23h-.07V66.05H31v5.39H26.84V70.9c0-5.69-4.12-7.71-7.65-7.71H13.75v1.2c.4,0,5,0,5.25,0,6.8,0,6.3,7,6.33,7.09H7.9V62.37c-.42,0-1.15-.08-1.47-.08-2.58,0-6.38,1.85-6.38,5.82,0,2.74,2.06,4.38,4.67,4.38h.45l1-1h-1c-4.1,0-4.55-4.87-1.87-7a4.72,4.72,0,0,1,2.75-1h.49v9H51.35V56.31H49.93Zm-6-.18,0,.18H33.81l.06-.29c.88-3.93,4.42-7,6.88-7,.79,0,3.37.37,3.37,5.15A9.63,9.63,0,0,1,44,71.26Z"/><circle class="cls-1" cx="6.98" cy="58.97" r="1.08"/><path class="cls-1" d="M55.82,56.31h1.41V72.49H55.82Z"/><circle class="cls-1" cx="67.99" cy="58.98" r="1.08"/><circle class="cls-1" cx="3.76" cy="58.97" r="1.08"/><circle class="cls-1" cx="89.57" cy="58.98" r="1.08"/><path class="cls-1" d="M100,62.61c-3.68,0-6.56,2.51-6.56,5.71,0,2.89,2.52,4.36,5,4.16.08-.09,1.09-1.12,1-1h-.93c-1.79,0-3.59-1-3.59-3.28a4.52,4.52,0,0,1,4.39-4.3h.24V72.7c0,1.7-.32,3.26-2.61,3.26a4.14,4.14,0,0,1-.73-.07L96.07,77a6.06,6.06,0,0,0,1.28.11c1.1,0,3.66-.37,3.66-3.78V62.69A6.51,6.51,0,0,0,100,62.61ZM88.87,73.37c0,1.86-.75,2.62-2.57,2.62a4.55,4.55,0,0,1-.7-.08l-.18,1.14c3.45.5,4.86-1,4.86-3.24v-10H88.87Zm-12,0c0,1.86-.75,2.62-2.57,2.62a4.82,4.82,0,0,1-.71-.08l-.17,1.14c3.45.5,4.86-1,4.86-3.24v-10H76.9Z"/><circle class="cls-1" cx="71.21" cy="58.98" r="1.08"/><path class="cls-1" d="M82.64,56.31h1.41V72.49H82.64ZM64.26,68.23a4.38,4.38,0,0,0,4.67,4.26h3.18V62.37C67.49,61.73,64.26,64.7,64.26,68.23Zm6.43,3.21H69.35c-5.35,0-4.35-8,.83-8h.51ZM25.75,31.12l-3.07,3.07-3.07-3.07-3.5,3.5,3.5,3.49L22.68,35l3.07,3.07,3.49-3.49m28.83-30a12.38,12.38,0,0,1,8.47,4A12.39,12.39,0,0,0,51.07,1.79C50.76.66,50.51,0,50.51,0S50.27.66,50,1.79A12.41,12.41,0,0,0,34.48,8.6a12.4,12.4,0,0,1,8.47-4,12.38,12.38,0,0,0-4.67,11.88,12.43,12.43,0,0,1,5.8-8.54,12.41,12.41,0,0,0,1.91,14A12.4,12.4,0,0,1,48.84,8c-.08.92-.13,1.89-.13,2.89a34.83,34.83,0,0,0,1.8,10.87A35.18,35.18,0,0,0,52.18,8,12.4,12.4,0,0,1,55,21.87,12.43,12.43,0,0,0,57,7.92a12.43,12.43,0,0,1,5.8,8.54A12.39,12.39,0,0,0,58.07,4.58Z"/><path class="cls-2" d="M62.56,32.82C46.88,16.13,38,29,38,29s7.65-7.57,22.18,8.49c6.52,7.22,12.35,10,17.06,10a10.84,10.84,0,0,0,9.25-5.38,6.71,6.71,0,0,0,.6-1.2C82.85,45.89,77.32,48.54,62.56,32.82Z"/></g></g></svg>