<svg xmlns="http://www.w3.org/2000/svg" viewBox="0 0 237.11 65.99"><defs><style>.cls-1{fill:#c9c9c9;}</style></defs><g id="Layer_2" data-name="Layer 2"><g id="Layer_1-2" data-name="Layer 1"><path class="cls-1" d="M206.17,51.81a3.21,3.21,0,0,1-1.8.48c-1.73,0-3.46,0-5.18,0a2.28,2.28,0,0,1-1.5-.49,3.4,3.4,0,0,1-2,.5H183.82l-3-2.5a24.27,24.27,0,0,1,.13-3.91,3.3,3.3,0,0,1,2.81-2.67,7.07,7.07,0,0,1,1.3-.12h5.8c0,2.22,0,4.17,0,7.72h5V44.29h2.92v5.58c0,.7.19,1,.91,1,1.56,0,3.11,0,4.66,0V44.28h2.91c0,1.94,0,2.94,0,5.58,0,.73.19,1,.94,1h5.18a4.21,4.21,0,0,1-.72-2.22c0-.84,0-2.52,0-2.52V44.57h2.8V41c1.56,0,3.11,0,4.66,0,3.53.06,6,2.31,5.86,5.93l-2.73,2.43c.48.77,1.1,1.6,2.1,1.52,1.18,0,2.36,0,3.54,0V38.33h2.94c0,2.06,0,6.16,0,11,0,2.08-1.13,3-3.13,3-1.5,0-3,0-4.51,0a4.05,4.05,0,0,1-2.95-1.24l-1.37,1.23H207.88a2.66,2.66,0,0,1-1.71-.49Zm-18.3-7.22c-.81,0-1.66,0-2.48,0-1.18,0-1.68,1.11-1.68,2.17s0,2.23,0,3.34l.86.7h3.3V44.59Zm32.3,5.19L218,46h-2.46c0,.86,0,1.72,0,2.58,0,1.15.54,2.14,1.78,2.18.54,0,1.09,0,1.66,0,.38-.33.77-.69,1.16-1h0Zm.3-5.21c.63,1.09,1.26,2.18,1.9,3.27.21-.17.4-.34.58-.5a6.79,6.79,0,0,0-.43-3.26,2.69,2.69,0,0,0-2.17-1.63,14.85,14.85,0,0,0-2,0v2.14Z"/><path class="cls-1" d="M237.11,52.29H234.2v-14h2.91Z"/><path class="cls-1" d="M199.51,39.25v1.88h-1.46V40.05a.75.75,0,0,0-1.06.76v1.07l.46.41h2.49v1H195v-1h1l-.63-.55c0-1.1-.12-2.21,1.22-2.45.71-.11,2.81,0,2.9,0h0Z"/><path class="cls-1" d="M188.18,38l1.7,1.7-1.71,1.7-1.72-1.67-1.72,1.73L183,39.68,184.72,38c.57.58,1.15,1.15,1.71,1.71L188.18,38Z"/><path class="cls-1" d="M201.91,55.56l1.73-1.68,1.68,1.68-1.68,1.68-1.73-1.68Z"/><path class="cls-1" d="M208.79,55.57l-1.69,1.68-1.74-1.69,1.74-1.68Z"/><path class="cls-1" d="M146.39,38.33h2.94V50.82h5.89a4.64,4.64,0,0,1-1.44-2.68c-.15-.87-.24-1.75-.33-2.63l1.79-2.44c1.5,0,3,0,4.47,0a5.87,5.87,0,0,1,2.86.78c1.89,1,1.92,3.38,1,5.1A5.69,5.69,0,0,1,162,50.81h6.11V38.33H171c0,2.18,0,6.1,0,11a2.55,2.55,0,0,1-2.09,2.91c-7.49.27-15,0-22.53.1v-14Zm9.9,6.23c.05.67.13,1.33.21,2a17.61,17.61,0,0,0,.28,1.77,3.09,3.09,0,0,0,2.09,2.52,4.86,4.86,0,0,0,2.32-4.43,1.83,1.83,0,0,0-.73-1.44,2.1,2.1,0,0,0-1.37-.42c-.94,0-1.87,0-2.8,0Z"/><path class="cls-1" d="M136.69,52.3l-1.56-1.57a3.3,3.3,0,0,1-2.48,1.5c-3.78.17-7.58,0-11.37.07l-3.07-2.51c0-1.08,0-2.17.06-3.25a3.6,3.6,0,0,1,.81-2.16,4.25,4.25,0,0,1,3.38-1.28h5.81c0,2.1,0,4.21,0,7.73h2c.81,0,1.76.19,2.13-.73A4.5,4.5,0,0,0,132.7,49c.23-1.1.41-2.22.64-3.32a3.12,3.12,0,0,1,1.09-1.81,4.62,4.62,0,0,1,2.89-.74h6.29c0,2,0,3.1,0,5.64a3.41,3.41,0,0,1-.92,2.38c-1.5,1.54-4,1.08-6,1.15Zm4-7.67c-1,0-2,0-2.95,0-1.15,0-1.41.88-1.56,1.87-.16.81-.31,1.62-.44,2.36l1.86,1.93c1.1,0,2.44.21,2.88-1a3.1,3.1,0,0,0,.2-.94c0-1.39,0-2.79,0-4.18Zm-15.34,6.19V44.55c-.86,0-1.72,0-2.56.07a1.75,1.75,0,0,0-1.57,1.76c0,1.24,0,2.48,0,3.74l.85.7Z"/><path class="cls-1" d="M173.44,38.32h2.92v14h-2.92v-14Z"/><path class="cls-1" d="M122.18,37.94l1.71,1.72c.59-.57,1.18-1.13,1.75-1.7l1.7,1.71-1.7,1.71L123.9,39.7l-1.71,1.72-1.7-1.74,1.69-1.74Z"/><path class="cls-1" d="M88.25,43.07c1.48,0,3,0,4.45,0a5.8,5.8,0,0,1,2.87.78c1.9,1,1.92,3.4,1,5.12A5.71,5.71,0,0,1,95,50.81h6.11V38.33h3V49.17a5,5,0,0,1-.23,1.64h4.72V38.33h2.93c0,2.76,0,5.86,0,11a4.23,4.23,0,0,1-.15,1.23,2.32,2.32,0,0,1-1.93,1.67c-14.55.27-29.13,0-43.7.1v-14H68.6V50.81h6l-2.12-2.17A12.28,12.28,0,0,1,72.62,46a3.23,3.23,0,0,1,2.74-2.59,7.09,7.09,0,0,1,1.38-.13h5.65c0,1.94,0,3,0,5.54a5.26,5.26,0,0,1-.23,2h6a4.61,4.61,0,0,1-1.44-2.68c-.15-.87-.23-1.75-.33-2.63l1.8-2.43Zm3.63,7.77a4.87,4.87,0,0,0,2.32-4.43A1.9,1.9,0,0,0,93.45,45a2.16,2.16,0,0,0-1.35-.39c-.94,0-1.88,0-2.81,0,.12,1.11.23,2.21.39,3.32S90.54,50.54,91.88,50.84ZM75.44,49.17l1.63,1.64h1.69a.65.65,0,0,0,.64-.55,2.42,2.42,0,0,0,.07-.54c0-1.66,0-3.32,0-5-.76,0-1.51,0-2.27,0a1.65,1.65,0,0,0-1.67,1.47,22.41,22.41,0,0,0-.08,3Z"/><path class="cls-1" d="M57.08,56.1,56.6,55c2,.21,3.31-1.53,3.3-3.4,0-2.89,0-5.6,0-8.51h2.93c0,2.65,0,5.63,0,8.38.07,3.3-2.68,5.07-5.76,4.62Z"/><path class="cls-1" d="M78.38,39.62l-1.72,1.67-1.72-1.67,1.78-1.72,1.63,1.69,1.75-1.71c.55.58,1.12,1.16,1.67,1.73l-1.65,1.7-1.74-1.69Z"/><path class="cls-1" d="M61.46,65.69,60,63.53H58.2v2.16H57V59.17h2.85c2,0,2.82.66,2.82,2.12a1.9,1.9,0,0,1-1.36,2.05l1.58,2.35H61.46Zm-3.26-3.2h1.71c1.07,0,1.49-.32,1.49-1.13s-.42-1.13-1.49-1.13H58.2Z"/><path class="cls-1" d="M69.13,60.25H65.26v1.62h3.58v1H65.26v1.7h3.95v1.08H64.05V59.17h5.08v1.08Z"/><path class="cls-1" d="M75.15,64.26H72l-.59,1.43H70l2.74-6.52h1.6l2.75,6.52H75.74l-.59-1.43Zm-.42-1-1.17-2.86-1.18,2.86Z"/><path class="cls-1" d="M79.51,64.6H83v1.09H78.3V59.17h1.21V64.6Z"/><path class="cls-1" d="M91.55,60.25H87.68v1.62h3.58v1H87.68v1.7h3.95v1.08H86.47V59.17h5.09v1.08Z"/><path class="cls-1" d="M97.48,60.75a5,5,0,0,0-2.22-.62c-.7,0-1.17.26-1.17.79,0,.35.18.5,1.22.78,1.43.4,2.88.66,2.86,2.08,0,2.58-4.09,2.33-5.68,1.14l.56-.91c.91.59,3.77,1.35,3.84-.17,0-.44-.25-.58-1.18-.81-1.51-.38-3-.63-2.93-2,0-2.49,3.73-2.17,5.23-1.23l-.53,1Z"/><path class="cls-1" d="M104.33,60.23h-2.09v5.46H101V60.23H98.94V59.17h5.38v1.06h0Z"/><path class="cls-1" d="M109.41,64.26h-3.18l-.58,1.43h-1.37L107,59.17h1.59l2.76,6.52H110l-.59-1.43Zm-.42-1-1.17-2.86-1.17,2.86Z"/><path class="cls-1" d="M116.73,60.23h-2.08v5.46h-1.22V60.23h-2.08V59.17h5.38v1.06Z"/><path class="cls-1" d="M123,60.25h-3.87v1.62h3.59v1h-3.59v1.7h4v1.08H117.9V59.17H123Z"/><path class="cls-1" d="M131.66,60.82a2.33,2.33,0,0,0-3.94,1.61,2.36,2.36,0,0,0,3.84,1.74V63.06H130v-1h2.72v2.71a4.35,4.35,0,0,1-2.79,1,3.42,3.42,0,0,1-3.47-3.36c0-3.08,3.88-4.37,6-2.43l-.79.82Z"/><path class="cls-1" d="M139.48,60.25h-3.87v1.62h3.58v1h-3.58v1.7h3.95v1.08h-5.17V59.17h5.09Z"/><path class="cls-1" d="M146.78,59.17v6.52H145.5L142.05,61v4.68h-1.19V59.17h1.28l3.45,4.69V59.17Z"/><path class="cls-1" d="M153.61,60.25h-3.87v1.62h3.58v1h-3.58v1.7h3.95v1.08h-5.16V59.17h5.08Z"/><path class="cls-1" d="M159.45,65.69,158,63.53H156.2v2.16H155V59.17h2.85c2,0,2.81.66,2.81,2.12a1.89,1.89,0,0,1-1.36,2.05l1.59,2.35Zm-3.25-3.2h1.71c1.07,0,1.49-.32,1.49-1.13s-.42-1.13-1.49-1.13H156.2Z"/><path class="cls-1" d="M166.75,64.26h-3.18L163,65.69h-1.37l2.75-6.52H166l2.76,6.52h-1.38l-.58-1.43Zm-.42-1-1.18-2.86L164,63.25Z"/><path class="cls-1" d="M171.11,64.6h3.44v1.09h-4.66V59.17h1.22V64.6Z"/><path class="cls-1" d="M182.63,64.26h-3.18l-.59,1.43H177.5l2.74-6.52h1.6l2.75,6.52h-1.37l-.59-1.43Zm-.42-1L181,60.39l-1.18,2.86Z"/><path class="cls-1" d="M191.34,62.75c0,2-1,3-2.91,3a2.71,2.71,0,0,1-2.92-3V59.17h1.22v3.58c0,1.23.62,1.92,1.7,1.92s1.7-.69,1.7-1.92V59.17h1.21v3.58Z"/><path class="cls-1" d="M197.91,60.23h-2.09v5.46h-1.21V60.23h-2.09V59.17h5.38v1.06Z"/><path class="cls-1" d="M205,65.69h-1.22V63h-3.49v2.74h-1.21V59.17h1.21v2.69h3.49V59.17H205Z"/><path class="cls-1" d="M210,65.79a3.36,3.36,0,1,1,3.46-3.36A3.44,3.44,0,0,1,210,65.79Zm0-1.14a2.2,2.2,0,1,0-2.2-2.22,2.2,2.2,0,0,0,2.2,2.22Z"/><path class="cls-1" d="M219.4,65.69,218,63.53h-1.81v2.16h-1.21V59.17h2.85c2,0,2.82.66,2.82,2.12a1.9,1.9,0,0,1-1.36,2.05l1.58,2.35Zm-3.26-3.2h1.71c1.07,0,1.49-.32,1.49-1.13s-.42-1.13-1.49-1.13h-1.71Z"/><path class="cls-1" d="M223.2,65.69H222V59.17h1.22Z"/><path class="cls-1" d="M229.76,60.23h-2.08v5.46h-1.21V60.23h-2.09V59.17h5.38v1.06Z"/><path class="cls-1" d="M237.11,59.17l-2.7,4.21v2.31h-1.22v-2.3l-2.7-4.22h1.45l1.87,2.95,1.87-2.95Z"/><polygon class="cls-1" points="99.32 20.36 99.32 15.91 89.44 15.91 89.44 8.21 103.1 8.21 103.1 4.18 83.86 4.18 83.86 32.8 106.05 32.8 106.05 28.77 89.44 28.77 89.44 20.36 99.32 20.36"/><path class="cls-1" d="M148.1,32.77h6V4.19H140.45C137,11.3,130,25.71,126.61,32.8h6.06l6.44-13.26,9,13.22h0ZM144.59,8.18h4V24.72l-6.85-10.18,2.84-6.36Z"/><path class="cls-1" d="M111.21,4.82c-6,2.13-9,7.68-8.94,14-.08,6,3.08,11.1,8.76,13.1a18.75,18.75,0,0,0,6.46,1c1.84,0,6.7-.07,9.13-.1V15.53H116.25V20h5.56v8.32a5,5,0,0,1-2.74.36c-6.61.2-11.4-3.62-11.23-10.6a10.68,10.68,0,0,1,3-7.68c3.53-3.38,9.73-3.19,14.06-1.46l.68-3.75c-3.47-1.77-10.38-2-14.35-.37Z"/><path class="cls-1" d="M69,22.49,77.14,32.8h6.72L75.34,22.5l5-5.59V10.52A6.35,6.35,0,0,0,74,4.18H58.78V32.8h5.58V22.35h4.5l.11.14Zm-4.78-4.6.11-9.7H71c2.55,0,4.4,2,4.4,3.29l-.1,3.58-2.51,2.83Z"/><polygon class="cls-1" points="2.92 43 25.91 65.99 25.91 56.83 12 43 2.92 43"/><polygon class="cls-1" points="28.19 56.83 28.19 65.99 51.18 43 42.1 43 28.19 56.83"/><polygon class="cls-1" points="25.91 18.8 25.91 18.32 25.91 12.44 25.91 12.42 25.91 9.24 16.67 0.06 16.67 0.07 7.59 0 10.86 3.27 13.5 5.91 15.42 7.84 18.06 10.47 20 12.41 20.01 12.42 6.46 12.42 6.47 12.44 0 18.8 25.91 18.8"/><polygon class="cls-1" points="10.86 36 13.5 33.36 15.43 31.43 18.06 28.79 20 26.86 22.64 24.22 25.91 20.95 16.83 20.95 7.64 30.18 7.67 30.18 7.59 39.27 10.86 36"/><polygon class="cls-1" points="47.63 12.44 47.64 12.42 34.66 12.42 34.09 12.42 34.1 12.41 36.04 10.47 38.68 7.84 40.6 5.91 43.24 3.27 46.51 0 37.43 0.07 37.43 0.06 28.19 9.24 28.19 12.44 28.19 18.32 28.19 18.8 54.1 18.8 47.63 12.44"/><polygon class="cls-1" points="33.97 26.86 35.91 28.79 38.54 31.43 40.48 33.36 43.12 36 46.38 39.27 46.31 30.18 46.33 30.18 37.15 20.95 28.07 20.95 31.33 24.22 33.97 26.86"/><polygon class="cls-1" points="30.18 26.88 23.89 26.88 20.2 30.65 33.91 30.65 30.18 26.88"/><polygon class="cls-1" points="30.18 32.88 23.89 32.88 20.2 36.64 33.91 36.64 30.18 32.88"/><polygon class="cls-1" points="30.18 38.83 23.89 38.83 20.2 42.59 33.91 42.59 30.18 38.83"/><polygon class="cls-1" points="20.2 48.57 33.91 48.57 30.18 44.8 23.89 44.8 20.2 48.57"/></g></g></svg>