<svg xmlns="http://www.w3.org/2000/svg" viewBox="0 0 158.1 80.98"><defs><style>.cls-1{fill:#c9c9c9;}</style></defs><g id="Layer_2" data-name="Layer 2"><g id="Layer_1-2" data-name="Layer 1"><path class="cls-1" d="M132.1,12.81A4.42,4.42,0,1,0,128,8.12h0v.6A4.45,4.45,0,0,0,132.1,12.81Z"/><path class="cls-1" d="M66.79,75.41H63.23V71.79H61.42v9h1.81v-4h3.56v4H68.6v-9H66.79Z"/><path class="cls-1" d="M75.88,76.45a3.25,3.25,0,0,0-.2-.74,2.4,2.4,0,0,0-.31-.67,2.53,2.53,0,0,0-.5-.54,4,4,0,0,0-.64-.37l-.67-.2a5.51,5.51,0,0,0-.7-.06,3.8,3.8,0,0,0-1.34.26,2.56,2.56,0,0,0-.94.74A2.94,2.94,0,0,0,70,76a4.76,4.76,0,0,0,0,2.82,2.72,2.72,0,0,0,1.71,1.74,4.33,4.33,0,0,0,1.48.24,6.62,6.62,0,0,0,1.17-.11,2.7,2.7,0,0,0,1.08-.43V78.83a6.2,6.2,0,0,1-1,.5,3.16,3.16,0,0,1-1.15.2,2.47,2.47,0,0,1-.7-.1,2.56,2.56,0,0,1-.6-.33,1.68,1.68,0,0,1-.41-.54,2.38,2.38,0,0,1-.2-.67h4.56v-.07a6.19,6.19,0,0,0,0-.73A1.1,1.1,0,0,0,75.88,76.45Zm-4.43.33a2.36,2.36,0,0,1,.13-.63,1.25,1.25,0,0,1,.31-.51,1.38,1.38,0,0,1,.47-.33,1.87,1.87,0,0,1,.63-.14,1.48,1.48,0,0,1,.64.14,1.38,1.38,0,0,1,.44.33,1.18,1.18,0,0,1,.26.51,1.85,1.85,0,0,1,.11.63Z"/><path class="cls-1" d="M82.82,76.68a2.63,2.63,0,0,0-.7-2A2.87,2.87,0,0,0,80.07,74a5,5,0,0,0-1.21.13,4.61,4.61,0,0,0-1.14.37l.07,1.47a3.66,3.66,0,0,1,.94-.53,2.75,2.75,0,0,1,1.07-.2,4.91,4.91,0,0,1,.67.06,1.31,1.31,0,0,1,.47.24.78.78,0,0,1,.27.47,2,2,0,0,1,.1.67h-.87a8.14,8.14,0,0,0-.87,0,7,7,0,0,0-.84.14,1.72,1.72,0,0,0-.74.33,2.31,2.31,0,0,0-.64.57,1.61,1.61,0,0,0-.26.61A3.12,3.12,0,0,0,77,79a1.65,1.65,0,0,0,.2.81,1.93,1.93,0,0,0,.54.64,3.46,3.46,0,0,0,.73.4,2.54,2.54,0,0,0,.88.13,4.94,4.94,0,0,0,.63-.06,2.67,2.67,0,0,0,.54-.24,3.39,3.39,0,0,0,.5-.37,1.43,1.43,0,0,0,.41-.5h0a2.8,2.8,0,0,0,0,.5c0,.17,0,.34.07.51h1.51l-.1-2C83,78.09,82.82,77.39,82.82,76.68Zm-1.58,1.08a2.62,2.62,0,0,1-.1.73,3.9,3.9,0,0,1-.26.64,1.66,1.66,0,0,1-.51.44,1.8,1.8,0,0,1-.7.17,1.37,1.37,0,0,1-.74-.17,1.15,1.15,0,0,1-.27-.27.85.85,0,0,1-.1-.4.66.66,0,0,1,.17-.54,1.48,1.48,0,0,1,.9-.57,3.29,3.29,0,0,1,.58-.07l1,0Z"/><path class="cls-1" d="M86.24,71.11H84.5v9.63h1.74Z"/><path class="cls-1" d="M90.87,79.53a1.36,1.36,0,0,1-.4,0,.78.78,0,0,1-.64-.34,1.51,1.51,0,0,1-.13-.33,1.43,1.43,0,0,1,0-.41V75.34h1.55V74.13H89.66V72.26l-1.74.57v5.93a2.48,2.48,0,0,0,.13.87,1.32,1.32,0,0,0,.41.68,1.75,1.75,0,0,0,.67.43,2,2,0,0,0,.87.14,3.77,3.77,0,0,0,.67,0,4.54,4.54,0,0,0,.64-.13l-.07-1.34A.52.52,0,0,1,90.87,79.53Z"/><path class="cls-1" d="M97.92,74.7a3.07,3.07,0,0,0-.67-.57,2.63,2.63,0,0,0-2.18.07,1.87,1.87,0,0,0-.88.81h0V71.08H92.42v9.63h1.74V77.49a4.9,4.9,0,0,1,.07-.77A1.79,1.79,0,0,1,94.5,76a1.48,1.48,0,0,1,.46-.54,1.39,1.39,0,0,1,.71-.2,1.47,1.47,0,0,1,.64.13,1.24,1.24,0,0,1,.37.51,2.14,2.14,0,0,1,.13.64v4.15h1.71V76.48a3.75,3.75,0,0,0-.13-1C98.22,75.17,98.08,74.94,97.92,74.7Z"/><path class="cls-1" d="M103.85,71.79H102v9h1.81Z"/><path class="cls-1" d="M111.17,74.7a3.07,3.07,0,0,0-.67-.57,2.84,2.84,0,0,0-1-.2,2.47,2.47,0,0,0-1.21.27,3,3,0,0,0-.94.81h0v-.84h-1.64v6.61h1.74V77.52a5,5,0,0,1,.07-.77,1.84,1.84,0,0,1,.27-.74,1.37,1.37,0,0,1,.46-.53,1.31,1.31,0,0,1,.71-.21,1.48,1.48,0,0,1,.64.14,1.15,1.15,0,0,1,.37.5,3.81,3.81,0,0,1,.13.64v4.16h1.71V76.52a3.66,3.66,0,0,0-.13-1C111.47,75.21,111.33,74.94,111.17,74.7Z"/><path class="cls-1" d="M117.34,77.45a2.14,2.14,0,0,0-.5-.36,2.64,2.64,0,0,0-.57-.24,3.74,3.74,0,0,0-.54-.17,2.91,2.91,0,0,1-.5-.16.75.75,0,0,1-.34-.21.42.42,0,0,1-.13-.33.64.64,0,0,1,.1-.37.75.75,0,0,1,.23-.24,1,1,0,0,1,.34-.13,1.5,1.5,0,0,1,.37,0,6.32,6.32,0,0,1,.77.06,5.34,5.34,0,0,1,.74.24l.1-1.28c-.31-.06-.64-.13-.91-.2s-.64-.06-.94-.06a2.93,2.93,0,0,0-.94.13,2.18,2.18,0,0,0-.8.37,1.79,1.79,0,0,0-.81,1.58,2.41,2.41,0,0,0,.1.67,1.8,1.8,0,0,0,.67.8,2.6,2.6,0,0,0,.47.24,3.33,3.33,0,0,0,.51.16l.47.14a1.92,1.92,0,0,1,.4.17.85.85,0,0,1,.27.23l.1.2c0,.07,0,.17,0,.24a.66.66,0,0,1-.1.37,1,1,0,0,1-.27.26,1.24,1.24,0,0,1-.37.14,1.8,1.8,0,0,1-.4,0,3.93,3.93,0,0,1-1.71-.43l-.1,1.4a4.54,4.54,0,0,0,.94.21,5.27,5.27,0,0,0,1,.06,3.5,3.5,0,0,0,1-.13,2.89,2.89,0,0,0,.87-.37,2.05,2.05,0,0,0,.64-.67,1.79,1.79,0,0,0,.23-1,2.24,2.24,0,0,0-.13-.8A1.05,1.05,0,0,0,117.34,77.45Z"/><path class="cls-1" d="M123.44,77.39a5.69,5.69,0,0,1-.06.74,3.46,3.46,0,0,1-.24.73,1.43,1.43,0,0,1-.47.54,1.27,1.27,0,0,1-1.34,0,1.08,1.08,0,0,1-.37-.5,1,1,0,0,1-.1-.47,2.8,2.8,0,0,0,0-.5V74.13h-1.75v4.2a3.77,3.77,0,0,0,.14,1,2.1,2.1,0,0,0,.4.84,2.85,2.85,0,0,0,.67.57,2.79,2.79,0,0,0,1,.2,2.92,2.92,0,0,0,1.2-.27,2.64,2.64,0,0,0,.94-.81h0v.88h1.64V74.13h-1.68Z"/><path class="cls-1" d="M130.32,74a1.55,1.55,0,0,0-.67.17,1.4,1.4,0,0,0-.54.43,5.45,5.45,0,0,0-.37.51,1.75,1.75,0,0,0-.2.57h-.06V74.13h-1.55v6.61h1.71v-3a7.26,7.26,0,0,1,.2-1.18,3.8,3.8,0,0,1,.24-.5,1.3,1.3,0,0,1,.4-.37,1.17,1.17,0,0,1,.61-.13,1.84,1.84,0,0,1,.4,0,1.47,1.47,0,0,1,.4.1V74c-.1,0-.17,0-.27,0A.57.57,0,0,1,130.32,74Z"/><path class="cls-1" d="M137.3,76.68a2.63,2.63,0,0,0-.71-2,2.86,2.86,0,0,0-2-.67,4.93,4.93,0,0,0-1.21.13,6.33,6.33,0,0,0-1.14.37l.07,1.47a3.66,3.66,0,0,1,.94-.53,2.75,2.75,0,0,1,1.07-.2,5.05,5.05,0,0,1,.67.06,1.31,1.31,0,0,1,.47.24.89.89,0,0,1,.27.47,2.35,2.35,0,0,1,.1.67H135a8.14,8.14,0,0,0-.87,0,7,7,0,0,0-.84.14,1.72,1.72,0,0,0-.74.33,2.31,2.31,0,0,0-.64.57,1.61,1.61,0,0,0-.26.61,1.85,1.85,0,0,0-.07.63,1.65,1.65,0,0,0,.2.81,3,3,0,0,0,.5.64,3.53,3.53,0,0,0,.74.4,2.46,2.46,0,0,0,.84.13,5.26,5.26,0,0,0,.64-.06,4.62,4.62,0,0,0,.57-.24,4.92,4.92,0,0,0,.5-.37,1.41,1.41,0,0,0,.4-.5h0a2.8,2.8,0,0,0,0,.5c0,.17,0,.34.07.51h1.51l-.1-2C137.43,78.09,137.3,77.39,137.3,76.68Zm-1.55,1.08a2.62,2.62,0,0,1-.1.73,1.52,1.52,0,0,1-.3.61,1.41,1.41,0,0,1-.5.4,1.84,1.84,0,0,1-.71.17,1.14,1.14,0,0,1-.73-.17,1.15,1.15,0,0,1-.27-.27.85.85,0,0,1,.07-.94,1.43,1.43,0,0,1,.4-.37,1.62,1.62,0,0,1,.53-.2,3.34,3.34,0,0,1,.58-.06h1v.1Z"/><path class="cls-1" d="M144.51,74.7a2,2,0,0,0-.67-.57,2.79,2.79,0,0,0-1-.2,2.51,2.51,0,0,0-1.2.27,2.64,2.64,0,0,0-.94.81h0v-.84H139v6.61h1.71V77.52a5,5,0,0,1,.07-.77,2,2,0,0,1,.26-.74,1.49,1.49,0,0,1,.47-.53,1.31,1.31,0,0,1,.71-.21,1.21,1.21,0,0,1,.6.14,1.08,1.08,0,0,1,.37.5,1.87,1.87,0,0,1,.14.64v4.16h1.71V76.52a3.67,3.67,0,0,0-.14-1A1.88,1.88,0,0,0,144.51,74.7Z"/><path class="cls-1" d="M150.38,79.47a2.41,2.41,0,0,1-.67.1,2,2,0,0,1-.77-.17,1,1,0,0,1-.54-.5,1.68,1.68,0,0,1-.33-.67,3.21,3.21,0,0,1-.1-.81,3.08,3.08,0,0,1,.1-.8,1.72,1.72,0,0,1,.33-.68,1.56,1.56,0,0,1,1.31-.67,3,3,0,0,1,.6,0,1.47,1.47,0,0,1,.54.2l.13-1.34a3.17,3.17,0,0,0-.8-.17,7.86,7.86,0,0,0-.84,0,3.08,3.08,0,0,0-1.34.26,2.91,2.91,0,0,0-1.61,1.82,3.73,3.73,0,0,0-.24,1.37,3.82,3.82,0,0,0,.24,1.38,3.37,3.37,0,0,0,.6,1.1,2.79,2.79,0,0,0,1,.74,4,4,0,0,0,1.41.27,7.58,7.58,0,0,0,.84,0,6.4,6.4,0,0,0,.83-.17L151,79.27A3.3,3.3,0,0,1,150.38,79.47Z"/><path class="cls-1" d="M157.86,76.45a2.8,2.8,0,0,0-.2-.74,2.69,2.69,0,0,0-.3-.67,2.58,2.58,0,0,0-.51-.54,4.34,4.34,0,0,0-.63-.37,4.1,4.1,0,0,0-1.41-.26,3.8,3.8,0,0,0-1.34.26,2.56,2.56,0,0,0-.94.74A2.5,2.5,0,0,0,152,76a4.76,4.76,0,0,0,0,2.82,2.8,2.8,0,0,0,1.75,1.74,4.32,4.32,0,0,0,1.47.24,6.64,6.64,0,0,0,1.18-.11,2.31,2.31,0,0,0,1.07-.43V78.83a5.53,5.53,0,0,1-1,.5,3.15,3.15,0,0,1-1.14.2,2.42,2.42,0,0,1-.7-.1,2.13,2.13,0,0,1-.61-.33,1.81,1.81,0,0,1-.4-.54,2.09,2.09,0,0,1-.2-.67h4.53v-.07a4.65,4.65,0,0,0,0-.73A1,1,0,0,0,157.86,76.45Zm-4.39.33a2,2,0,0,1,.13-.63,1.35,1.35,0,0,1,.3-.51,1.22,1.22,0,0,1,.47-.33,1.87,1.87,0,0,1,.64-.14,1.48,1.48,0,0,1,.64.14,1.34,1.34,0,0,1,.43.33,1.19,1.19,0,0,1,.27.51,1.85,1.85,0,0,1,.1.63Z"/><path class="cls-1" d="M6.51,79.3c-.17,0-.34.1-.54.13a2.21,2.21,0,0,1-.54.07c-.16,0-.33,0-.5,0a3.22,3.22,0,0,1-1.27-.23,3.21,3.21,0,0,1-.94-.67,3,3,0,0,1-.61-1,4.16,4.16,0,0,1,0-2.55,3.31,3.31,0,0,1,.61-1,3.06,3.06,0,0,1,.94-.67,3.25,3.25,0,0,1,1.27-.27,3.45,3.45,0,0,1,.54,0,2.54,2.54,0,0,1,.47.07c.17,0,.3.1.47.13a4.51,4.51,0,0,1,.5.24L7,72c-.33-.1-.63-.2-1-.27a4.85,4.85,0,0,0-1-.1,7.09,7.09,0,0,0-1.68.2A3.61,3.61,0,0,0,2,72.46a3.23,3.23,0,0,0-1,1A3.73,3.73,0,0,0,.3,75.07a5.23,5.23,0,0,0-.17,1.41c0,.3,0,.64.07.94a3.61,3.61,0,0,0,.24.87,3.92,3.92,0,0,0,.43.84,3,3,0,0,0,.67.67,8.19,8.19,0,0,0,.77.54,7,7,0,0,0,.88.37,4.16,4.16,0,0,0,.9.2c.3,0,.64.07.94.07s.67,0,1-.07a5.06,5.06,0,0,0,1-.2L7,79.2A1,1,0,0,0,6.51,79.3Z"/><path class="cls-1" d="M13.72,74.94a3,3,0,0,0-1.07-.71A4.43,4.43,0,0,0,11.2,74a3.57,3.57,0,0,0-1.44.26A3,3,0,0,0,8.69,75,3.21,3.21,0,0,0,8,76.08a3.49,3.49,0,0,0-.24,1.41,3.22,3.22,0,0,0,.27,1.37,3.27,3.27,0,0,0,.71,1.08,3.88,3.88,0,0,0,1.07.67,4.33,4.33,0,0,0,2.82,0A3.28,3.28,0,0,0,13.72,80a3.47,3.47,0,0,0,.74-1.07,4,4,0,0,0,0-2.82A4.39,4.39,0,0,0,13.72,74.94Zm-.91,3.15a2,2,0,0,1-.26.74,2,2,0,0,1-.47.54,1.76,1.76,0,0,1-.81.2,1.68,1.68,0,0,1-.44,0,2.56,2.56,0,0,1-.4-.16A3,3,0,0,1,10,79a2.05,2.05,0,0,1-.23-.4,1.72,1.72,0,0,1-.14-.47l-.1-.47a.46.46,0,0,0,0-.2v-.2a2.64,2.64,0,0,1,.1-.74,2.09,2.09,0,0,1,.3-.64,1.49,1.49,0,0,1,.5-.43,1.37,1.37,0,0,1,.74-.17,1.29,1.29,0,0,1,.74.17,2.18,2.18,0,0,1,.54.43,2.35,2.35,0,0,1,.3.64,4.21,4.21,0,0,1,.06,1.54Z"/><path class="cls-1" d="M20.06,77.39a4.32,4.32,0,0,1-.07.74,2.94,2.94,0,0,1-.23.73,1.43,1.43,0,0,1-.47.54,1.36,1.36,0,0,1-1.34,0,1.3,1.3,0,0,1-.47-1,2.11,2.11,0,0,0,0-.5V74.13H15.77v4.2a3.75,3.75,0,0,0,.13,1,2.73,2.73,0,0,0,.37.84,2.35,2.35,0,0,0,.67.57,2.79,2.79,0,0,0,1,.2,2.84,2.84,0,0,0,2.18-1.08h0v.88H21.8V74.13H20.09Z"/><path class="cls-1" d="M29.08,74.7a2.85,2.85,0,0,0-.67-.57,2.74,2.74,0,0,0-1-.2,2.55,2.55,0,0,0-1.21.27,2.64,2.64,0,0,0-.94.81h0v-.84H23.58v6.61h1.71V77.52a6.68,6.68,0,0,1,.07-.77,1.84,1.84,0,0,1,.27-.74,1.4,1.4,0,0,1,.47-.53,1.31,1.31,0,0,1,.74-.21,1.23,1.23,0,0,1,.6.14,1.08,1.08,0,0,1,.37.5,1.87,1.87,0,0,1,.13.64v4.16h1.71V76.52a3.66,3.66,0,0,0-.13-1A2.64,2.64,0,0,0,29.08,74.7Z"/><path class="cls-1" d="M35,79.47a2.35,2.35,0,0,1-.67.1,2,2,0,0,1-.77-.17,1.2,1.2,0,0,1-.57-.5,1.68,1.68,0,0,1-.33-.67,3.22,3.22,0,0,1-.11-.81,3.09,3.09,0,0,1,.11-.8,1.72,1.72,0,0,1,.33-.68,1.55,1.55,0,0,1,1.28-.63,4,4,0,0,1,.6,0,1.85,1.85,0,0,1,.57.2l.17-1.34a3.9,3.9,0,0,0-.81-.17,8.14,8.14,0,0,0-.87,0,3.3,3.3,0,0,0-1.38.27,2.45,2.45,0,0,0-1,.74,2.72,2.72,0,0,0-.61,1.07,4,4,0,0,0-.23,1.37A3.93,3.93,0,0,0,31.53,80a2.91,2.91,0,0,0,1,.74A4,4,0,0,0,34,81a6.33,6.33,0,0,0,.87,0,8.85,8.85,0,0,0,.87-.16l-.07-1.45A2.11,2.11,0,0,0,35,79.47Z"/><path class="cls-1" d="M38.58,74.13H36.83v6.61h1.75Z"/><path class="cls-1" d="M42.1,71.11H40.35v9.63H42.1Z"/><path class="cls-1" d="M37.7,73a.87.87,0,0,0,.88-.84.86.86,0,1,0-1.71,0h0A.81.81,0,0,0,37.7,73Z"/><path class="cls-1" d="M49.14,74a3.25,3.25,0,0,0-3.39,3.46,3.39,3.39,0,0,0,6.78,0A3.26,3.26,0,0,0,49.14,74Zm0,5.5c-1.27,0-1.64-1.17-1.64-2.24a1.75,1.75,0,0,1,1.64-2c1.11,0,1.65.91,1.65,2S50.45,79.53,49.14,79.53Z"/><path class="cls-1" d="M54.51,73.26v.91H53.27v1.24h1.24v5.3h1.71v-5.3H57.7V74.17H56.19v-.81c0-.5.16-1,.74-1a1.09,1.09,0,0,1,.7.23l.13-1.4a4.72,4.72,0,0,0-1.24-.14A1.94,1.94,0,0,0,54.51,73.26Z"/><path class="cls-1" d="M3.42,69.17A.83.83,0,0,0,4.33,69a.81.81,0,0,0,.16-.27,1,1,0,0,0,.07-.33,1,1,0,0,0-.07-.34A1,1,0,0,0,4,67.59a.72.72,0,0,0-.64,0A.72.72,0,0,0,3,68a1.3,1.3,0,0,0-.07.33A1.37,1.37,0,0,0,3,68.7a.83.83,0,0,0,.17.27Z"/><path class="cls-1" d="M5.4,69.17a1.37,1.37,0,0,0,.34.07,1.3,1.3,0,0,0,.33-.07,1.07,1.07,0,0,0,.47-.47,1.37,1.37,0,0,0,.07-.34A1.3,1.3,0,0,0,6.54,68a.74.74,0,0,0-.43-.44,1.43,1.43,0,0,0-.34-.06,1.35,1.35,0,0,0-.34.06,1.12,1.12,0,0,0-.47.47,1.35,1.35,0,0,0-.06.34,1.28,1.28,0,0,0,.06.33,1,1,0,0,0,.17.27A1,1,0,0,0,5.4,69.17Z"/><path class="cls-1" d="M43.74,62.39H39.85v-1A6.23,6.23,0,0,0,39.68,60a2.57,2.57,0,0,0-.53-1.07,2.83,2.83,0,0,0-.91-.74,3,3,0,0,0-1.31-.27,4,4,0,0,0-1.24.2,4.48,4.48,0,0,0-1.07.54,5,5,0,0,0-.91.8,7.63,7.63,0,0,0-.74,1,9.15,9.15,0,0,0-.57,1,4.57,4.57,0,0,0-.4.87,2.71,2.71,0,0,1-.77-.1,1.39,1.39,0,0,1-.74-.3c0-.13,0-.24,0-.37V59.71H28.85v1.68a1.91,1.91,0,0,1,0,.47,1,1,0,0,1-.13.3.83.83,0,0,1-.27.17,1.5,1.5,0,0,1-.37,0H25.63a.35.35,0,0,1-.27-.17,2,2,0,0,1-.2-.47,5,5,0,0,1-.14-.67c0-.23-.1-.5-.13-.77a2.45,2.45,0,0,0-.27-.87,2.59,2.59,0,0,0-.5-.71,2.12,2.12,0,0,0-.74-.47,2.71,2.71,0,0,0-1-.16,4.85,4.85,0,0,0-1,.1,7.58,7.58,0,0,0-.91.23v1.34l.44-.16a2,2,0,0,1,.47-.11c.17,0,.3,0,.43-.06a1.11,1.11,0,0,1,.34,0,1,1,0,0,1,.64.21,1.78,1.78,0,0,1,.37.46,2.28,2.28,0,0,1,.23.68,4.11,4.11,0,0,1,.13.73,3.23,3.23,0,0,0,.14.51,1.72,1.72,0,0,0,.17.4H13a1,1,0,0,1-.3,0c-.07,0-.17-.07-.2-.17a.55.55,0,0,1-.1-.34,3,3,0,0,1,0-.6V58.37h-2a3,3,0,0,0-2.22.7,2.78,2.78,0,0,0-.7,2.08v2.22a1.46,1.46,0,0,1-.71,1.24,3.74,3.74,0,0,1-.8.4,3.87,3.87,0,0,1-1.08.17,6.17,6.17,0,0,1-1.07-.1A2.89,2.89,0,0,1,3,64.77a1.75,1.75,0,0,1-.57-.43,1.83,1.83,0,0,1-.34-.5A3.33,3.33,0,0,1,2,63.33a1.87,1.87,0,0,1,0-.47,2.11,2.11,0,0,1,0-.5,2.17,2.17,0,0,1,.13-.5,1.55,1.55,0,0,1,.2-.51,2.82,2.82,0,0,1,.24-.4l-1.35-.74a3.67,3.67,0,0,0-.36.57,2.4,2.4,0,0,0-.31.67,3,3,0,0,0-.2.74A6.12,6.12,0,0,0,.23,63a4.9,4.9,0,0,0,.07.67,4.43,4.43,0,0,0,.3.81,2.75,2.75,0,0,0,.54.8,6,6,0,0,0,.84.68,4.09,4.09,0,0,0,1.24.5,7.22,7.22,0,0,0,1.68.2,5.41,5.41,0,0,0,1.78-.3A4.37,4.37,0,0,0,8,65.55a3.36,3.36,0,0,0,.84-1.08,2.7,2.7,0,0,0,.3-1.24V61.29a3.21,3.21,0,0,1,.1-.81,1.57,1.57,0,0,1,.3-.47.86.86,0,0,1,.5-.23,3.48,3.48,0,0,1,.64-.07v1.94a2.9,2.9,0,0,0,.17.94,1.73,1.73,0,0,0,1.07,1,2.9,2.9,0,0,0,.71.1h16a2.19,2.19,0,0,0,.91-.2,1.45,1.45,0,0,0,.6-.51,2.47,2.47,0,0,0,1.07.54,7.85,7.85,0,0,0,1.51.17H45.52V54.31H43.81v8.08Zm-5.57,0H33.61a5.06,5.06,0,0,1,.57-1.14,4.15,4.15,0,0,1,.74-.94,2.89,2.89,0,0,1,.87-.67,1.6,1.6,0,0,1,.87-.23,1.81,1.81,0,0,1,.61.1,1.08,1.08,0,0,1,.5.37,1.77,1.77,0,0,1,.34.67,3.53,3.53,0,0,1,.13,1l-.07.8Z"/><path class="cls-1" d="M48.77,54.48H47.1v9.36h1.67Z"/><path class="cls-1" d="M56.82,58.23a.69.69,0,0,0,.27.17.72.72,0,0,0,.64,0,1.07,1.07,0,0,0,.47-.47.79.79,0,0,0,0-.67A.5.5,0,0,0,58,57a.62.62,0,0,0-.27-.17.79.79,0,0,0-.67,0,.68.68,0,0,0-.43.43.81.81,0,0,0,0,.68A.4.4,0,0,0,56.82,58.23Z"/><path class="cls-1" d="M61.39,62a6.85,6.85,0,0,0-.14-.74,6.1,6.1,0,0,0-.2-.7c-.07-.2-.13-.44-.2-.64l-1.64.47a3.7,3.7,0,0,1,.23.64,4.6,4.6,0,0,1,.17.63l.1.61a2.48,2.48,0,0,1,0,.47,3,3,0,0,1-.6,2,2.25,2.25,0,0,1-1.81.7,2.9,2.9,0,0,1-.94-.17,1.49,1.49,0,0,1-.71-.5,2.28,2.28,0,0,1-.47-.74,2.9,2.9,0,0,1-.16-.94,2.85,2.85,0,0,1,0-.5l.1-.5c0-.17.1-.3.14-.47l.2-.4-1.35-.78a4.83,4.83,0,0,0-.33.64,7.22,7.22,0,0,0-.27.67c-.07.24-.13.51-.2.74a5.08,5.08,0,0,0-.07.67,3.82,3.82,0,0,0,.24,1.38,3.26,3.26,0,0,0,.74,1.14,3.34,3.34,0,0,0,1.27.8,5.77,5.77,0,0,0,1.84.3,5.19,5.19,0,0,0,1.75-.3,3.72,3.72,0,0,0,2.08-2.18,4,4,0,0,0,.27-1.64C61.45,62.43,61.42,62.19,61.39,62Z"/><path class="cls-1" d="M91.51,56.76a1,1,0,0,0,.27.17.79.79,0,0,0,.67,0,1.12,1.12,0,0,0,.47-.47.81.81,0,0,0,0-.68,1,1,0,0,0-.47-.46.72.72,0,0,0-.67,0,.81.81,0,0,0-.27.16.83.83,0,0,0-.17.27.79.79,0,0,0,0,.67A.47.47,0,0,0,91.51,56.76Z"/><path class="cls-1" d="M103.05,54.48h-1.71v7.91H96.78v-1A6.24,6.24,0,0,0,96.61,60,2.47,2.47,0,0,0,96.07,59a2.79,2.79,0,0,0-.9-.74A3.73,3.73,0,0,0,93.86,58a3.66,3.66,0,0,0-1.24.2,4.7,4.7,0,0,0-1.08.53,5.78,5.78,0,0,0-.9.81c-.27.3-.51.64-.74.94a9.15,9.15,0,0,0-.57,1,4,4,0,0,0-.4.87,2.71,2.71,0,0,1-.77-.1,1.39,1.39,0,0,1-.74-.3c0-.13,0-.24,0-.37V59.71H85.77v1.68a2.53,2.53,0,0,1,0,.47,1.3,1.3,0,0,1-.13.3.83.83,0,0,1-.27.17,1.58,1.58,0,0,1-.37,0H74.33a3.75,3.75,0,0,1-1.47-.3L72.69,62a1.51,1.51,0,0,0,.07-.37,1.8,1.8,0,0,0,0-.4,3.71,3.71,0,0,0-.07-.67,1.58,1.58,0,0,0-.23-.67,2.37,2.37,0,0,0-.4-.64,2.53,2.53,0,0,0-.54-.5,2,2,0,0,0-.7-.34,2.68,2.68,0,0,0-.88-.13,1.79,1.79,0,0,0-.73.13,3.12,3.12,0,0,0-.88.47,4.63,4.63,0,0,0-.87,1,5.68,5.68,0,0,0-.7,1.74.9.9,0,0,1-.87.68h-.61a.93.93,0,0,1-.33,0,.59.59,0,0,1-.24-.17.88.88,0,0,1-.13-.33,2.28,2.28,0,0,1-.07-.54V54.44H62.86v7.18a2.48,2.48,0,0,0,.14.87,1.42,1.42,0,0,0,.37.64,1.44,1.44,0,0,0,.63.47,2.92,2.92,0,0,0,.91.17h1.21a1.86,1.86,0,0,0,1.67-.84,3.07,3.07,0,0,1,.41.34l.5.3a2.63,2.63,0,0,0,.64.2,3.06,3.06,0,0,0,.8.07,2.83,2.83,0,0,0,1.18-.24,2.52,2.52,0,0,0,.87-.6,2.57,2.57,0,0,0,1.54.77H85.57a2.19,2.19,0,0,0,.91-.2,1.45,1.45,0,0,0,.6-.51,2.45,2.45,0,0,0,1.08.54,7.66,7.66,0,0,0,1.5.17h13.42Zm-31.9,7.38a1,1,0,0,1-.3.4,1.22,1.22,0,0,1-.47.2,2,2,0,0,1-1,0,2.06,2.06,0,0,1-.47-.13,1.72,1.72,0,0,1-.4-.17.69.69,0,0,1-.27-.17,6.23,6.23,0,0,1,.23-.8,3.94,3.94,0,0,1,.37-.74,1.73,1.73,0,0,1,.47-.5.92.92,0,0,1,.61-.2,1.35,1.35,0,0,1,.6.16,1.69,1.69,0,0,1,.44.41,3.46,3.46,0,0,1,.27.5l.1.5c-.07.14-.1.34-.17.51Zm24,.53H90.6a6.65,6.65,0,0,1,.54-1.14,5,5,0,0,1,.71-.94,3.14,3.14,0,0,1,.83-.67,1.61,1.61,0,0,1,.88-.23,1.8,1.8,0,0,1,.6.1,1.08,1.08,0,0,1,.5.37,1.77,1.77,0,0,1,.34.67,3.53,3.53,0,0,1,.13,1Z"/><path class="cls-1" d="M106.4,54.61h-1.67V64h1.67Z"/><path class="cls-1" d="M146.52,66.15a.84.84,0,0,0,0-.67.7.7,0,0,0-.43-.44.72.72,0,0,0-.64,0,.72.72,0,0,0-.44.44,1,1,0,0,0,0,.67,1.07,1.07,0,0,0,.47.47.79.79,0,0,0,.67,0A.83.83,0,0,0,146.52,66.15Z"/><path class="cls-1" d="M153.06,63.13a3.07,3.07,0,0,1,.41.34l.5.3a2.17,2.17,0,0,0,.67.2,3.17,3.17,0,0,0,.81.07,2.65,2.65,0,0,0,1.14-.24,2.45,2.45,0,0,0,1.34-1.41,2.42,2.42,0,0,0,.17-1,5.08,5.08,0,0,0-.07-.67,3.09,3.09,0,0,0-.64-1.28,2.55,2.55,0,0,0-.54-.5,1.8,1.8,0,0,0-.7-.33,2.52,2.52,0,0,0-.87-.14,1.81,1.81,0,0,0-.74.14,2.49,2.49,0,0,0-.84.47,3.53,3.53,0,0,0-.84,1,6.1,6.1,0,0,0-.7,1.71,1,1,0,0,1-.37.53,14.17,14.17,0,0,1-2,.17h-.87a.35.35,0,0,1-.27-.17,2,2,0,0,1-.2-.47,3.78,3.78,0,0,1-.13-.67,6.92,6.92,0,0,0-.14-.77,2.45,2.45,0,0,0-.27-.87,2.76,2.76,0,0,0-.5-.71,2.65,2.65,0,0,0-.74-.47,2.42,2.42,0,0,0-1-.16,5,5,0,0,0-1,.1,7.43,7.43,0,0,0-.9.23v1.34c.13-.06.27-.1.43-.16a2.08,2.08,0,0,1,.47-.1c.17,0,.31,0,.44-.07a1.37,1.37,0,0,1,1,.17,1.83,1.83,0,0,1,.41.47,4,4,0,0,1,.23.67,4.11,4.11,0,0,1,.13.73,3.23,3.23,0,0,0,.14.51,1.72,1.72,0,0,0,.17.4H132.74a4.23,4.23,0,0,1-.74-.07,2.09,2.09,0,0,1-.67-.2.61.61,0,0,1,0-.23V54.61h-1.68v7a2.48,2.48,0,0,1,0,.47,1.3,1.3,0,0,1-.13.3.69.69,0,0,1-.27.17,1.58,1.58,0,0,1-.37,0h-.74a5.69,5.69,0,0,1-.74-.06,2.48,2.48,0,0,1-.67-.2.66.66,0,0,1,0-.24V58.67h-1.67v2.95a1.87,1.87,0,0,1,0,.47,1,1,0,0,1-.13.3.69.69,0,0,1-.27.17,1.5,1.5,0,0,1-.37,0,2.27,2.27,0,0,1-.67-.1,2.12,2.12,0,0,1-.67-.3V59.37h-1.71v2.28a2.42,2.42,0,0,1,0,.47,1.23,1.23,0,0,1-.14.31.72.72,0,0,1-.27.16,1.11,1.11,0,0,1-.36,0,2.53,2.53,0,0,1-1.21-.34l-.1-.6c0-.2-.1-.4-.14-.64a2.79,2.79,0,0,0-.17-.6c-.06-.2-.1-.37-.16-.54l-1.65.47a3.7,3.7,0,0,1,.24.64,3.86,3.86,0,0,1,.17.63l.1.61a2.48,2.48,0,0,1,0,.47,3.07,3.07,0,0,1-.6,2,2.29,2.29,0,0,1-1.85.67,3,3,0,0,1-.94-.17,1.54,1.54,0,0,1-.7-.5A2.12,2.12,0,0,1,113,64a2.93,2.93,0,0,1-.14-1.41l.1-.5c0-.17.11-.3.14-.47l.2-.4-1.34-.74a3.46,3.46,0,0,0-.34.63,6.4,6.4,0,0,0-.27.68c-.06.23-.13.5-.2.7a5.51,5.51,0,0,0-.06.7,3.81,3.81,0,0,0,.23,1.38,3.36,3.36,0,0,0,.74,1.14,3.44,3.44,0,0,0,1.27.81,5.83,5.83,0,0,0,1.85.3,4.71,4.71,0,0,0,1.51-.24,3.11,3.11,0,0,0,1.17-.67,3.5,3.5,0,0,0,.84-1,4.34,4.34,0,0,0,.47-1.27c.24.1.47.2.7.27a4.09,4.09,0,0,0,.84.1H121a2.71,2.71,0,0,0,.9-.17,1.37,1.37,0,0,0,.6-.5,3.22,3.22,0,0,0,.88.46,3.12,3.12,0,0,0,1.14.21h.3a2.1,2.1,0,0,0,.8-.14,1.9,1.9,0,0,0,.57-.4,4.34,4.34,0,0,0,.81.4,3.26,3.26,0,0,0,1.11.14h1.34a2.1,2.1,0,0,0,.8-.14.62.62,0,0,0,.24-.13,2.44,2.44,0,0,0,.3-.27,4.34,4.34,0,0,0,.81.4,3.17,3.17,0,0,0,1.1.14h18.82A1.87,1.87,0,0,0,153.06,63.13Zm.74-1.84a2.85,2.85,0,0,1,.37-.74,1.91,1.91,0,0,1,.47-.51,1,1,0,0,1,.6-.2,1.37,1.37,0,0,1,.61.17,1.63,1.63,0,0,1,.43.4,3.14,3.14,0,0,1,.27.51,2.11,2.11,0,0,1,.1.5,1.63,1.63,0,0,1-.1.57.87.87,0,0,1-.3.4,1.1,1.1,0,0,1-.47.2,2.15,2.15,0,0,1-1,0,2.69,2.69,0,0,1-.46-.14,2.31,2.31,0,0,1-.41-.16.83.83,0,0,1-.27-.17A2.49,2.49,0,0,1,153.8,61.29Z"/><path class="cls-1" d="M147.6,16.34H117.24A10.55,10.55,0,0,0,106.71,26.9h0v2.92h-5.07a9.6,9.6,0,0,0-9.56-9.39H90.57v7.75a1.85,1.85,0,0,1-1.84,1.67h-4a15.55,15.55,0,0,0-31.06,0H49.51a1.71,1.71,0,0,1-1.14-.26s-.27-.27-.27-1.45V9.73A9.72,9.72,0,0,0,38.41,0H36.93V31c0,2.91.64,5.13,2,6.57s3.45,2.31,6.34,2.31h6.17a7.65,7.65,0,0,0,1.17-.06c.14,0,.27,0,.47,0a8.91,8.91,0,0,0,2.52-.53l.47-.17a15.53,15.53,0,0,0,21.33,5l.21-.13.2-.14a14.81,14.81,0,0,0,4.79-4.79,2.36,2.36,0,0,0,.47.16,12,12,0,0,0,1.88.47l.81.1c.63.07,1.3.07,1.94.1H90a34.28,34.28,0,0,0,3.65-.16A6.58,6.58,0,0,0,96.21,39a5.65,5.65,0,0,0,2.58.77c1.11.1,2.41.16,4,.16H147.5A10.54,10.54,0,0,0,158,29.32V26.94a10.49,10.49,0,0,0-10.3-10.64h0ZM75.94,31.23a7,7,0,1,1,0-.84A7.86,7.86,0,0,1,75.94,31.23ZM146.42,31H118.55a2.9,2.9,0,0,1-3-2.78h0a2.88,2.88,0,0,1,2.82-2.95h28a2.87,2.87,0,0,1,2.88,2.88A2.82,2.82,0,0,1,146.42,31Z"/><path class="cls-1" d="M16.74,12.68A4.42,4.42,0,1,0,12.61,8h0v.61A4.46,4.46,0,0,0,16.74,12.68Z"/><path class="cls-1" d="M24.19,16.4H22.74v13a5.84,5.84,0,0,1-5.8,5.84h-.13a5.94,5.94,0,0,1-5.74-5.94V26.16a9.72,9.72,0,0,0-9.66-9.72H0V29.28A17.1,17.1,0,0,0,16.81,46.46h.1a17,17,0,0,0,16.9-17V26.16a9.56,9.56,0,0,0-9.36-9.76Z"/></g></g></svg>