<svg xmlns="http://www.w3.org/2000/svg" viewBox="0 0 215.72 72.06"><defs><style>.cls-1{fill:#c9c9c9;}</style></defs><g id="Layer_2" data-name="Layer 2"><g id="Layer_1-2" data-name="Layer 1"><path class="cls-1" d="M189.87,42.47a7.44,7.44,0,0,0-3.38-.23,7.59,7.59,0,0,0-1.49.38s-.11,0-.14,0c-.3.12-.52.23-.82.38s-.45.26-.67.37a17.13,17.13,0,0,0-1.52,1,31.86,31.86,0,0,1-.15-8.14s0,0,0,0c1.19.78.86,2.9.6,3.49,0,0,0,0,0,0a3.73,3.73,0,0,0,.44-4.24s0,0,0,0a2.39,2.39,0,0,1,.52.55A3.35,3.35,0,0,1,184,37.9a2.74,2.74,0,0,1,0,.81.4.4,0,0,1,0,.19h0a3.49,3.49,0,0,0,0-3.16,3.61,3.61,0,0,0-.67-.93,2.67,2.67,0,0,0-.3-.26v0a2.08,2.08,0,0,1,.26.08A1.39,1.39,0,0,1,184,35a2.47,2.47,0,0,1,.93,1.3,3.46,3.46,0,0,1,.22,1.15s0,0,0,0a2.76,2.76,0,0,0-.26-2.38,3.17,3.17,0,0,0-.93-.93,2,2,0,0,0-.67-.29c-.11,0-.22,0-.33-.08s0,0,0,0,.22,0,.33,0,.49,0,.67,0a2.31,2.31,0,0,1,.93.37,1.75,1.75,0,0,1,.63.67h0a1.83,1.83,0,0,0-.67-1.31,3.56,3.56,0,0,0-.93-.52,5.2,5.2,0,0,0-.67-.11,2.18,2.18,0,0,0-.85.15,0,0,0,0,1,0,0,1.34,1.34,0,0,1,.85-.59,1.42,1.42,0,0,1,.67-.07,1.92,1.92,0,0,1,.56.11,0,0,0,0,0,0,0,1.69,1.69,0,0,0-.6-.45,2.39,2.39,0,0,0-.67-.22,1.7,1.7,0,0,0-1.63.82h0L181.4,32A4.41,4.41,0,0,1,181,30.8a5,5,0,0,1-.6,1.67h0a1.71,1.71,0,0,0-1.64-.82,2.5,2.5,0,0,0-.67.22,6.14,6.14,0,0,0-.59.45s0,0,0,0a1.27,1.27,0,0,1,.56-.11,2.19,2.19,0,0,1,.67.07,1.73,1.73,0,0,1,.85.59s0,0,0,0a2.23,2.23,0,0,0-.86-.15,2.29,2.29,0,0,0-.67.11,2.18,2.18,0,0,0-.93.52,1.93,1.93,0,0,0-.66,1.31s0,0,0,0a1.91,1.91,0,0,1,.63-.67,2.66,2.66,0,0,1,.93-.37,3.6,3.6,0,0,1,.67,0,1.11,1.11,0,0,1,.34,0s0,0,0,0a1.36,1.36,0,0,0-.34.08,2.19,2.19,0,0,0-.67.29,2.51,2.51,0,0,0-.93.93,3,3,0,0,0-.26,2.38s0,0,0,0a3.35,3.35,0,0,1,.22-1.15,3.23,3.23,0,0,1,.93-1.3,2.33,2.33,0,0,1,.67-.37c.08,0,.19,0,.26-.08s0,0,0,0-.18.19-.29.26a3,3,0,0,0-.67.93,3.46,3.46,0,0,0,0,3.16h0a.52.52,0,0,0,0-.19,2.74,2.74,0,0,1,0-.81,3.38,3.38,0,0,1,.67-1.83,5.26,5.26,0,0,1,.52-.55,0,0,0,0,1,0,0,3.81,3.81,0,0,0,.45,4.24h0c-.26-.59-.6-2.71.59-3.49h0a33.85,33.85,0,0,1-.15,8.14,17.13,17.13,0,0,0-1.52-1c-.23-.11-.45-.26-.67-.37s-.52-.26-.82-.38a.27.27,0,0,0-.15,0,8.44,8.44,0,0,0-1.52-.38,8.11,8.11,0,0,0-3.39.23.15.15,0,0,0-.11.15.14.14,0,0,0,.19.15,8.08,8.08,0,0,1,3.31.26,11.89,11.89,0,0,1,1.52.59,7.65,7.65,0,0,1,.93.52,6.54,6.54,0,0,1,.67.45c.52.37,1,.78,1.52,1.15-.52.48-1.08.93-1.52,1.37a4.53,4.53,0,0,1-.67.6c-.37.3-.67.59-.93.78a1.86,1.86,0,0,1-.33.19.81.81,0,0,0-.82-.3.91.91,0,0,0-.37.18.8.8,0,0,0-.23.38.87.87,0,0,0,.15.66s0,0,.08,0a1.27,1.27,0,0,0,1.52,0A4.45,4.45,0,0,0,178,49c.22-.19.45-.37.67-.59.59-.53,1.19-1.16,1.89-1.79l.38-.33c.11.11.26.22.37.33.67.63,1.34,1.23,1.89,1.75.23.18.45.41.67.59a5.8,5.8,0,0,0,.93.67c.6.3,1.08.37,1.49,0,0,0,0,0,.07,0a1,1,0,0,0,.15-.67.63.63,0,0,0-.22-.37.52.52,0,0,0-.37-.19.84.84,0,0,0-.82.3,3.25,3.25,0,0,1-.34-.19,5,5,0,0,1-.92-.78c-.19-.18-.45-.37-.67-.59-.45-.45-1-.9-1.53-1.38.49-.41,1-.78,1.53-1.15l.67-.45c.29-.18.63-.37.92-.52a14,14,0,0,1,1.49-.59,8,8,0,0,1,3.31-.26c.11,0,.19,0,.19-.15.26,0,.22-.11.14-.11"/><path class="cls-1" d="M182.14,11.58a62,62,0,0,1-12.41-4.8l-1.38-.63-.18.11c-3.65,2.6-7.1,5.5-10.71,8.55l-1.93,1.64-.08.07a30.16,30.16,0,0,0-4.68,18.59,32.81,32.81,0,0,0,7.73,18.66,41.75,41.75,0,0,0,20,13.45l.11,0,.12,0a57.46,57.46,0,0,0,13.9-4.2,49.56,49.56,0,0,0,11.07-7,32.61,32.61,0,0,0,6.73-20.63,30.54,30.54,0,0,0-10-15.46c-4.42-3.79-10.4-6.54-18.25-8.4Zm-25.79,11.6A115.86,115.86,0,0,0,169.1,11.24l.78-.81c.11.14.18.29.29.44-4.12,4.69-8.4,9.48-13.82,13.64V23.18Zm45.79,24.75c-4.53,3.79-16.54,9.78-23.27,12.57C174.41,56.26,169,51,165,44.77a82.31,82.31,0,0,1-8.62-19.55c5.54-4.16,9.85-9,14-13.68A41.33,41.33,0,0,0,183.78,27a38.71,38.71,0,0,0,19.51,6.84c.71,2.68.82,8.7-1.15,14.09ZM164.6,45.07c3.94,6.32,9.51,11.67,14,16l.11.11.19-.08c6.76-2.75,19.1-8.95,23.64-12.78l0,0,0-.08c1.9-5.16,2-11.22,1.19-14.45.34.18.67.37,1,.52a29.07,29.07,0,0,1-2.31,15.61,82.34,82.34,0,0,1-10.89,6.61,126.31,126.31,0,0,1-13.12,5.65,64.59,64.59,0,0,1-14.76-15.5A41.12,41.12,0,0,1,158.05,35a40.9,40.9,0,0,1-1.48-7.62A81.87,81.87,0,0,0,164.6,45.07Zm19.48-18.59a40.21,40.21,0,0,1-11.75-12.63,34.22,34.22,0,0,0,11,9.44c2,1,4.06,2,6.1,3,1.82.85,3.64,1.71,5.43,2.64,2.12,1.08,4.12,2.19,6.06,3.19.67.38,1.34.67,2,1a38.28,38.28,0,0,1-18.77-6.69ZM168.65,10.8A118.33,118.33,0,0,1,155.9,22.69c.11-.52.22-1.08.37-1.56,3.76-3,7.14-6.13,10.41-9.25l2.75-2.57c.11.11.19.22.33.37l-1.11,1.12Zm-13,13a40.65,40.65,0,0,0,1.71,11.45A42.1,42.1,0,0,0,163.15,47a64.86,64.86,0,0,0,15,15.76l.15.12.19,0a143.27,143.27,0,0,0,13.34-5.73,82.82,82.82,0,0,0,11-6.72l.11-.12A29.56,29.56,0,0,0,205.41,34l0-.15-.14-.07c-1.3-.67-2.64-1.42-4.09-2.16-1.94-1-4-2.12-6.06-3.2-1.79-.93-3.64-1.82-5.43-2.64-2-1-4.09-2-6.06-3a34.7,34.7,0,0,1-12.23-11.26,33.19,33.19,0,0,0,11.49,8.18l1.11.44a71.77,71.77,0,0,1,12.49,6.06,47,47,0,0,1,9.93,8.51,30.44,30.44,0,0,1-3.72,17.07,70,70,0,0,1-10.89,6.69,97,97,0,0,1-13.27,5.16A53.12,53.12,0,0,1,162.18,49a34.31,34.31,0,0,1-6.32-13.79A34.78,34.78,0,0,1,155.68,23.77ZM169.21,8.53c-1,.93-2,1.9-3,2.82-3.28,3.09-6.7,6.32-10.49,9.26l-.11.07,0,.12a32.79,32.79,0,0,0-.4,14.34,35.23,35.23,0,0,0,6.43,14.09,53.39,53.39,0,0,0,16.69,15l.11.08.15,0A97.87,97.87,0,0,0,192.07,59a70.82,70.82,0,0,0,11-6.77l.11-.11a30.88,30.88,0,0,0,3.83-17.69v-.11l-.08-.08a46.84,46.84,0,0,0-10.14-8.7,76,76,0,0,0-12.64-6.09L183.07,19c-4.53-1.86-8.7-5.05-12.79-9.74A40.42,40.42,0,0,0,182.37,16c5.16,1.64,11.11,3.83,15.76,7.36A32.44,32.44,0,0,1,208,35.11a31.49,31.49,0,0,1-5.13,18.55A59.42,59.42,0,0,1,192,60.38,73.93,73.93,0,0,1,178.54,65a46,46,0,0,1-17.92-13.94,32.28,32.28,0,0,1-7-16,28.77,28.77,0,0,1,2.45-16c2.46-2,4.76-4,7.06-6,2-1.71,3.83-3.31,5.73-4.91.11.11.26.19.37.3Zm40.37,27a32.24,32.24,0,0,1-6.55,20,50.17,50.17,0,0,1-10.85,6.8,56.57,56.57,0,0,1-13.61,4.12A40.14,40.14,0,0,1,159.1,53.25a32,32,0,0,1-7.59-18.18A29.52,29.52,0,0,1,156.05,17l1.89-1.56c3.57-3,6.92-5.83,10.49-8.4l.44.19-.22.18c-2,1.64-4,3.42-6,5.1-2.3,2-4.6,4-7.1,6l-.11.11a29.82,29.82,0,0,0-2.52,16.5A32.77,32.77,0,0,0,160,51.5a45.93,45.93,0,0,0,18.32,14.24l.11,0,.11,0A72.93,72.93,0,0,0,192.25,61a57.14,57.14,0,0,0,11-6.88l.08-.07A32.21,32.21,0,0,0,208.65,35l0-.11a32.69,32.69,0,0,0-10.07-12.08c-4.73-3.61-10.71-5.8-15.95-7.47-5.5-1.75-9.89-5-13.49-7.89L169,7.34l.34.15a65.07,65.07,0,0,0,12.56,4.87c7.73,1.86,13.57,4.53,17.84,8.21a29.22,29.22,0,0,1,9.82,15Z"/><path class="cls-1" d="M181.66,7.82c-2.68-.44-5.17-1-7.55-1.52-2.19-.48-4.23-.93-6.13-1.23l-.15,0-.11.07a91,91,0,0,0-12.27,9.22l0,0a31.27,31.27,0,0,0-6.84,20.7A33.64,33.64,0,0,0,157,56a38.64,38.64,0,0,0,21.59,12.67h.12A47.79,47.79,0,0,0,192.77,65a43.79,43.79,0,0,0,11-7,33.9,33.9,0,0,0,8.14-20,14.76,14.76,0,0,0-.26-3.9,31.84,31.84,0,0,0-9.62-16.91c-5-4.65-12.08-7.88-20.41-9.3ZM211.14,37.9a33.15,33.15,0,0,1-7.92,19.51,44.33,44.33,0,0,1-10.78,6.84,47.79,47.79,0,0,1-13.75,3.61,37.58,37.58,0,0,1-21.08-12.42,32.63,32.63,0,0,1-8.22-20.37A30.52,30.52,0,0,1,156,15a89.94,89.94,0,0,1,12-9c1.82.3,3.83.74,5.94,1.22,2.42.52,4.91,1.08,7.59,1.57,8.14,1.37,15,4.53,20,9.1a30.7,30.7,0,0,1,9.36,16.43,14.48,14.48,0,0,1,.23,3.65Z"/><path class="cls-1" d="M181.18,3.92a64.2,64.2,0,0,0-13.91-.19l-.15,0a56.59,56.59,0,0,0-12,8.29l0,0a33.14,33.14,0,0,0-9,22.9,34.35,34.35,0,0,0,9.1,23.3,37,37,0,0,0,22.38,11.86,10.75,10.75,0,0,0,2.12.08A40.06,40.06,0,0,0,193,67.11,39.29,39.29,0,0,0,204.07,60a35.16,35.16,0,0,0,9.74-23.6,33.2,33.2,0,0,0-9.88-22.27A37.39,37.39,0,0,0,181.18,3.92Zm22.34,55.5a39.53,39.53,0,0,1-10.78,6.91,39.75,39.75,0,0,1-14,3.09A36.07,36.07,0,0,1,155.9,57.75,33.69,33.69,0,0,1,147,35a32.57,32.57,0,0,1,8.78-22.3,53.94,53.94,0,0,1,11.67-8.14,65.65,65.65,0,0,1,13.64.19,36.54,36.54,0,0,1,22.27,10A32.19,32.19,0,0,1,213,36.41,34.35,34.35,0,0,1,203.52,59.42Z"/><path class="cls-1" d="M205.86,11.28A36,36,0,1,0,178.72,72c.34,0,.67,0,1,0a36,36,0,0,0,26.13-60.78ZM214.78,37a35.1,35.1,0,1,1-59.22-26.46A34.84,34.84,0,0,1,179.65,1c.34,0,.67,0,1,0a35.11,35.11,0,0,1,34.12,36Z"/><path class="cls-1" d="M6.13,47.45a3.17,3.17,0,0,0-2.08-.82,2.78,2.78,0,0,0-2.86,3,2.62,2.62,0,0,0,2.86,2.76A2.77,2.77,0,0,0,6,51.69V50.13H3.83V49.05H7.1v3.12a3.84,3.84,0,0,1-3,1.34A3.72,3.72,0,0,1,0,49.6a3.89,3.89,0,0,1,4.05-4.12A4.15,4.15,0,0,1,7,46.63l-.82.82Z"/><path class="cls-1" d="M14.94,53.36H9.26v-7.7h5.65v1.19H10.48v2.09h4.24v1.15H10.48v2h4.46v1.23Z"/><path class="cls-1" d="M22.41,51.13V45.66h1.23v7.7h-.93l-4.38-5.43v5.43H17.1v-7.7H18Z"/><path class="cls-1" d="M31.86,53.36H26.17v-7.7h5.65v1.19H27.4v2.09h4.23v1.15H27.4v2h4.46v1.23Z"/><path class="cls-1" d="M40.67,53.36H39.22l-2.35-2.68H35.24v2.68H34v-7.7h3.57a2.51,2.51,0,0,1,2.71,2.53,2.23,2.23,0,0,1-2.08,2.38l2.31,2.57Zm-5.39-6.58v2.79h2.34a1.4,1.4,0,1,0,0-2.79Z"/><path class="cls-1" d="M48.1,51.72H43.94l-.75,1.64h-1.3l3.46-7.7h1.34l3.45,7.7h-1.3ZM46,47l-1.64,3.64h3.24Z"/><path class="cls-1" d="M53,45.66v6.55h4.05v1.15H51.78v-7.7Z"/><path class="cls-1" d="M66.69,51.72H62.52l-.74,1.64h-1.3l3.46-7.7h1.33l3.46,7.7H67.39ZM64.6,47,63,50.61H66.2Z"/><path class="cls-1" d="M76.54,45.66v4.5a3.26,3.26,0,1,1-6.51,0v-4.5h1.23v4.5a2.05,2.05,0,1,0,4.09,0v-4.5Z"/><path class="cls-1" d="M80.7,46.78H78.17V45.66h6.28v1.12H81.93v6.58H80.7V46.78Z"/><path class="cls-1" d="M91.48,53.36v-3.2h-4v3.2H86.2v-7.7h1.23V49h4V45.66h1.23v7.7Z"/><path class="cls-1" d="M102.59,49.53a3.73,3.73,0,0,1-3.94,4,3.77,3.77,0,0,1-3.94-4,3.87,3.87,0,0,1,4-4.05A3.79,3.79,0,0,1,102.59,49.53Zm-3.9,2.86a2.57,2.57,0,0,0,2.71-2.82,2.67,2.67,0,0,0-2.67-2.94,2.88,2.88,0,0,0,0,5.76Z"/><path class="cls-1" d="M111.29,53.36h-1.45l-2.34-2.68h-1.63v2.68h-1.23v-7.7h3.57a2.51,2.51,0,0,1,2.71,2.53,2.24,2.24,0,0,1-2.08,2.38l2.3,2.57.15.22Zm-5.39-6.58v2.79h2.34a1.4,1.4,0,1,0,0-2.79Z"/><path class="cls-1" d="M113.19,53.36v-7.7h1.23v7.7Z"/><path class="cls-1" d="M118.69,46.78h-2.53V45.66h6.28v1.12H120v6.58h-1.22l0-6.58Z"/><path class="cls-1" d="M127,49.05l2.19-3.42h1.49v0l-3,4.47v3.15h-1.23V50.16l-3-4.46v0h1.49L127,49.05Z"/><path class="cls-1" d="M7.88,62.21a3.73,3.73,0,0,1-3.9,4A3.73,3.73,0,0,1,.07,62.24a3.83,3.83,0,0,1,3.94-4,3.71,3.71,0,0,1,3.87,4ZM4,65a2.55,2.55,0,0,0,2.67-2.82A2.69,2.69,0,0,0,4,59.27,2.88,2.88,0,0,0,4,65Z"/><path class="cls-1" d="M9.48,66V58.34h5.43v1.19h-4.2v2.34h4V63h-4v3L9.48,66Z"/><path class="cls-1" d="M25.2,60.12l-2.6,3.65h-.26l-2.56-3.65V66H18.55V58.34H20l2.53,3.57L25,58.34h1.41V66H25.2V60.12Z"/><path class="cls-1" d="M34.16,66H28.51V58.34h5.65v1.19H29.77v2H34v1.16H29.77v2H34.2V66Z"/><path class="cls-1" d="M38.81,58.38a3.83,3.83,0,1,1,0,7.65h-2.9V58.34l2.9,0ZM37.1,64.85h1.67a2.44,2.44,0,0,0,2.6-2.72,2.49,2.49,0,0,0-2.6-2.6H37.1v5.32Z"/><path class="cls-1" d="M44.27,66V58.34H45.5V66Z"/><path class="cls-1" d="M52.86,64.4H48.73L48,66h-1.3l3.41-7.66h1.34L54.9,66H53.6Zm-2.08-4.76-1.64,3.64h3.24l-1.6-3.64Z"/><path class="cls-1" d="M65.09,66H63.68l-2.35-2.64H59.7V66H58.47V58.34H62a2.49,2.49,0,0,1,2.68,2.53,2.26,2.26,0,0,1-2.09,2.38l2.31,2.52.15.23Zm-5.35-6.54v2.75h2.34a1.34,1.34,0,0,0,1.48-1.38,1.37,1.37,0,0,0-1.45-1.41l-2.37,0Z"/><path class="cls-1" d="M72.19,66H66.54V58.34h5.61v1.19H67.76v2H72v1.16h-4.2v2h4.43V66Z"/><path class="cls-1" d="M79.59,60.12a3.11,3.11,0,0,0-2-.81,2.72,2.72,0,0,0-2.82,3A2.61,2.61,0,0,0,77.54,65a2.79,2.79,0,0,0,1.9-.67V62.8H77.32V61.72h3.27v3.16a3.81,3.81,0,0,1-3,1.34,3.72,3.72,0,0,1-4-3.9,3.86,3.86,0,0,1,4-4.09,4.15,4.15,0,0,1,2.86,1.15l-.85.74Z"/><path class="cls-1" d="M88.66,58.38v4.46a3.26,3.26,0,1,1-6.51,0V58.38h1.23v4.46a2,2,0,1,0,4.09,0V58.38Z"/><path class="cls-1" d="M91.85,58.38v6.5h3.94V66H90.66V58.34l1.19,0Z"/><path class="cls-1" d="M102.59,64.4H98.47L97.76,66h-1.3l3.42-7.66h1.34L104.64,66h-1.3l-.75-1.6Zm-2-4.76-1.64,3.64h3.24Z"/><path class="cls-1" d="M106.83,59.46H104.3V58.34h6.25v1.12h-2.49V66h-1.23V59.46Z"/><path class="cls-1" d="M111.85,66V58.34h1.23V66Z"/><path class="cls-1" d="M122.52,62.21a3.91,3.91,0,1,1-7.81,0,3.83,3.83,0,0,1,3.94-4,3.71,3.71,0,0,1,3.87,4ZM118.62,65a2.55,2.55,0,0,0,2.67-2.82,2.7,2.7,0,0,0-2.67-2.94,2.62,2.62,0,0,0-2.72,2.94A2.66,2.66,0,0,0,118.62,65Z"/><path class="cls-1" d="M129.43,63.8V58.34h1.23V66h-.93l-4.35-5.43V66h-1.23V58.34h.93Z"/><path class="cls-1" d="M124.34,5.89v11H118v-2c0-6.17-5.5-7.43-10-5.5l.67,1.49c3.65-1.49,7.62-.52,7.62,4v2.05h-1.93V15.11a3.29,3.29,0,0,0-6.58-.15,2.8,2.8,0,0,0,.71,1.86H100.4a1.68,1.68,0,0,1-1.89-1.93V11.5H96.8V15a2,2,0,0,1-.45,1.45,1.94,1.94,0,0,1-1.41.45H91a1.68,1.68,0,0,1-1.82-1.94V11.47H87.47v3.45A2,2,0,0,1,87,16.37a1.94,1.94,0,0,1-1.41.45H83.08c-1.23,0-1.82-.63-1.82-1.93V10H77.21a4,4,0,0,0-4.13,4.09c0,2.45,1.41,4.53,4.13,4.53A3.82,3.82,0,0,0,80.29,17a1.43,1.43,0,0,1,.11.15,3.05,3.05,0,0,0,2.68,1.08h2.53a2.63,2.63,0,0,0,2.52-1.34,1.08,1.08,0,0,0,.19.22A3,3,0,0,0,91,18.23h4a2.66,2.66,0,0,0,2.53-1.34s.15.23.19.26a3,3,0,0,0,2.67,1.08h25.73V5.82h-1.75v.07ZM79.47,14.14c0,2.49-1.33,2.94-2.26,2.94S75,16.34,75,14.14a2.46,2.46,0,0,1,2.6-2.67h1.89Zm33.16,2.72h-1.34A1.68,1.68,0,0,1,109.47,15,1.66,1.66,0,0,1,111,13.18c.56,0,1.56.22,1.56,1.85l0,1.83Z"/><rect class="cls-1" x="128.95" y="5.89" width="1.71" height="12.42"/><path class="cls-1" d="M114.6,11.16v1.05h-4.22V11.16h1.24a1.39,1.39,0,0,1-.57-1A2,2,0,0,1,111.28,9a1.69,1.69,0,0,1,.86-.76,2.37,2.37,0,0,1,1.14-.14,2.67,2.67,0,0,1,1.09.43l-.48.9a1.5,1.5,0,0,0-1.18-.1.91.91,0,0,0-.48.52,1.15,1.15,0,0,0,0,.67,1.52,1.52,0,0,0,1.09.66A9,9,0,0,1,114.6,11.16Z"/><rect class="cls-1" x="62" y="24.33" width="1.71" height="12.42"/><polygon class="cls-1" points="57.17 24.33 57.17 35.29 53.68 35.29 53.68 26.78 51.97 26.78 51.97 35.29 48.84 35.29 48.84 36.71 51.33 36.71 51.33 36.71 53.04 36.71 53.04 36.71 58.88 36.71 58.88 24.33 57.17 24.33"/><path class="cls-1" d="M7.43,28.45a4,4,0,0,0-4,4.2v2.68A4,4,0,0,0,0,39.42v1.52H1.71V39.68c0-2.53,1.45-3,2.3-3H7.4a3.92,3.92,0,0,0,4.12-4.06,4,4,0,0,0-4.09-4.2ZM7,35.29H5.09V32.65c0-2.52,1.49-2.78,2.31-2.78s2.3.48,2.3,2.78C9.74,35.14,8,35.29,7,35.29Z"/><path class="cls-1" d="M43.38,34.92A3.09,3.09,0,0,1,42,33.84a2.57,2.57,0,0,1-.52-1.56,2.25,2.25,0,0,1,.33-1.22,1.91,1.91,0,0,1,.93-.86,3.56,3.56,0,0,1,1.45-.3,8.06,8.06,0,0,1,1.45.15V28.71a7.69,7.69,0,0,0-1.75-.22,4.59,4.59,0,0,0-2.19.48,3.81,3.81,0,0,0-1.49,1.34,3.5,3.5,0,0,0-.52,2A3.44,3.44,0,0,0,40,33.92a3.2,3.2,0,0,0,1.12,1.22l.26.19h-16A2,2,0,0,1,24,34.88a2,2,0,0,1-.44-1.48v-9H21.86v9c0,1.34-.6,1.93-1.9,1.93H18.47V26.82H16.76v8.51H13.31v1.41H20a3,3,0,0,0,2.67-1.07,1.31,1.31,0,0,0,.12-.19,2.74,2.74,0,0,0,2.6,1.26h21V35.33h-1a5.6,5.6,0,0,1-2-.41Z"/><path class="cls-1" d="M52.75,40.2a1,1,0,0,1-.78-.45.58.58,0,0,1,0-.52.74.74,0,0,1,.33-.37,1.13,1.13,0,0,1,.86.08l.37-.67a2.64,2.64,0,0,0-.78-.3,1.71,1.71,0,0,0-.86.11,1.08,1.08,0,0,0-.59.56,1.33,1.33,0,0,0-.15.85,1.09,1.09,0,0,0,.45.75h-.93V41h3.08v-.78c-.29,0-.63,0-1,0Z"/><circle class="cls-1" cx="96.31" cy="20.65" r="1.04"/><circle class="cls-1" cx="98.91" cy="20.65" r="1.04"/><circle class="cls-1" cx="98.25" cy="10.17" r="1.33"/><circle class="cls-1" cx="101.61" cy="10.17" r="1.33"/><path class="cls-1" d="M61.67,5.89v11H54.53c-.59,0-1.45,0-1.75-.45.6-.56,1.16-1.19,1.49-1.56,2.34-2.83.82-4.91-2.71-4.83a12,12,0,0,0-4.2.85v1.45c.74.19,2.12,2.42,3.16,4.05-.23.23-.6.49-1.68.49H35.28v-11H33.57V18.31H49.1a3.34,3.34,0,0,0,2.46-.86,2.59,2.59,0,0,0,2,.86h9.92V5.89Zm-10,9.55c-.93-1.33-2-3.23-2.45-3.53a5.17,5.17,0,0,1,3.72-.18c1,.55.22,1.89-.3,2.56a6.71,6.71,0,0,1-1,1.15Z"/><rect class="cls-1" x="66.28" y="5.89" width="1.71" height="12.42"/><path class="cls-1" d="M26.21,10a4,4,0,0,0-4.06,4.2v2.68H10c-1.23,0-1.82-.64-1.82-1.94V10H4.24A4,4,0,0,0,.11,14.07c0,2.45,1.41,4.53,4.13,4.53a3.7,3.7,0,0,0,3-1.56.42.42,0,0,1,.07.11A3.05,3.05,0,0,0,10,18.23H26.17a3.93,3.93,0,0,0,4.13-4.05A4,4,0,0,0,26.21,10ZM6.47,13.66h0v.56c0,2.38-1.34,2.86-2.23,2.86S2,16.34,2,14.14a2.46,2.46,0,0,1,2.6-2.67h1.9l0,2.19Zm19.29,3.2h-1.9V14.22c0-2.53,1.49-2.79,2.31-2.79s2.3.48,2.3,2.79c0,2.49-1.71,2.64-2.71,2.64Z"/><path class="cls-1" d="M5,11.5a1.32,1.32,0,0,0,1.32-1.33A1.3,1.3,0,0,0,5,8.84,1.33,1.33,0,0,0,5,11.5Z"/><path class="cls-1" d="M8.35,11.5a1.32,1.32,0,0,0,1.32-1.33,1.33,1.33,0,1,0-2.65,0A1.32,1.32,0,0,0,8.35,11.5Z"/><path class="cls-1" d="M129,24.33v11h-5.17c-1.3,0-1.89-.59-1.89-1.93V29.94h-1.71V33.4a1.61,1.61,0,0,1-1.86,1.89H116.5c-1.23,0-1.82-.63-1.82-1.93V29.9H113v3.46a2,2,0,0,1-.45,1.45,1.94,1.94,0,0,1-1.41.45h-3a1.68,1.68,0,0,1-1.83-1.94v-.74h0a4.8,4.8,0,0,0-1.07-3,4,4,0,0,0-3-1.11,7.39,7.39,0,0,0-5,2.75V25.48H95.42v9.81h-7a2,2,0,0,1-1.41-.44,2,2,0,0,1-.45-1.49V30H84.9v3.38c0,1.34-.59,1.93-1.9,1.93H80.44c-1.23,0-1.82-.63-1.82-1.93v-.71a4,4,0,0,0-4.13-4.2,3.93,3.93,0,0,0-4,4.2v2.68a3.9,3.9,0,0,0-3.31,4.09v1.52h1.71V39.68c0-2.53,1.45-3,2.31-3h3.31a4.21,4.21,0,0,0,3.12-1.3v0a.62.62,0,0,1,.11.19,3,3,0,0,0,2.68,1.08H83a3.05,3.05,0,0,0,2.68-1.08,1.07,1.07,0,0,0,.11-.19,2.74,2.74,0,0,0,2.6,1.27h13.9a4.05,4.05,0,0,0,1.94-.52,5.27,5.27,0,0,0,1-.78l0,0a.47.47,0,0,1,.11.19,3.05,3.05,0,0,0,2.68,1.08h3a2.81,2.81,0,0,0,2.6-1.27.47.47,0,0,1,.11.19,3,3,0,0,0,2.68,1.08h1.82a2.69,2.69,0,0,0,2.53-1.34,1.1,1.1,0,0,1,.14.26,3.05,3.05,0,0,0,2.68,1.08h7V24.29H129v0Zm-54.9,11h-1.9V32.65c0-2.52,1.49-2.78,2.31-2.78s2.3.48,2.3,2.78c0,2.49-1.71,2.64-2.71,2.64Zm28.06,0h-5V33.1c1.56-1.86,3.2-3,4.69-3a2.75,2.75,0,0,1,2,.67,2.59,2.59,0,0,1,.7,2A2.46,2.46,0,0,1,102.11,35.29Z"/><circle class="cls-1" cx="84.08" cy="39.12" r="1.04"/><circle class="cls-1" cx="86.72" cy="39.12" r="1.04"/><circle class="cls-1" cx="119.47" cy="27.38" r="1.04"/><circle class="cls-1" cx="122.11" cy="27.38" r="1.04"/><circle class="cls-1" cx="113.52" cy="27.38" r="1.04"/><circle class="cls-1" cx="101.48" cy="26.48" r="1.04"/></g></g></svg>