<svg xmlns="http://www.w3.org/2000/svg" viewBox="0 0 146.37 67.62"><defs><style>.cls-1{fill:#c9c9c9;}</style></defs><g id="Layer_2" data-name="Layer 2"><g id="Layer_1-2" data-name="Layer 1"><g id="Layer_2-2" data-name="Layer 2"><path class="cls-1" d="M84.4,44.16h0V53.7C85,53.7,143.48,40,143.48,40c2.19-.51,2.86-1,2.86-2.11V28c0,1.24-1.77,2.19-3.64,2.63L84.38,44.16Z"/><path class="cls-1" d="M84.4,58.09h0v9.53c.63,0,59.08-13.71,59.08-13.71,2.19-.51,2.86-1,2.86-2.1V41.88c0,1.25-1.77,2.19-3.64,2.63L84.38,58.09Z"/><path class="cls-1" d="M88.1,25.49l4.41,1,21.65-5L84.4,14.71v8.42c0,1.23,1,1.76,3.7,2.36"/><path class="cls-1" d="M124.57,19.05,88.1,10.78c-2.7-.6-3.7-1.13-3.7-2.35V0l59.91,13.57a6.09,6.09,0,0,1-3.09,1.6h0l-16.65,3.88Z"/><path class="cls-1" d="M83.64,30.34,75.12,42C76,41.79,143.5,26,143.5,26c2.2-.51,2.87-1,2.87-2.1V14c0,1.25-1.78,2.19-3.65,2.63L83.64,30.38Z"/><path class="cls-1" d="M2.72,18.28v9.54a2.17,2.17,0,0,1-.32,1.41,1.23,1.23,0,0,1-1,.39A3.31,3.31,0,0,1,0,29.23v2.68a8.12,8.12,0,0,0,2.52.5,3.94,3.94,0,0,0,2-.5,3,3,0,0,0,1.21-1.46,8.14,8.14,0,0,0,.39-2.86V17.52l-3.37.79Z"/><path class="cls-1" d="M13.71,13.21,10.34,14v9.44a7.86,7.86,0,0,0,.4,2.87,2.83,2.83,0,0,0,1.2,1.45,3.52,3.52,0,0,0,1.93.51H51a4.07,4.07,0,0,0,1.78-.51A3,3,0,0,0,54,26.3a8,8,0,0,0,.39-2.87V18.35L51,19.14V23a2.18,2.18,0,0,1-.32,1.41,1,1,0,0,1-.78.37h-6l0-1a8.17,8.17,0,0,0-.48-2.68,6.22,6.22,0,0,0-1.62-2.47,7.75,7.75,0,0,0-3-1.64,14.81,14.81,0,0,0-4.46-.6c-1.76,0-1.25,0-1.69,0s-.07.07-.43.09l-.3,3.24c.34,0,.78-.07,1.27-.1s1,0,1.61,0a10.69,10.69,0,0,1,2.66.28,4.07,4.07,0,0,1,1.77.9,3.41,3.41,0,0,1,1,1.61,8.54,8.54,0,0,1,.3,2.34H14.87a1.06,1.06,0,0,1-.79-.37A2.17,2.17,0,0,1,13.76,23V13.18Z"/><path class="cls-1" d="M60.72,31.44a2.09,2.09,0,0,1,.71.19c.26.14.44.23.6.3V30.31a7.87,7.87,0,0,0-.76-.34,1.94,1.94,0,0,0-.76-.14,2.82,2.82,0,0,0-.9.14,2.27,2.27,0,0,0-.76.39,1.88,1.88,0,0,0-.49.67,2.36,2.36,0,0,0-.18,1c0,.41,0,.23,0,.39s.1.3.14.39h-1v1.43H62V32.81H60.05a1.06,1.06,0,0,1-.19-.4,1.29,1.29,0,0,1,0-.34.65.65,0,0,1,.25-.56,1.46,1.46,0,0,1,.62-.09Z"/><path class="cls-1" d="M46.68,30.45a1.92,1.92,0,0,0-1.34.55,2,2,0,0,0,0,2.73,1.74,1.74,0,0,0,1.34.55A2,2,0,0,0,48,33.73a1.8,1.8,0,0,0,.55-1.34A2,2,0,0,0,48,31,1.8,1.8,0,0,0,46.68,30.45Z"/><path class="cls-1" d="M51.48,30.45a1.94,1.94,0,0,0-1.34.55,2,2,0,0,0,0,2.73,1.74,1.74,0,0,0,1.34.55,2.11,2.11,0,0,0,1.34-.55,1.81,1.81,0,0,0,.56-1.34A2,2,0,0,0,52.82,31,1.8,1.8,0,0,0,51.48,30.45Z"/><path class="cls-1" d="M35,30.45a1.92,1.92,0,0,0-1.34.55,2,2,0,0,0,0,2.73,1.74,1.74,0,0,0,1.34.55,2,2,0,0,0,1.34-.55,1.8,1.8,0,0,0,.55-1.34A2,2,0,0,0,36.34,31,1.8,1.8,0,0,0,35,30.45Z"/><polygon class="cls-1" points="58.62 13.21 58.62 28.26 62.01 28.26 62.01 12.42 58.62 13.21"/><path class="cls-1" d="M2.61,55.08H11V52H3.37V49.36h6.79V46.24H3.37V43.43H11V40.35H2.61A2.59,2.59,0,0,0,0,43v9.49a2.6,2.6,0,0,0,2.61,2.63Z"/><path class="cls-1" d="M61.46,54.53c-1.07-1.45-2.15-2.91-3.24-4.36a4.94,4.94,0,0,0,1.87-1.64,5.27,5.27,0,0,0,.86-3,4.35,4.35,0,0,0-.39-2.08,4.71,4.71,0,0,0-1.07-1.64,4.93,4.93,0,0,0-1.64-1.08,5.42,5.42,0,0,0-2.1-.4H51a2,2,0,0,0-2,2V55.06h3.37V50.61h2.12c.51.71,1,1.43,1.5,2.12s1.09,1.48,1.64,2.22l.09.13h4.07l-.4-.53ZM52.41,43.45h3.32a1.86,1.86,0,0,1,1,.21,1.64,1.64,0,0,1,.55.53,1.61,1.61,0,0,1,.25.69,3.47,3.47,0,0,1,.07.67,2.43,2.43,0,0,1-.16.88,1.66,1.66,0,0,1-.44.62,1.81,1.81,0,0,1-.57.37,1.68,1.68,0,0,1-.63.11H52.41V43.45Z"/><path class="cls-1" d="M22.42,41.07v8.29a4.31,4.31,0,0,1-.1.88,2.73,2.73,0,0,1-.3.87,1.86,1.86,0,0,1-.64.7,2,2,0,0,1-1.13.25,1.45,1.45,0,0,1-.72-.12,2,2,0,0,1-.53-.3,1.63,1.63,0,0,1-.39-.43,2.14,2.14,0,0,1-.26-.49l-.13-.32-3.08,1.36.14.3a5.17,5.17,0,0,0,1.94,2.26,5.42,5.42,0,0,0,3,.83,5,5,0,0,0,2.26-.41,4.84,4.84,0,0,0,1.75-1.2,5,5,0,0,0,1.13-1.85,6.86,6.86,0,0,0,.4-2.35V40.26l-3.4.79Z"/><path class="cls-1" d="M37.42,40.72a.58.58,0,0,0-.5-.34.56.56,0,0,0-.51.34L29.07,55.08h3.69l1.08-2.19H40l1.08,2.19h3.7L37.45,40.72Zm-2,9.12,1.45-3.07,1.46,3.07Z"/></g></g></g></svg>