<svg xmlns="http://www.w3.org/2000/svg" viewBox="0 0 308 84.26"><defs><style>.cls-1{fill:#c9c9c9;}</style></defs><g id="Layer_2" data-name="Layer 2"><g id="Layer_1-2" data-name="Layer 1"><g id="srem"><path class="cls-1" d="M242.88,0V11.87h0a.39.39,0,0,0-.21.06L215.46,29l-2.24-3.63a.39.39,0,0,0-.25-.17l-2.34-.49h-.12a24.06,24.06,0,0,1,1.17-4.73.35.35,0,0,1,.33-.22l.12,0a5.23,5.23,0,0,0,1.84.32,8.2,8.2,0,0,0,4.23-1.3,11.09,11.09,0,0,0,1.55-1.24l.49-.43c.82-.71,1.73-1.35,2.61-2l.05,0,1.63-1.16,1.16-.81a.41.41,0,0,0,.06-.58q-.51-.58-1-1.17L242.89,0h0Z"/><path class="cls-1" d="M275.69,32.34,243.08,11.93a.36.36,0,0,0-.2-.06V0l32.81,20.35v12Z"/><path class="cls-1" d="M242.88,14.67V26.53h0a.39.39,0,0,0-.21.06L222.19,39.41a6.46,6.46,0,0,0-1.53-2.11,11,11,0,0,1-1.61-2.44c-.23-.42-.45-.81-.67-1.18,0,0-1.33-2.16-1.64-2.65l26.14-16.36Z"/><path class="cls-1" d="M275.69,35.14V47L243.08,26.59a.36.36,0,0,0-.2-.06V14.67l32.6,20.41a.51.51,0,0,0,.21.06Z"/><path class="cls-1" d="M284.84,41.27,275.69,47V35.14a.51.51,0,0,0,.21-.06l5.36-3.36a3.78,3.78,0,0,1,.95,2,7.17,7.17,0,0,1,.06,1.32c0,.34,0,.7,0,1a3.17,3.17,0,0,0,1,2.32,15.15,15.15,0,0,1,.8,1.49c.16.33.33.65.49,1a4.34,4.34,0,0,1,.23.43Z"/><path class="cls-1" d="M242.88,29.32V41.19h0a.39.39,0,0,0-.21.06l-13.12,8.21a9.86,9.86,0,0,0-2.59-3c-.39-.29-.8-.56-1.21-.81a7.16,7.16,0,0,1-2.39-2.08,5.57,5.57,0,0,1-.6-1.67l20.12-12.59h0Z"/><path class="cls-1" d="M292.86,50.92,275.69,61.66V49.8a.39.39,0,0,0,.21-.06L286,43.39a2.83,2.83,0,0,0,.24.25,12.51,12.51,0,0,0,1.49,1.14,7.85,7.85,0,0,1,2.06,1.79c.39.54.76,1.11,1.13,1.66.6.9,1.22,1.83,1.89,2.68h0Z"/><path class="cls-1" d="M242.88,44V55.85h0a.41.41,0,0,0-.19,0l-.06,0-10,6.27a9.07,9.07,0,0,1-1.26-3.53,19.28,19.28,0,0,1-.11-2.16c0-.45,0-.92,0-1.38a13.53,13.53,0,0,0-.66-3.43L242.87,44h0Z"/><path class="cls-1" d="M275.69,64.46V76.32L243.08,55.91a.36.36,0,0,0-.2-.06V44l32.57,20.39.05,0a.41.41,0,0,0,.19,0Z"/><path class="cls-1" d="M307.91,56.16l-29,18.15-3.22,2h0V64.46h0a.39.39,0,0,0,.21-.06l18.93-11.84a7.9,7.9,0,0,0,2,.37l1,.12a88.56,88.56,0,0,0,8.87.91,4.25,4.25,0,0,1,1.28,2.2Z"/><path class="cls-1" d="M242.88,58.66V70.52h0a.39.39,0,0,0-.21.06l-1.77,1.11c-.05-.1-.09-.21-.14-.32a8.11,8.11,0,0,1-.33-1.14,8,8,0,0,0-.49-1.5,5,5,0,0,0-2-1.78,7.84,7.84,0,0,1-.67-.42,26.14,26.14,0,0,1-3.11-2.42l8.73-5.46h0Z"/><path class="cls-1" d="M273.3,77.7A11.08,11.08,0,0,0,272,79.59l-.2.33c-.56,1-1.61,2.84-2.55,3a3.72,3.72,0,0,1-.36-.35,2.78,2.78,0,0,0-2-1.13h-.16c-.25,0-.51,0-.76,0a21.49,21.49,0,0,1-5.16-.85c-.85-.21-1.74-.43-2.62-.59l-15-9.4a.37.37,0,0,0-.21-.06V58.66l30.43,19Z"/><path class="cls-1" d="M308,59a21.87,21.87,0,0,1-.81,3.16l-.1.31a14,14,0,0,1-2.35,4.26,6.2,6.2,0,0,1-2.3,1.89,70.06,70.06,0,0,1-16.69,4.46l-.32,0L308,59Z"/><path class="cls-1" d="M252.74,79.49h-.12a3.5,3.5,0,0,0-2.26.77,2.11,2.11,0,0,0-.63,1.33,2.08,2.08,0,0,0,.35,1.39l0,.31-1.23,1a7.27,7.27,0,0,0-1.93-3.49,7.9,7.9,0,0,0-2.14-3.2l-.3-.33A19.61,19.61,0,0,1,242,73.88l.89-.57,9.86,6.17h0Z"/><path class="cls-1" d="M275.69,49.79V61.66L243.08,41.25a.36.36,0,0,0-.2-.06V29.32l32.6,20.41a.39.39,0,0,0,.21.06Z"/><path class="cls-1" d="M6.72,41.62v-1a.19.19,0,0,1,.22-.22H9c.15,0,.23.07.23.22V48a1.32,1.32,0,0,0,.26.94,1.15,1.15,0,0,0,.83.26h.86c.61,0,.91.38.91,1.14a1.32,1.32,0,0,1-.21.89.94.94,0,0,1-.69.21H9.38A3.3,3.3,0,0,1,7.64,51a2,2,0,0,1-.83-1.36,3.24,3.24,0,0,1-1.13.61,4.58,4.58,0,0,1-1.39.2,5.36,5.36,0,0,1-1.67-.25,3.52,3.52,0,0,1-1.36-.77,3.73,3.73,0,0,1-.92-1.32A5,5,0,0,1,0,46.21,5.65,5.65,0,0,1,.37,44a3.74,3.74,0,0,1,1-1.41,3.69,3.69,0,0,1,1.42-.76,6.05,6.05,0,0,1,1.66-.23H6.72ZM2.38,38.86a.21.21,0,0,1-.23-.23v-2a.21.21,0,0,1,.23-.23H4.29a.21.21,0,0,1,.23.23v2a.21.21,0,0,1-.23.23Zm2.2,9.4a2,2,0,0,0,1.61-.62,2.77,2.77,0,0,0,.53-1.83V43.89h-2a2.38,2.38,0,0,0-1.57.49,2.36,2.36,0,0,0-.59,1.84,2,2,0,0,0,.55,1.54,2.09,2.09,0,0,0,1.5.5Zm.75-9.4a.21.21,0,0,1-.23-.23v-2a.21.21,0,0,1,.23-.23H7.24c.15,0,.22.08.22.23v2c0,.15-.07.23-.22.23Z"/><path class="cls-1" d="M11.48,51.43a.73.73,0,0,1-.62-.23,1.5,1.5,0,0,1-.17-.84,2,2,0,0,1,.15-.93.73.73,0,0,1,.64-.25H14.2a.92.92,0,0,1,.69.25,1.32,1.32,0,0,1,.22.87,1.37,1.37,0,0,1-.21.91.94.94,0,0,1-.69.22Z"/><path class="cls-1" d="M14.21,51.43a.77.77,0,0,1-.63-.23,1.5,1.5,0,0,1-.17-.84,1.86,1.86,0,0,1,.16-.93.72.72,0,0,1,.63-.25h2.73a.9.9,0,0,1,.68.25,1.31,1.31,0,0,1,.23.87,1.36,1.36,0,0,1-.22.91.91.91,0,0,1-.69.22Z"/><path class="cls-1" d="M16.93,51.43a.77.77,0,0,1-.63-.23,1.5,1.5,0,0,1-.17-.84,1.86,1.86,0,0,1,.16-.93.73.73,0,0,1,.64-.25h2.72a.88.88,0,0,1,.68.25,1.31,1.31,0,0,1,.23.87,1.37,1.37,0,0,1-.21.91.94.94,0,0,1-.69.22Z"/><path class="cls-1" d="M19.66,51.43a1,1,0,0,1-.69-.22,1.13,1.13,0,0,1-.22-.82,1.55,1.55,0,0,1,.21-.93.83.83,0,0,1,.69-.28h1.48a1.09,1.09,0,0,0,.82-.26,1.27,1.27,0,0,0,.27-.94V42.25a.19.19,0,0,1,.22-.22h2.11c.15,0,.23.07.23.22v6.33a3.18,3.18,0,0,1-.61,2.16,2.62,2.62,0,0,1-2,.69H19.66Zm.86,4.35a.2.2,0,0,1-.23-.23V53.6c0-.15.08-.22.23-.22h1.91a.19.19,0,0,1,.22.22v1.95c0,.15-.07.23-.22.23Zm2.95,0a.2.2,0,0,1-.23-.23V53.6c0-.15.08-.22.23-.22h1.91a.19.19,0,0,1,.22.22v1.95c0,.15-.07.23-.22.23Z"/><path class="cls-1" d="M26.64,56c-.15,0-.22-.08-.22-.23V54c0-.15.07-.23.22-.23h.5a1.73,1.73,0,0,0,1.37-.48,2.11,2.11,0,0,0,.42-1.45V42.25c0-.15.08-.22.23-.22h2.11c.15,0,.23.07.23.22v9.61c0,2.76-1.34,4.15-4,4.15Z"/><path class="cls-1" d="M34.36,36.25a.21.21,0,0,1,.23-.23H36.7a.21.21,0,0,1,.23.23V48a1.27,1.27,0,0,0,.26.94,1.14,1.14,0,0,0,.82.26h.8a.87.87,0,0,1,.68.27,1.36,1.36,0,0,1,.23.89,1.29,1.29,0,0,1-.22.9,1.05,1.05,0,0,1-.69.19H37a2.62,2.62,0,0,1-2-.69,3.2,3.2,0,0,1-.62-2.16V36.25Z"/><path class="cls-1" d="M38.81,51.43a.77.77,0,0,1-.63-.23,1.5,1.5,0,0,1-.17-.84,1.86,1.86,0,0,1,.16-.93.72.72,0,0,1,.63-.25h2.73a.9.9,0,0,1,.68.25,1.31,1.31,0,0,1,.23.87,1.36,1.36,0,0,1-.22.91.91.91,0,0,1-.69.22Z"/><path class="cls-1" d="M47.64,41.62a5.11,5.11,0,0,1,3.54,1.1,3.76,3.76,0,0,1,1.22,2.93,4.11,4.11,0,0,1-.51,2,4.38,4.38,0,0,1-1.37,1.5h3.22a1,1,0,0,1,.68.22,1.2,1.2,0,0,1,.23.85,1.56,1.56,0,0,1-.21.92.88.88,0,0,1-.7.26H50.59a15,15,0,0,1-1.54-.07,3.13,3.13,0,0,1-1.39-.48,3.91,3.91,0,0,1-1.6.48c-.56,0-1.07.07-1.51.07h-3a.84.84,0,0,1-.68-.27,1.4,1.4,0,0,1-.23-.89,1.3,1.3,0,0,1,.22-.87,1,1,0,0,1,.69-.21h3.2a4.37,4.37,0,0,1-1.35-1.51,4.08,4.08,0,0,1-.51-2,3.73,3.73,0,0,1,1.22-2.93,5.16,5.16,0,0,1,3.54-1.1h0ZM45.3,39.76a.21.21,0,0,1-.23-.23V37.59a.21.21,0,0,1,.23-.23h1.9a.21.21,0,0,1,.23.23v1.94a.21.21,0,0,1-.23.23Zm2.34,3.87a2.28,2.28,0,0,0-1.54.56,2,2,0,0,0-.64,1.64,2.73,2.73,0,0,0,.63,1.87,4.3,4.3,0,0,0,1.55,1.1,4.33,4.33,0,0,0,1.51-1.1,2.69,2.69,0,0,0,.64-1.87,2,2,0,0,0-.64-1.64,2.22,2.22,0,0,0-1.51-.56Zm.61-3.87a.21.21,0,0,1-.23-.23V37.59a.21.21,0,0,1,.23-.23h1.9a.21.21,0,0,1,.23.23v1.94a.21.21,0,0,1-.23.23Z"/><path class="cls-1" d="M53.74,51.43a.73.73,0,0,1-.62-.23,1.5,1.5,0,0,1-.17-.84,1.86,1.86,0,0,1,.16-.93.69.69,0,0,1,.63-.25h2.72a.91.91,0,0,1,.69.25,1.32,1.32,0,0,1,.22.87,1.37,1.37,0,0,1-.21.91.92.92,0,0,1-.69.22Z"/><path class="cls-1" d="M56.47,51.43a.77.77,0,0,1-.63-.23,1.5,1.5,0,0,1-.17-.84,1.86,1.86,0,0,1,.16-.93.72.72,0,0,1,.63-.25h2.73a.9.9,0,0,1,.68.25,1.31,1.31,0,0,1,.23.87,1.36,1.36,0,0,1-.22.91.91.91,0,0,1-.69.22Z"/><path class="cls-1" d="M65.55,41.62a6,6,0,0,1,3.81,1,3.13,3.13,0,0,1,1.2,2.56,3.86,3.86,0,0,1-.21,1.28,5.25,5.25,0,0,1-.56,1.11,5.78,5.78,0,0,1-.77.92,6.78,6.78,0,0,1-.84.68,1.61,1.61,0,0,0,.39,0h3.31a.77.77,0,0,1,.7.28,1.69,1.69,0,0,1,.18.9,1.25,1.25,0,0,1-.21.85.9.9,0,0,1-.67.21H68.5a8.62,8.62,0,0,1-1.56-.14,4.07,4.07,0,0,1-1.39-.56,5,5,0,0,1-1.59.56,8.52,8.52,0,0,1-1.49.14H59.2a.89.89,0,0,1-.66-.22,1.19,1.19,0,0,1-.23-.84,1.93,1.93,0,0,1,.15-.88c.1-.2.34-.3.74-.3h2.65l.82,0A9.26,9.26,0,0,0,63.74,49a4.75,4.75,0,0,0-.49-1.29,5.49,5.49,0,0,0-.69-1,5.36,5.36,0,0,0-.83-.75c-.29-.22-.59-.43-.89-.64a.64.64,0,0,1-.29-.33,1.69,1.69,0,0,1,0-.33V43.25c0-.17.14-.35.43-.55a5.21,5.21,0,0,1,1.13-.53,10.15,10.15,0,0,1,1.62-.39,10.3,10.3,0,0,1,1.86-.16h0Zm.33,6.84a5.78,5.78,0,0,0,.74-.54,4.35,4.35,0,0,0,.66-.7,3.37,3.37,0,0,0,.47-.8,2.23,2.23,0,0,0,.18-.88,1.35,1.35,0,0,0-.67-1.29,3.62,3.62,0,0,0-1.72-.37,6.19,6.19,0,0,0-1.58.18,5,5,0,0,0-.92.32,6,6,0,0,1,1.78,1.71,6.71,6.71,0,0,1,1.06,2.37Z"/><path class="cls-1" d="M71.88,51.43a.77.77,0,0,1-.63-.23,1.5,1.5,0,0,1-.17-.84,1.86,1.86,0,0,1,.16-.93.72.72,0,0,1,.63-.25H74.6a.9.9,0,0,1,.68.25,1.31,1.31,0,0,1,.23.87,1.36,1.36,0,0,1-.22.91.91.91,0,0,1-.69.22Z"/><path class="cls-1" d="M74.6,51.43A.77.77,0,0,1,74,51.2a1.5,1.5,0,0,1-.17-.84,1.86,1.86,0,0,1,.16-.93.73.73,0,0,1,.64-.25h2.72a.88.88,0,0,1,.68.25,1.31,1.31,0,0,1,.23.87,1.37,1.37,0,0,1-.21.91,1,1,0,0,1-.7.22Z"/><path class="cls-1" d="M77.32,51.43a.73.73,0,0,1-.62-.23,1.5,1.5,0,0,1-.17-.84,1.86,1.86,0,0,1,.16-.93.69.69,0,0,1,.63-.25H80a.91.91,0,0,1,.69.25,1.32,1.32,0,0,1,.22.87,1.37,1.37,0,0,1-.21.91.92.92,0,0,1-.69.22Z"/><path class="cls-1" d="M80.05,51.43a.93.93,0,0,1-.68-.22,1.21,1.21,0,0,1-.23-.87,1.41,1.41,0,0,1,.21-.89.88.88,0,0,1,.69-.26h1.12a1.14,1.14,0,0,0,.82-.26,1.29,1.29,0,0,0,.27-.94V36.25c0-.15.07-.23.22-.23h2.11a.21.21,0,0,1,.23.23V48.58a3.24,3.24,0,0,1-.61,2.16,2.62,2.62,0,0,1-2,.69H80.05Z"/><path class="cls-1" d="M90.33,51.2a.21.21,0,0,1-.23.23H88a.21.21,0,0,1-.23-.23v-15A.21.21,0,0,1,88,36H90.1a.21.21,0,0,1,.23.23Z"/><path class="cls-1" d="M104.79,41.62v-1a.19.19,0,0,1,.22-.22h2.09c.15,0,.23.07.23.22V48a1.32,1.32,0,0,0,.26.94,1.15,1.15,0,0,0,.83.26h.86c.61,0,.91.38.91,1.14a1.32,1.32,0,0,1-.21.89.94.94,0,0,1-.69.21h-1.84a3.28,3.28,0,0,1-1.74-.38,2,2,0,0,1-.83-1.36,3.2,3.2,0,0,1-1.14.61,4.47,4.47,0,0,1-1.38.2,5.36,5.36,0,0,1-1.67-.25,3.52,3.52,0,0,1-1.36-.77,3.73,3.73,0,0,1-.92-1.32,5,5,0,0,1-.34-1.94,5.65,5.65,0,0,1,.37-2.2,3.74,3.74,0,0,1,1-1.41,3.69,3.69,0,0,1,1.42-.76,6.05,6.05,0,0,1,1.66-.23h2.27Zm-4.34-2.76a.21.21,0,0,1-.23-.23v-2a.21.21,0,0,1,.23-.23h1.91a.21.21,0,0,1,.23.23v2a.21.21,0,0,1-.23.23Zm2.2,9.4a2,2,0,0,0,1.61-.62,2.77,2.77,0,0,0,.53-1.83V43.89h-2a1.94,1.94,0,0,0-2.16,2.33,2,2,0,0,0,.55,1.54,2.09,2.09,0,0,0,1.5.5Zm.75-9.4a.21.21,0,0,1-.23-.23v-2a.21.21,0,0,1,.23-.23h1.91c.15,0,.22.08.22.23v2c0,.15-.07.23-.22.23Z"/><path class="cls-1" d="M109.55,51.43a.73.73,0,0,1-.62-.23,1.5,1.5,0,0,1-.17-.84,2,2,0,0,1,.15-.93.73.73,0,0,1,.64-.25h2.72a.88.88,0,0,1,.68.25,1.31,1.31,0,0,1,.23.87,1.37,1.37,0,0,1-.21.91.94.94,0,0,1-.69.22Z"/><path class="cls-1" d="M112.28,51.43a.77.77,0,0,1-.63-.23,1.5,1.5,0,0,1-.17-.84,1.86,1.86,0,0,1,.16-.93.71.71,0,0,1,.63-.25H115a.9.9,0,0,1,.68.25,1.31,1.31,0,0,1,.23.87,1.36,1.36,0,0,1-.22.91.91.91,0,0,1-.69.22Z"/><path class="cls-1" d="M115,51.43a.77.77,0,0,1-.63-.23,1.5,1.5,0,0,1-.17-.84,1.86,1.86,0,0,1,.16-.93.73.73,0,0,1,.64-.25h2.72a.9.9,0,0,1,.68.25,1.31,1.31,0,0,1,.23.87,1.37,1.37,0,0,1-.21.91,1,1,0,0,1-.7.22Z"/><path class="cls-1" d="M117.72,51.43a.77.77,0,0,1-.63-.23,1.5,1.5,0,0,1-.17-.84,1.86,1.86,0,0,1,.16-.93.73.73,0,0,1,.64-.25h2.72a.9.9,0,0,1,.68.25,1.87,1.87,0,0,1,0,1.78.91.91,0,0,1-.69.22Z"/><path class="cls-1" d="M125.19,42.88a15.47,15.47,0,0,1,2.36-.89,9.51,9.51,0,0,1,2.67-.37,7.63,7.63,0,0,1,2.54.38,4.49,4.49,0,0,1,1.72,1.09,4.17,4.17,0,0,1,1,1.72,7.42,7.42,0,0,1,.31,2.23,8.54,8.54,0,0,1-.24,2.22,2.72,2.72,0,0,1-.77,1.34,2.75,2.75,0,0,1-1.37.66,10.73,10.73,0,0,1-2,.17h-5q-.45,0-.87-.06a7.07,7.07,0,0,1-.75-.11,1,1,0,0,1-.5-.2,1.92,1.92,0,0,1-.88.33,9.65,9.65,0,0,1-1.14,0h-1.71a1,1,0,0,1-.68-.21,1.18,1.18,0,0,1-.23-.85,1.45,1.45,0,0,1,.22-.95.91.91,0,0,1,.69-.23h1.18a1.46,1.46,0,0,0,.57-.1.69.69,0,0,0,.3-.33,1.36,1.36,0,0,0,.11-.58c0-.23,0-.52,0-.85V42.17a.21.21,0,0,1,.23-.23H125a.21.21,0,0,1,.23.23v.72h0Zm4.67,1a8.15,8.15,0,0,0-2.49.39,17.19,17.19,0,0,0-2.18.84v3.08c0,.18,0,.36,0,.52s0,.32-.07.47H130c.66,0,1.18,0,1.58,0a1.91,1.91,0,0,0,.93-.25,1,1,0,0,0,.44-.68,5.45,5.45,0,0,0,.12-1.3,5.1,5.1,0,0,0-.15-1.3,2.15,2.15,0,0,0-.52-.95,2.42,2.42,0,0,0-1-.59,5.26,5.26,0,0,0-1.57-.2Z"/><path class="cls-1" d="M137.17,56c-.15,0-.22-.08-.22-.23V54c0-.15.07-.23.22-.23h.5a1.71,1.71,0,0,0,1.37-.48,2.11,2.11,0,0,0,.42-1.45V42.25c0-.15.08-.22.23-.22h2.11c.15,0,.23.07.23.22v9.61c0,2.76-1.34,4.15-4,4.15Z"/><path class="cls-1" d="M146.59,56a.21.21,0,0,1-.23-.23V54a.21.21,0,0,1,.23-.23h2.65a3.47,3.47,0,0,0,.91-.1,1.29,1.29,0,0,0,.64-.35,1.62,1.62,0,0,0,.39-.7,4.22,4.22,0,0,0,.13-1.16H149a6.43,6.43,0,0,1-1.89-.24,3.22,3.22,0,0,1-1.4-.79,3.57,3.57,0,0,1-.87-1.44,6.58,6.58,0,0,1-.31-2.18,6.46,6.46,0,0,1,.39-2.37,4.45,4.45,0,0,1,1-1.6,3.75,3.75,0,0,1,1.47-.91,5.49,5.49,0,0,1,1.78-.28,6.17,6.17,0,0,1,1.87.27,3.77,3.77,0,0,1,1.46.86,4,4,0,0,1,1,1.54,6.9,6.9,0,0,1,.34,2.33v2.56h1.57a.91.91,0,0,1,.68.25,1.26,1.26,0,0,1,.23.84,1.42,1.42,0,0,1-.22.94.91.91,0,0,1-.69.21h-1.57v.5A4,4,0,0,1,152.77,55a4.48,4.48,0,0,1-3.11,1h-3.07Zm2.63-12.13a1.89,1.89,0,0,0-1.6.78,3.38,3.38,0,0,0-.58,2.06,2.61,2.61,0,0,0,.58,2,2.47,2.47,0,0,0,1.67.51h2V46.6a3.37,3.37,0,0,0-.5-2,1.82,1.82,0,0,0-1.58-.69h0Z"/><path class="cls-1" d="M155.4,51.43a.77.77,0,0,1-.63-.23,1.5,1.5,0,0,1-.17-.84,1.86,1.86,0,0,1,.16-.93.69.69,0,0,1,.63-.25h2.73a.9.9,0,0,1,.68.25,1.31,1.31,0,0,1,.23.87,1.36,1.36,0,0,1-.22.91.92.92,0,0,1-.69.22Z"/><path class="cls-1" d="M158.12,51.43a.77.77,0,0,1-.63-.23,1.5,1.5,0,0,1-.17-.84,1.86,1.86,0,0,1,.16-.93.73.73,0,0,1,.64-.25h2.72a.9.9,0,0,1,.68.25,1.87,1.87,0,0,1,0,1.78.91.91,0,0,1-.69.22Z"/><path class="cls-1" d="M160.84,51.43a.73.73,0,0,1-.62-.23,1.5,1.5,0,0,1-.17-.84,2,2,0,0,1,.15-.93.73.73,0,0,1,.64-.25h2.72a.91.91,0,0,1,.69.25,1.32,1.32,0,0,1,.22.87,1.37,1.37,0,0,1-.21.91.92.92,0,0,1-.69.22Z"/><path class="cls-1" d="M168.45,47.78a1.2,1.2,0,0,0,.51,1,2.3,2.3,0,0,0,1.37.36h.38a.91.91,0,0,1,.69.25,1.26,1.26,0,0,1,.22.84,1.46,1.46,0,0,1-.21.91.89.89,0,0,1-.69.24,5.19,5.19,0,0,1-1.55-.21,1.85,1.85,0,0,1-1-.94,1.77,1.77,0,0,1-.94.91,4.93,4.93,0,0,1-1.71.24h-1.8a1.38,1.38,0,0,1-.68-.14c-.15-.1-.23-.31-.23-.65a2.34,2.34,0,0,1,.22-1,.74.74,0,0,1,.72-.44h1.08a1.53,1.53,0,0,0,.62-.11.64.64,0,0,0,.33-.37,1.84,1.84,0,0,0,.12-.65c0-.27,0-.61,0-1v-4.8a.21.21,0,0,1,.23-.23h2.11a.21.21,0,0,1,.23.23v5.53Zm-2.36,7.95a.21.21,0,0,1-.23-.23V53.56a.21.21,0,0,1,.23-.23h2.18c.15,0,.22.08.22.23V55.5c0,.15-.07.23-.22.23Z"/><path class="cls-1" d="M170.6,51.43a.73.73,0,0,1-.62-.23,1.5,1.5,0,0,1-.17-.84,2,2,0,0,1,.15-.93.73.73,0,0,1,.64-.25h2.72a.88.88,0,0,1,.68.25,1.31,1.31,0,0,1,.23.87,1.37,1.37,0,0,1-.21.91.94.94,0,0,1-.69.22Z"/><path class="cls-1" d="M173.33,51.43a.77.77,0,0,1-.63-.23,1.5,1.5,0,0,1-.17-.84,1.86,1.86,0,0,1,.16-.93.72.72,0,0,1,.63-.25h2.73a.9.9,0,0,1,.68.25,1.31,1.31,0,0,1,.23.87,1.36,1.36,0,0,1-.22.91.91.91,0,0,1-.69.22Z"/><path class="cls-1" d="M176.05,51.43a.77.77,0,0,1-.63-.23,1.5,1.5,0,0,1-.17-.84,1.86,1.86,0,0,1,.16-.93.73.73,0,0,1,.64-.25h2.72a.88.88,0,0,1,.68.25,1.31,1.31,0,0,1,.23.87,1.37,1.37,0,0,1-.21.91,1,1,0,0,1-.7.22Z"/><path class="cls-1" d="M178.77,51.43a.94.94,0,0,1-.68-.22,1.22,1.22,0,0,1-.22-.87,1.41,1.41,0,0,1,.21-.89.85.85,0,0,1,.69-.26h1.11a1.15,1.15,0,0,0,.83-.26A1.34,1.34,0,0,0,181,48V36.25a.21.21,0,0,1,.23-.23h2.11a.21.21,0,0,1,.23.23V48.58a3.18,3.18,0,0,1-.62,2.16,2.6,2.6,0,0,1-2,.69Z"/><path class="cls-1" d="M189.06,51.2a.21.21,0,0,1-.23.23h-2.11a.21.21,0,0,1-.23-.23v-15a.21.21,0,0,1,.23-.23h2.11a.21.21,0,0,1,.23.23Z"/><path class="cls-1" d="M10.42,76.24a.3.3,0,0,1-.31-.2L7.43,70.57H5c-.08,0-.12.05-.12.13V76a.19.19,0,0,1-.21.21h-2a.18.18,0,0,1-.2-.21V62.43a.18.18,0,0,1,.2-.21H8.09a4.86,4.86,0,0,1,1.78.31,4.47,4.47,0,0,1,1.42.85,4.18,4.18,0,0,1,.94,1.32,4.34,4.34,0,0,1,.33,1.71,4,4,0,0,1-.72,2.39A4.1,4.1,0,0,1,9.9,70.27l3,5.71a.19.19,0,0,1,0,.19.19.19,0,0,1-.16.08H10.42ZM8,68.39a2.21,2.21,0,0,0,1.56-.54,1.88,1.88,0,0,0,.59-1.45,1.9,1.9,0,0,0-.59-1.46A2.21,2.21,0,0,0,8,64.4H5c-.08,0-.12,0-.12.13v3.73c0,.08,0,.13.12.13Z"/><path class="cls-1" d="M20.22,76.47a4.58,4.58,0,0,1-2.66-.73,3.77,3.77,0,0,1-1.49-2,6,6,0,0,1-.25-1.07,9,9,0,0,1-.1-1.37,11.17,11.17,0,0,1,.08-1.38,5.26,5.26,0,0,1,.25-1.07,3.66,3.66,0,0,1,1.5-2,4.53,4.53,0,0,1,2.57-.72,4.57,4.57,0,0,1,2.61.73,3.8,3.8,0,0,1,1.47,2,5.44,5.44,0,0,1,.15.54,4.74,4.74,0,0,1,.1.62c0,.23.05.49.06.79s0,.64,0,1c0,.14-.07.21-.22.21H18.18a.11.11,0,0,0-.12.12,1.73,1.73,0,0,0,0,.41,1.89,1.89,0,0,0,.1.36,2.12,2.12,0,0,0,2.23,1.5,3.36,3.36,0,0,0,1.4-.26,3,3,0,0,0,.93-.69c.11-.11.21-.12.31,0l1.21,1.07a.2.2,0,0,1,0,.3A4.84,4.84,0,0,1,22.63,76a5.63,5.63,0,0,1-2.41.48h0Zm2-6.31a2.39,2.39,0,0,0-.13-.84,1.7,1.7,0,0,0-.72-.94A2.12,2.12,0,0,0,20.14,68a2.2,2.2,0,0,0-1.24.34,1.7,1.7,0,0,0-.72.94,2.43,2.43,0,0,0-.13.84.12.12,0,0,0,.13.13h3.89a.12.12,0,0,0,.13-.13Z"/><path class="cls-1" d="M34,76.24c-.14,0-.21-.06-.21-.2v-.72h0a2.42,2.42,0,0,1-1.05.83,4.12,4.12,0,0,1-1.75.32,4.47,4.47,0,0,1-1.29-.18,3.21,3.21,0,0,1-1.07-.56,2.71,2.71,0,0,1-.72-.94,3.13,3.13,0,0,1-.26-1.35A2.76,2.76,0,0,1,28.69,71a5,5,0,0,1,2.92-.76h2a.11.11,0,0,0,.12-.12v-.48a1.53,1.53,0,0,0-.48-1.26A2.8,2.8,0,0,0,31.54,68a4.11,4.11,0,0,0-1.38.2,3.12,3.12,0,0,0-.89.48c-.12.1-.22.08-.28,0l-.77-1.36a.18.18,0,0,1,0-.27,5,5,0,0,1,1.45-.7,6.91,6.91,0,0,1,2.08-.27A4.85,4.85,0,0,1,35,66.9a3.33,3.33,0,0,1,.94,2.64V76a.18.18,0,0,1-.2.21H34Zm-2.45-1.65a2.69,2.69,0,0,0,1.63-.41,1.47,1.47,0,0,0,.57-1.28v-.76c0-.08,0-.13-.12-.13H32a3.25,3.25,0,0,0-1.63.32,1.13,1.13,0,0,0-.51,1c0,.83.57,1.24,1.71,1.24h0Z"/><path class="cls-1" d="M42.62,76.37a2.68,2.68,0,0,1-2.09-.71,3.11,3.11,0,0,1-.63-2.14V62.42a.18.18,0,0,1,.2-.2H42a.18.18,0,0,1,.21.2v11a1,1,0,0,0,.2.71,1,1,0,0,0,.66.2h.46a.18.18,0,0,1,.2.2v1.65a.18.18,0,0,1-.2.21Z"/><path class="cls-1" d="M53,62.42a.18.18,0,0,1,.2-.2H62a.18.18,0,0,1,.21.2V64.2c0,.14-.07.2-.21.2H55.56a.12.12,0,0,0-.13.13V68a.12.12,0,0,0,.13.13H61a.18.18,0,0,1,.2.2v1.77a.18.18,0,0,1-.2.21H55.56c-.08,0-.13,0-.13.12v3.55a.12.12,0,0,0,.13.13H62c.14,0,.21.06.21.2V76c0,.14-.07.2-.21.2H53.2A.18.18,0,0,1,53,76V62.42Z"/><path class="cls-1" d="M69.46,76.47A6.08,6.08,0,0,1,66.87,76a6.5,6.5,0,0,1-1.68-1.07.19.19,0,0,1,0-.3l1.17-1.23a.18.18,0,0,1,.29,0,4.15,4.15,0,0,0,1.33.81,4.07,4.07,0,0,0,1.58.33,2.36,2.36,0,0,0,1.38-.34,1,1,0,0,0,.45-.84.86.86,0,0,0-.34-.72,2.68,2.68,0,0,0-1.3-.37l-1.08-.11a3.77,3.77,0,0,1-2.29-.91,2.66,2.66,0,0,1-.76-2,2.87,2.87,0,0,1,1-2.29,4.32,4.32,0,0,1,2.86-.84,6.18,6.18,0,0,1,2.13.34,5.48,5.48,0,0,1,1.61.87.18.18,0,0,1,0,.29l-1,1.22a.2.2,0,0,1-.29,0,5.1,5.1,0,0,0-1.17-.58A4.34,4.34,0,0,0,69.35,68a1.85,1.85,0,0,0-1.12.28.91.91,0,0,0-.39.75.83.83,0,0,0,.34.69,2.73,2.73,0,0,0,1.29.36l1.08.1a3.76,3.76,0,0,1,2.32.92,2.68,2.68,0,0,1,.75,2,3.09,3.09,0,0,1-1.05,2.42,4.52,4.52,0,0,1-3.11.94Z"/><path class="cls-1" d="M80,76.37a2.73,2.73,0,0,1-2.14-.72,3.25,3.25,0,0,1-.63-2.19V68.22a.11.11,0,0,0-.12-.12h-.66a.19.19,0,0,1-.21-.21V66.51a.19.19,0,0,1,.21-.21h.66a.11.11,0,0,0,.12-.12V63.46a.19.19,0,0,1,.21-.21h1.9a.19.19,0,0,1,.21.21v2.72a.11.11,0,0,0,.12.12H81a.19.19,0,0,1,.21.21v1.38a.19.19,0,0,1-.21.21H79.71a.11.11,0,0,0-.12.12v5.16a1,1,0,0,0,.22.73,1.06,1.06,0,0,0,.7.2H81a.18.18,0,0,1,.2.2v1.65a.18.18,0,0,1-.2.21Z"/><path class="cls-1" d="M90.75,76.24c-.14,0-.21-.06-.21-.2v-.72h0a2.48,2.48,0,0,1-1,.83,4.13,4.13,0,0,1-1.76.32,4.57,4.57,0,0,1-1.29-.18,3.16,3.16,0,0,1-1.06-.56,2.49,2.49,0,0,1-.72-.94,3.13,3.13,0,0,1-.27-1.35A2.77,2.77,0,0,1,85.44,71a5,5,0,0,1,2.91-.76h2c.09,0,.13,0,.13-.12v-.48A1.53,1.53,0,0,0,90,68.42,2.82,2.82,0,0,0,88.29,68a4,4,0,0,0-1.38.2,3.12,3.12,0,0,0-.89.48c-.12.1-.22.08-.29,0L85,67.31A.18.18,0,0,1,85,67a5,5,0,0,1,1.45-.7,6.86,6.86,0,0,1,2.08-.27,4.87,4.87,0,0,1,3.21.83,3.33,3.33,0,0,1,.94,2.64V76a.19.19,0,0,1-.21.21H90.75Zm-2.46-1.65a2.72,2.72,0,0,0,1.64-.41,1.47,1.47,0,0,0,.57-1.28v-.76a.12.12,0,0,0-.13-.13H88.72a3.25,3.25,0,0,0-1.63.32,1.13,1.13,0,0,0-.51,1c0,.83.57,1.24,1.71,1.24Z"/><path class="cls-1" d="M99.6,76.37a2.72,2.72,0,0,1-2.14-.72,3.25,3.25,0,0,1-.63-2.19V68.22a.11.11,0,0,0-.12-.12H96a.18.18,0,0,1-.2-.21V66.51a.18.18,0,0,1,.2-.21h.67a.11.11,0,0,0,.12-.12V63.46a.19.19,0,0,1,.21-.21h1.9a.18.18,0,0,1,.2.21v2.72c0,.08,0,.12.13.12h1.32a.18.18,0,0,1,.2.21v1.38a.18.18,0,0,1-.2.21H99.27c-.09,0-.13,0-.13.12v5.16a1,1,0,0,0,.23.73,1.06,1.06,0,0,0,.7.2h.51c.14,0,.21.06.21.2v1.65a.19.19,0,0,1-.21.21h-1Z"/><path class="cls-1" d="M108.34,76.47a4.58,4.58,0,0,1-2.66-.73,3.7,3.7,0,0,1-1.48-2,5.24,5.24,0,0,1-.26-1.07,9,9,0,0,1-.1-1.37,11.17,11.17,0,0,1,.08-1.38,6,6,0,0,1,.25-1.07,3.71,3.71,0,0,1,1.5-2,5,5,0,0,1,5.18,0,3.75,3.75,0,0,1,1.47,2,5.44,5.44,0,0,1,.15.54,4.74,4.74,0,0,1,.1.62c0,.23.05.49.06.79s0,.64,0,1c0,.14-.07.21-.22.21H106.3a.11.11,0,0,0-.12.12,1.73,1.73,0,0,0,0,.41,3.1,3.1,0,0,0,.1.36,2.13,2.13,0,0,0,2.23,1.5,3.36,3.36,0,0,0,1.4-.26,2.86,2.86,0,0,0,.93-.69c.11-.11.21-.12.31,0l1.22,1.07a.21.21,0,0,1,0,.3A4.84,4.84,0,0,1,110.75,76a5.63,5.63,0,0,1-2.41.48h0Zm2-6.31a2.66,2.66,0,0,0-.12-.84,1.79,1.79,0,0,0-.72-.94,2.15,2.15,0,0,0-1.22-.34,2.22,2.22,0,0,0-1.24.34,1.7,1.7,0,0,0-.72.94,2.69,2.69,0,0,0-.13.84.12.12,0,0,0,.13.13h3.9c.08,0,.12-.05.12-.13Z"/><path class="cls-1" d="M122.18,62.42a.18.18,0,0,1,.21-.2h1.83a.36.36,0,0,1,.36.2l3.85,8.65h.08l3.8-8.65a.35.35,0,0,1,.35-.2h1.82a.18.18,0,0,1,.2.2V76a.18.18,0,0,1-.2.2h-1.8a.18.18,0,0,1-.2-.2V67.45h-.08l-3,6.61a.4.4,0,0,1-.39.26h-1.2a.41.41,0,0,1-.39-.26l-3-6.61h-.08V76c0,.14-.07.2-.21.2H122.4c-.14,0-.21-.06-.21-.2V62.42h0Z"/><path class="cls-1" d="M144.73,76.24c-.14,0-.21-.06-.21-.2v-.72h0a2.48,2.48,0,0,1-1.05.83,4.12,4.12,0,0,1-1.75.32,4.59,4.59,0,0,1-1.3-.18,3.16,3.16,0,0,1-1.06-.56,2.71,2.71,0,0,1-.72-.94,3.13,3.13,0,0,1-.27-1.35,2.77,2.77,0,0,1,1.07-2.4,5,5,0,0,1,2.91-.76h2c.09,0,.13,0,.13-.12v-.48a1.53,1.53,0,0,0-.48-1.26,2.8,2.8,0,0,0-1.73-.39,4,4,0,0,0-1.38.2,3.12,3.12,0,0,0-.89.48c-.12.1-.22.08-.29,0L139,67.31a.18.18,0,0,1,0-.27,5,5,0,0,1,1.45-.7,6.91,6.91,0,0,1,2.08-.27,4.85,4.85,0,0,1,3.21.83,3.33,3.33,0,0,1,.94,2.64V76a.18.18,0,0,1-.2.21h-1.74Zm-2.46-1.65a2.7,2.7,0,0,0,1.64-.41,1.47,1.47,0,0,0,.57-1.28v-.76a.12.12,0,0,0-.13-.13H142.7a3.25,3.25,0,0,0-1.63.32,1.13,1.13,0,0,0-.51,1c0,.83.57,1.24,1.71,1.24Z"/><path class="cls-1" d="M150.87,76.24a.18.18,0,0,1-.2-.2V66.51a.18.18,0,0,1,.2-.21h1.9a.19.19,0,0,1,.21.21v.84h0a2.62,2.62,0,0,1,1-.93,3.31,3.31,0,0,1,1.59-.35,2.93,2.93,0,0,1,1.14.22,2.64,2.64,0,0,1,.94.61.19.19,0,0,1,0,.28l-1.09,1.39a.18.18,0,0,1-.29,0,3.05,3.05,0,0,0-.7-.35,2.38,2.38,0,0,0-.76-.13,1.62,1.62,0,0,0-1.44.66,3.36,3.36,0,0,0-.44,1.86V76a.18.18,0,0,1-.2.21h-1.91Z"/><path class="cls-1" d="M167,76.24a.36.36,0,0,1-.33-.2l-2.52-4.17-1.35,1.55V76c0,.14-.06.21-.2.21h-1.9a.18.18,0,0,1-.2-.21V62.43a.18.18,0,0,1,.2-.21h1.9c.14,0,.2.07.2.21v8.08l3.41-4a.51.51,0,0,1,.39-.21h2.1a.11.11,0,0,1,.08.21l-3.15,3.63,3.63,5.9a.19.19,0,0,1,0,.13s-.06.07-.13.07H167Z"/><path class="cls-1" d="M176.27,76.47a4.58,4.58,0,0,1-2.66-.73,3.72,3.72,0,0,1-1.49-2,6,6,0,0,1-.26-1.07,9.06,9.06,0,0,1-.09-1.37,11.17,11.17,0,0,1,.08-1.38,5.26,5.26,0,0,1,.25-1.07,3.62,3.62,0,0,1,1.5-2,5,5,0,0,1,5.17,0,3.76,3.76,0,0,1,1.48,2c.06.18.1.36.15.54s.07.39.1.62.05.49.06.79,0,.64,0,1c0,.14-.08.21-.23.21h-6.12c-.08,0-.13,0-.13.12a1.7,1.7,0,0,0,.05.41,1.89,1.89,0,0,0,.1.36,2.12,2.12,0,0,0,2.23,1.5,3.36,3.36,0,0,0,1.4-.26,2.82,2.82,0,0,0,.92-.69c.12-.11.22-.12.31,0l1.22,1.07c.1.09.1.18,0,.3A4.71,4.71,0,0,1,178.68,76a5.66,5.66,0,0,1-2.41.48h0Zm2-6.31a2.65,2.65,0,0,0-.13-.84,1.7,1.7,0,0,0-.72-.94,2.13,2.13,0,0,0-1.22-.34,2.24,2.24,0,0,0-1.24.34,1.79,1.79,0,0,0-.72.94,2.7,2.7,0,0,0-.12.84c0,.08,0,.13.12.13h3.9a.12.12,0,0,0,.13-.13Z"/><path class="cls-1" d="M187,76.37a2.72,2.72,0,0,1-2.14-.72,3.25,3.25,0,0,1-.63-2.19V68.22a.11.11,0,0,0-.12-.12h-.67a.18.18,0,0,1-.2-.21V66.51a.18.18,0,0,1,.2-.21h.67a.11.11,0,0,0,.12-.12V63.46a.19.19,0,0,1,.21-.21h1.9a.18.18,0,0,1,.2.21v2.72c0,.08,0,.12.13.12H188a.18.18,0,0,1,.2.21v1.38a.18.18,0,0,1-.2.21h-1.32c-.09,0-.13,0-.13.12v5.16a1,1,0,0,0,.23.73,1.06,1.06,0,0,0,.7.2H188c.14,0,.21.06.21.2v1.65a.19.19,0,0,1-.21.21h-1Z"/></g></g></g></svg>