<svg xmlns="http://www.w3.org/2000/svg" viewBox="0 0 202.18 87.09"><defs><style>.cls-1{fill:#c9c9c9;}</style></defs><g id="Layer_2" data-name="Layer 2"><g id="Layer_1-2" data-name="Layer 1"><path class="cls-1" d="M96.25,53.64a6.3,6.3,0,0,1-5.35-3l-5.38-8.87a2.28,2.28,0,1,1,3.89-2.37l5.4,8.86a1.73,1.73,0,0,0,2.2.64l20.21-10.29a2.28,2.28,0,1,1,2,4.07L99.06,53a6.07,6.07,0,0,1-2.81.66"/><path class="cls-1" d="M131.34,26.94a5.52,5.52,0,0,0-3.68-2.23L122.25,24a1.54,1.54,0,0,1-1-.56l-9.35-11.14A6.22,6.22,0,0,0,108,10.14l-6.57-.94a1.33,1.33,0,0,1-.73-.3L92.26,2.71a6.24,6.24,0,0,0-2.17-1L84,.18A6.19,6.19,0,0,0,77.69,2.3l-6.5,8.16a6.18,6.18,0,0,0-.45,7.08L81.12,34.59a0,0,0,0,0,0,0l.07.1.08.07.07.08a.29.29,0,0,1,.08.1l.08.08.1.07s.05,0,.07.05.08,0,.1.08a.35.35,0,0,1,.08,0,.19.19,0,0,0,.1.05s.08,0,.1,0l.1.05a.69.69,0,0,0,.13,0l.07,0a.3.3,0,0,0,.13,0s0,0,.1,0l.13,0a.14.14,0,0,1,.1,0h6.92A2.29,2.29,0,0,0,92,33.83L93.47,27l3.74,12.53a2.35,2.35,0,0,0,2.13,1.65h.07a2.3,2.3,0,0,0,2.15-1.52l2.53-7,.35,1.14a2.29,2.29,0,0,0,2.17,1.61h7.58a2.27,2.27,0,0,0,0-4.54H108.3l-1.84-6.12a2.28,2.28,0,0,0-4.32-.1l-2.5,7L95.37,17.24a2.28,2.28,0,0,0-4.42.15L88,31.05H84.46L74.73,15.11a1.6,1.6,0,0,1,.13-1.84L81.4,5.16A1.62,1.62,0,0,1,83,4.6l6.11,1.52a1.43,1.43,0,0,1,.56.25l8.46,6.19A6.09,6.09,0,0,0,101,13.7l6.57.93a1.56,1.56,0,0,1,1,.56l9.35,11.14a6.19,6.19,0,0,0,3.89,2.15l5.41.73a.85.85,0,0,1,.6.38.9.9,0,0,1,.15.71l-.58,3.1a.35.35,0,0,1-.15.21l-2.93,1.49a2.26,2.26,0,0,0,1,4.29,2.12,2.12,0,0,0,1-.25l2.93-1.49a4.91,4.91,0,0,0,2.58-3.44l.58-3.11a6.09,6.09,0,0,0-1.09-4.16"/><path class="cls-1" d="M0,82.64H.76l.1,1a6.82,6.82,0,0,0,1.57.2c1.23,0,1.94-.51,1.94-1.62s-.63-1.36-1.84-1.77S.05,79.59.05,78s1.11-2.35,2.88-2.35A8,8,0,0,1,5.1,76l0,1.61H4.35l-.11-1a7.72,7.72,0,0,0-1.33-.15c-1.22,0-1.82.56-1.82,1.52s.7,1.31,1.82,1.69c1.28.43,2.5.86,2.5,2.55,0,1.52-1,2.45-3,2.45A8.46,8.46,0,0,1,0,84.23l0-1.59"/><path class="cls-1" d="M10,84a3.14,3.14,0,0,1-1.79.6,1.66,1.66,0,0,1-1.84-1.77c0-1.39,1-1.79,2.35-1.79a11.54,11.54,0,0,1,1.18.08v-.66c0-.83-.22-1.26-1.34-1.26a9,9,0,0,0-1.59.2L6.8,78.7a8.38,8.38,0,0,1,1.81-.23c1.5,0,2.15.51,2.15,1.87v3.49l.63.13v.55H10L10,84m-.07-2.23c-.25,0-.79,0-1.09,0-1.06,0-1.51.31-1.51,1.09a1,1,0,0,0,1.13,1.09,3,3,0,0,0,1.47-.48Z"/><path class="cls-1" d="M12.73,79.28l-.65-.12V78.6h1.59v3.94c0,.73.17,1.34,1,1.34a4,4,0,0,0,1.69-.56V79.26l-.66-.13v-.56h1.6V83.8l.65.13v.56H16.52l-.1-.51a4.16,4.16,0,0,1-2,.63c-1.26,0-1.67-.81-1.67-2V79.28"/><path class="cls-1" d="M22.81,84.06a3.45,3.45,0,0,1-1.82.55c-1.74,0-2-1.56-2-3,0-1.72.43-3.18,2.2-3.18a3.36,3.36,0,0,1,1.57.4V76.43l-.66-.13v-.55h1.59v8l.66.13v.56H22.89l-.08-.43m-.07-4.55a3.59,3.59,0,0,0-1.39-.33c-1.06,0-1.44.76-1.44,2.4,0,1.29.22,2.3,1.31,2.3a3,3,0,0,0,1.49-.48V79.51Z"/><path class="cls-1" d="M25.11,84l.66-.13V79.28l-.66-.12V78.6H26.7v5.23l.66.13v.55H25.11V84m.66-8.19h.93v1.39h-.93Z"/><path class="cls-1" d="M37,84.36a9.75,9.75,0,0,1-2.28.28c-2.95,0-3.46-1.8-3.46-4.42s.53-4.58,3.49-4.58A8.44,8.44,0,0,1,37,76l-.05,1.66h-.73l-.1-1.06a7.54,7.54,0,0,0-1.29-.12c-2.25,0-2.53,1.31-2.53,3.76,0,2.2.23,3.61,2.58,3.61a12.77,12.77,0,0,0,2-.22l.18.78"/><path class="cls-1" d="M38.15,81.61c0-2,.45-3.11,2.45-3.11s2.45,1.19,2.45,3-.46,3.11-2.45,3.11-2.45-1.21-2.45-3m3.94-.08c0-1.41-.13-2.32-1.52-2.32s-1.51.88-1.51,2.37.12,2.33,1.51,2.33S42.09,83,42.09,81.53Z"/><path class="cls-1" d="M44.14,84l.65-.13V79.28l-.65-.12V78.6h1.41l.08.4a3.8,3.8,0,0,1,1.79-.53,1.43,1.43,0,0,1,1.31.61,4.09,4.09,0,0,1,2-.61c1.27,0,1.6.84,1.6,1.85v3.51L53,84v.55H51.39V80.57c0-.76-.16-1.34-1-1.34a3.54,3.54,0,0,0-1.49.43,3,3,0,0,1,.07.68v3.52l.71.12v.56H48.08V80.6c0-.76-.16-1.34-1-1.34a3.59,3.59,0,0,0-1.42.38v4.24l.66.13v.55H44.11V84"/><path class="cls-1" d="M53.74,84l.65-.13V79.28l-.65-.12V78.6h1.41l.08.4A3.8,3.8,0,0,1,57,78.47a1.43,1.43,0,0,1,1.31.61,4.09,4.09,0,0,1,2-.61c1.27,0,1.6.84,1.6,1.85v3.51l.73.13v.55H61V80.57c0-.76-.16-1.34-1-1.34a3.54,3.54,0,0,0-1.49.43,3,3,0,0,1,.07.68v3.52l.71.12v.56H57.68V80.6c0-.76-.16-1.34-1-1.34a3.59,3.59,0,0,0-1.42.38v4.24L56,84v.55H53.71V84"/><path class="cls-1" d="M63.34,84l.65-.13V79.28l-.65-.12V78.6h1.59v5.23l.65.13v.55H63.34V84M64,75.77h.94v1.39H64Z"/><path class="cls-1" d="M66.62,83h.66l.1.83a4.7,4.7,0,0,0,1.08.13c.91,0,1.42-.28,1.42-1s-.51-.83-1.31-1.06c-1-.3-2-.58-2-1.74s.94-1.67,2.25-1.67a7.1,7.1,0,0,1,1.72.25l0,1.39h-.68l-.08-.86a5.22,5.22,0,0,0-.88-.07c-.94,0-1.34.32-1.34.91s.48.78,1.34,1,1.92.56,1.92,1.77-.84,1.74-2.33,1.74a7.17,7.17,0,0,1-1.89-.27L66.62,83"/><path class="cls-1" d="M72,83h.65l.1.83a4.72,4.72,0,0,0,1.09.13c.91,0,1.41-.28,1.41-1s-.5-.83-1.31-1.06c-1-.3-2-.58-2-1.74s.94-1.67,2.25-1.67a7.18,7.18,0,0,1,1.72.25l0,1.39h-.69l-.07-.86a5.34,5.34,0,0,0-.89-.07c-.93,0-1.33.32-1.33.91s.48.78,1.33,1,1.92.56,1.92,1.77-.83,1.74-2.32,1.74a7.17,7.17,0,0,1-1.89-.27L72,83"/><path class="cls-1" d="M77.1,84l.66-.13V79.28l-.66-.12V78.6h1.6v5.23l.65.13v.55H77.1V84m.66-8.19h.94v1.39h-.94Z"/><path class="cls-1" d="M80.36,81.61c0-2,.46-3.11,2.45-3.11s2.45,1.19,2.45,3-.45,3.11-2.45,3.11-2.45-1.21-2.45-3m4-.08c0-1.41-.13-2.32-1.52-2.32s-1.51.88-1.51,2.37.12,2.33,1.51,2.33S84.33,83,84.33,81.53Z"/><path class="cls-1" d="M86.35,84l.66-.13V79.28l-.66-.12V78.6h1.42l.1.53A4.38,4.38,0,0,1,90,78.47c1.27,0,1.59.84,1.59,1.85v3.51l.74.13v.55H90.65V80.57c0-.76-.16-1.34-1-1.34a4.26,4.26,0,0,0-1.72.53v4.07l.65.13v.55H86.38V84"/><path class="cls-1" d="M95.87,84l.66-.13v-4.5h-.88v-.55l.88-.18V77.29c0-1.17.61-1.65,1.8-1.65a5.78,5.78,0,0,1,.9.08l-.07.71a3.88,3.88,0,0,0-.73-.08c-.81,0-1,.36-1,.94V78.6h1.36v.73H97.47v4.5l.83.13v.55H95.87V84"/><path class="cls-1" d="M99.64,81.61c0-2,.45-3.11,2.45-3.11s2.45,1.19,2.45,3-.45,3.11-2.45,3.11-2.45-1.21-2.45-3m4-.08c0-1.41-.13-2.32-1.52-2.32s-1.52.88-1.52,2.37.13,2.33,1.52,2.33S103.61,83,103.61,81.53Z"/><path class="cls-1" d="M105.63,84l.65-.13V79.28l-.65-.12V78.6H107l.13.81a2.32,2.32,0,0,1,1.72-.91,1.68,1.68,0,0,1,.4,0l-.05.83a1.18,1.18,0,0,0-.4,0,2.4,2.4,0,0,0-1.62.74v3.76l.83.13v.55h-2.42V84"/><polyline class="cls-1" points="112.8 83.96 113.56 83.83 113.56 76.45 112.8 76.33 112.8 75.77 115.3 75.77 115.3 76.33 114.57 76.45 114.57 79.61 118.61 79.61 118.61 76.45 117.88 76.33 117.88 75.77 120.38 75.77 120.38 76.33 119.62 76.45 119.62 83.83 120.38 83.96 120.38 84.51 117.88 84.51 117.88 83.96 118.61 83.83 118.61 80.39 114.57 80.39 114.57 83.83 115.3 83.96 115.3 84.51 112.8 84.51 112.8 83.96"/><path class="cls-1" d="M125.91,84.34a7.38,7.38,0,0,1-2,.3c-1.77,0-2.4-1.09-2.4-3s.46-3.18,2.38-3.18c1.64,0,2.14.91,2.14,2.58v.78h-3.58c0,1.36.4,2,1.64,2a6.94,6.94,0,0,0,1.67-.28l.12.71m-.78-3.16c0-1.19-.13-2-1.29-2-1,0-1.34.55-1.41,2Z"/><path class="cls-1" d="M130.74,84a3.18,3.18,0,0,1-1.8.6,1.66,1.66,0,0,1-1.84-1.77c0-1.39,1-1.79,2.35-1.79.4,0,.93,0,1.19.08v-.66c0-.83-.23-1.26-1.34-1.26a8.87,8.87,0,0,0-1.59.2l-.13-.71a8.56,8.56,0,0,1,1.82-.23c1.49,0,2.15.51,2.15,1.87v3.49l.63.13v.55h-1.39l0-.5m-.1-2.23c-.26,0-.79,0-1.09,0-1.06,0-1.51.31-1.51,1.09a1,1,0,0,0,1.13,1.09,3,3,0,0,0,1.47-.48Z"/><polyline class="cls-1" points="132.94 83.96 133.59 83.83 133.59 76.45 132.94 76.33 132.94 75.77 134.5 75.77 134.5 83.83 135.16 83.96 135.16 84.51 132.94 84.51 132.94 83.96"/><path class="cls-1" d="M136.68,79.33h-.89v-.55l.94-.18.2-1.57h.68V78.6h1.52v.73h-1.52V83c0,.58.2,1,.83,1a6,6,0,0,0,.61-.07l.1.68a3.64,3.64,0,0,1-.91.12c-1.06,0-1.59-.43-1.59-1.56V79.33"/><path class="cls-1" d="M139.76,84l.65-.13V76.45l-.65-.12v-.56h1.59v3.31a4.25,4.25,0,0,1,2-.61c1.26,0,1.59.84,1.59,1.85v3.51l.73.13v.55h-1.64V80.57c0-.76-.15-1.34-1-1.34a4.3,4.3,0,0,0-1.72.53v4.07L142,84v.55h-2.27V84"/><path class="cls-1" d="M149.33,82.64h.73l.11,1a6.73,6.73,0,0,0,1.56.2c1.24,0,2-.51,2-1.62s-.63-1.36-1.85-1.77-2.47-.85-2.47-2.47,1.11-2.35,2.88-2.35a8,8,0,0,1,2.17.33l0,1.61h-.74l-.1-1a7.73,7.73,0,0,0-1.34-.15c-1.21,0-1.82.56-1.82,1.52s.71,1.31,1.82,1.69c1.29.43,2.5.86,2.5,2.55,0,1.52-1,2.45-3,2.45a8.46,8.46,0,0,1-2.45-.38l0-1.59"/><path class="cls-1" d="M155.55,86.53l.65-.12V79.28l-.65-.12V78.6H157l.08.45a3.4,3.4,0,0,1,1.84-.58c1.69,0,2,1.52,2,3,0,1.7-.41,3.16-2.2,3.16a3.37,3.37,0,0,1-1.54-.38v2.18l.68.12v.56h-2.27v-.56m1.56-2.93a3.52,3.52,0,0,0,1.39.33c1.09,0,1.42-.76,1.42-2.4,0-1.26-.2-2.3-1.32-2.3a3.35,3.35,0,0,0-1.49.46V83.6Z"/><path class="cls-1" d="M166.59,84.34a7.44,7.44,0,0,1-2,.3c-1.77,0-2.4-1.09-2.4-3s.45-3.18,2.37-3.18c1.64,0,2.15.91,2.15,2.58v.78h-3.59c0,1.36.41,2,1.64,2a6.78,6.78,0,0,0,1.67-.28l.13.71m-.76-3.16c0-1.19-.13-2-1.29-2-1,0-1.34.55-1.41,2Z"/><path class="cls-1" d="M172.22,84.36a6.85,6.85,0,0,1-1.89.28c-1.9,0-2.35-1.16-2.35-3s.45-3.11,2.45-3.11a8.16,8.16,0,0,1,1.74.23l0,1.44h-.73l-.08-.86a5,5,0,0,0-.88-.1c-1.34,0-1.57.83-1.57,2.32s.23,2.38,1.62,2.38a6.36,6.36,0,0,0,1.56-.26l.18.71"/><path class="cls-1" d="M173.18,84l.66-.13V79.28l-.66-.12V78.6h1.59v5.23l.66.13v.55h-2.25V84m.66-8.19h.93v1.39h-.93Z"/><path class="cls-1" d="M179.9,84a3.14,3.14,0,0,1-1.79.6,1.67,1.67,0,0,1-1.85-1.77c0-1.39,1-1.79,2.35-1.79a11.55,11.55,0,0,1,1.19.08v-.66c0-.83-.23-1.26-1.34-1.26a9,9,0,0,0-1.59.2l-.13-.71a8.56,8.56,0,0,1,1.82-.23c1.49,0,2.15.51,2.15,1.87v3.49l.63.13v.55H180l0-.5m-.07-2.23c-.26,0-.79,0-1.09,0-1.06,0-1.52.31-1.52,1.09a1,1,0,0,0,1.14,1.09,3,3,0,0,0,1.47-.48Z"/><polyline class="cls-1" points="182.1 83.96 182.76 83.83 182.76 76.45 182.1 76.33 182.1 75.77 183.69 75.77 183.69 83.83 184.35 83.96 184.35 84.51 182.1 84.51 182.1 83.96"/><path class="cls-1" d="M185.86,79.33H185v-.55l.93-.18.21-1.57h.68V78.6h1.51v.73H186.8V83c0,.58.2,1,.83,1,.2,0,.41-.05.61-.07l.1.68a3.71,3.71,0,0,1-.91.12c-1.06,0-1.59-.43-1.59-1.56V79.33"/><path class="cls-1" d="M189,84l.66-.13V79.28l-.66-.12V78.6h1.59v5.23l.66.13v.55H189V84m.66-8.19h.93v1.39h-.93Z"/><path class="cls-1" d="M196.63,84.34a7.52,7.52,0,0,1-2,.3c-1.76,0-2.4-1.09-2.4-3s.46-3.18,2.38-3.18c1.64,0,2.15.91,2.15,2.58v.78h-3.59c0,1.36.4,2,1.64,2a6.86,6.86,0,0,0,1.67-.28l.13.71m-.76-3.16c0-1.19-.13-2-1.29-2-1,0-1.34.55-1.42,2Z"/><path class="cls-1" d="M198,83h.65l.1.83a4.72,4.72,0,0,0,1.09.13c.91,0,1.41-.28,1.41-1s-.5-.83-1.31-1.06c-1-.3-2-.58-2-1.74s.93-1.67,2.25-1.67a7.26,7.26,0,0,1,1.72.25l-.05,1.39h-.69l-.07-.86a5.34,5.34,0,0,0-.89-.07c-.93,0-1.34.32-1.34.91s.48.78,1.34,1,1.92.56,1.92,1.77-.83,1.74-2.32,1.74a7.13,7.13,0,0,1-1.9-.27L198,83"/><path class="cls-1" d="M22.91,65.54V69h1.27v.9H19.33c-1,0-1.47-.45-1.52-1.31,0-.15,0-.33,0-.53v-.63c0-.2,0-.43,0-.63a3.83,3.83,0,0,1,.05-.53,1.64,1.64,0,0,1,.46-1,1.71,1.71,0,0,1,1-.58,3.23,3.23,0,0,1,1.41-.08,3,3,0,0,1,1.29.63v-.63h1.34v.91h-.41m-.91,1a.58.58,0,0,0-.15-.3,1.9,1.9,0,0,0-.4-.33,3.61,3.61,0,0,0-.56-.27,2.67,2.67,0,0,0-.6-.16,1.54,1.54,0,0,0-1.14.31,1.63,1.63,0,0,0-.4,1.18v1.19a2.75,2.75,0,0,0,0,.43c0,.1.05.2.13.25a.65.65,0,0,0,.25.13,1.59,1.59,0,0,0,.4,0H22V66.57Zm-2.83-3.89h.94v.94h-.94Zm1.42,0h.93v.94h-.93Z"/><path class="cls-1" d="M28.14,69.91h-1a1.59,1.59,0,0,1-.94-.28,1.43,1.43,0,0,1-.93.28H24.08V69h.86a1.13,1.13,0,0,0,.35,0,.45.45,0,0,0,.23-.1.42.42,0,0,0,.12-.22,2.6,2.6,0,0,0,.05-.36v-3.1h.94v3.1a1.11,1.11,0,0,0,.05.36.32.32,0,0,0,.12.22A.35.35,0,0,0,27,69a1.24,1.24,0,0,0,.36,0h.75v.91m-3,.91h.94v.93h-.94Zm1.42,0h.93v.93h-.93Z"/><path class="cls-1" d="M28.09,69H33v-2a1.54,1.54,0,0,0-.15-.7,1.2,1.2,0,0,0-.41-.48,1.15,1.15,0,0,0-.6-.23,2.08,2.08,0,0,0-.74,0l-.58.15-.6.22-.53.23-.36.18-.38-.91A8.42,8.42,0,0,1,29.84,65a8.93,8.93,0,0,1,1.28-.33,2.69,2.69,0,0,1,1.14.06,2.3,2.3,0,0,1,.91.4,2.18,2.18,0,0,1,.61.76,2.29,2.29,0,0,1,.22,1V69h1.27v.91H28.09V69"/><path class="cls-1" d="M35.19,69h.94V66.52H35.7v-.91H37v.69a2.25,2.25,0,0,1,.45-.41,4.43,4.43,0,0,1,.56-.35l.58-.3a2.68,2.68,0,0,1,.58-.23,5.2,5.2,0,0,1,.5-.18c.16,0,.31-.07.41-.1a2.9,2.9,0,0,1,.83,0,4.81,4.81,0,0,1,.84.1,2.24,2.24,0,0,1,.65.25,1.89,1.89,0,0,1,.51.46,2,2,0,0,1,.33.63,2.54,2.54,0,0,1,.12.73v1.7a2.65,2.65,0,0,1,0,.5h1.34V70H35.14V69m6.29-3.42a2.31,2.31,0,0,0-1,0,6.26,6.26,0,0,0-1,.31,9.21,9.21,0,0,0-.94.48,4.79,4.79,0,0,0-.76.53l-.53.45-.2.21V69h5a.54.54,0,0,0,.41-.15.66.66,0,0,0,.12-.4V67a1.4,1.4,0,0,0-.3-.88A1.06,1.06,0,0,0,41.43,65.61Z"/><path class="cls-1" d="M44.67,69h.53a1.13,1.13,0,0,0,.35,0,.55.55,0,0,0,.23-.1.46.46,0,0,0,.12-.23,2.43,2.43,0,0,0,.05-.35V62.56h-.43v-.91h1.34v6.9a1.31,1.31,0,0,1-.38,1,1.52,1.52,0,0,1-1,.38h-.8V69"/><polyline class="cls-1" points="49.44 69.91 48.56 69.91 48.56 62.51 48.13 62.51 48.13 61.62 49.44 61.62 49.44 69.91"/><path class="cls-1" d="M55.18,65.21a3.5,3.5,0,0,0-.48.83,3.94,3.94,0,0,0-.26,1,2,2,0,0,0,.33,1.44,1.6,1.6,0,0,0,1.34.54h6a1.2,1.2,0,0,0,.36,0,.74.74,0,0,0,.22-.1.56.56,0,0,0,.13-.23c0-.1,0-.2,0-.35V65.59H62.4v-.91h1.34v3.87a1.34,1.34,0,0,1-.38,1,1.55,1.55,0,0,1-1,.38H55.88a2.43,2.43,0,0,1-.86-.15,2.25,2.25,0,0,1-.68-.41,1.92,1.92,0,0,1-.48-.63,3,3,0,0,1-.25-.86,5.58,5.58,0,0,1,0-.73,3.61,3.61,0,0,1,.07-.73,4.49,4.49,0,0,1,.31-1,3.59,3.59,0,0,1,.5-.84l.74.56m2.5-1.52h.93v.94h-.93Zm1.41,0H60v.94h-.94Z"/><path class="cls-1" d="M67.71,69.91H66.42a1.31,1.31,0,0,1-1-.38,1.52,1.52,0,0,1-.38-1V61.6h1.34v.91h-.43v5.76a1,1,0,0,0,0,.35.34.34,0,0,0,.12.23.35.35,0,0,0,.23.1,1.84,1.84,0,0,0,.36,0h1v.94"/><path class="cls-1" d="M67.63,69h.94V66.52h-.43v-.91h1.33v.69a2.63,2.63,0,0,1,.46-.41,4.43,4.43,0,0,1,.56-.35l.58-.3a2.68,2.68,0,0,1,.58-.23,4.38,4.38,0,0,1,.5-.18c.15,0,.31-.07.41-.1a2.88,2.88,0,0,1,.83,0,4.59,4.59,0,0,1,.83.1,2.2,2.2,0,0,1,.66.25,1.89,1.89,0,0,1,.51.46,1.79,1.79,0,0,1,.32.63,2.24,2.24,0,0,1,.13.73v1.7a2.65,2.65,0,0,1,0,.5h1.34V70H67.58V69m6.32-3.42a2.36,2.36,0,0,0-1,0,6.94,6.94,0,0,0-1,.31,9,9,0,0,0-.93.48,4,4,0,0,0-.76.53,6.22,6.22,0,0,0-.53.45l-.21.21V69h5a.54.54,0,0,0,.4-.15.6.6,0,0,0,.13-.4V67a1.47,1.47,0,0,0-.31-.88A1.15,1.15,0,0,0,73.9,65.61Z"/><path class="cls-1" d="M77.1,69H78V66.52h-.43v-.91H79v.69a2.56,2.56,0,0,1,.45-.41,5.28,5.28,0,0,1,.56-.35l.58-.3a2.68,2.68,0,0,1,.58-.23,4.5,4.5,0,0,1,.51-.18c.15,0,.3-.07.4-.1a2.92,2.92,0,0,1,.83,0,4.81,4.81,0,0,1,.84.1,2.14,2.14,0,0,1,.65.25,1.75,1.75,0,0,1,.51.46,2,2,0,0,1,.33.63,2.54,2.54,0,0,1,.12.73v1.7a2.65,2.65,0,0,1,0,.5H86.6V70H77.1V69m6.27-3.42a2.36,2.36,0,0,0-1,0,6.94,6.94,0,0,0-1,.31,10.2,10.2,0,0,0-.93.48,4.37,4.37,0,0,0-.76.53c-.23.18-.4.33-.53.45l-.2.21V69h5a.54.54,0,0,0,.4-.15.6.6,0,0,0,.13-.4V67a1.47,1.47,0,0,0-.31-.88A1.28,1.28,0,0,0,83.37,65.61Z"/><path class="cls-1" d="M86.6,69h4.9v-2a1.54,1.54,0,0,0-.15-.7,1.18,1.18,0,0,0-.4-.48,1.22,1.22,0,0,0-.61-.23,2,2,0,0,0-.73,0l-.58.15-.61.22-.53.23c-.15.08-.28.13-.35.18l-.38-.91A8.29,8.29,0,0,1,88.32,65a8.73,8.73,0,0,1,1.29-.33,2.71,2.71,0,0,1,1.14.06,2.43,2.43,0,0,1,.91.4,2.16,2.16,0,0,1,.6.76,2.29,2.29,0,0,1,.23,1V69h1.26v.91H86.6V69m1.87-6.35h.94v.94h-.94Z"/><path class="cls-1" d="M97.74,69.91h-1a1.59,1.59,0,0,1-.94-.28,1.43,1.43,0,0,1-.93.28H93.7V69h.86a1.1,1.1,0,0,0,.35,0,.41.41,0,0,0,.23-.1.51.51,0,0,0,.13-.22c0-.1,0-.21,0-.36v-3.1h.93v3.1a1.47,1.47,0,0,0,0,.36.41.41,0,0,0,.36.32c.1,0,.2,0,.35,0h.76v.91m-3.13-7.23h.93v.94h-.93Zm1.41,0H97v.94h-.94Z"/><path class="cls-1" d="M101.26,69.91h-.86a1.56,1.56,0,0,1-.94-.28,1.45,1.45,0,0,1-.93.28h-.86V69h.58a1.1,1.1,0,0,0,.35,0,.45.45,0,0,0,.23-.1.51.51,0,0,0,.13-.22c0-.1,0-.21.05-.36V61.62h.93v6.67a1.47,1.47,0,0,0,0,.36.41.41,0,0,0,.36.32,1.2,1.2,0,0,0,.35,0h.58v.91"/><path class="cls-1" d="M101.18,69h.53a1.1,1.1,0,0,0,.35,0,.49.49,0,0,0,.23-.1.56.56,0,0,0,.13-.23c0-.1,0-.2,0-.35V62.56H102v-.91h1.34v6.9a1.34,1.34,0,0,1-.38,1,1.55,1.55,0,0,1-1,.38h-.81V69"/><path class="cls-1" d="M112.6,65.54V69h1.26v.9H109c-1,0-1.46-.45-1.51-1.31,0-.15,0-.33,0-.53v-.63c0-.2,0-.43,0-.63a2.73,2.73,0,0,1,0-.53,1.69,1.69,0,0,1,.45-1,1.78,1.78,0,0,1,1-.58,3.27,3.27,0,0,1,1.42-.08,3,3,0,0,1,1.28.63v-.63H113v.91h-.4m-.91,1a.58.58,0,0,0-.15-.3,1.74,1.74,0,0,0-.41-.33,3.12,3.12,0,0,0-.55-.27,2.75,2.75,0,0,0-.61-.16,1.53,1.53,0,0,0-1.13.31,1.63,1.63,0,0,0-.41,1.18v1.19a1.85,1.85,0,0,0,0,.43.4.4,0,0,0,.12.25.63.63,0,0,0,.26.13,1.59,1.59,0,0,0,.4,0h2.48V66.57Zm-2.83-3.89h.94v.94h-.94Zm1.42,0h.93v.94h-.93Z"/><path class="cls-1" d="M113.79,69h1.74a1.1,1.1,0,0,0,.35,0,.55.55,0,0,0,.23-.1.56.56,0,0,0,.13-.23c0-.1,0-.2.05-.35V65.59h-.43v-.91h1.34v3.87a1.34,1.34,0,0,1-.38,1,1.55,1.55,0,0,1-1,.38h-2V69m.7,1.79h.94v.93h-.94Zm1.42,0h.93v.93h-.93Z"/><path class="cls-1" d="M118.71,65.84V64.63h3.64a1.79,1.79,0,0,1,1.24.38,1.67,1.67,0,0,1,.38,1.21v3.66h-5.53V69H123v-2.6a1.81,1.81,0,0,0,0-.43.53.53,0,0,0-.12-.25.7.7,0,0,0-.26-.13,2.36,2.36,0,0,0-.4,0h-2.55v.28h-.94"/><path class="cls-1" d="M129.45,69.91h-2.68c-1,0-1.46-.46-1.51-1.31,0-.16,0-.33,0-.53v-.64c0-.2,0-.43,0-.63a2.73,2.73,0,0,1,0-.53,1.72,1.72,0,0,1,.45-1,1.78,1.78,0,0,1,1-.58,3.43,3.43,0,0,1,1.42-.08,3.15,3.15,0,0,1,1.28.64V64.6h1.34v.91h-.43V69h1.27v.91h-1.27v.81a2.29,2.29,0,0,1-.22,1,1.88,1.88,0,0,1-.58.74,2.38,2.38,0,0,1-.89.43,4.16,4.16,0,0,1-1.14.07l-.53-.07a2.07,2.07,0,0,1-.5-.16l.1-.93.28.08.4.07.41.08a1.94,1.94,0,0,0,1.39-.33,1.67,1.67,0,0,0,.43-1.09v-.73m0-3.34a.58.58,0,0,0-.15-.3,1.74,1.74,0,0,0-.41-.33,3.12,3.12,0,0,0-.55-.27,2.75,2.75,0,0,0-.61-.16,1.53,1.53,0,0,0-1.13.31,1.63,1.63,0,0,0-.41,1.18v1.19a1.85,1.85,0,0,0,0,.43.4.4,0,0,0,.12.25.63.63,0,0,0,.26.13,1.59,1.59,0,0,0,.4,0h2.48V66.57Z"/><path class="cls-1" d="M138,69v.9h-6.44V69h1.87a8.29,8.29,0,0,1-1.34-2.25,3.87,3.87,0,0,1-.05-.53,1.81,1.81,0,0,1,.05-.43.67.67,0,0,1,.15-.33.86.86,0,0,1,.23-.28,2.5,2.5,0,0,1,1.79-.53h.83a2.53,2.53,0,0,1,1.8.53,1.17,1.17,0,0,1,.22.3.9.9,0,0,1,.16.36,2.68,2.68,0,0,1,.05.43,1.86,1.86,0,0,1-.08.5,6.65,6.65,0,0,1-.38.81,16.23,16.23,0,0,1-.93,1.44H138m-1.67-2.53a.64.64,0,0,0-.15-.53,1.05,1.05,0,0,0-.56-.32,1.62,1.62,0,0,0-.17-.06.72.72,0,0,0-.23,0c-.1,0-.2,0-.33,0h-.5a1.8,1.8,0,0,0-.66.11,1.57,1.57,0,0,0-.58.32.37.37,0,0,0-.13.23,1.49,1.49,0,0,0,0,.3,3.61,3.61,0,0,0,.43.79c.25.4.66,1,1.19,1.72h.05A13.84,13.84,0,0,0,136.32,66.52Z"/><path class="cls-1" d="M147.41,69.91h-.78a1.45,1.45,0,0,1-1-.3,1.33,1.33,0,0,1-.51.22,3.07,3.07,0,0,1-.73.08h-6.49V69h1V66.5h-.43v-.91h1.34V69H142V65.13h1V69h1.77a.3.3,0,0,0,.25-.1.56.56,0,0,0,.13-.23,1.09,1.09,0,0,0,.05-.3V64.6h.93v3.67a1.31,1.31,0,0,0,0,.35c0,.1.05.18.13.23a.33.33,0,0,0,.23.1,1.78,1.78,0,0,0,.35,0h.51v.94"/><path class="cls-1" d="M147.34,69h.53a1.13,1.13,0,0,0,.35,0,.55.55,0,0,0,.23-.1.46.46,0,0,0,.12-.23,2.43,2.43,0,0,0,.05-.35V62.56h-.42v-.91h1.33v6.9a1.34,1.34,0,0,1-.37,1,1.57,1.57,0,0,1-1,.38h-.8V69"/><polyline class="cls-1" points="152.11 69.91 151.2 69.91 151.2 62.51 150.8 62.51 150.8 61.62 152.11 61.62 152.11 69.91"/><path class="cls-1" d="M161.33,65.54V69h1.27v.9h-4.85c-1,0-1.47-.45-1.52-1.31,0-.15,0-.33,0-.53v-.63c0-.2,0-.43,0-.63a2.73,2.73,0,0,1,.05-.53,1.69,1.69,0,0,1,.45-1,1.78,1.78,0,0,1,1-.58,3.27,3.27,0,0,1,1.42-.08,3.1,3.1,0,0,1,1.29.63v-.63h1.34v.91h-.41m-.91,1a.58.58,0,0,0-.15-.3,1.9,1.9,0,0,0-.4-.33,3.61,3.61,0,0,0-.56-.27,2.67,2.67,0,0,0-.6-.16,1.54,1.54,0,0,0-1.14.31,1.67,1.67,0,0,0-.41,1.18v1.19a1.85,1.85,0,0,0,0,.43.36.36,0,0,0,.13.25.65.65,0,0,0,.25.13,1.59,1.59,0,0,0,.4,0h2.48V66.57Zm-2.83-3.89h.94v.94h-.94Zm1.42,0h.93v.94H159Z"/><path class="cls-1" d="M166.08,69.91h-.86a1.53,1.53,0,0,1-.93-.28,1.46,1.46,0,0,1-.94.28h-.86V69h.59a1.13,1.13,0,0,0,.35,0,.45.45,0,0,0,.23-.1.42.42,0,0,0,.12-.22,2.6,2.6,0,0,0,.05-.36v-3.1h.94v3.1a1.11,1.11,0,0,0,0,.36.3.3,0,0,0,.13.22.3.3,0,0,0,.22.1,1.34,1.34,0,0,0,.36,0h.58v.91M164,62.66a.54.54,0,0,0,.18.4.5.5,0,0,0,.38.15h.8v.38h-2v-.38h.38a1,1,0,0,1-.15-.58v-.17a1.11,1.11,0,0,1,.08-.41.73.73,0,0,1,.22-.3,1.61,1.61,0,0,1,.33-.2,1.22,1.22,0,0,1,.43-.08,1.23,1.23,0,0,1,.33,0l.33.07v.56h-.41v-.2a.27.27,0,0,0-.15,0h-.12a.73.73,0,0,0-.46.15.66.66,0,0,0-.17.48v.13Z"/><path class="cls-1" d="M170.07,69.91h-1a1.59,1.59,0,0,1-.94-.28,1.43,1.43,0,0,1-.93.28H166V69h.86a1.1,1.1,0,0,0,.35,0,.41.41,0,0,0,.23-.1.51.51,0,0,0,.13-.22c0-.1,0-.21.05-.36v-3.1h.93v3.1a1.47,1.47,0,0,0,0,.36A.41.41,0,0,0,169,69a1.2,1.2,0,0,0,.35,0h.76v.91m-3.08.91H168v.93H167Zm1.44,0h.93v.93h-.93Z"/><path class="cls-1" d="M175.58,63.77a3.32,3.32,0,0,1,1.14,0,2.43,2.43,0,0,1,.91.4,2.27,2.27,0,0,1,.83,1.79v3h1.21v.91H170V69h.76a1.22,1.22,0,0,1-.08-.43c0-.3,0-.58,0-.88a5.08,5.08,0,0,1,.08-.89,1.67,1.67,0,0,1,.46-1,1.71,1.71,0,0,1,1-.58,3.09,3.09,0,0,1,1.16-.1l-.2-.48a7.82,7.82,0,0,1,1.16-.56,6.49,6.49,0,0,1,1.31-.3m-.68,3.34a.57.57,0,0,0-.15-.31,2,2,0,0,0-.41-.33,3.12,3.12,0,0,0-.55-.27,2.75,2.75,0,0,0-.61-.16,1.57,1.57,0,0,0-1.14.31,1.67,1.67,0,0,0-.4,1.18v.66a1.85,1.85,0,0,0,0,.43.52.52,0,0,0,.1.25A.51.51,0,0,0,172,69a3,3,0,0,0,.38,0h2.53V67.11Zm.91,1.92h1.69V66.15a1.55,1.55,0,0,0-.15-.71A1.26,1.26,0,0,0,177,65a1.22,1.22,0,0,0-.61-.23,2.59,2.59,0,0,0-.73,0,1.64,1.64,0,0,0-.38.1c-.13,0-.28.07-.41.12l-.4.15-.38.16a4.18,4.18,0,0,1,.86.5l.33.25.3.31a1.61,1.61,0,0,1,.2.33,1,1,0,0,1,.08.37v2Z"/><path class="cls-1" d="M179.65,69h.53a1.1,1.1,0,0,0,.35,0,.55.55,0,0,0,.23-.1.56.56,0,0,0,.13-.23c0-.1,0-.2.05-.35V62.56h-.43v-.91h1.34v6.9a1.34,1.34,0,0,1-.38,1,1.55,1.55,0,0,1-1,.38h-.81V69"/><polyline class="cls-1" points="184.42 69.91 183.51 69.91 183.51 62.51 183.08 62.51 183.08 61.62 184.42 61.62 184.42 69.91"/></g></g></svg>