<svg xmlns="http://www.w3.org/2000/svg" viewBox="0 0 175.41 72"><defs><style>.cls-1{fill:#c9c9c9;}</style></defs><g id="Layer_2" data-name="Layer 2"><g id="Layer_1-2" data-name="Layer 1"><g id="loader-img"><path id="Path_774" data-name="Path 774" class="cls-1" d="M135.13,60a2.85,2.85,0,0,0-2.48,1.44V56.55h-1.83V68.48h1.83V64.2a2.63,2.63,0,0,1,.57-1.86,2,2,0,0,1,2.78-.08l.09.08a2.62,2.62,0,0,1,.56,1.86v4.28h1.83V64.2a4.82,4.82,0,0,0-.93-3.18A3,3,0,0,0,135.13,60m7.15-40.44H141.1a.5.5,0,0,1-.42-.2.6.6,0,0,1-.17-.45.58.58,0,0,1,.59-.59.69.69,0,0,1,.53.25l.48-.48a1.37,1.37,0,0,0-1.07-.48,1.24,1.24,0,0,0-.9.37,1.11,1.11,0,0,0-.37.84,1.24,1.24,0,0,0,.26.74h-.62v.73h2.84ZM132.4,41h-1.83v4.28a2.62,2.62,0,0,1-.56,1.86,2,2,0,0,1-2.79.08l-.08-.08a2.63,2.63,0,0,1-.57-1.86V41h-1.83v4.28a4.83,4.83,0,0,0,.93,3.18,3.17,3.17,0,0,0,2.48,1.07,2.8,2.8,0,0,0,1.49-.42,3,3,0,0,0,1-1.07l.11,1.35h1.66Zm5.85-.06a2.67,2.67,0,0,0-2.5,1.33l-.11-1.3H134V49.4h1.83V45.71a3,3,0,0,1,.73-2.28,2.54,2.54,0,0,1,1.86-.7,1.84,1.84,0,0,1,.31,0l.36-1.74a5.51,5.51,0,0,0-.7-.06Zm-10.1,25.93a1.41,1.41,0,0,1-1.1-.45,2,2,0,0,1-.39-1.3V61.7h2V60.06h-2V57.31h-1.52l-.25,2.75H123.7V61.7h1.13v3.46a3.57,3.57,0,0,0,.84,2.64,3,3,0,0,0,2.17.85,3.73,3.73,0,0,0,1.32-.25l-.45-1.64a1.1,1.1,0,0,1-.56.12M115.54,49.42V45.15a4.73,4.73,0,0,0-.93-3.18,3.12,3.12,0,0,0-2.45-1.07,2.8,2.8,0,0,0-1.49.42,3.33,3.33,0,0,0-1,1.07L109.55,41h-1.67v8.41h1.83V45.17a2.64,2.64,0,0,1,.57-1.85,2,2,0,0,1,2.78-.09l.09.09a2.58,2.58,0,0,1,.56,1.85v4.28Zm26.51-6a2.31,2.31,0,0,1,1.78-.73,2.54,2.54,0,0,1,0,5.07,2.37,2.37,0,0,1-1.78-.76,2.35,2.35,0,0,1-.73-1.78,2.63,2.63,0,0,1,.73-1.8m1.47,6.14a3.24,3.24,0,0,0,1.71-.48,3,3,0,0,0,1.19-1.21l.11,1.57h1.66V41h-1.66l-.11,1.6a3.26,3.26,0,0,0-1.19-1.23,3.4,3.4,0,0,0-1.71-.48,3.73,3.73,0,0,0-2.84,1.26,4.53,4.53,0,0,0,0,6.11,3.8,3.8,0,0,0,2.84,1.27M122,44.64a12.66,12.66,0,0,0-1.49-.42,11.49,11.49,0,0,1-1.27-.37c-.34-.14-.51-.34-.51-.56a.68.68,0,0,1,.4-.59,2.32,2.32,0,0,1,1.07-.23,3.85,3.85,0,0,1,1.26.23,2.18,2.18,0,0,1,1,.65l1.09-1.1a4.18,4.18,0,0,0-3.43-1.38,3.86,3.86,0,0,0-2.34.67,2.26,2.26,0,0,0-.42,3.16s.06,0,.06.08a2.74,2.74,0,0,0,1.26.82,8.48,8.48,0,0,0,1.5.39,7.65,7.65,0,0,1,1.26.4c.34.14.51.36.51.61a.75.75,0,0,1-.42.68,2.46,2.46,0,0,1-1.16.23,4.15,4.15,0,0,1-1.43-.26,2.88,2.88,0,0,1-1.13-.67l-1.24,1.18a4.41,4.41,0,0,0,1.72,1.1,5.88,5.88,0,0,0,2.08.36,4.07,4.07,0,0,0,2.42-.67,2.33,2.33,0,0,0,1-2,2,2,0,0,0-.54-1.47,2.83,2.83,0,0,0-1.26-.84m-1.49,19.7a2.6,2.6,0,0,1-.57,1.86,2,2,0,0,1-2.78.08L117,66.2a2.6,2.6,0,0,1-.56-1.86V60.06h-1.83v4.28a4.76,4.76,0,0,0,.93,3.18,3.14,3.14,0,0,0,2.48,1.07,2.83,2.83,0,0,0,2.5-1.49l.11,1.35h1.66V60h-1.83Zm50.29,1.47-2.16-5.72h-1.95l3.3,8.19c-.48,1.33-1.1,2-1.92,2a2.38,2.38,0,0,1-1-.19l-.51,1.63a4.35,4.35,0,0,0,1.61.31,3,3,0,0,0,2.14-.82,7.16,7.16,0,0,0,1.54-2.67l3.07-8.42H173Zm-6.1,1.07a1.4,1.4,0,0,1-1.1-.45,2,2,0,0,1-.4-1.3V61.7h2V60.06h-2V57.31h-1.52l-.25,2.75h-1.18V61.7h1.12v3.46a3.62,3.62,0,0,0,.85,2.64,3,3,0,0,0,2.17.85,3.73,3.73,0,0,0,1.32-.25l-.45-1.64a1.2,1.2,0,0,1-.56.12m-2-19.17a2.48,2.48,0,0,1,.11-5,2.44,2.44,0,0,1,1.91,1l1.52-1a4.12,4.12,0,0,0-1.54-1.33,4,4,0,0,0-2-.48,4.34,4.34,0,1,0,0,8.67h0a4.31,4.31,0,0,0,2-.5,4,4,0,0,0,1.52-1.41l-1.49-1a2.38,2.38,0,0,1-2.05,1m6.13-3.18a1.94,1.94,0,0,1,.74-1.35,2.26,2.26,0,0,1,1.6-.57,2.33,2.33,0,0,1,1.63.57,1.88,1.88,0,0,1,.73,1.38h-4.7Zm6.62.67a4.14,4.14,0,0,0-1.24-3.06,4.27,4.27,0,0,0-6,0l0,0a4.22,4.22,0,0,0-1.27,3,4.06,4.06,0,0,0,1.3,3.07,4.34,4.34,0,0,0,3.21,1.27,5.22,5.22,0,0,0,2-.45A4.34,4.34,0,0,0,175,47.82l-1.47-.93a2.8,2.8,0,0,1-2.19.93,2.74,2.74,0,0,1-1.66-.53,2.18,2.18,0,0,1-.88-1.33h6.56c0-.45.06-.73.06-.76M107.07,64.09,108.5,60,110,64.09Zm.36-6.78-4,11.17h2.13l.91-2.59h4l.9,2.59h2.14l-4-11.17Zm50.44-.2a1,1,0,0,0-.76.34,1.11,1.11,0,0,0-.31.76,1.09,1.09,0,0,0,1.1,1.09,1.09,1.09,0,0,0,.79-1.85,1.21,1.21,0,0,0-.82-.34M154.66,60a2.66,2.66,0,0,0-2.5,1.32l-.11-1.3h-1.66v8.42h1.83V64.79a3,3,0,0,1,.73-2.28,2.53,2.53,0,0,1,1.85-.7,1.16,1.16,0,0,1,.31,0l.37-1.75a5.49,5.49,0,0,0-.7-.05Zm2.28,8.44h1.83V60.06h-1.83ZM146.11,66a2.47,2.47,0,0,1-3.49-3.49h0a2.47,2.47,0,0,1,3.49,0,2.44,2.44,0,0,1,0,3.49M144.36,60a4.34,4.34,0,1,0,3,1.27,4,4,0,0,0-3-1.27m13.06-10.56V45.15a4.73,4.73,0,0,0-.93-3.18A3.12,3.12,0,0,0,154,40.9a2.8,2.8,0,0,0-1.49.42,3,3,0,0,0-1,1.07L151.43,41h-1.66v8.41h1.83V45.17a2.58,2.58,0,0,1,.56-1.85,2,2,0,0,1,2.79-.09l.08.09a2.58,2.58,0,0,1,.56,1.85v4.28ZM114.75,31.19a1,1,0,0,0-.31.7,1.06,1.06,0,0,0,.31.73,1,1,0,0,0,.71.31,1,1,0,0,0,.73-.31,1.06,1.06,0,0,0,.31-.73,1,1,0,0,0-1.75-.7M147.37,14a1,1,0,1,0-1.4,0,1,1,0,0,0,.7.31.89.89,0,0,0,.7-.31m-7.62,6.9V26.6a3.31,3.31,0,0,0,.78,2.25,2.68,2.68,0,0,0,2.09.87h10.55a2.47,2.47,0,0,1,3.46-.48,3.63,3.63,0,0,1,.48.48h10.61a2.68,2.68,0,0,0,2.09-.87,3.31,3.31,0,0,0,.78-2.25V17.79h-1.8V26.6c0,.9-.36,1.35-1.07,1.35H157.11a.85.85,0,0,1-.79-.37,1.56,1.56,0,0,1-.28-1V22.07h-1.77V26.6a1.5,1.5,0,0,1-.28,1,.93.93,0,0,1-.82.37H142.62c-.71,0-1.07-.45-1.07-1.35V20.86ZM150.1,14a1,1,0,0,0,.31-.73.89.89,0,0,0-.31-.7,1,1,0,0,0-.7-.31,1,1,0,0,0-.73.31,1,1,0,0,0,.7,1.74,1.13,1.13,0,0,0,.73-.31M109.24,2.65a1,1,0,0,0,.7-.31,1,1,0,0,0,0-1.44,1,1,0,0,0-1.44,0h0a1,1,0,0,0,0,1.44,1.06,1.06,0,0,0,.74.31M154.5,21a1,1,0,0,0,.3-.71.93.93,0,0,0-.3-.7,1,1,0,0,0-.74-.31,1,1,0,0,0-.7.31,1,1,0,0,0,0,1.46,1.09,1.09,0,0,0,1.44,0h0m20.18-3.21h-1.81V29.75h1.81Zm-68.51-12a1.81,1.81,0,0,1,1.43-.59h1.89V7.26A2.09,2.09,0,0,1,109,8.75a1.75,1.75,0,0,1-1.35.57,2.08,2.08,0,0,1-1.43-.59,2.11,2.11,0,0,1,0-2.93m61.08,1.26a1.31,1.31,0,0,1,1.88,1.83,0,0,0,0,1,0,0,1.29,1.29,0,0,1-1.85-.05,1.26,1.26,0,0,1,0-1.81M170,5.12a1.84,1.84,0,0,1,1-.31,1.7,1.7,0,0,1,1.35.59,2.23,2.23,0,0,1,.5,1.55V9.29h-2.64A1.84,1.84,0,0,0,170.82,8a2.23,2.23,0,0,0-1.46-2.09,2.55,2.55,0,0,1,.67-.76m-62.43,6a3.05,3.05,0,0,0,2.65-1.3,2.05,2.05,0,0,0,2.08,1.3h14.92a2.27,2.27,0,0,0,2-1,2.24,2.24,0,0,0,2,1H146a2.46,2.46,0,0,1,3.46-.48,2.42,2.42,0,0,1,.48.48h24.72V7a4.09,4.09,0,0,0-1-2.81A3.41,3.41,0,0,0,171,3a3.49,3.49,0,0,0-2,.65,3.58,3.58,0,0,0-1.32,1.66,2.36,2.36,0,0,0-1.55.9A2.77,2.77,0,0,0,165.5,8a1.81,1.81,0,0,0,.56,1.32H150a.9.9,0,0,1-.81-.37,1.57,1.57,0,0,1-.29-1V3.41l-1.77,0V7.94a1.5,1.5,0,0,1-.28,1,1,1,0,0,1-.79.37H131.22c-.71,0-1.07-.45-1.07-1.35V3.41h-1.8V7.94c0,.9-.37,1.35-1.07,1.35H112.36c-.7,0-1.07-.45-1.07-1.35V3.41h-3.66a3.62,3.62,0,0,0-2.7,1.12,3.71,3.71,0,0,0-1.13,2.73,3.83,3.83,0,0,0,3.8,3.83h0m-1.09-8.42a1,1,0,0,0,.73-1.74h0a1,1,0,0,0-1.75.7,1,1,0,0,0,.31.71,1,1,0,0,0,.71.33m24.12-.73h-1.19a.57.57,0,0,1-.42-.17.64.64,0,0,1-.17-.45A.57.57,0,0,1,129,.9a.64.64,0,0,1,.42-.17A.78.78,0,0,1,130,1l.48-.48A1.38,1.38,0,0,0,129.39,0a1.3,1.3,0,0,0-.9.34,1.09,1.09,0,0,0-.37.87,1.06,1.06,0,0,0,.26.7h-.62v.74h2.84ZM104.25,49.45h2V38.28h-2Zm13.23-18.26a1,1,0,0,0-.31.7,1.06,1.06,0,0,0,.31.73,1,1,0,0,0,1.38,0,0,0,0,0,0,0,0,1,1,0,0,0,.31-.73.89.89,0,0,0-.31-.7,1,1,0,0,0-.7-.31,1,1,0,0,0-.71.31M109.21,21a1.07,1.07,0,0,0,0-1.47h0a1,1,0,0,0-.73-.31,1.06,1.06,0,0,0-1,1,1.11,1.11,0,0,0,.31.76,1,1,0,0,0,.74.31,1.23,1.23,0,0,0,.73-.33m23.44,3.43a2,2,0,0,1,2.85,0l0,0a2.07,2.07,0,0,1,0,2.9,2,2,0,0,1-2.87,0,2.16,2.16,0,0,1-.59-1.44,2.07,2.07,0,0,1,.59-1.46m-12.72,5.29h14.16a3.83,3.83,0,1,0-3.83-3.83h0a2.38,2.38,0,0,0,1,2H118.81a.93.93,0,0,1-.82-.37,1.5,1.5,0,0,1-.28-1V22.07l-1.78,0V26.6a1.5,1.5,0,0,1-.28,1,.93.93,0,0,1-.78.37h-1.19c-.7,0-1.07-.45-1.07-1.35V22.07h-1.8v6.7a2.77,2.77,0,0,1-.67,1.94,2.36,2.36,0,0,1-3.3.11l-.11-.11a2.73,2.73,0,0,1-.67-1.94V23.61h-1.81v5.16a4.57,4.57,0,0,0,1.21,3.2,4.11,4.11,0,0,0,5.77.17,4.47,4.47,0,0,0,1.36-2.87,1.33,1.33,0,0,0,1.09.45h1.19a2.47,2.47,0,0,1,3.46-.48,3.11,3.11,0,0,1,.48.48l1.12,0ZM157.23,21a1,1,0,0,0-1.44-1.44h0a1,1,0,0,0,0,1.44,1,1,0,0,0,1.44,0M43.8,1,19.42,68.51H31.83L52.38,9.68,72.93,68.51H85.34L61,1ZM0,68.51H11.93V1H0Z"/><path id="Path_775" data-name="Path 775" class="cls-1" d="M40.47,43.74,31.83,68.48a97.48,97.48,0,0,1,8-8.42,137.21,137.21,0,0,1,34-23A181.57,181.57,0,0,1,93.3,29,162.37,162.37,0,0,0,40.47,43.74"/></g></g></g></svg>