<svg xmlns="http://www.w3.org/2000/svg" viewBox="0 0 98.98 102.51"><defs><style>.cls-1{fill:#c9c9c9;}</style></defs><g id="Layer_2" data-name="Layer 2"><g id="Layer_1-2" data-name="Layer 1"><path class="cls-1" d="M21.09,58.28l-.55.11-2.25,2.25c7.2-1.52,17.57-2.49,29.1-2.49s21.9,1,29.09,2.49l2.42-2.42C71.5,56.67,61,55.79,50.12,55.79s-21.62.92-29,2.49Z"/><path class="cls-1" d="M20.54,58.4l.11-.55c1.58-7.43,2.48-18,2.48-29S22.24,7.41,20.71,0L18.29,2.42c1.52,7.2,2.48,17.57,2.48,29.12s-1,21.91-2.48,29.11Z"/><path class="cls-1" d="M49.41,12.16c.07.25.14.53.21.8C49.55,12.68,49.48,12.41,49.41,12.16ZM62,49.41a1.24,1.24,0,0,1-.1.2A1.24,1.24,0,0,0,62,49.41ZM78.75.15C71.32,1.67,60.92,2.53,50.12,2.53S28.93,1.67,21.48.15C23,7.6,23.86,18,23.86,28.8a153.68,153.68,0,0,1-2.38,28.65c7.45-1.52,17.84-2.38,28.64-2.38s21.2.86,28.63,2.38A153.53,153.53,0,0,1,76.37,28.8,153.76,153.76,0,0,1,78.75.15Zm-19,14.21a.38.38,0,0,1,0,.15l0,.12.13,0h0l.06,0h0l.11.05,0,0,0,0,.13.1,0,0h0l0,0,0,.05,0,0,0,.06,0,0s0,.08,0,.12,0,0,0,0,0,0,0,0a.17.17,0,0,1,0,.07s0,0,0,.08h0v.09a.33.33,0,0,1,0,.14v.08l.08,0,.18.13.07,0,.07.06a1.47,1.47,0,0,1,.43.58s0,.05,0,.07a.54.54,0,0,1-.06.41l-.55,0h-.55l-.06,0h0A.54.54,0,0,1,60,17L59.9,17l0,0,0,0,0,0a4.63,4.63,0,0,1-1.5-.81L58.26,16l-.07,0a1.12,1.12,0,0,1-.55.13,1.57,1.57,0,0,1-1-.42l-.09-.07h0l-.06.09a.26.26,0,0,1-.1.07h0l-.11.05-.11,0H56a1.56,1.56,0,0,1-.91-.36l-.13-.07v0l0,.12a.34.34,0,0,1-.1.13h0l-.06,0a.61.61,0,0,1-.18.11l0,0-.16,0-.05,0h-.45l-.43,0a21.55,21.55,0,0,0-2.24-.7l-.32-.06h0a9.32,9.32,0,0,1,1-.32l1-.26h0l.08,0c.76-.39.94-.82,1-1.06h0a1.63,1.63,0,0,0,.7-.14h0l.08,0,0,0h0a3.76,3.76,0,0,1,1.07-.23.57.57,0,0,1,.42.13.36.36,0,0,1,.06.28l0,.21h0l.19-.07a4.27,4.27,0,0,1,1.25-.33h0a.53.53,0,0,1,.34.09.35.35,0,0,1,0,.27l-.06.18h0l.19,0a2.71,2.71,0,0,1,.37,0h.15a1.2,1.2,0,0,1,.9.27A.59.59,0,0,1,59.7,14.36ZM45,24.42h0l-.24-.18a1.74,1.74,0,0,1-.1-1v-.08l-.1-.06A.82.82,0,0,1,44.32,22l.07-.12-.1-.07-.15-.26c0-.38.46-.92.64-1.1l.14-.13-.17-.08-.14-.16c0-.25.6-.73,1-1l.18-.1-.17-.11-.06-.05h0a2.06,2.06,0,0,0,.3-.42.76.76,0,0,0,.47.16,2.13,2.13,0,0,0,1.15-.48l0,0a26,26,0,0,1,2-2h0l0,0a13.72,13.72,0,0,0-.91,2.18c-.47.78-.86.83-1,.82h-.05l0,0h0l-.07,0,0,.16c-.13,1-.62,1.07-.65,1.07h-.11v.12a1.33,1.33,0,0,1-.68,1.26l-.07,0v.09a5.1,5.1,0,0,1-.33,1.52v.07A2.13,2.13,0,0,1,45,24.42Zm-2-4.33h0l0,.08a6.75,6.75,0,0,1-1.19,1.66l0,0,0,0c-.15.45-.91.8-1.26.93,0,0,0,0,0,0-.42-.63.38-1.81.38-1.83l0-.05,0-.06a1.59,1.59,0,0,1,.3-1.49l0,0,0,0,0,0,0,0,0,0h0l.07-.06,0-.1a.14.14,0,0,1,0-.06.74.74,0,0,1,0-.51,2.34,2.34,0,0,1,1.21-.86l.13,0-.06-.14a.43.43,0,0,1,0-.41c.21-.38,1.14-.47,1.49-.47h.17l-.06-.17,0-.18.07,0a1.8,1.8,0,0,0,.94-.34h0l.05.06h0a1.46,1.46,0,0,0,1.13.38,2.63,2.63,0,0,0,.48,0h0a14.92,14.92,0,0,1,2.69-.77l.14,0h.07l-.23.16-.33.28a19.07,19.07,0,0,0-1.89,1.87,2,2,0,0,1-1,.44.45.45,0,0,1-.33-.11L46,18.12l0-.08-.06-.1,0,0-.08.14a5,5,0,0,1-.39.55l-.1.09a.76.76,0,0,1-.52.27l-.06,0h0l-.11,0-.12-.09v0l0,.11c-.47,1-1,1.1-1.26,1.1h-.07Zm3.05,15a.27.27,0,0,1,0-.25l0,0s0,0,0,0a.27.27,0,0,1,.08-.07.12.12,0,0,1,0-.05l.05,0s0,0,0,0h3.28l-.69-3h0l.54-.52-.69-2.7.55-.27-.72-2.95.64-.47-.56-2.51.65-.36-.41-2.23.54-.36-.09-2.42h0a3,3,0,0,1,.6-1h0l.07-.07h0a.52.52,0,0,1,.11-.1,3,3,0,0,1,.77,1.21l-.09,2.42.54.35-.41,2.24.65.35L51,24.65l.64.46-.7,3,.53.27L50.8,31l.54.52-.61,3h3.18s.41.18.29.49a1.92,1.92,0,0,1-.23.31l-.06.06-.06.07c-.24.27-.56.6-.86.88l-.22.21-.08.07h0l-.08.07-.06,0-.1.07h0l0,0-.08.05s0,0-.06,0-.14-.72-.22-.83,0,0-.08,0h0c-.11.07-.3.25-.5.42l-.32.27L51,37a4.07,4.07,0,0,0-.83-.71c-.5.31-1,.71-1,.71-.31-.19-.8-.92-.86-.83h0c-.09.13-.09.72-.21.82h0A8.6,8.6,0,0,1,46.06,35.05Zm11-18.34a.94.94,0,0,1,.58.34.41.41,0,0,1,0,.41l-.07.14.15,0a2.23,2.23,0,0,1,1.2.86.69.69,0,0,1,0,.58l-.05.1.07.05h0a1.33,1.33,0,0,1,.47.79s0,.07,0,.1a.07.07,0,0,1,0,.05h0v0h0s0,0,0,0a.49.49,0,0,1,0,.12,1.8,1.8,0,0,1,0,.22s0,.08,0,.13l0,.13,0,.06,0,.06s.83,1.23.37,1.85h0c-.35-.12-1.1-.47-1.27-.92v0l0,0a7.28,7.28,0,0,1-1.18-1.66l0-.08H57l-.12,0-.15-.05,0,0a1.76,1.76,0,0,1-.8-.83L55.84,19l-.07-.12-.1.08a.33.33,0,0,1-.18.06h-.05a.8.8,0,0,1-.44-.22s0,0,0,0l-.1-.1a3.2,3.2,0,0,1-.38-.55l-.1-.15-.06.08,0,.07,0,0a.42.42,0,0,1-.35.14,1.78,1.78,0,0,1-1-.44c-.12-.12-1.06-1.16-1.89-1.87l-.34-.28-.22-.15h0l0,0,.18,0a14.66,14.66,0,0,1,2.69.77h0a2.53,2.53,0,0,0,.47,0,1.4,1.4,0,0,0,1.2-.45h0l.12.08.12.06.1.05a1.45,1.45,0,0,0,.63.15h0l0,.18-.05.15v0h.17a3.82,3.82,0,0,1,.85.1Zm-1.42,6.42h0v.08a2.05,2.05,0,0,1,0,.82h0a1,1,0,0,1-.08.21l-.27.18a2.13,2.13,0,0,1-.68-1.12v0l0,0a4.91,4.91,0,0,1-.33-1.52v-.09l-.07,0a1.33,1.33,0,0,1-.68-1.26v-.12h-.11s-.52,0-.65-1.07l0-.16-.14.05s-.43.15-1-.82A17.79,17.79,0,0,0,50.62,16l.07.05a24.32,24.32,0,0,1,2,2l0,0a2.16,2.16,0,0,0,1.16.48.72.72,0,0,0,.45-.16,4,4,0,0,0,.29.41h0l-.06.05-.11.08,0,0,.17.1c.42.25,1,.72,1,1h0l-.11.12,0,0-.11.05-.06,0,.14.13c.18.18.66.72.65,1.1l-.16.26h0l0,0-.06,0,.1.12a.87.87,0,0,1,.1.24v.1h0a.28.28,0,0,1,0,.09,1,1,0,0,1-.05.28,1,1,0,0,1-.09.17l0,0,0,0,0,0-.09.08Zm1-12.9,0,0a.19.19,0,0,1,0,.09l.06.12.11-.05a.7.7,0,0,1,.3-.07h.21l0,0a.3.3,0,0,1,.11.06,1.09,1.09,0,0,1,.28.37h0l0,.05H58a1.2,1.2,0,0,1,.86.28l0,.06,0,0a.65.65,0,0,1,0,.19l-.07.07a3.47,3.47,0,0,1-.49.32l-.07,0-.08,0-.14.06-.06,0h-.28a3.75,3.75,0,0,1-1,.14h-.39l-.09,0,0,.07a1.14,1.14,0,0,1-1,.54l-.24,0h-.11l0,.13a.65.65,0,0,1-.15.28l-.11.08-.29.11-.09,0a2.54,2.54,0,0,1-.41,0h-.14v.14h0a.52.52,0,0,1-.06.25l0,0s0,0,0,0l-.1.13,0,0a.6.6,0,0,1-.08.08l-.07.06-.1.07-.06,0-.07.05-.26.14h0A14,14,0,0,0,51,15l-.17.07-.17.06-.08,0-.08,0-.12.06h0l0,0v0l.28-.3a15.72,15.72,0,0,1,1.17-1.07v0a1.57,1.57,0,0,0,.47-1.27,1.05,1.05,0,0,0,.67-.93,1.41,1.41,0,0,0,.58-.42h0a.19.19,0,0,1,.14.06h0a.2.2,0,0,1,.07.1l.08.2h0l.12-.16c.25-.37.77-.94,1-.94a.13.13,0,0,1,.08,0h0a.48.48,0,0,1,.06.14l0,.2h0l.14-.12a1.87,1.87,0,0,1,1-.54A.24.24,0,0,1,56.64,10.23Zm-5.22.48.09.08.15.14.05-.21a.7.7,0,0,1,0-.14,2.81,2.81,0,0,1,.08-.31l0-.06a.14.14,0,0,1,0-.06,1.23,1.23,0,0,1,.31-.54h.06l.08.08.12.14h0l.07-.18c.08-.22.4-.79.68-.83h0l.17.07.1.08h0l.09-.1a.63.63,0,0,1,.2-.17h0A.52.52,0,0,1,54,8.65a.74.74,0,0,1,.42.17l.06,0,.06,0a1.42,1.42,0,0,1,.6-.18.35.35,0,0,1,.35.2,3.42,3.42,0,0,1-.25.44l0,0c-.13.19-.28.35-.4.37h0l0,0a3.34,3.34,0,0,1-1,.65l-.07,0v.08a.93.93,0,0,1-.17.44.82.82,0,0,1-.2.22l0,0a1,1,0,0,1-.36.19l0,0-.07,0h0v.2a.65.65,0,0,1-.21.42,1.36,1.36,0,0,1-.25.2h0l-.17.09-.1.06,0,0h0l.07.11s.18.37-.38,1.09l0,0,0,0h0l-.21.18-.58.52-.28.28-.24.27v0l0-.11c.31-1,.81-2.82,1-4ZM49,9.83h.09l0-.14a3.42,3.42,0,0,1,.16-1.85l.31,0,0-.17a2.92,2.92,0,0,1,.55-1.3,3.07,3.07,0,0,1,.54,1.3l0,.17.13-.07.1,0,.08,0a3.52,3.52,0,0,1,.16,1.85l0,.14h.1a2,2,0,0,1-.07.69l0,.2-.07.34c-.18.84-.49,2-.83,3.21l0,.07-.09.35,0,0v0l-.1-.35,0-.07-.12-.45-.12-.43h0c0-.15-.07-.29-.11-.42h0c-.07-.28-.14-.55-.21-.8s-.09-.4-.13-.58,0-.09,0-.14-.05-.26-.08-.38l-.07-.34,0-.2A2.51,2.51,0,0,1,49,9.83ZM45,8.67h.13a1.36,1.36,0,0,1,.59.19l.07,0,.07,0a.63.63,0,0,1,.41-.17.53.53,0,0,1,.37.15l0,0h0l.06.08V9l.1-.08L47,8.84a.37.37,0,0,1,.24.12s0,0,0,0l0,0,.07.09a2.38,2.38,0,0,1,.32.55l.07.16h0v0l.13-.16L48,9.61l.06,0,0,0,0,0a2.71,2.71,0,0,1,.41,1.06l0,.19v0l.16-.14.11-.07h0c.21,1.2.73,3.06,1,4.09l0,.15-.2-.23h0l0,0-.31-.31,0,0c-.38-.36-.74-.66-.81-.72l0,0c-.56-.71-.36-1.06-.36-1.06l.08-.11v0h0l-.09-.05a1.59,1.59,0,0,1-.32-.19h0l-.11-.1a.64.64,0,0,1-.21-.42v-.09l0-.08,0-.05h-.07l0,0-.14-.05-.07,0a1.27,1.27,0,0,1-.4-.34,1,1,0,0,1-.16-.44v-.08l-.07,0a3.6,3.6,0,0,1-1.06-.65l0,0h-.08a2,2,0,0,1-.62-.83.31.31,0,0,1,.16-.18Zm-3.63,2.58,0,0,0,0a1.22,1.22,0,0,1,.86-.29h.12l0-.07a.77.77,0,0,1,.63-.49h.09a.86.86,0,0,1,.24.07l.11.06h0l.06-.12a.29.29,0,0,1,.31-.22H44l.08,0h.13l0,0,.08,0h0l.07,0,.07.05.08,0,0,0h0l0,0h0l.07.05.11.09.14.13.06-.2c0-.15.08-.18.12-.18h0c.25,0,.77.57,1,.94l.12.16h0l.08-.2a.22.22,0,0,1,.19-.17h0a1.55,1.55,0,0,0,.57.43,1,1,0,0,0,.67.92,1.59,1.59,0,0,0,.45,1.27v0h0l0,0a0,0,0,0,1,0,0l.06,0,.17.15.08.07,0,0a.46.46,0,0,0,.07.07l.12.11a1.42,1.42,0,0,1,.13.12l.08.08.09.08.25.25.28.31,0,0v.05a4.59,4.59,0,0,0-.63-.26,17.21,17.21,0,0,0-1.72-.5,2.44,2.44,0,0,1-.53-.33l-.09-.08L46.79,14l0-.05h0l0,0a.41.41,0,0,1-.07-.11l0-.06,0,0a.43.43,0,0,0,0,0,.25.25,0,0,1,0-.07v-.07l0-.11v0h-.14a1.67,1.67,0,0,1-.4,0l-.12,0-.26-.11-.12-.09h0a.83.83,0,0,1-.15-.26v-.1l-.1,0H45A1.18,1.18,0,0,1,44,12.2l0-.07H43.9l-.4,0a3.63,3.63,0,0,1-1-.14l0,0h-.13a2.34,2.34,0,0,1-1-.55.33.33,0,0,1,0-.14.09.09,0,0,0,0-.05Zm-2.5,5.46s0,0,0,0a1.37,1.37,0,0,1,.28-.44h0l0,0,.13-.12a2.14,2.14,0,0,1,.32-.23l.07,0v-.23a.88.88,0,0,1,.75-.93h.11v-.13a.45.45,0,0,1,0-.16v0a0,0,0,0,0,0,0h0l0-.06,0-.06,0,0a1.17,1.17,0,0,1,.88-.25,4,4,0,0,1,.54,0l.15,0h0l-.06-.18a.38.38,0,0,1,0-.27.12.12,0,0,1,0-.05.62.62,0,0,1,.27,0,4,4,0,0,1,1.3.34l.15.06h0l0-.21a.35.35,0,0,1,.06-.28s0,0,0,0h0a.59.59,0,0,1,.37-.09,4,4,0,0,1,1.07.23l0,0a1.66,1.66,0,0,0,.78.18c0,.24.22.7,1,1.11h0s.44.1,1,.25c.31.1.66.21,1,.33h0l-.27.05-.2,0-.19.05-.58.17-.09,0-.1,0-.08,0-.18,0-.08,0-.09,0h0l-.08,0h0l-.11,0a.84.84,0,0,0-.19.07l-.25.09-.25,0H46l-.07,0H45.9l0,0h0l0,0h0l0,0-.06,0h0l0,0a.88.88,0,0,1-.2-.21l0-.14h0l-.1.07a1.68,1.68,0,0,1-.91.37h0l-.13,0L44,16l-.08,0h0c-.08,0-.12-.08-.12-.1l-.08-.09h0l-.08.07a2.1,2.1,0,0,1-.33.22l-.09,0-.09,0a1.39,1.39,0,0,1-.52.11,1.17,1.17,0,0,1-.55-.13L42,16h0l0,.05a4.72,4.72,0,0,1-1.52.81l0,0,0,0,0,0,0,0-.05,0,0,0-.07,0h0l-.1,0h-.56c-.24,0-.45,0-.55,0A.78.78,0,0,1,38.83,16.71ZM70.38,34.85h-.62a20.53,20.53,0,0,0-8,2.15l-.5.24-.38.2-.78.42-.4.22c-.53.31-1.08.65-1.64,1A68.57,68.57,0,0,0,51.72,44c1.05,1,2.12,2,3.18,3.15L55,47h.21l0,.14v0l.15-.21a.66.66,0,0,1,.21-.74.68.68,0,0,1,.49-.19.56.56,0,0,1,.43.19.65.65,0,0,1-.11.91.74.74,0,0,1-.4.19H56l-.15,0h0a.53.53,0,0,0-.05.45s0,0,0,0l0,.05,0,0,0,0a.1.1,0,0,0,0,.05l.08.1.08.07,0,0,.11.09.12.08.14.09.07,0,.06,0,.15.07.15.06a3,3,0,0,0,.32.12l.13,0,.14,0,.18,0h.78a2.72,2.72,0,0,0,1.7-1,1.14,1.14,0,0,1,.75-.38H61a1.24,1.24,0,0,1,.72.39l.08.12a1.27,1.27,0,0,1,.12.23s0,.08,0,.12a1.8,1.8,0,0,1,.06.22,1.77,1.77,0,0,1,0,.23V49s0,.07,0,.11v0a.29.29,0,0,1,0,.09.74.74,0,0,1,0,.14l0,.09h0a1.24,1.24,0,0,1-.1.2l0,.07-.09.13-.07.09,0,.06-.21.21-.08.07-.13.1-.09.07-.08.06-.16.1-.16.1-.21.1-.14.07-.15.06L60,51l-.09,0-.07,0-.13,0a4.59,4.59,0,0,1-.51.1h-.86a6.51,6.51,0,0,1-4-1.81c-.15-.16-.26-.24-.38-.23l-.09,0a.52.52,0,0,0-.17.33.74.74,0,0,1-.25.62.8.8,0,0,1-.47.19.64.64,0,0,1-.46-.19.67.67,0,0,1,.11-.93.8.8,0,0,1,.52-.19h.07l0,0h0v-.21l.24-.24c-.43-.42-1.66-1.63-3.36-3.14-1.7,1.52-2.93,2.72-3.36,3.14l0,0,.22.22V49l-.06,0H47a.82.82,0,0,1,.52.19h0l.11.12h0a.1.1,0,0,1,0,.05l0,.06a.63.63,0,0,1-.08.68.66.66,0,0,1-.44.19.79.79,0,0,1-.49-.19.7.7,0,0,1-.25-.62.52.52,0,0,0-.17-.33c-.15-.08-.28,0-.46.21l-.11.12-.13.12h0l-.17.13a3.47,3.47,0,0,1-.4.3l-.24.15a6.41,6.41,0,0,1-3.37,1h-.13l-.26,0-.27-.05-.13,0L40.32,51l-.14,0a4.77,4.77,0,0,1-.52-.22l-.17-.09-.11-.07-.18-.11-.07-.06L39,50.34,39,50.28a.18.18,0,0,1-.07-.05l-.06,0-.06-.06L38.67,50a2.09,2.09,0,0,1-.14-.17s0,0-.05,0l0-.06,0,0-.06-.1a.35.35,0,0,1,0-.08,1037438584018.29,1037438584018.29,0,0,0-.08-.18.24.24,0,0,1,0-.08.19.19,0,0,1,0-.1l0-.11s0-.07,0-.1v-.23a2.23,2.23,0,0,1,0-.23l0-.11a1.74,1.74,0,0,1,.24-.47,1.24,1.24,0,0,1,.72-.38h.12a1.06,1.06,0,0,1,.75.37,2.64,2.64,0,0,0,1.85,1h.45l.2,0,.14,0,.16,0,.12,0,.15,0,.1,0,.13,0,.11-.05.24-.12.08,0a2.44,2.44,0,0,0,.31-.22l.08-.06.09-.09,0,0a1.3,1.3,0,0,0,.15-.2s0,0,0,0l0,0a.56.56,0,0,0-.06-.45h0a.39.39,0,0,1-.15,0,.69.69,0,0,1-.45-.19.64.64,0,0,1-.09-.91.51.51,0,0,1,.24-.17.66.66,0,0,1,.68.17.68.68,0,0,1,.22.74l.12.18,0,0L45,47h.21l.08.07,0,0C46.39,46,47.46,44.92,48.51,44a71.81,71.81,0,0,0-6.34-4.87c-.7-.46-1.39-.87-2.05-1.24l-.24-.14c-.59-.32-1.16-.6-1.71-.86l-.2-.09-.35-.15-.11-.05-.23-.09-.13-.06-.23-.09-.51-.2L36.18,36c-.57-.21-1.12-.38-1.63-.52l-.25-.07-.24-.06-.15,0-.17,0-.17,0-.16,0-.34-.07-.3-.06-.07,0-.16,0-.11,0-.1,0-.28,0-.13,0h-.09l-.23,0h-.09l-.2,0h-.2l-.49,0h-.8a9.65,9.65,0,0,1,1.08-.33l.21-.05.4-.08.14,0,.29,0,.13,0,.24,0h0l.24,0h.17l.32,0h.76A16.49,16.49,0,0,1,41.1,36.1a58.83,58.83,0,0,1,9,6.41l0,0a59.21,59.21,0,0,1,9-6.43,16.6,16.6,0,0,1,7.22-1.88h.47a10.62,10.62,0,0,1,3.58.63Z"/><path class="cls-1" d="M52.94,14.66c.75-.39.92-.83,1-1.05h0C53.88,13.84,53.7,14.27,52.94,14.66Z"/><path class="cls-1" d="M54.69,13.41l-.08,0,0,0,0,0h0Z"/><path class="cls-1" d="M53.84,16.08a1.37,1.37,0,0,0,.94-.28,1.33,1.33,0,0,1-1,.3l-.44,0a15.88,15.88,0,0,0-2.24-.71l-.32,0,0,0,.32.06a21.55,21.55,0,0,1,2.24.7Z"/><path class="cls-1" d="M56.25,15.91l.11-.05a.47.47,0,0,1-.14.08l-.11,0H56a1.54,1.54,0,0,1-.9-.36l-.12-.08v0l.13.07A1.56,1.56,0,0,0,56,16h.16Z"/><path class="cls-1" d="M57.7,13.37a4.27,4.27,0,0,0-1.25.33l-.19.07h0l.14-.07A4.44,4.44,0,0,1,57.7,13.37Z"/><path class="cls-1" d="M58.21,13.89l-.19,0h0l.14,0a2.75,2.75,0,0,1,.46,0A2.1,2.1,0,0,0,58.21,13.89Z"/><path class="cls-1" d="M59.88,16.93a1.19,1.19,0,0,0,.83.23,1.16,1.16,0,0,1-.84-.22l0,0h0a4.47,4.47,0,0,1-1.51-.83l0,0-.07,0a1.19,1.19,0,0,1-.55.12,1.61,1.61,0,0,1-1-.42l-.08-.07h0l.09.07a1.57,1.57,0,0,0,1,.42,1.12,1.12,0,0,0,.55-.13l.07,0,.06.06a4.63,4.63,0,0,0,1.5.81l0,0Z"/><path class="cls-1" d="M60.06,14.73a.88.88,0,0,1,.49.85A.91.91,0,0,0,60.06,14.73Z"/><path class="cls-1" d="M61.38,16.66a1.47,1.47,0,0,0-.43-.58A1.32,1.32,0,0,1,61.38,16.66Z"/><path class="cls-1" d="M54.6,18.81a4,4,0,0,1-.29-.41.72.72,0,0,1-.45.16,2.16,2.16,0,0,1-1.16-.48l0,0a24.32,24.32,0,0,0-2-2,.41.41,0,0,1,0-.09,24,24,0,0,1,2,2l0,0a2.13,2.13,0,0,0,1.15.48.77.77,0,0,0,.47-.15,3.28,3.28,0,0,0,.31.42Z"/><path class="cls-1" d="M54.58,19.08l-.17-.1,0,0,.15.09c.44.25,1,.73,1,1l0,0C55.6,19.8,55,19.33,54.58,19.08Z"/><path class="cls-1" d="M55.64,23.2a1.79,1.79,0,0,1,0,.83,2.05,2.05,0,0,0,0-.82v-.08h0Z"/><polygon class="cls-1" points="55.87 21.82 55.91 21.98 55.81 21.86 55.87 21.82"/><path class="cls-1" d="M56.12,21.48l-.15.27-.06,0,.16-.26c0-.38-.47-.92-.65-1.1l-.14-.13.06,0,.14.12C55.66,20.57,56.14,21.1,56.12,21.48Z"/><path class="cls-1" d="M44.73,24.24l.24.18h0l-.26-.18a1.76,1.76,0,0,1-.1-1l0-.09-.09-.07.1.06v.08A1.74,1.74,0,0,0,44.73,24.24Z"/><path class="cls-1" d="M47.65,19h0l0,0Z"/><path class="cls-1" d="M49.58,16v0h0a26,26,0,0,0-2,2l0,0a2.13,2.13,0,0,1-1.15.48.76.76,0,0,1-.47-.16,2.06,2.06,0,0,1-.3.42h0a3.28,3.28,0,0,0,.31-.42.77.77,0,0,0,.47.15,2.25,2.25,0,0,0,1.15-.47l0,0A19.65,19.65,0,0,1,49.58,16Z"/><path class="cls-1" d="M40.84,20.85l0,.06,0,.05s-.8,1.2-.38,1.83l0,0c-.46-.62.37-1.85.37-1.86l0-.06Z"/><polygon class="cls-1" points="43.01 20.09 43.09 20.11 43.04 20.11 43.01 20.1 43.01 20.09"/><polygon class="cls-1" points="44.59 18.97 44.7 19 44.54 18.97 44.47 18.9 44.47 18.88 44.59 18.97"/><path class="cls-1" d="M45.19,15.87l0,0a1.8,1.8,0,0,1-.94.34l-.07,0,0,.18.06.17h-.17c-.35,0-1.28.09-1.49.47a.43.43,0,0,0,0,.41l.06.14-.07-.14a.5.5,0,0,1,0-.43c.21-.38,1.14-.46,1.49-.46h.17l-.06-.18,0-.19.07,0A1.69,1.69,0,0,0,45.19,15.87Z"/><path class="cls-1" d="M46,18.17a.27.27,0,0,1-.11-.09l0-.07,0,0,0,0,.06.1,0,.08Z"/><path class="cls-1" d="M49.78,15.5l0,0-.14,0a14.92,14.92,0,0,0-2.69.77h0a2.63,2.63,0,0,1-.48,0A1.46,1.46,0,0,1,45.28,16a1.55,1.55,0,0,0,1.11.35l.46,0h0a15.26,15.26,0,0,1,2.69-.77l.18,0Z"/><path class="cls-1" d="M48,37h0a8.6,8.6,0,0,1-1.94-1.9.27.27,0,0,1,0-.26.27.27,0,0,0,0,.25A8.6,8.6,0,0,0,48,37Z"/><polygon class="cls-1" points="48.89 31.58 49.58 34.57 48.89 31.59 48.89 31.58"/><path class="cls-1" d="M48.64,22.15l.65-.36-.41-2.23.53-.36-.08-2.42h0a2.71,2.71,0,0,1,.61-1,3,3,0,0,0-.6,1h0l.09,2.42-.54.36.41,2.23-.65.36.56,2.51Z"/><path class="cls-1" d="M51,37l.18-.13a1.5,1.5,0,0,1-.2.14,4.22,4.22,0,0,0-.83-.7c-.49.31-1,.7-1,.7-.29-.18-.76-.86-.85-.84h0c.06-.09.55.64.86.83,0,0,.53-.4,1-.71A4.07,4.07,0,0,1,51,37Z"/><path class="cls-1" d="M52.6,36.71c-.19.16-.32.25-.36.24s-.14-.72-.23-.83,0,0-.06,0,.07,0,.08,0,.08.75.22.83S52.42,36.86,52.6,36.71Z"/><path class="cls-1" d="M53,36.35l-.22.21Z"/><path class="cls-1" d="M55,15.91a1.4,1.4,0,0,1-1.2.45,2.53,2.53,0,0,1-.47,0h0a14.66,14.66,0,0,0-2.69-.77l-.18,0,0,0,0,0h0l.19,0a13.45,13.45,0,0,1,2.68.77h0a2.69,2.69,0,0,0,.48,0A1.39,1.39,0,0,0,55,15.9Z"/><path class="cls-1" d="M55,18.81a.8.8,0,0,0,.44.22A.66.66,0,0,1,55,18.81Z"/><path class="cls-1" d="M56,16.25a1.45,1.45,0,0,1-.63-.15,1.46,1.46,0,0,0,.6.14l0,0v0Z"/><path class="cls-1" d="M56.09,16.57a3.84,3.84,0,0,1,.9.12,3.82,3.82,0,0,0-.85-.1H56v0Z"/><polygon class="cls-1" points="57.25 20.11 57.25 20.11 57.18 20.12 57.16 20.12 57.25 20.11"/><path class="cls-1" d="M59.42,20a1.33,1.33,0,0,0-.47-.79A1.24,1.24,0,0,1,59.42,20Z"/><path class="cls-1" d="M59.78,22.83h0c.46-.62-.37-1.84-.37-1.85l0-.06.05.06S60.25,22.22,59.78,22.83Z"/><path class="cls-1" d="M53.66,13.38v.13h0c0,.07,0,.34-.41.66a.84.84,0,0,0,.4-.65h0v-.14Z"/><path class="cls-1" d="M53.84,11.35l.08.18h0l-.08-.2a.2.2,0,0,0-.07-.1A.24.24,0,0,1,53.84,11.35Z"/><path class="cls-1" d="M55.22,10.62l.05.18h0l0-.2a.48.48,0,0,0-.06-.14S55.2,10.54,55.22,10.62Z"/><path class="cls-1" d="M57.83,10.83v0h0a1.09,1.09,0,0,0-.28-.37A1,1,0,0,1,57.83,10.83Z"/><path class="cls-1" d="M59,11.49a.65.65,0,0,0,0-.19A.41.41,0,0,1,59,11.49Z"/><path class="cls-1" d="M51.35,10.76h.06c-.22,1.2-.72,3-1,4l0,.11-.08.08,0-.14A41.8,41.8,0,0,0,51.35,10.76Z"/><path class="cls-1" d="M51.87,10.15a1.09,1.09,0,0,1,.31-.54A1.23,1.23,0,0,0,51.87,10.15Z"/><path class="cls-1" d="M52.2,12.32l.17-.09a1.54,1.54,0,0,1-.23.14l-.07,0h0l0,0Z"/><path class="cls-1" d="M52.52,9.65l-.07.18h0l.07-.17c.08-.21.41-.81.69-.83C52.92,8.86,52.6,9.43,52.52,9.65Z"/><path class="cls-1" d="M52.9,11.35a1,1,0,0,0,.36-.19,1,1,0,0,1-.4.24H52.8l.07,0Z"/><path class="cls-1" d="M53.78,8.71a.63.63,0,0,0-.2.17l-.09.1h0l.06-.08A.64.64,0,0,1,53.78,8.71Z"/><path class="cls-1" d="M53.73,10.37a3.34,3.34,0,0,0,1-.65l0,0a3.25,3.25,0,0,1-1.05.66h0v0Z"/><path class="cls-1" d="M55.23,9.31c-.14.21-.29.39-.43.41h0l0,0h0C55,9.66,55.1,9.5,55.23,9.31Z"/><polygon class="cls-1" points="49.4 7.81 49.54 7.89 49.23 7.84 49.31 7.78 49.4 7.81"/><polygon class="cls-1" points="51 7.84 50.92 7.79 50.82 7.82 50.69 7.89 50.82 7.81 50.92 7.78 51 7.84"/><path class="cls-1" d="M45.39,9.69c-.22,0-.51-.52-.66-.84a.37.37,0,0,1,.2-.17.31.31,0,0,0-.16.18A2,2,0,0,0,45.39,9.69Z"/><path class="cls-1" d="M45.82,8.84l-.07,0,.06-.06a.75.75,0,0,1,.41-.17.54.54,0,0,1,.38.17.53.53,0,0,0-.37-.15A.63.63,0,0,0,45.82,8.84Z"/><path class="cls-1" d="M47.19,11.29a1.18,1.18,0,0,1-.42-.36,1,1,0,0,1-.17-.43l0-.09-.07,0a3.34,3.34,0,0,1-1-.64l0,0h0l0,0a3.6,3.6,0,0,0,1.06.65l.07,0v.08a1,1,0,0,0,.16.44A1.27,1.27,0,0,0,47.19,11.29Z"/><path class="cls-1" d="M47,8.82a.38.38,0,0,1,.26.14A.37.37,0,0,0,47,8.84l-.17.07-.1.08V9l.09-.08Z"/><path class="cls-1" d="M47.67,12.06l.11.1L47.62,12a.64.64,0,0,1-.19-.42v-.07l0-.09v0h0l0,.05,0,.08v.09A.64.64,0,0,0,47.67,12.06Z"/><path class="cls-1" d="M48.09,9.63l-.06,0-.11.08-.13.16v0h0l.11-.15L48,9.6A.11.11,0,0,1,48.09,9.63Z"/><path class="cls-1" d="M48.51,13.61h0c-.58-.74-.38-1.09-.38-1.09l.07-.11h0v0l-.08.11S48,12.9,48.51,13.61Z"/><path class="cls-1" d="M48.85,10.72v0l-.11.07-.16.14v0l.14-.13Z"/><polygon class="cls-1" points="49.72 14.73 49.66 14.67 49.69 14.7 49.72 14.73"/><path class="cls-1" d="M41.29,11.48a2.34,2.34,0,0,0,1,.55,2.28,2.28,0,0,1-1-.55.4.4,0,0,1,0-.19.09.09,0,0,1,0,.05A.33.33,0,0,0,41.29,11.48Z"/><path class="cls-1" d="M43.35,10.41a.86.86,0,0,0-.24-.07.61.61,0,0,1,.25.07l.1.05h0Z"/><path class="cls-1" d="M43.5,12.16l.4,0a2.73,2.73,0,0,1-.41,0,3.16,3.16,0,0,1-1-.15h0l0,0A3.63,3.63,0,0,0,43.5,12.16Z"/><path class="cls-1" d="M45,12.73a1.14,1.14,0,0,1-1-.53l0-.07h0l0,.07A1.18,1.18,0,0,0,45,12.73Z"/><path class="cls-1" d="M44.65,10.5a2.05,2.05,0,0,0-.65-.36A2.05,2.05,0,0,1,44.65,10.5Z"/><path class="cls-1" d="M45.16,10.4s-.09,0-.12.18l-.06.2,0-.2C45.06,10.41,45.13,10.4,45.16,10.4Z"/><path class="cls-1" d="M45.37,12.8a.83.83,0,0,0,.15.26.75.75,0,0,1-.16-.27v0Z"/><path class="cls-1" d="M46.6,11.14a.22.22,0,0,0-.19.17l-.08.2h0l.08-.19A.22.22,0,0,1,46.6,11.14Z"/><path class="cls-1" d="M46.63,11.14h0Z"/><path class="cls-1" d="M46.56,13.51a.71.71,0,0,0,.19.43.72.72,0,0,1-.21-.45h0l0-.11v0h0v0l0,.11Z"/><path class="cls-1" d="M48.35,13.78l.06.05,0,0Z"/><path class="cls-1" d="M38.84,16.67a1.22,1.22,0,0,1,.28-.44A1.37,1.37,0,0,0,38.84,16.67Z"/><path class="cls-1" d="M40.53,14.51a1,1,0,0,1,0-.18.45.45,0,0,0,0,.16v.13h0Z"/><path class="cls-1" d="M40.39,16.91a4.72,4.72,0,0,0,1.52-.81h0a4.78,4.78,0,0,1-1.51.82h0l0,0a1.19,1.19,0,0,1-.83.22,1.13,1.13,0,0,0,.83-.24l0,0Z"/><path class="cls-1" d="M42.17,13.76c0-.13,0-.21,0-.25a.27.27,0,0,1,.08-.07.12.12,0,0,0,0,.05.38.38,0,0,0,0,.27l.06.18h0Z"/><path class="cls-1" d="M42.59,16.21a1.39,1.39,0,0,0,.52-.11,1.29,1.29,0,0,1-.54.12A1.22,1.22,0,0,1,42,16.1L42,16.05h0l.07,0A1.17,1.17,0,0,0,42.59,16.21Z"/><path class="cls-1" d="M43.9,15.91a.37.37,0,0,1-.14-.11l-.06-.08h0l.08.09S43.82,15.87,43.9,15.91Z"/><path class="cls-1" d="M44,13.32a.18.18,0,0,1,.07-.05s0,0,0,0a.35.35,0,0,0-.06.28l0,.21h0l0-.18A.37.37,0,0,1,44,13.32Z"/><path class="cls-1" d="M46.33,16.11c-.82,0-1-.42-1-.42l0-.13h0l0,.14S45.53,16.08,46.33,16.11Z"/><path class="cls-1" d="M49.37,15.34l-.31.05c-.57.13-1.2.33-1.64.48a12.5,12.5,0,0,1,1.67-.49l.27-.05Z"/><path class="cls-1" d="M33.35,34.22a10.59,10.59,0,0,0-3.53.63h-.05A10.62,10.62,0,0,1,33.35,34.22Z"/><path class="cls-1" d="M41.25,51.19c-1.7-.09-4-1.61-2.81-3.27a1.18,1.18,0,0,1,.73-.38,1.24,1.24,0,0,0-.72.38C37.3,49.58,39.56,51.09,41.25,51.19Z"/><path class="cls-1" d="M43.69,46.18a.64.64,0,0,0,.09.91.69.69,0,0,0,.45.19.67.67,0,0,1-.47-.19.63.63,0,0,1-.1-.91.52.52,0,0,1,.27-.17A.51.51,0,0,0,43.69,46.18Z"/><path class="cls-1" d="M44.4,47.26a.56.56,0,0,1,.06.45,3,3,0,0,1-2.34,1.17,2.94,2.94,0,0,0,2.31-1.17.58.58,0,0,0,0-.45Z"/><polygon class="cls-1" points="44.98 47.01 45.02 47.01 44.98 47.15 44.95 47.1 44.98 47.01"/><path class="cls-1" d="M45.39,49.76l.17-.13Z"/><path class="cls-1" d="M48.51,44c-1,1-2.12,2-3.18,3.15l0,0c1-1.13,2.11-2.16,3.16-3.13a73.5,73.5,0,0,0-6.35-4.87c-5.72-3.8-10.3-4.22-11.81-4.24,1.47,0,6.07.4,11.86,4.24A71.81,71.81,0,0,1,48.51,44Z"/><polygon class="cls-1" points="46.98 48.74 46.99 48.75 46.99 48.96 46.95 48.99 46.92 48.99 46.98 48.95 46.98 48.74"/><path class="cls-1" d="M47.69,49.44a.6.6,0,0,1-.07.68.62.62,0,0,1-.45.19.66.66,0,0,0,.44-.19A.63.63,0,0,0,47.69,49.44Z"/><polygon class="cls-1" points="53.24 48.96 53.24 48.96 53.3 48.99 53.29 48.99 53.24 48.96"/><path class="cls-1" d="M53.46,48.5c-.45-.44-1.67-1.63-3.34-3.11-1.68,1.51-2.92,2.7-3.36,3.13l0,0c.43-.42,1.66-1.62,3.36-3.14,1.7,1.51,2.93,2.72,3.36,3.14Z"/><path class="cls-1" d="M53.94,49.17l.09,0-.07,0c-.09,0-.14.19-.17.33a.73.73,0,0,1-.24.62.82.82,0,0,1-.5.19.8.8,0,0,0,.47-.19.74.74,0,0,0,.25-.62A.52.52,0,0,1,53.94,49.17Z"/><polygon class="cls-1" points="55.22 47.01 55.26 47.13 55.25 47.15 55.21 47.01 55.22 47.01"/><path class="cls-1" d="M58.09,48.88a2.94,2.94,0,0,1-2.33-1.17.53.53,0,0,1,.05-.45h0a.56.56,0,0,0-.06.45A3,3,0,0,0,58.09,48.88Z"/><path class="cls-1" d="M56.43,47.09a.65.65,0,0,0,.11-.91.56.56,0,0,0-.43-.19.56.56,0,0,1,.45.19.66.66,0,0,1-.11.91.76.76,0,0,1-.42.19A.74.74,0,0,0,56.43,47.09Z"/><path class="cls-1" d="M54.91,47.1h0C53.84,46,52.77,44.92,51.72,44a68.57,68.57,0,0,1,6.34-4.87,33.6,33.6,0,0,1,3.2-1.85,31.12,31.12,0,0,0-3.18,1.85A70.55,70.55,0,0,0,51.73,44C52.79,44.92,53.85,46,54.91,47.1Z"/><path class="cls-1" d="M59.12,36.09a16.58,16.58,0,0,1,7.26-1.87,16.6,16.6,0,0,0-7.22,1.88,59.21,59.21,0,0,0-9,6.43l0,0A58.75,58.75,0,0,1,59.12,36.09Z"/><path class="cls-1" d="M61.78,47.92c1.14,1.66-1.12,3.17-2.81,3.27,1.69-.11,3.93-1.61,2.79-3.27a1.24,1.24,0,0,0-.72-.39A1.23,1.23,0,0,1,61.78,47.92Z"/><path class="cls-1" d="M70.39,34.85h0Z"/><path class="cls-1" d="M4.76,81.46c0-.6-.67-1.28-1.89-2a18.77,18.77,0,0,0-1.32,1.78,1.25,1.25,0,0,0-.13.54c0,.56.32.84,1,.84a5,5,0,0,0,1.91-.42.81.81,0,0,0,.44-.72m.73-7-.82,1.35L2.76,74.64l-.58,1.08-2-1.18L1,73.1l1.87,1.19.65-1.07Zm.59,6a5.66,5.66,0,0,1-.69,2,4.57,4.57,0,0,1-1,1,4.3,4.3,0,0,1-2.2.87,2.88,2.88,0,0,1-1.45-.18A1.16,1.16,0,0,1,0,83.05c0-.79.62-2,1.87-3.61l1.59-2.09a6,6,0,0,0,1,.88,11.42,11.42,0,0,1,1,.76,1.83,1.83,0,0,1,.65,1.43"/><path class="cls-1" d="M13.9,83.49a6.94,6.94,0,0,1-1.48,3.94,3.59,3.59,0,0,1-2.81,1.92,8.25,8.25,0,0,1-2.46-.64c-1.24-.48-1.87-.86-1.87-1.17l.14-.14a10.08,10.08,0,0,1,1.08.41,4.93,4.93,0,0,0,1.63.41c.9,0,2-.61,3.24-1.83s1.88-2.27,1.88-3.17c0-.65-.76-1.52-2.29-2.63.08-.38.24-1.07.45-2.1a7.43,7.43,0,0,1,1.73,1.78,6.47,6.47,0,0,1,.76,3.22"/><path class="cls-1" d="M20.37,84.36H17q-.34-6.23-.87-11.87c.23-.33.61-.83,1.12-1.52l.55,6.52a37.37,37.37,0,0,0,.56,4.7l.16.17a1.2,1.2,0,0,0,.91.27h.89v1.73Z"/><rect class="cls-1" x="19.77" y="82.63" width="3.36" height="1.73"/><rect class="cls-1" x="22.69" y="82.63" width="3.38" height="1.73"/><path class="cls-1" d="M34.43,87.72l-.83,1.4-1.89-1.19.85-1.33Zm5.37-3.36H35.12c-.41,0-.69-.31-.85-.94-.05-.2-.12-.66-.22-1.41a5.77,5.77,0,0,1-1.06.8,7.49,7.49,0,0,0-1.07.78,2.71,2.71,0,0,1-2,.77H25.68V82.63H30a7,7,0,0,0,4.2-1.89c-.67-.14-1.66-.35-3-.61l-.94-.2a3.66,3.66,0,0,0-1.93.88l0-.07a2.09,2.09,0,0,1,.19-.76c.55-1.29,1.33-1.92,2.35-1.92a10.7,10.7,0,0,1,2.75.56,16.9,16.9,0,0,0,4.15.84h.58l.61,0c-.14.39-.4,1-.75,1.78-.15,0-.35,0-.62,0a6.37,6.37,0,0,0-2.8.5,1,1,0,0,0,.44.84l.18.11h4.4v1.72Z"/><path class="cls-1" d="M45.3,75.1l-.83,1.37-1.92-1.16-.61,1.07-2-1.16.83-1.43L42.66,75l.63-1.07ZM46,84.36H45a1.28,1.28,0,0,1-.7-.24,1.3,1.3,0,0,1-.29-.44c-.12-.22-.19-.35-.23-.36s-.2.17-.39.52-.36.52-.47.52h-3.5V82.63h4.51l0-2.28a24.19,24.19,0,0,1,1.56-1.88l0,.19a19,19,0,0,1-.4,3.25,4,4,0,0,0-.07.51c0,.13.13.2.35.2H46v1.74Z"/><path class="cls-1" d="M51.47,73.39l-1,2-.25-.07.57,5.8A12.35,12.35,0,0,1,50.57,83c-.17.9-.34,1.36-.51,1.36H45.51V82.63h4.28s.07-.14.07-.41a64,64,0,0,0-1-7.76l-.13,0a.59.59,0,0,1-.32-.5,1.05,1.05,0,0,1,.11-.43l.9-1.56c.17-.31.3-.42.38-.35l.16.17-.09.3-.1.28a.31.31,0,0,0,.2.26c.52.29,1,.55,1.51.81"/><path class="cls-1" d="M55.84,82.05a9.73,9.73,0,0,1-.8,3C54.77,82,54.42,78.3,54,74c-.06-.48.38-1.47,1.29-3,.07.11.2,2,.37,5.58Z"/><path class="cls-1" d="M68.17,81.46c0-.6-.66-1.28-1.89-2A20.69,20.69,0,0,0,65,81.22a1.25,1.25,0,0,0-.13.54q0,.84,1,.84a5,5,0,0,0,1.91-.42.85.85,0,0,0,.44-.72m.71-7-.81,1.35-1.92-1.15-.57,1.08-2-1.18.85-1.44,1.87,1.19.64-1.07Zm.59,6a5.71,5.71,0,0,1-.67,2,5.06,5.06,0,0,1-1,1,4.3,4.3,0,0,1-2.2.87,2.88,2.88,0,0,1-1.45-.18,1.16,1.16,0,0,1-.77-1.13c0-.79.62-2,1.87-3.61l1.59-2.09a6,6,0,0,0,1,.88,8.76,8.76,0,0,1,1,.76,1.88,1.88,0,0,1,.63,1.43"/><path class="cls-1" d="M77.3,83.49a7,7,0,0,1-1.48,3.94C74.93,88.72,74,89.35,73,89.35a8.29,8.29,0,0,1-2.47-.64c-1.23-.48-1.87-.86-1.87-1.17l.14-.14a9,9,0,0,1,1.09.41,4.89,4.89,0,0,0,1.61.41c.91,0,2-.61,3.24-1.83s1.89-2.27,1.89-3.17c0-.65-.76-1.52-2.31-2.63.08-.38.24-1.07.46-2.1a7.85,7.85,0,0,1,1.73,1.78,6.17,6.17,0,0,1,.78,3.22"/><path class="cls-1" d="M81.79,82.05A9.36,9.36,0,0,1,81,85C80.7,82,80.35,78.3,79.89,74c-.06-.48.38-1.47,1.29-3,.07.11.18,2,.37,5.58Z"/><path class="cls-1" d="M88.54,74.86l-.83,1.41-2-1.18.85-1.38Zm2.17,8.63a7,7,0,0,1-1.48,3.94c-.89,1.29-1.83,1.92-2.82,1.92A8.32,8.32,0,0,1,84,88.71c-1.24-.48-1.85-.86-1.85-1.17l.14-.14a10.65,10.65,0,0,1,1.09.41,4.83,4.83,0,0,0,1.62.41q1.33,0,3.24-1.83c1.25-1.21,1.88-2.27,1.88-3.17,0-.65-.76-1.52-2.29-2.63.08-.38.24-1.07.45-2.1A7.43,7.43,0,0,1,90,80.27a6.47,6.47,0,0,1,.75,3.22"/><path class="cls-1" d="M97.71,81.73a2.49,2.49,0,0,0-.35-1.2,1.18,1.18,0,0,0-.93-.71,1.22,1.22,0,0,0-.88.5,1.38,1.38,0,0,0-.5.9c0,.28.23.5.64.65a2.43,2.43,0,0,0,1,.18,1.35,1.35,0,0,0,1.07-.32m1.27.21a10.37,10.37,0,0,1-1,4.54,7.32,7.32,0,0,1-1.38,2,2.73,2.73,0,0,1-2.06,1,23.7,23.7,0,0,1-2.42-.4c-1.31-.28-2-.53-2-.76s.08-.18.25-.18a5.41,5.41,0,0,1,1.14.2,5.68,5.68,0,0,0,1.15.19,2.53,2.53,0,0,0,.76-.11,9.52,9.52,0,0,0,3.2-2.09,4.33,4.33,0,0,0,1.63-3,3.23,3.23,0,0,0-.14-1.07A3.17,3.17,0,0,1,97,83.77a2.31,2.31,0,0,1-1.21.14,1.29,1.29,0,0,1-1.06-.82,3.11,3.11,0,0,1-.31-1.37,5,5,0,0,1,.91-2.35c.66-1.07,1.25-1.61,1.74-1.61s.75.45,1.21,1.34A6.16,6.16,0,0,1,99,81.94"/><polygon class="cls-1" points="1.48 92.89 3.59 98.44 5.73 92.89 7.13 92.89 7.13 100.27 5.91 100.27 5.91 95.18 3.95 100.27 3.15 100.27 1.28 95.18 1.28 100.27 0.06 100.27 0.06 92.89 1.48 92.89"/><path class="cls-1" d="M8.12,100.27H9.33V94.94H8.12Zm0-6.33H9.33v-1H8.12Z"/><path class="cls-1" d="M10.19,94.94h1.22v.44a2.32,2.32,0,0,1,.76-.4,2.92,2.92,0,0,1,.83-.12,2.58,2.58,0,0,1,.76.11,1.36,1.36,0,0,1,.55.32,1.41,1.41,0,0,1,.35.51,1.78,1.78,0,0,1,.13.67v3.79H13.56v-3.7a1,1,0,0,0-.18-.69.71.71,0,0,0-.53-.2,1.6,1.6,0,0,0-.57.11,2.11,2.11,0,0,0-.45.31,2.39,2.39,0,0,0-.31.45,1.35,1.35,0,0,0-.11.52v3.18H10.19Z"/><path class="cls-1" d="M15.73,100.27h1.21V94.94H15.73Zm0-6.33h1.21v-1H15.73Z"/><path class="cls-1" d="M19.05,98.5a1.38,1.38,0,0,0,.08.48,1.07,1.07,0,0,0,.22.32l.29.18a.92.92,0,0,0,.38.06l.35,0a1.13,1.13,0,0,0,.34-.11l.25-.22a.61.61,0,0,0,.1-.36.49.49,0,0,0-.1-.32l-.25-.24a1.15,1.15,0,0,0-.37-.17c-.14,0-.28-.11-.43-.15l-.69-.26a2.91,2.91,0,0,1-.61-.31,1.84,1.84,0,0,1-.45-.43,1.16,1.16,0,0,1-.17-.63,1.22,1.22,0,0,1,.17-.64,1.61,1.61,0,0,1,.45-.45,2.2,2.2,0,0,1,.65-.25,3.38,3.38,0,0,1,1.59,0,2.09,2.09,0,0,1,.66.28,1.35,1.35,0,0,1,.45.5,1.64,1.64,0,0,1,.19.7H20.92a1.44,1.44,0,0,0-.11-.35l-.2-.23-.28-.12-.32,0a1,1,0,0,0-.59.15.53.53,0,0,0-.2.43l.1.3.25.23A1.91,1.91,0,0,0,20,97a2.85,2.85,0,0,0,.44.16l.67.25a4,4,0,0,1,.62.32,2,2,0,0,1,.45.43,1,1,0,0,1,.17.56,1.64,1.64,0,0,1-.18.76,1.55,1.55,0,0,1-.51.51,2.85,2.85,0,0,1-.73.29,4.07,4.07,0,0,1-.87.1,3.35,3.35,0,0,1-.85-.11,2.14,2.14,0,0,1-.69-.35,2.25,2.25,0,0,1-.48-.58,1.94,1.94,0,0,1-.19-.82h1.25Z"/><path class="cls-1" d="M24.72,93.41v1.53h.8v.83h-.8V99a.63.63,0,0,0,.1.41l.25.11.18,0a3.41,3.41,0,0,0,.4-.07v.8a4.08,4.08,0,0,1-.45.1,2.18,2.18,0,0,1-.42,0,2.42,2.42,0,0,1-.48-.06,1,1,0,0,1-.41-.18.87.87,0,0,1-.28-.34,1.12,1.12,0,0,1-.1-.5V95.77h-.8v-.83h.8V93.41Z"/><path class="cls-1" d="M26.34,94.94h1.08l.07.48A1.48,1.48,0,0,1,28,95a1.39,1.39,0,0,1,.62-.16l.26,0,.33.08v1a3.08,3.08,0,0,0-.61-.18.83.83,0,0,0-.43.1,1.12,1.12,0,0,0-.33.28,1.2,1.2,0,0,0-.19.41,1.57,1.57,0,0,0-.07.49v3.19H26.37v-5.3Z"/><path class="cls-1" d="M31.88,98.58l1.25-3.64H34.4l-2.27,6.42a1.72,1.72,0,0,1-.28.54,1.34,1.34,0,0,1-.35.36,1,1,0,0,1-.38.19,1.09,1.09,0,0,1-.39.06,1.42,1.42,0,0,1-.35,0,1.16,1.16,0,0,1-.43-.13v-.9l.19.07.19.08.19.05.11,0,.14-.07.13-.2.09-.24.08-.23.22-.71-2-5.28h1.3Z"/><path class="cls-1" d="M38.23,97.6a2.27,2.27,0,0,0,.1.75,1.91,1.91,0,0,0,.26.6,1.26,1.26,0,0,0,.42.41,1.1,1.1,0,0,0,.57.15,1.07,1.07,0,0,0,.56-.15,1.18,1.18,0,0,0,.42-.41,2,2,0,0,0,.28-.6,2.57,2.57,0,0,0,.1-.75,2.48,2.48,0,0,0-.1-.73,1.49,1.49,0,0,0-.28-.61,1.15,1.15,0,0,0-1-.56,1.24,1.24,0,0,0-.57.15,1.37,1.37,0,0,0-.42.41,1.68,1.68,0,0,0-.26.61,2.19,2.19,0,0,0-.1.73m-1.21,0a3.16,3.16,0,0,1,.17-1.07,2.81,2.81,0,0,1,.49-.88,2.06,2.06,0,0,1,.8-.59,2.43,2.43,0,0,1,1.1-.23,2.34,2.34,0,0,1,1.09.23,2.13,2.13,0,0,1,.82.59,2.75,2.75,0,0,1,.51.88,3.43,3.43,0,0,1,.17,1.07A3.33,3.33,0,0,1,42,98.68a2.4,2.4,0,0,1-.51.88,2.24,2.24,0,0,1-.82.59,2.68,2.68,0,0,1-1.09.22,2.54,2.54,0,0,1-1.1-.22,2.35,2.35,0,0,1-.8-.59,2.38,2.38,0,0,1-.49-.88A2.86,2.86,0,0,1,37,97.61"/><path class="cls-1" d="M43.57,94.94V93.76a1.06,1.06,0,0,1,.35-.78,1.58,1.58,0,0,1,.43-.22,1.63,1.63,0,0,1,.55-.08,1.41,1.41,0,0,1,.42.07,1.67,1.67,0,0,1,.45.21v.8l-.44-.17-.18-.07-.25.08a.38.38,0,0,0-.1.3v1h.9v.86h-.9v4.47H43.57V95.8h-.88v-.86Z"/><path class="cls-1" d="M49.89,96.47a4.5,4.5,0,0,0,.2,1.4,2.82,2.82,0,0,0,.5,1,2.2,2.2,0,0,0,.72.58,1.84,1.84,0,0,0,.82.18,1.6,1.6,0,0,0,.76-.17,1.82,1.82,0,0,0,.59-.45,2.29,2.29,0,0,0,.42-.64,3.23,3.23,0,0,0,.25-.74h1.24A3.8,3.8,0,0,1,55,98.73a3.57,3.57,0,0,1-.67.91,3.35,3.35,0,0,1-1,.6,3.11,3.11,0,0,1-1.24.23,3.53,3.53,0,0,1-1.42-.28,3,3,0,0,1-1.09-.79,3.77,3.77,0,0,1-.7-1.27,5.41,5.41,0,0,1-.24-1.68,4.41,4.41,0,0,1,.1-1,4.79,4.79,0,0,1,.31-.9,3.19,3.19,0,0,1,.49-.78,3.61,3.61,0,0,1,.68-.61,3.19,3.19,0,0,1,.85-.41,3.31,3.31,0,0,1,1-.14,3.72,3.72,0,0,1,1.24.18,3.45,3.45,0,0,1,1,.51,2.62,2.62,0,0,1,.68.77,3.83,3.83,0,0,1,.42,1H54.17a2.61,2.61,0,0,0-.79-1.21,2,2,0,0,0-1.27-.4,1.67,1.67,0,0,0-.9.24,2.53,2.53,0,0,0-.7.65,2.65,2.65,0,0,0-.45.94,3.49,3.49,0,0,0-.17,1.15"/><path class="cls-1" d="M57.39,97.6a2.57,2.57,0,0,0,.1.75,1.91,1.91,0,0,0,.26.6,1.29,1.29,0,0,0,.43.41,1.12,1.12,0,0,0,1.12,0,1.18,1.18,0,0,0,.42-.41,1.56,1.56,0,0,0,.27-.6,2.57,2.57,0,0,0,.1-.75,2.48,2.48,0,0,0-.1-.73,1.62,1.62,0,0,0-.27-.61,1.15,1.15,0,0,0-1-.56,1.2,1.2,0,0,0-.56.15,1.4,1.4,0,0,0-.43.41,1.87,1.87,0,0,0-.26.61,2.48,2.48,0,0,0-.1.73m-1.21,0a3.43,3.43,0,0,1,.17-1.07,2.81,2.81,0,0,1,.49-.88,2.06,2.06,0,0,1,.8-.59,2.77,2.77,0,0,1,2.21,0,2.06,2.06,0,0,1,.8.59,2.42,2.42,0,0,1,.51.88,3.43,3.43,0,0,1,.17,1.07,3.33,3.33,0,0,1-.17,1.07,2.27,2.27,0,0,1-.51.88,2.35,2.35,0,0,1-.8.59,2.75,2.75,0,0,1-1.11.22,2.54,2.54,0,0,1-1.1-.22,2.45,2.45,0,0,1-.8-.59,2.53,2.53,0,0,1-.49-.88,2.86,2.86,0,0,1-.17-1.07"/><path class="cls-1" d="M62.14,94.94h1.21v.39A2.23,2.23,0,0,1,64,95a2.67,2.67,0,0,1,.71-.11,1.93,1.93,0,0,1,.74.16,1.65,1.65,0,0,1,.64.53,1.19,1.19,0,0,1,.35-.32A4.36,4.36,0,0,1,66.9,95a2.5,2.5,0,0,1,.45-.12,2.37,2.37,0,0,1,.44,0,2.21,2.21,0,0,1,.74.13,1.74,1.74,0,0,1,.59.35,2.1,2.1,0,0,1,.38.52,1.44,1.44,0,0,1,.14.65v3.78H68.43V96.7a1.34,1.34,0,0,0-.07-.49.85.85,0,0,0-.18-.31l-.25-.16-.28,0a.9.9,0,0,0-.41.09,1,1,0,0,0-.35.29,1.25,1.25,0,0,0-.26.42,1.21,1.21,0,0,0-.1.52v3.26H65.32V96.7a1.34,1.34,0,0,0-.07-.49.73.73,0,0,0-.18-.31l-.24-.16-.25,0a1,1,0,0,0-.48.12,1.37,1.37,0,0,0-.38.34,1.29,1.29,0,0,0-.25.44,1.42,1.42,0,0,0-.1.46v3.21H62.16V94.94Z"/><path class="cls-1" d="M70.54,94.94h1.21v.39a2.23,2.23,0,0,1,.69-.38,2.67,2.67,0,0,1,.71-.11,1.93,1.93,0,0,1,.74.16,1.65,1.65,0,0,1,.64.53,1.19,1.19,0,0,1,.35-.32A2.82,2.82,0,0,1,75.3,95a3.08,3.08,0,0,1,.89-.17,2.21,2.21,0,0,1,.74.13,1.74,1.74,0,0,1,.59.35,2.1,2.1,0,0,1,.38.52,1.44,1.44,0,0,1,.14.65v3.78H76.83V96.7a1.59,1.59,0,0,0-.07-.49.85.85,0,0,0-.18-.31l-.25-.16-.28,0a.85.85,0,0,0-.41.09,1,1,0,0,0-.35.29,1.25,1.25,0,0,0-.26.42,1.21,1.21,0,0,0-.1.52v3.26H73.72V96.7a1.34,1.34,0,0,0-.07-.49,1,1,0,0,0-.18-.31l-.24-.16-.25,0a1,1,0,0,0-.48.12,1.37,1.37,0,0,0-.38.34,1.29,1.29,0,0,0-.25.44,1.42,1.42,0,0,0-.1.46v3.21H70.54Z"/><path class="cls-1" d="M82.77,97.08a2.33,2.33,0,0,0-.11-.55,1.62,1.62,0,0,0-.27-.44A1.22,1.22,0,0,0,82,95.8a1.29,1.29,0,0,0-.53-.1,1.17,1.17,0,0,0-.49.11,1.08,1.08,0,0,0-.4.3,1.73,1.73,0,0,0-.27.43,1.58,1.58,0,0,0-.12.54Zm-2.59.76a2.61,2.61,0,0,0,.13.63,2,2,0,0,0,.28.55,1.35,1.35,0,0,0,.41.38.88.88,0,0,0,.5.14,1.3,1.3,0,0,0,1.28-1h1.14a1.86,1.86,0,0,1-.32.79,2.57,2.57,0,0,1-.55.59,2.45,2.45,0,0,1-.72.37,2.69,2.69,0,0,1-.81.13,2.44,2.44,0,0,1-1.07-.23,2.38,2.38,0,0,1-.82-.62,2.89,2.89,0,0,1-.52-.91,3.28,3.28,0,0,1-.18-1.09,3.17,3.17,0,0,1,.18-1,2.65,2.65,0,0,1,.51-.86,2.18,2.18,0,0,1,.81-.59,2.39,2.39,0,0,1,1.07-.23,2.73,2.73,0,0,1,1,.2,2.39,2.39,0,0,1,.78.53,2.51,2.51,0,0,1,.51.83,3.09,3.09,0,0,1,.17,1v.38H80.18Z"/><path class="cls-1" d="M84.78,94.94h1.09l.07.48a1.54,1.54,0,0,1,.5-.42,1.39,1.39,0,0,1,.62-.16l.27,0,.32.08v1a3.08,3.08,0,0,0-.6-.18.89.89,0,0,0-.44.1,1,1,0,0,0-.32.28,1,1,0,0,0-.2.41,1.32,1.32,0,0,0-.07.49v3.19H84.81v-5.3Z"/><path class="cls-1" d="M91.79,96.7a1.49,1.49,0,0,0-.41-.77.93.93,0,0,0-.66-.23,1.09,1.09,0,0,0-.54.15,1.28,1.28,0,0,0-.39.41,1.89,1.89,0,0,0-.25.58,2.61,2.61,0,0,0-.09.69,3,3,0,0,0,.09.74,2.2,2.2,0,0,0,.25.65,1.43,1.43,0,0,0,.39.45.9.9,0,0,0,.53.17.77.77,0,0,0,.4-.1l.31-.26a2,2,0,0,0,.23-.4c0-.15.1-.31.14-.48h1.28a3.42,3.42,0,0,1-.24.89,2.52,2.52,0,0,1-.49.66,2.24,2.24,0,0,1-.72.42,2.71,2.71,0,0,1-.93.14,2.26,2.26,0,0,1-1.1-.25,2.32,2.32,0,0,1-.76-.66,3.17,3.17,0,0,1-.43-.93,4,4,0,0,1-.14-1,2.85,2.85,0,0,1,.18-1.06,2.56,2.56,0,0,1,.51-.84,2.46,2.46,0,0,1,1.81-.78,3.09,3.09,0,0,1,.9.14,2.46,2.46,0,0,1,.68.38,2,2,0,0,1,.46.58,2.8,2.8,0,0,1,.27.73H91.79Z"/><path class="cls-1" d="M97.67,97.08a2.33,2.33,0,0,0-.11-.55,1.62,1.62,0,0,0-.27-.44,1.22,1.22,0,0,0-.41-.29,1.29,1.29,0,0,0-.53-.1,1.25,1.25,0,0,0-.5.11,1.14,1.14,0,0,0-.39.3,1.73,1.73,0,0,0-.27.43,1.58,1.58,0,0,0-.12.54Zm-2.59.76a2.61,2.61,0,0,0,.13.63,2,2,0,0,0,.28.55,1.63,1.63,0,0,0,.41.38.88.88,0,0,0,.5.14,1.3,1.3,0,0,0,1.28-1h1.14a2,2,0,0,1-.32.79,2.57,2.57,0,0,1-.55.59,2.45,2.45,0,0,1-.72.37,2.75,2.75,0,0,1-.81.13,2.44,2.44,0,0,1-1.07-.23,2.29,2.29,0,0,1-.82-.62,2.55,2.55,0,0,1-.52-.91,3.28,3.28,0,0,1-.18-1.09,2.92,2.92,0,0,1,.18-1,3.06,3.06,0,0,1,.51-.86,2.18,2.18,0,0,1,.81-.59,2.39,2.39,0,0,1,1.07-.23,2.64,2.64,0,0,1,1,.2,2.34,2.34,0,0,1,.79.53,2.51,2.51,0,0,1,.51.83,3.09,3.09,0,0,1,.18,1v.38H95.08Z"/></g></g></svg>