<svg xmlns="http://www.w3.org/2000/svg" xmlns:xlink="http://www.w3.org/1999/xlink" viewBox="0 0 248.61 88.65"><defs><style>.cls-1{fill:#c9c9c9;}.cls-2{clip-path:url(#clip-path);}.cls-3{clip-path:url(#clip-path-2);}.cls-4{clip-path:url(#clip-path-3);}.cls-5{clip-path:url(#clip-path-4);}.cls-6{clip-path:url(#clip-path-5);}.cls-7{clip-path:url(#clip-path-6);}.cls-8{clip-path:url(#clip-path-7);}.cls-9{clip-path:url(#clip-path-8);}.cls-10{clip-path:url(#clip-path-9);}.cls-11{clip-path:url(#clip-path-10);}.cls-12{clip-path:url(#clip-path-11);}.cls-13{clip-path:url(#clip-path-12);}.cls-14{clip-path:url(#clip-path-13);}.cls-15{clip-path:url(#clip-path-14);}.cls-16{clip-path:url(#clip-path-15);}.cls-17{clip-path:url(#clip-path-16);}.cls-18{clip-path:url(#clip-path-17);}.cls-19{clip-path:url(#clip-path-18);}.cls-20{clip-path:url(#clip-path-19);}.cls-21{clip-path:url(#clip-path-20);}.cls-22{clip-path:url(#clip-path-21);}.cls-23{clip-path:url(#clip-path-22);}.cls-24{clip-path:url(#clip-path-23);}.cls-25{clip-path:url(#clip-path-24);}.cls-26{clip-path:url(#clip-path-25);}.cls-27{clip-path:url(#clip-path-26);}.cls-28{clip-path:url(#clip-path-27);}.cls-29{clip-path:url(#clip-path-28);}.cls-30{clip-path:url(#clip-path-29);}.cls-31{clip-path:url(#clip-path-30);}.cls-32{clip-path:url(#clip-path-31);}.cls-33{clip-path:url(#clip-path-32);}.cls-34{clip-path:url(#clip-path-33);}.cls-35{clip-path:url(#clip-path-34);}.cls-36{clip-path:url(#clip-path-35);}.cls-37{clip-path:url(#clip-path-36);}.cls-38{clip-path:url(#clip-path-37);}.cls-39{clip-path:url(#clip-path-38);}.cls-40{clip-path:url(#clip-path-39);}.cls-41{clip-path:url(#clip-path-40);}.cls-42{clip-path:url(#clip-path-41);}.cls-43{clip-path:url(#clip-path-42);}.cls-44{clip-path:url(#clip-path-43);}.cls-45{clip-path:url(#clip-path-44);}.cls-46{clip-path:url(#clip-path-45);}.cls-47{clip-path:url(#clip-path-46);}.cls-48{clip-path:url(#clip-path-47);}.cls-49{clip-path:url(#clip-path-48);}.cls-50{clip-path:url(#clip-path-49);}.cls-51{clip-path:url(#clip-path-50);}.cls-52{clip-path:url(#clip-path-51);}.cls-53{clip-path:url(#clip-path-52);}.cls-54{clip-path:url(#clip-path-53);}.cls-55{clip-path:url(#clip-path-54);}</style><clipPath id="clip-path" transform="translate(3.62 0.46)"><polygon class="cls-1" points="77.92 22.8 77.92 31.45 70.42 27.12 77.92 22.8"/></clipPath><clipPath id="clip-path-2" transform="translate(3.62 0.46)"><polygon class="cls-1" points="77.54 53.43 77.54 62.08 70.05 57.75 77.54 53.43"/></clipPath><clipPath id="clip-path-3" transform="translate(3.62 0.46)"><polygon class="cls-1" points="74.25 50.54 66.76 54.87 66.76 46.22 74.25 50.54"/></clipPath><clipPath id="clip-path-4" transform="translate(3.62 0.46)"><polygon class="cls-1" points="78.93 38.56 78.93 47.21 71.44 42.89 78.93 38.56"/></clipPath><clipPath id="clip-path-5" transform="translate(3.62 0.46)"><polygon class="cls-1" points="61.77 61.98 61.77 70.63 54.28 66.31 61.77 61.98"/></clipPath><clipPath id="clip-path-6" transform="translate(3.62 0.46)"><polygon class="cls-1" points="63.01 56.31 53.02 50.55 63.01 44.78 63.01 56.31"/></clipPath><clipPath id="clip-path-7" transform="translate(3.62 0.46)"><polygon class="cls-1" points="63.01 57.75 53.03 63.52 53.03 51.99 63.01 57.75"/></clipPath><clipPath id="clip-path-8" transform="translate(3.62 0.46)"><polygon class="cls-1" points="63.01 43.34 53.02 49.1 53.02 37.57 63.01 43.34"/></clipPath><clipPath id="clip-path-9" transform="translate(3.62 0.46)"><polygon class="cls-1" points="63.78 76.67 56.3 80.99 56.3 72.34 63.78 76.67"/></clipPath><clipPath id="clip-path-10" transform="translate(3.62 0.46)"><polygon class="cls-1" points="51.77 50.55 39.3 43.34 51.77 36.13 51.77 50.55"/></clipPath><clipPath id="clip-path-11" transform="translate(3.62 0.46)"><polygon class="cls-1" points="50.53 66.59 40.55 72.36 40.55 60.83 50.53 66.59"/></clipPath><clipPath id="clip-path-12" transform="translate(3.62 0.46)"><polygon class="cls-1" points="41.79 85.04 49.28 80.72 41.79 76.39 41.79 85.04"/></clipPath><clipPath id="clip-path-13" transform="translate(3.62 0.46)"><polygon class="cls-1" points="76.34 67.35 68.86 71.68 68.86 63.03 76.34 67.35"/></clipPath><clipPath id="clip-path-14" transform="translate(3.62 0.46)"><polygon class="cls-1" points="74.25 36.13 66.76 40.46 66.76 31.81 74.25 36.13"/></clipPath><clipPath id="clip-path-15" transform="translate(3.62 0.46)"><polygon class="cls-1" points="63.01 30.37 63.01 41.9 53.02 36.13 63.01 30.37"/></clipPath><clipPath id="clip-path-16" transform="translate(3.62 0.46)"><polygon class="cls-1" points="49.28 68.57 49.28 77.22 41.79 72.89 49.28 68.57"/></clipPath><clipPath id="clip-path-17" transform="translate(3.62 0.46)"><polygon class="cls-1" points="50.53 65.15 40.55 59.39 50.53 53.62 50.53 65.15"/></clipPath><clipPath id="clip-path-18" transform="translate(3.62 0.46)"><polygon class="cls-1" points="39.3 43.34 51.77 50.55 39.3 57.75 39.3 43.34"/></clipPath><clipPath id="clip-path-19" transform="translate(3.62 0.46)"><polygon class="cls-1" points="75.59 18.57 68.11 22.89 68.11 14.24 75.59 18.57"/></clipPath><clipPath id="clip-path-20" transform="translate(3.62 0.46)"><polygon class="cls-1" points="63.32 5.95 55.84 10.28 55.84 1.63 63.32 5.95"/></clipPath><clipPath id="clip-path-21" transform="translate(3.62 0.46)"><polygon class="cls-1" points="63.01 28.92 53.02 34.69 53.02 23.16 63.01 28.92"/></clipPath><clipPath id="clip-path-22" transform="translate(3.62 0.46)"><polygon class="cls-1" points="49.28 15.86 41.79 11.53 49.28 7.21 49.28 15.86"/></clipPath><clipPath id="clip-path-23" transform="translate(3.62 0.46)"><polygon class="cls-1" points="50.53 21.53 50.53 33.06 40.55 27.29 50.53 21.53"/></clipPath><clipPath id="clip-path-24" transform="translate(3.62 0.46)"><polygon class="cls-1" points="39.3 28.92 39.3 43.34 26.82 36.13 39.3 28.92"/></clipPath><clipPath id="clip-path-25" transform="translate(3.62 0.46)"><polygon class="cls-1" points="38.05 25.85 28.06 20.08 38.05 14.32 38.05 25.85"/></clipPath><clipPath id="clip-path-26" transform="translate(3.62 0.46)"><polygon class="cls-1" points="36.8 0 29.31 4.32 36.8 8.65 36.8 0"/></clipPath><clipPath id="clip-path-27" transform="translate(3.62 0.46)"><polygon class="cls-1" points="25.56 34.69 15.58 28.92 25.56 23.16 25.56 34.69"/></clipPath><clipPath id="clip-path-28" transform="translate(3.62 0.46)"><polygon class="cls-1" points="21.55 6.58 21.55 15.23 14.06 10.9 21.55 6.58"/></clipPath><clipPath id="clip-path-29" transform="translate(3.62 0.46)"><polygon class="cls-1" points="61.77 24.7 54.27 20.37 61.77 16.04 61.77 24.7"/></clipPath><clipPath id="clip-path-30" transform="translate(3.62 0.46)"><polygon class="cls-1" points="41.79 0 41.79 8.65 49.28 4.32 41.79 0"/></clipPath><clipPath id="clip-path-31" transform="translate(3.62 0.46)"><polygon class="cls-1" points="50.53 20.08 40.55 25.85 40.55 14.32 50.53 20.08"/></clipPath><clipPath id="clip-path-32" transform="translate(3.62 0.46)"><polygon class="cls-1" points="51.77 36.13 39.3 43.34 39.3 28.92 51.77 36.13"/></clipPath><clipPath id="clip-path-33" transform="translate(3.62 0.46)"><polygon class="cls-1" points="36.8 13.97 29.31 18.3 29.31 9.65 36.8 13.97"/></clipPath><clipPath id="clip-path-34" transform="translate(3.62 0.46)"><polygon class="cls-1" points="38.05 27.29 28.06 33.06 28.06 21.53 38.05 27.29"/></clipPath><clipPath id="clip-path-35" transform="translate(3.62 0.46)"><polygon class="cls-1" points="24.31 20.37 16.82 24.69 16.82 16.05 24.31 20.37"/></clipPath><clipPath id="clip-path-36" transform="translate(3.62 0.46)"><polygon class="cls-1" points="0.75 22.54 8.24 26.86 8.24 18.21 0.75 22.54"/></clipPath><clipPath id="clip-path-37" transform="translate(3.62 0.46)"><polygon class="cls-1" points="29.31 80.72 36.8 85.04 36.8 76.39 29.31 80.72"/></clipPath><clipPath id="clip-path-38" transform="translate(3.62 0.46)"><polygon class="cls-1" points="39.3 43.34 39.3 57.75 26.82 50.54 39.3 43.34"/></clipPath><clipPath id="clip-path-39" transform="translate(3.62 0.46)"><polygon class="cls-1" points="24.31 72.79 24.31 81.44 16.82 77.12 24.31 72.79"/></clipPath><clipPath id="clip-path-40" transform="translate(3.62 0.46)"><polygon class="cls-1" points="25.56 50.55 15.58 56.31 15.58 44.78 25.56 50.55"/></clipPath><clipPath id="clip-path-41" transform="translate(3.62 0.46)"><polygon class="cls-1" points="25.56 36.13 15.58 41.9 15.58 30.37 25.56 36.13"/></clipPath><clipPath id="clip-path-42" transform="translate(3.62 0.46)"><polygon class="cls-1" points="10.48 64.76 10.48 73.41 2.99 69.09 10.48 64.76"/></clipPath><clipPath id="clip-path-43" transform="translate(3.62 0.46)"><polygon class="cls-1" points="11.83 31.51 11.83 40.16 4.34 35.83 11.83 31.51"/></clipPath><clipPath id="clip-path-44" transform="translate(3.62 0.46)"><polygon class="cls-1" points="0 48.03 7.49 43.71 0 39.39 0 48.03"/></clipPath><clipPath id="clip-path-45" transform="translate(3.62 0.46)"><polygon class="cls-1" points="38.04 72.36 28.06 66.59 38.04 60.82 38.04 72.36"/></clipPath><clipPath id="clip-path-46" transform="translate(3.62 0.46)"><polygon class="cls-1" points="39.3 43.34 26.82 50.54 26.82 36.13 39.3 43.34"/></clipPath><clipPath id="clip-path-47" transform="translate(3.62 0.46)"><polygon class="cls-1" points="36.8 73.51 29.31 77.84 29.31 69.19 36.8 73.51"/></clipPath><clipPath id="clip-path-48" transform="translate(3.62 0.46)"><polygon class="cls-1" points="38.04 59.38 28.06 65.15 28.06 53.62 38.04 59.38"/></clipPath><clipPath id="clip-path-49" transform="translate(3.62 0.46)"><polygon class="cls-1" points="24.31 66.31 16.82 70.63 16.82 61.98 24.31 66.31"/></clipPath><clipPath id="clip-path-50" transform="translate(3.62 0.46)"><polygon class="cls-1" points="25.56 51.99 25.56 63.52 15.58 57.75 25.56 51.99"/></clipPath><clipPath id="clip-path-51" transform="translate(3.62 0.46)"><polygon class="cls-1" points="25.56 37.57 25.56 49.1 15.58 43.34 25.56 37.57"/></clipPath><clipPath id="clip-path-52" transform="translate(3.62 0.46)"><polygon class="cls-1" points="11.83 54.87 4.34 50.55 11.83 46.22 11.83 54.87"/></clipPath><clipPath id="clip-path-53" transform="translate(3.62 0.46)"><polygon class="cls-1" points="0.3 33.25 7.79 28.92 0.3 24.6 0.3 33.25"/></clipPath><clipPath id="clip-path-54" transform="translate(3.62 0.46)"><polygon class="cls-1" points="0.75 62.6 8.24 58.28 0.75 53.95 0.75 62.6"/></clipPath></defs><g id="Layer_2" data-name="Layer 2"><g id="Layer_1-2" data-name="Layer 1"><g id="Layer_2-2" data-name="Layer 2"><g id="الهيئة_السعودية_للبيانات_والذكاء_الإصطناعي_-_سدايا_-_EN" data-name="الهيئة السعودية للبيانات والذكاء الإصطناعي - سدايا - EN"><polygon class="cls-1" points="42.92 29.39 30.44 36.59 30.44 51.01 42.92 58.22 55.4 51.01 55.4 36.59 42.92 29.39"/><polygon class="cls-1" points="81.54 23.26 81.54 31.91 74.05 27.59 81.54 23.26"/><g class="cls-2"><polygon class="cls-1" points="75.7 20.16 85.12 25.17 79.89 35.02 70.46 30 75.7 20.16"/></g><polygon class="cls-1" points="81.16 53.89 81.16 62.54 73.67 58.22 81.16 53.89"/><g class="cls-3"><polygon class="cls-1" points="75.32 50.79 84.75 55.8 79.51 65.64 70.09 60.63 75.32 50.79"/></g><polygon class="cls-1" points="77.87 51.01 70.38 55.33 70.38 46.68 77.87 51.01"/><g class="cls-4"><polygon class="cls-1" points="72.03 43.58 81.46 48.59 76.22 58.44 66.79 53.43 72.03 43.58"/></g><polygon class="cls-1" points="82.55 39.03 82.55 47.67 75.06 43.35 82.55 39.03"/><g class="cls-5"><polygon class="cls-1" points="76.71 35.92 86.13 40.93 80.9 50.78 71.47 45.77 76.71 35.92"/></g><polygon class="cls-1" points="65.39 62.44 65.39 71.09 57.9 66.77 65.39 62.44"/><g class="cls-6"><polygon class="cls-1" points="59.55 59.34 68.97 64.35 63.73 74.2 54.31 69.18 59.55 59.34"/></g><polygon class="cls-1" points="66.63 56.77 56.64 51.01 66.63 45.24 66.63 56.77"/><g class="cls-7"><polygon class="cls-1" points="58.85 41.1 71.41 47.79 64.43 60.91 51.86 54.23 58.85 41.1"/></g><polygon class="cls-1" points="66.63 58.22 56.65 63.98 56.65 52.45 66.63 58.22"/><g class="cls-8"><polygon class="cls-1" points="58.85 48.31 71.41 55 64.43 68.13 51.87 61.44 58.85 48.31"/></g><polygon class="cls-1" points="66.63 43.8 56.64 49.57 56.64 38.04 66.63 43.8"/><g class="cls-9"><polygon class="cls-1" points="58.85 33.9 71.41 40.58 64.43 53.71 51.87 47.02 58.85 33.9"/></g><polygon class="cls-1" points="67.4 77.13 59.92 81.46 59.92 72.81 67.4 77.13"/><g class="cls-10"><polygon class="cls-1" points="61.57 69.7 70.99 74.71 65.75 84.56 56.33 79.55 61.57 69.7"/></g><polygon class="cls-1" points="55.4 51.01 42.92 43.8 55.4 36.59 55.4 51.01"/><g class="cls-11"><polygon class="cls-1" points="45.67 31.42 61.37 39.77 52.65 56.19 36.94 47.83 45.67 31.42"/></g><polygon class="cls-1" points="54.15 67.05 44.17 72.82 44.17 61.29 54.15 67.05"/><g class="cls-12"><polygon class="cls-1" points="46.37 57.15 58.93 63.83 51.95 76.96 39.38 70.28 46.37 57.15"/></g><polygon class="cls-1" points="45.41 85.51 52.9 81.18 45.41 76.86 45.41 85.51"/><g class="cls-13"><polygon class="cls-1" points="47.07 73.75 56.49 78.76 51.25 88.61 41.83 83.6 47.07 73.75"/></g><polygon class="cls-1" points="79.97 67.81 72.47 72.14 72.47 63.49 79.97 67.81"/><g class="cls-14"><polygon class="cls-1" points="74.96 59.97 84.04 66.36 77.48 75.67 68.4 69.27 74.96 59.97"/></g><polygon class="cls-1" points="77.87 36.59 70.38 40.92 70.38 32.27 77.87 36.59"/><g class="cls-15"><polygon class="cls-1" points="72.86 28.75 81.94 35.14 75.39 44.45 66.31 38.05 72.86 28.75"/></g><polygon class="cls-1" points="66.63 30.83 66.63 42.36 56.64 36.59 66.63 30.83"/><g class="cls-16"><polygon class="cls-1" points="59.96 26.13 72.06 34.65 63.32 47.06 51.22 38.54 59.96 26.13"/></g><polygon class="cls-1" points="52.9 69.03 52.9 77.68 45.41 73.36 52.9 69.03"/><g class="cls-17"><polygon class="cls-1" points="47.9 65.51 56.98 71.9 50.42 81.21 41.34 74.81 47.9 65.51"/></g><polygon class="cls-1" points="54.15 65.61 44.17 59.85 54.15 54.09 54.15 65.61"/><g class="cls-18"><polygon class="cls-1" points="47.48 49.38 59.58 57.91 50.84 70.32 38.73 61.79 47.48 49.38"/></g><polygon class="cls-1" points="42.92 43.8 55.4 51.01 42.92 58.22 42.92 43.8"/><g class="cls-19"><polygon class="cls-1" points="47.06 37.92 62.18 48.58 51.26 64.09 36.13 53.44 47.06 37.92"/></g><polygon class="cls-1" points="79.21 19.03 71.73 23.36 71.73 14.71 79.21 19.03"/><g class="cls-20"><polygon class="cls-1" points="71.19 23.32 71.76 14.24 79.75 14.74 79.19 23.82 71.19 23.32"/></g><polygon class="cls-1" points="66.94 6.42 59.45 10.74 59.46 2.1 66.94 6.42"/><g class="cls-21"><polygon class="cls-1" points="58.92 10.71 59.49 1.63 67.48 2.13 66.92 11.21 58.92 10.71"/></g><polygon class="cls-1" points="66.63 29.39 56.64 35.15 56.64 23.62 66.63 29.39"/><g class="cls-22"><polygon class="cls-1" points="55.93 35.11 56.68 23 67.35 23.67 66.6 35.77 55.93 35.11"/></g><polygon class="cls-1" points="52.9 16.32 45.41 12 52.9 7.67 52.9 16.32"/><g class="cls-23"><polygon class="cls-1" points="44.88 16.29 45.44 7.21 53.44 7.71 52.87 16.79 44.88 16.29"/></g><polygon class="cls-1" points="54.15 21.99 54.15 33.52 44.17 27.76 54.15 21.99"/><g class="cls-24"><polygon class="cls-1" points="43.45 33.48 44.2 21.37 54.87 22.04 54.11 34.14 43.45 33.48"/></g><polygon class="cls-1" points="42.92 29.39 42.92 43.8 30.44 36.59 42.92 29.39"/><g class="cls-25"><polygon class="cls-1" points="29.54 43.75 30.48 28.61 43.81 29.44 42.87 44.58 29.54 43.75"/></g><polygon class="cls-1" points="41.67 26.31 31.68 20.55 41.67 14.78 41.67 26.31"/><g class="cls-26"><polygon class="cls-1" points="30.96 26.27 31.72 14.16 42.39 14.83 41.63 26.93 30.96 26.27"/></g><polygon class="cls-1" points="40.42 0.46 32.93 4.79 40.42 9.11 40.42 0.46"/><g class="cls-27"><polygon class="cls-1" points="32.39 9.08 32.96 0 40.95 0.5 40.39 9.58 32.39 9.08"/></g><polygon class="cls-1" points="29.18 35.15 19.2 29.39 29.18 23.62 29.18 35.15"/><g class="cls-28"><polygon class="cls-1" points="18.48 35.11 19.24 23 29.9 23.67 29.14 35.77 18.48 35.11"/></g><polygon class="cls-1" points="25.17 7.04 25.17 15.69 17.68 11.37 25.17 7.04"/><g class="cls-29"><polygon class="cls-1" points="17.14 15.66 17.7 6.58 25.7 7.08 25.14 16.16 17.14 15.66"/></g><polygon class="cls-1" points="65.39 25.16 57.89 20.83 65.39 16.51 65.39 25.16"/><g class="cls-30"><rect class="cls-1" x="57.89" y="16.51" width="7.49" height="8.65"/></g><polygon class="cls-1" points="45.41 0.46 45.41 9.11 52.9 4.79 45.41 0.46"/><g class="cls-31"><rect class="cls-1" x="45.41" y="0.46" width="7.49" height="8.65"/></g><polygon class="cls-1" points="54.15 20.55 44.17 26.31 44.17 14.78 54.15 20.55"/><g class="cls-32"><rect class="cls-1" x="44.17" y="14.78" width="9.98" height="11.53"/></g><polygon class="cls-1" points="55.4 36.59 42.92 43.8 42.92 29.39 55.4 36.59"/><g class="cls-33"><rect class="cls-1" x="42.92" y="29.39" width="12.48" height="14.41"/></g><polygon class="cls-1" points="40.42 14.44 32.93 18.76 32.93 10.11 40.42 14.44"/><g class="cls-34"><rect class="cls-1" x="32.93" y="10.11" width="7.49" height="8.65"/></g><polygon class="cls-1" points="41.67 27.76 31.68 33.52 31.68 21.99 41.67 27.76"/><g class="cls-35"><rect class="cls-1" x="31.68" y="21.99" width="9.98" height="11.53"/></g><polygon class="cls-1" points="27.93 20.83 20.45 25.16 20.45 16.51 27.93 20.83"/><g class="cls-36"><rect class="cls-1" x="20.45" y="16.51" width="7.49" height="8.65"/></g><polygon class="cls-1" points="4.37 23 11.86 27.32 11.86 18.68 4.37 23"/><g class="cls-37"><rect class="cls-1" x="4.37" y="18.68" width="7.49" height="8.65"/></g><polygon class="cls-1" points="32.93 81.18 40.42 85.51 40.42 76.86 32.93 81.18"/><g class="cls-38"><polygon class="cls-1" points="44.04 83.54 34.63 88.64 29.3 78.82 38.72 73.72 44.04 83.54"/></g><polygon class="cls-1" points="42.92 43.8 42.92 58.22 30.44 51.01 42.92 43.8"/><g class="cls-39"><polygon class="cls-1" points="48.96 54.94 33.27 63.45 24.4 47.08 40.08 38.57 48.96 54.94"/></g><polygon class="cls-1" points="27.93 73.25 27.93 81.9 20.45 77.58 27.93 73.25"/><g class="cls-40"><polygon class="cls-1" points="31.56 79.94 22.14 85.04 16.82 75.22 26.23 70.11 31.56 79.94"/></g><polygon class="cls-1" points="29.18 51.01 19.2 56.77 19.2 45.24 29.18 51.01"/><g class="cls-41"><polygon class="cls-1" points="34.01 54.16 21.46 60.96 14.37 47.86 26.91 41.06 34.01 54.16"/></g><polygon class="cls-1" points="29.18 36.59 19.2 42.36 19.2 30.83 29.18 36.59"/><g class="cls-42"><polygon class="cls-1" points="34.01 39.74 21.46 46.54 14.37 33.45 26.91 26.65 34.01 39.74"/></g><polygon class="cls-1" points="14.1 65.23 14.1 73.87 6.61 69.55 14.1 65.23"/><g class="cls-43"><polygon class="cls-1" points="17.73 71.91 8.31 77.01 2.99 67.19 12.4 62.09 17.73 71.91"/></g><polygon class="cls-1" points="15.45 31.97 15.45 40.62 7.96 36.3 15.45 31.97"/><g class="cls-44"><polygon class="cls-1" points="19.07 38.66 9.66 43.76 4.34 33.94 13.75 28.83 19.07 38.66"/></g><polygon class="cls-1" points="3.62 48.5 11.11 44.18 3.62 39.85 3.62 48.5"/><g class="cls-45"><polygon class="cls-1" points="14.73 46.53 5.32 51.64 0 41.82 9.41 36.71 14.73 46.53"/></g><polygon class="cls-1" points="41.66 72.82 31.68 67.05 41.66 61.29 41.66 72.82"/><g class="cls-46"><polygon class="cls-1" points="46.68 69.9 34.21 77.16 26.66 64.2 39.14 56.95 46.68 69.9"/></g><polygon class="cls-1" points="42.92 43.8 30.44 51.01 30.44 36.59 42.92 43.8"/><g class="cls-47"><polygon class="cls-1" points="49.18 47.36 33.59 56.43 24.17 40.24 39.76 31.17 49.18 47.36"/></g><polygon class="cls-1" points="40.42 73.98 32.93 78.3 32.93 69.65 40.42 73.98"/><g class="cls-48"><polygon class="cls-1" points="44.18 76.11 34.82 81.56 29.17 71.84 38.52 66.39 44.18 76.11"/></g><polygon class="cls-1" points="41.66 59.85 31.68 65.61 31.68 54.08 41.66 59.85"/><g class="cls-49"><polygon class="cls-1" points="46.68 62.7 34.21 69.95 26.66 57 39.14 49.74 46.68 62.7"/></g><polygon class="cls-1" points="27.93 66.77 20.45 71.09 20.45 62.45 27.93 66.77"/><g class="cls-50"><polygon class="cls-1" points="31.69 68.91 22.34 74.35 16.68 64.64 26.04 59.19 31.69 68.91"/></g><polygon class="cls-1" points="29.18 52.45 29.18 63.98 19.2 58.22 29.18 52.45"/><g class="cls-51"><polygon class="cls-1" points="34.19 61.07 21.72 68.32 14.19 55.37 26.66 48.11 34.19 61.07"/></g><polygon class="cls-1" points="29.18 38.03 29.18 49.56 19.2 43.8 29.18 38.03"/><g class="cls-52"><polygon class="cls-1" points="34.19 46.65 21.72 53.9 14.19 40.95 26.66 33.69 34.19 46.65"/></g><polygon class="cls-1" points="15.45 55.33 7.96 51.01 15.45 46.68 15.45 55.33"/><g class="cls-53"><polygon class="cls-1" points="19.21 53.15 9.85 58.59 4.2 48.87 13.56 43.43 19.21 53.15"/></g><polygon class="cls-1" points="3.92 33.72 11.41 29.39 3.92 25.06 3.92 33.72"/><g class="cls-54"><polygon class="cls-1" points="15.17 31.52 5.81 36.97 0.16 27.25 9.52 21.81 15.17 31.52"/></g><polygon class="cls-1" points="4.37 63.06 11.86 58.74 4.37 54.41 4.37 63.06"/><g class="cls-55"><polygon class="cls-1" points="15.62 60.88 6.26 66.32 0.61 56.6 9.96 51.16 15.62 60.88"/></g><path class="cls-1" d="M101.22,76.29a3.6,3.6,0,0,0-1-.49c-.37-.12-.74-.23-1.12-.32L98,75.24A6,6,0,0,1,97,75a1.73,1.73,0,0,1-.69-.45,1,1,0,0,1-.26-.71,1.55,1.55,0,0,1,.18-.78,1.44,1.44,0,0,1,.48-.5,2.12,2.12,0,0,1,.69-.27,4.07,4.07,0,0,1,.79-.08,2.75,2.75,0,0,1,1.62.46,2,2,0,0,1,.74,1.49h1.2a3.2,3.2,0,0,0-.31-1.35,2.68,2.68,0,0,0-.74-1,3.16,3.16,0,0,0-1.1-.55,5.33,5.33,0,0,0-1.36-.17,5,5,0,0,0-1.28.17,3.57,3.57,0,0,0-1.1.5,2.5,2.5,0,0,0-1.08,2.12A2.08,2.08,0,0,0,95.05,75a2.26,2.26,0,0,0,.7.71,3.67,3.67,0,0,0,1,.45c.36.11.74.21,1.12.29l1.12.25a4.9,4.9,0,0,1,1,.32,2,2,0,0,1,.69.5,1.2,1.2,0,0,1,.26.8,1.55,1.55,0,0,1-.21.85,1.61,1.61,0,0,1-.57.53,2.43,2.43,0,0,1-.77.27,4.28,4.28,0,0,1-.87.09,4.09,4.09,0,0,1-1-.14,2.64,2.64,0,0,1-.88-.41,2.32,2.32,0,0,1-.61-.71,2.13,2.13,0,0,1-.23-1h-1.2a3.32,3.32,0,0,0,.31,1.5,2.84,2.84,0,0,0,.85,1,3.81,3.81,0,0,0,1.26.62,5.73,5.73,0,0,0,1.51.2,6,6,0,0,0,1.32-.16,4.1,4.1,0,0,0,1.19-.5,2.84,2.84,0,0,0,.88-.88,2.48,2.48,0,0,0,.34-1.31,2.35,2.35,0,0,0-.27-1.17,2.24,2.24,0,0,0-.68-.78" transform="translate(3.62 0.46)"/><path class="cls-1" d="M109,79.83a2.79,2.79,0,0,1,0-.59V75.69a1.8,1.8,0,0,0-.23-1,1.59,1.59,0,0,0-.6-.58,2.25,2.25,0,0,0-.83-.27,5.82,5.82,0,0,0-.93-.07,4.94,4.94,0,0,0-1.1.12,2.81,2.81,0,0,0-.92.39,2.12,2.12,0,0,0-.64.72,2.36,2.36,0,0,0-.26,1.08h1.13a1.15,1.15,0,0,1,.52-1,2.32,2.32,0,0,1,1.2-.27,3.27,3.27,0,0,1,.54,0,1.4,1.4,0,0,1,.5.16,1,1,0,0,1,.36.35,1.16,1.16,0,0,1,.14.6.59.59,0,0,1-.19.48,1.17,1.17,0,0,1-.51.26,5.9,5.9,0,0,1-.74.13c-.28,0-.58.08-.89.14a8.26,8.26,0,0,0-.86.2,2.61,2.61,0,0,0-.75.36,1.72,1.72,0,0,0-.53.6,2.07,2.07,0,0,0-.2,1,2,2,0,0,0,.18.89,1.6,1.6,0,0,0,.49.6,2.14,2.14,0,0,0,.73.34,3.62,3.62,0,0,0,.89.11,3.67,3.67,0,0,0,1.34-.25,2.76,2.76,0,0,0,1.09-.82,1.09,1.09,0,0,0,.26.82,1,1,0,0,0,.7.25,1.5,1.5,0,0,0,.81-.19V80a.91.91,0,0,1-.35.07c-.17,0-.27-.07-.3-.19m-1.18-1.38a1.26,1.26,0,0,1-.12.51,1.51,1.51,0,0,1-.38.51,2,2,0,0,1-.65.39,2.76,2.76,0,0,1-1,.15,2.1,2.1,0,0,1-.51-.06,1.13,1.13,0,0,1-.42-.17,1,1,0,0,1-.3-.31,1,1,0,0,1-.11-.48,1,1,0,0,1,.41-.89,1.65,1.65,0,0,1,.44-.22,4.27,4.27,0,0,1,.54-.13c.18,0,.37-.06.58-.09l.56-.08.51-.11a1.35,1.35,0,0,0,.4-.19v1.17Z" transform="translate(3.62 0.46)"/><path class="cls-1" d="M115.26,77.85a2.93,2.93,0,0,1-.12.86,2,2,0,0,1-.39.69,1.52,1.52,0,0,1-.63.45,2.26,2.26,0,0,1-.9.16,1.4,1.4,0,0,1-1-.37,1.38,1.38,0,0,1-.37-1V74h-1.14v4.54a4.08,4.08,0,0,0,.12,1,1.81,1.81,0,0,0,1.13,1.31,2.87,2.87,0,0,0,1.13.19,2.68,2.68,0,0,0,1.32-.31,2.34,2.34,0,0,0,.92-1h0v1.1h1.07V74h-1.14v3.9Z" transform="translate(3.62 0.46)"/><path class="cls-1" d="M123.14,74.87h0a1.87,1.87,0,0,0-.46-.51,2.84,2.84,0,0,0-.58-.34,3.52,3.52,0,0,0-.61-.18,4.13,4.13,0,0,0-.58,0,3,3,0,0,0-1.38.29,2.73,2.73,0,0,0-1,.78,3.24,3.24,0,0,0-.58,1.14,4.75,4.75,0,0,0-.2,1.38,4.86,4.86,0,0,0,.2,1.39,3.68,3.68,0,0,0,.59,1.15,3,3,0,0,0,1,.8,3.21,3.21,0,0,0,1.4.29,3.34,3.34,0,0,0,1.32-.26,1.72,1.72,0,0,0,.88-.84h0v.94h1.14V71.32h-1.14v3.55Zm-.08,3.49a2.32,2.32,0,0,1-.37.83,1.79,1.79,0,0,1-.65.6,2,2,0,0,1-1,.23,2,2,0,0,1-1-.22,1.79,1.79,0,0,1-.67-.58,2.38,2.38,0,0,1-.38-.82,3.28,3.28,0,0,1-.13-.94,4.12,4.12,0,0,1,.11-1,2.57,2.57,0,0,1,.34-.85A1.84,1.84,0,0,1,120,75a2,2,0,0,1,1-.23,2.17,2.17,0,0,1,1,.22,2,2,0,0,1,.67.58,2.69,2.69,0,0,1,.39.84,4,4,0,0,1,.12,1,3.81,3.81,0,0,1-.12,1" transform="translate(3.62 0.46)"/><rect class="cls-1" x="129.71" y="74.41" width="1.14" height="6.9"/><path class="cls-1" d="M136.15,71.32h-3.26v9.54h3.26a5.77,5.77,0,0,0,2.06-.34,3.46,3.46,0,0,0,1.43-1,4,4,0,0,0,.83-1.56,8.07,8.07,0,0,0,.26-2.13,4.51,4.51,0,0,0-1.18-3.42,4.78,4.78,0,0,0-3.4-1.12m3.14,6.22a3.79,3.79,0,0,1-.46,1,2.33,2.33,0,0,1-.64.65,2.84,2.84,0,0,1-.71.37,2.66,2.66,0,0,1-.68.16c-.22,0-.4,0-.54,0h-2.11v-7.4h2.14a4,4,0,0,1,1.48.25,2.48,2.48,0,0,1,1,.72,3.18,3.18,0,0,1,.55,1.14,6.48,6.48,0,0,1,.16,1.53,5.56,5.56,0,0,1-.17,1.51" transform="translate(3.62 0.46)"/><path class="cls-1" d="M147.55,79.83a2.79,2.79,0,0,1-.05-.59V75.69a1.9,1.9,0,0,0-.22-1,1.55,1.55,0,0,0-.61-.58,2.25,2.25,0,0,0-.83-.27,5.82,5.82,0,0,0-.93-.07,4.94,4.94,0,0,0-1.1.12,2.81,2.81,0,0,0-.92.39,2.12,2.12,0,0,0-.64.72A2.36,2.36,0,0,0,142,76.1h1.13a1.15,1.15,0,0,1,.52-1,2.32,2.32,0,0,1,1.2-.27,3.27,3.27,0,0,1,.54,0,1.34,1.34,0,0,1,.5.16,1,1,0,0,1,.36.35,1.16,1.16,0,0,1,.14.6.59.59,0,0,1-.19.48,1.12,1.12,0,0,1-.51.26,5.9,5.9,0,0,1-.74.13c-.28,0-.58.08-.89.14a8.26,8.26,0,0,0-.86.2,2.61,2.61,0,0,0-.75.36,1.72,1.72,0,0,0-.53.6,2.08,2.08,0,0,0-.19,1,2,2,0,0,0,.17.89,1.7,1.7,0,0,0,.49.6,2.14,2.14,0,0,0,.73.34,3.69,3.69,0,0,0,2.23-.14,2.83,2.83,0,0,0,1.09-.82,1.09,1.09,0,0,0,.26.82,1,1,0,0,0,.7.25,1.47,1.47,0,0,0,.81-.19V80a.91.91,0,0,1-.35.07c-.17,0-.27-.07-.3-.19m-1.18-1.38a1.26,1.26,0,0,1-.12.51,1.51,1.51,0,0,1-.38.51,1.94,1.94,0,0,1-.65.39,2.76,2.76,0,0,1-1,.15,2.1,2.1,0,0,1-.51-.06,1.13,1.13,0,0,1-.42-.17,1,1,0,0,1-.3-.31,1,1,0,0,1-.11-.48,1.07,1.07,0,0,1,.11-.53,1.18,1.18,0,0,1,.3-.36,1.65,1.65,0,0,1,.44-.22,4.27,4.27,0,0,1,.54-.13c.18,0,.38-.06.58-.09l.56-.08.51-.11a1.35,1.35,0,0,0,.4-.19v1.17Z" transform="translate(3.62 0.46)"/><path class="cls-1" d="M150.84,71.88H149.7V74h-1.17v1h1.17v4.39a2.74,2.74,0,0,0,.1.78.91.91,0,0,0,.29.45,1,1,0,0,0,.5.22,3.39,3.39,0,0,0,.76.07h.87v-1h-.52a2.76,2.76,0,0,1-.44,0,.61.61,0,0,1-.26-.08.35.35,0,0,1-.12-.19,1.32,1.32,0,0,1,0-.32V75h1.38V74h-1.38V71.88Z" transform="translate(3.62 0.46)"/><path class="cls-1" d="M158.92,79.83a2.94,2.94,0,0,1,0-.59V75.69a1.89,1.89,0,0,0-.23-1,1.59,1.59,0,0,0-.6-.58,2.31,2.31,0,0,0-.84-.27,5.62,5.62,0,0,0-.92-.07,4.88,4.88,0,0,0-1.1.12,2.72,2.72,0,0,0-.92.39,2,2,0,0,0-.64.72,2.49,2.49,0,0,0-.27,1.08h1.13a1.16,1.16,0,0,1,.53-1,2.32,2.32,0,0,1,1.2-.27,3.27,3.27,0,0,1,.54,0,1.29,1.29,0,0,1,.49.16,1,1,0,0,1,.37.35,1.16,1.16,0,0,1,.14.6.59.59,0,0,1-.19.48,1.12,1.12,0,0,1-.51.26,5.9,5.9,0,0,1-.74.13c-.28,0-.58.08-.89.14a8.26,8.26,0,0,0-.86.2,2.61,2.61,0,0,0-.75.36,1.72,1.72,0,0,0-.53.6,2.08,2.08,0,0,0-.19,1,2,2,0,0,0,.17.89,1.7,1.7,0,0,0,.49.6,2.14,2.14,0,0,0,.73.34,3.69,3.69,0,0,0,2.23-.14,2.83,2.83,0,0,0,1.09-.82,1.09,1.09,0,0,0,.26.82,1,1,0,0,0,.7.25,1.47,1.47,0,0,0,.81-.19V80a.91.91,0,0,1-.35.07c-.17,0-.28-.07-.31-.19m-1.18-1.38a1.26,1.26,0,0,1-.12.51,1.48,1.48,0,0,1-.37.51,2.1,2.1,0,0,1-.66.39,2.69,2.69,0,0,1-1,.15,2.07,2.07,0,0,1-.5-.06,1.25,1.25,0,0,1-.43-.17.86.86,0,0,1-.29-.31.9.9,0,0,1-.12-.48,1.07,1.07,0,0,1,.12-.53,1,1,0,0,1,.3-.36,1.4,1.4,0,0,1,.44-.22,4.11,4.11,0,0,1,.53-.13c.19,0,.38-.06.58-.09l.57-.08.51-.11a1.35,1.35,0,0,0,.4-.19v1.17Z" transform="translate(3.62 0.46)"/><path class="cls-1" d="M170.5,78.14a2.38,2.38,0,0,0,.18-.51,4.07,4.07,0,0,0,.12-.55c0-.2.06-.44.09-.73h-1.08a5,5,0,0,1-.31,1.48l-1.72-2.09c.23-.14.45-.29.67-.45a3.77,3.77,0,0,0,.57-.56,2.53,2.53,0,0,0,.4-.67,2.06,2.06,0,0,0,.15-.79,1.78,1.78,0,0,0-.2-.85,1.81,1.81,0,0,0-.51-.62,2.45,2.45,0,0,0-.74-.37,3.07,3.07,0,0,0-.86-.11,2.36,2.36,0,0,0-.92.16,1.84,1.84,0,0,0-.67.43,1.66,1.66,0,0,0-.42.63,2.07,2.07,0,0,0-.14.74,2.22,2.22,0,0,0,.09.65,2.48,2.48,0,0,0,.24.55c.1.17.22.34.34.51s.25.35.39.53a8.18,8.18,0,0,0-.86.52,3.26,3.26,0,0,0-.71.61,2.93,2.93,0,0,0-.48.77,2.5,2.5,0,0,0-.18,1,3.22,3.22,0,0,0,.1.73,2.11,2.11,0,0,0,.42.85,2.72,2.72,0,0,0,.91.72,3.42,3.42,0,0,0,1.55.3,4.24,4.24,0,0,0,.78-.09,3.91,3.91,0,0,0,.75-.26,2.67,2.67,0,0,0,.65-.42,2.36,2.36,0,0,0,.51-.58l1,1.19h1.48l-1.86-2.15c.1-.21.18-.4.25-.56m-3.92-5.57a1.22,1.22,0,0,1,.75-.24,1.06,1.06,0,0,1,.81.3.94.94,0,0,1,.3.71,1.12,1.12,0,0,1-.13.55,1.77,1.77,0,0,1-.3.45,3.62,3.62,0,0,1-.42.36l-.43.29-.32-.4c-.11-.13-.21-.27-.3-.4a2.82,2.82,0,0,1-.22-.42,1.14,1.14,0,0,1-.09-.43.88.88,0,0,1,.35-.77m1.54,7.14A2.25,2.25,0,0,1,167,80a2,2,0,0,1-.68-.12,2.16,2.16,0,0,1-.58-.32,1.54,1.54,0,0,1-.4-.51,1.34,1.34,0,0,1-.16-.66,1.84,1.84,0,0,1,.14-.74,2.12,2.12,0,0,1,.36-.57,2.57,2.57,0,0,1,.53-.45l.63-.39L169,78.88a3,3,0,0,1-.87.83" transform="translate(3.62 0.46)"/><path class="cls-1" d="M179.25,71.32l-3.73,9.54h1.31L177.9,78h4l1,2.87h1.4l-3.72-9.54Zm-.95,5.59,1.62-4.44h0l1.59,4.44Z" transform="translate(3.62 0.46)"/><rect class="cls-1" x="188.98" y="71.78" width="1.27" height="9.53"/><path class="cls-1" d="M195.07,71.32l-3.73,9.54h1.31L193.72,78h4l1,2.87h1.41l-3.73-9.54Zm-.95,5.59,1.62-4.44h0l1.59,4.44Z" transform="translate(3.62 0.46)"/><path class="cls-1" d="M205.52,77.85a2.93,2.93,0,0,1-.12.86,2.19,2.19,0,0,1-.38.69,1.55,1.55,0,0,1-.64.45,2.23,2.23,0,0,1-.9.16,1.38,1.38,0,0,1-1-.37,1.42,1.42,0,0,1-.37-1V74H201v4.54a4.09,4.09,0,0,0,.11,1,1.81,1.81,0,0,0,1.13,1.31,2.87,2.87,0,0,0,1.13.19,2.68,2.68,0,0,0,1.32-.31,2.37,2.37,0,0,0,.93-1h0v1.1h1.07V74h-1.13v3.9Z" transform="translate(3.62 0.46)"/><path class="cls-1" d="M209.94,71.88H208.8V74h-1.17v1h1.17v4.39a2.74,2.74,0,0,0,.1.78.91.91,0,0,0,.29.45,1,1,0,0,0,.5.22,3.39,3.39,0,0,0,.76.07h.87v-1h-.52a2.76,2.76,0,0,1-.44,0,.61.61,0,0,1-.26-.08.43.43,0,0,1-.13-.19,1.39,1.39,0,0,1,0-.32V75h1.38V74h-1.38Z" transform="translate(3.62 0.46)"/><path class="cls-1" d="M217.78,74.5A1.83,1.83,0,0,0,217,74a2.87,2.87,0,0,0-1.13-.19,2.83,2.83,0,0,0-.63.07,2.5,2.5,0,0,0-.62.2,2,2,0,0,0-.54.37,1.36,1.36,0,0,0-.38.54h0V71.32h-1.14v9.53h1.14V77a2.93,2.93,0,0,1,.12-.86,1.94,1.94,0,0,1,.39-.69,1.56,1.56,0,0,1,.63-.46,2.26,2.26,0,0,1,.9-.16,1.41,1.41,0,0,1,1,.38,1.35,1.35,0,0,1,.37,1v4.67h1.14V76.31a4.08,4.08,0,0,0-.12-1,1.84,1.84,0,0,0-.39-.79" transform="translate(3.62 0.46)"/><path class="cls-1" d="M225.47,74.84a3.09,3.09,0,0,0-1.06-.77,3.87,3.87,0,0,0-2.89,0,3.11,3.11,0,0,0-1.05.77,3.21,3.21,0,0,0-.63,1.15,4.69,4.69,0,0,0,0,2.84,3.34,3.34,0,0,0,.63,1.14,3.25,3.25,0,0,0,1.05.77,3.87,3.87,0,0,0,2.89,0,3.05,3.05,0,0,0,1.06-.77,3.2,3.2,0,0,0,.64-1.14,4.69,4.69,0,0,0,0-2.84,3.23,3.23,0,0,0-.64-1.15M225,78.52a2.25,2.25,0,0,1-.46.82,2,2,0,0,1-.69.5A2.12,2.12,0,0,1,223,80a2.17,2.17,0,0,1-.84-.17,2,2,0,0,1-.68-.5,2.11,2.11,0,0,1-.46-.82,3.16,3.16,0,0,1-.17-1.11,3.25,3.25,0,0,1,.17-1.12,2.33,2.33,0,0,1,.46-.82,2,2,0,0,1,.68-.51,2.14,2.14,0,0,1,1.67,0,2,2,0,0,1,.69.51,2.33,2.33,0,0,1,.46.82,3.25,3.25,0,0,1,.17,1.12,3.16,3.16,0,0,1-.17,1.11" transform="translate(3.62 0.46)"/><path class="cls-1" d="M228.71,75.41h0V74h-1.07v6.91h1.13V77.79a4.71,4.71,0,0,1,.14-1.18,2.32,2.32,0,0,1,.42-.88,1.94,1.94,0,0,1,.78-.55,3.31,3.31,0,0,1,1.16-.19v-1.2a2.59,2.59,0,0,0-1.52.38,3,3,0,0,0-1,1.24" transform="translate(3.62 0.46)"/><rect class="cls-1" x="235.79" y="74.41" width="1.14" height="6.9"/><path class="cls-1" d="M236.64,71.88h-1.13V74h-1.18v1h1.18v4.39a2.78,2.78,0,0,0,.09.78.91.91,0,0,0,.29.45,1.09,1.09,0,0,0,.5.22,3.33,3.33,0,0,0,.76.07H238v-1h-.51a2.76,2.76,0,0,1-.44,0,.57.57,0,0,1-.26-.08.43.43,0,0,1-.13-.19,1.39,1.39,0,0,1,0-.32V75H238V74h-1.37V71.88Z" transform="translate(3.62 0.46)"/><path class="cls-1" d="M243.78,74l-1.93,5.65h0l-2-5.65h-1.29l2.74,6.86L240.79,82a1.38,1.38,0,0,1-.37.47,1,1,0,0,1-.56.16,1,1,0,0,1-.34-.06l-.33-.1v1a2.23,2.23,0,0,0,.39.09,2.6,2.6,0,0,0,.4,0,2,2,0,0,0,.67-.1,1.36,1.36,0,0,0,.52-.32,2.41,2.41,0,0,0,.42-.57,6.32,6.32,0,0,0,.39-.85L245,74h-1.21Z" transform="translate(3.62 0.46)"/><polygon class="cls-1" points="130.84 71.79 129.71 71.79 129.71 73.17 130.84 72.52 130.84 71.79"/><polygon class="cls-1" points="236.93 71.79 235.79 71.79 235.79 73.17 236.93 72.52 236.93 71.79"/><path class="cls-1" d="M94.59,48.15a2.12,2.12,0,0,0,.83.35,6.57,6.57,0,0,0,1.28.1h8.09V43.46H103.7v4H97.25a10.08,10.08,0,0,1-1,0,1.58,1.58,0,0,1-.66-.17.72.72,0,0,1-.34-.37,1.73,1.73,0,0,1-.1-.66V44.58H94v2.07a2.67,2.67,0,0,0,.13.9,1.23,1.23,0,0,0,.45.6" transform="translate(3.62 0.46)"/><path class="cls-1" d="M107.19,48.22a1.42,1.42,0,0,0,.6.3,3.81,3.81,0,0,0,.78.08H114V43.46H113v4H108.7c-.39,0-.65-.07-.77-.23a1.32,1.32,0,0,1-.17-.79v-7.4h-1.1v7.69a2.56,2.56,0,0,0,.14.89,1.69,1.69,0,0,0,.39.57" transform="translate(3.62 0.46)"/><path class="cls-1" d="M116.43,48.22a1.42,1.42,0,0,0,.6.3,3.81,3.81,0,0,0,.78.08h3.42a4.15,4.15,0,0,0,1.26-.16,1.21,1.21,0,0,0,.76-.71,1.15,1.15,0,0,0,.42.62,1.31,1.31,0,0,0,.84.25h1.1a4.49,4.49,0,0,0,1.26-.16,1.17,1.17,0,0,0,.75-.71,1.23,1.23,0,0,0,.43.62,1.39,1.39,0,0,0,.84.24h1a4.64,4.64,0,0,0,1.36-.16,1.19,1.19,0,0,0,.76-.71,1.35,1.35,0,0,0,.42.63,1.37,1.37,0,0,0,.84.24h3.18V39.06h-1.09v8.42h-2.09a1,1,0,0,1-.87-.39,1.82,1.82,0,0,1-.28-1.08v-7H131V46.5a1.84,1.84,0,0,1-.07.53.75.75,0,0,1-.2.3.82.82,0,0,1-.32.12,2.58,2.58,0,0,1-.42,0H128.9a1.39,1.39,0,0,1-.58-.11.94.94,0,0,1-.36-.29,1.11,1.11,0,0,1-.18-.46,3.91,3.91,0,0,1,0-.61V43.44h-1.1V46.5a1.54,1.54,0,0,1-.07.53.59.59,0,0,1-.22.29.9.9,0,0,1-.39.13,4.22,4.22,0,0,1-.55,0h-.89a1.35,1.35,0,0,1-.57-.11.89.89,0,0,1-.36-.3,1.06,1.06,0,0,1-.18-.46,3.67,3.67,0,0,1,0-.61V43.44h-1.09V46.5a1.71,1.71,0,0,1-.07.52.64.64,0,0,1-.23.3.74.74,0,0,1-.38.12,4.33,4.33,0,0,1-.55,0H118c-.4,0-.66-.07-.78-.23a1.42,1.42,0,0,1-.17-.8V39.05h-1.1v7.69a2.56,2.56,0,0,0,.14.89,1.47,1.47,0,0,0,.38.59" transform="translate(3.62 0.46)"/><path class="cls-1" d="M142,47.06a2.25,2.25,0,0,0,.8.34,3.61,3.61,0,0,0,.74.09,4.34,4.34,0,0,0,.71-.06,3.49,3.49,0,0,0,.66-.18,1.76,1.76,0,0,0,.23.67,1.24,1.24,0,0,0,.42.4,1.53,1.53,0,0,0,.56.22,3.52,3.52,0,0,0,.66.06h5.61V43.47h-1.1v4l-4.37,0a1,1,0,0,1-.78-.23,1.4,1.4,0,0,1-.17-.79V42.65h-2.12a4.11,4.11,0,0,0-1,.13,2.74,2.74,0,0,0-.89.44,2.4,2.4,0,0,0-.65.79,2.6,2.6,0,0,0-.25,1.2,2.25,2.25,0,0,0,.26,1.17,2,2,0,0,0,.65.68m.6-3a1.83,1.83,0,0,1,1.1-.32h1.17v2.36a3.05,3.05,0,0,1-.6.17,3,3,0,0,1-.64.07A1.59,1.59,0,0,1,142.5,46a1.22,1.22,0,0,1-.35-.9,1.19,1.19,0,0,1,.45-1" transform="translate(3.62 0.46)"/><path class="cls-1" d="M158.2,48.19a1.41,1.41,0,0,0,.44-1.06,1.48,1.48,0,0,0-.13-.6,5.92,5.92,0,0,0-.38-.76c-.17-.29-.39-.65-.65-1.07s-.57-.93-.92-1.54l-1,.64c.45.66.81,1.19,1.07,1.59l.61.9c.13.22.22.38.26.47a1,1,0,0,1,.05.28.49.49,0,0,1-.12.32.81.81,0,0,1-.58.14h-3.09v1.1h3.19a1.86,1.86,0,0,0,1.28-.41" transform="translate(3.62 0.46)"/><path class="cls-1" d="M186.38,47.49h-2.1a1.21,1.21,0,0,1-.57-.11.86.86,0,0,1-.36-.29,1.11,1.11,0,0,1-.18-.46,3.86,3.86,0,0,1,0-.61V43.46H182v3.06a1.52,1.52,0,0,1-.08.53.63.63,0,0,1-.2.29.7.7,0,0,1-.32.13l-.42,0a1.55,1.55,0,0,1-.65-.11.86.86,0,0,1-.38-.29,1.27,1.27,0,0,1-.19-.46,3.86,3.86,0,0,1,0-.61v-1.9h-1.09v2.39a1.52,1.52,0,0,1-.08.53.57.57,0,0,1-.22.3.85.85,0,0,1-.36.12,3.63,3.63,0,0,1-.5,0,2.1,2.1,0,0,1-.74-.11.85.85,0,0,1-.61-.75,3.91,3.91,0,0,1,0-.61v-1.9H175v2.39a1.31,1.31,0,0,1-.08.53.57.57,0,0,1-.26.29,1.2,1.2,0,0,1-.49.13q-.3,0-.75,0H171.1a2.85,2.85,0,0,1-.66-.06,4.18,4.18,0,0,0,1.12-1.14,2.43,2.43,0,0,0,.42-1.37,1.36,1.36,0,0,0-.14-.61,1.41,1.41,0,0,0-.42-.53,2.57,2.57,0,0,0-.72-.38,3.44,3.44,0,0,0-1-.14,3.38,3.38,0,0,0-1.32.26,3.08,3.08,0,0,0-1,.68.72.72,0,0,0-.16.21c0,.08-.1.18-.14.28s-.1.21-.14.31-.07.21-.1.31l1.67,1.89a5.72,5.72,0,0,1-1,.22,8.26,8.26,0,0,1-1,.07H165v-.63a7,7,0,0,0-.13-1.43,3.16,3.16,0,0,0-.44-1.09,1.94,1.94,0,0,0-.78-.7,2.48,2.48,0,0,0-1.18-.25,2.36,2.36,0,0,0-1.11.25,2.63,2.63,0,0,0-.83.65,2.86,2.86,0,0,0-.52.92,3.19,3.19,0,0,0-.18,1.06,2.74,2.74,0,0,0,.2,1.1,1.73,1.73,0,0,0,.53.71,2,2,0,0,0,.8.4,4,4,0,0,0,1,.12h1.51a1.59,1.59,0,0,1-.24.86,1.33,1.33,0,0,1-.6.52,2.81,2.81,0,0,1-.9.24,10,10,0,0,1-1.15.06h-.41v1.11h.56a8,8,0,0,0,1.53-.13,3.38,3.38,0,0,0,1.18-.45,2.31,2.31,0,0,0,.78-.86,3.43,3.43,0,0,0,.34-1.35h1.63a7,7,0,0,0,1.38-.14,7.19,7.19,0,0,0,1.32-.39,2,2,0,0,0,.74.43,2.94,2.94,0,0,0,.74.1h2.65a9.74,9.74,0,0,0,1,0,2.65,2.65,0,0,0,.71-.13,1.42,1.42,0,0,0,.47-.27,1.27,1.27,0,0,0,.3-.45,1.55,1.55,0,0,0,.2.32,1,1,0,0,0,.32.29,1.51,1.51,0,0,0,.51.2,3.46,3.46,0,0,0,.78.07,3.92,3.92,0,0,0,1.2-.16,1.2,1.2,0,0,0,.74-.71,1.19,1.19,0,0,0,.18.3.94.94,0,0,0,.31.28,1.64,1.64,0,0,0,.5.21,3.1,3.1,0,0,0,.74.08l.39,0a2.13,2.13,0,0,0,.46-.13,1.75,1.75,0,0,0,.46-.26,1.1,1.1,0,0,0,.33-.45,1.17,1.17,0,0,0,.43.62,1.29,1.29,0,0,0,.84.25h3.19V39.05h-1.09v8.44Zm-22.54,0h-1.43a1.81,1.81,0,0,1-1.15-.32,1.19,1.19,0,0,1-.4-1,2.23,2.23,0,0,1,.1-.62,1.88,1.88,0,0,1,.27-.55,1.27,1.27,0,0,1,.46-.4,1.41,1.41,0,0,1,.67-.15,1.22,1.22,0,0,1,1.15.58,3.23,3.23,0,0,1,.33,1.58v.88Zm5.62-.68-1.62-1.72a1.9,1.9,0,0,1,.75-.56,2.47,2.47,0,0,1,1-.21,1.63,1.63,0,0,1,1,.24.7.7,0,0,1,.31.55,1.35,1.35,0,0,1-.4.94,3.18,3.18,0,0,1-1,.76" transform="translate(3.62 0.46)"/><rect class="cls-1" x="192.96" y="39.54" width="1.1" height="9.53"/><path class="cls-1" d="M207.34,41.2h-.92a.88.88,0,0,1-.7-.25.92.92,0,0,1-.23-.63.88.88,0,0,1,.2-.54.74.74,0,0,1,.62-.24,2.08,2.08,0,0,1,.69.11v-.72l-.28-.06a2.37,2.37,0,0,0-.49,0,1.51,1.51,0,0,0-.53.09,1.43,1.43,0,0,0-.46.27,1.31,1.31,0,0,0-.32.46,1.6,1.6,0,0,0-.12.65,1.35,1.35,0,0,0,.31.9h-.68v.71h2.91V41.2Z" transform="translate(3.62 0.46)"/><path class="cls-1" d="M222.16,39.07h-1.1v8.42h-4v-.05a3,3,0,0,0,.67-.8,2.37,2.37,0,0,0,.28-1.22,2.5,2.5,0,0,0-.1-.69,2,2,0,0,0-.36-.7,1.92,1.92,0,0,0-.65-.53,2.06,2.06,0,0,0-1-.21,2.12,2.12,0,0,0-1.82.89,4.28,4.28,0,0,0-.65,2.53v.78H212a1.35,1.35,0,0,1-.57-.11.94.94,0,0,1-.36-.29,1.06,1.06,0,0,1-.18-.46,3.86,3.86,0,0,1-.05-.61V43.46h-1.09v3.06a1.42,1.42,0,0,1-.08.52.57.57,0,0,1-.22.3,1,1,0,0,1-.38.12,4.22,4.22,0,0,1-.55,0h-.9a1.35,1.35,0,0,1-.57-.11.87.87,0,0,1-.36-.29,1.11,1.11,0,0,1-.18-.46,3.86,3.86,0,0,1-.05-.61V43.46h-1.09v3a1.52,1.52,0,0,1-.08.53.51.51,0,0,1-.22.29.86.86,0,0,1-.38.13,4.45,4.45,0,0,1-.55,0H201c-.4,0-.66-.08-.77-.23a1.35,1.35,0,0,1-.18-.8V42.63h-2.12a3.67,3.67,0,0,0-1,.14,2.72,2.72,0,0,0-.89.43,2.42,2.42,0,0,0-.65.79,2.6,2.6,0,0,0-.25,1.2,2,2,0,0,0,.91,1.86,2.68,2.68,0,0,0,.8.34,3.61,3.61,0,0,0,.74.09,3.65,3.65,0,0,0,.72-.07,4,4,0,0,0,.66-.17,1.4,1.4,0,0,0,.23.66,1.27,1.27,0,0,0,.42.41,1.67,1.67,0,0,0,.55.22,3.63,3.63,0,0,0,.67.06h3.52a4.49,4.49,0,0,0,1.26-.16,1.19,1.19,0,0,0,.76-.71,1.15,1.15,0,0,0,.42.62,1.33,1.33,0,0,0,.84.25h1.1a4.62,4.62,0,0,0,1.27-.16,1.19,1.19,0,0,0,.75-.71,1.12,1.12,0,0,0,.43.62,1.29,1.29,0,0,0,.84.25h1.42v.14a7.31,7.31,0,0,0,.12,1.31,2.81,2.81,0,0,0,.41,1,1.84,1.84,0,0,0,.75.63,2.67,2.67,0,0,0,1.16.22,2.36,2.36,0,0,0,.92-.16,1.89,1.89,0,0,0,.65-.43,1.62,1.62,0,0,0,.4-.62,2.14,2.14,0,0,0,0-1.35,1.3,1.3,0,0,0-.42-.67v0h4.69V39.07Zm-23.24,7a3.38,3.38,0,0,1-.61.17,3,3,0,0,1-.64.07,1.59,1.59,0,0,1-1.13-.35,1.22,1.22,0,0,1-.35-.9,1.19,1.19,0,0,1,.45-1,1.81,1.81,0,0,1,1.1-.32h1.18v2.36Zm15.61.49a3.17,3.17,0,0,1,.36-1.66,1.1,1.1,0,0,1,1-.58,1.05,1.05,0,0,1,.75.3,1.2,1.2,0,0,1,.32.94,2.3,2.3,0,0,1-.09.6,2,2,0,0,1-.31.61,1.76,1.76,0,0,1-.56.48,1.8,1.8,0,0,1-.87.2h-.6v-.89Zm2.17,4a1.1,1.1,0,0,1-.83.28,1.38,1.38,0,0,1-.69-.15,1.1,1.1,0,0,1-.41-.42,1.94,1.94,0,0,1-.19-.63,6.43,6.43,0,0,1-.05-.79V48.6h1a1.84,1.84,0,0,1,.78.14,1.18,1.18,0,0,1,.44.33.91.91,0,0,1,.2.39,2.86,2.86,0,0,1,0,.33,1.05,1.05,0,0,1-.28.77" transform="translate(3.62 0.46)"/><rect class="cls-1" x="227.65" y="39.54" width="1.1" height="9.53"/><path class="cls-1" d="M102.56,64.73h6.8V63.62h-2a1.76,1.76,0,0,1-1.3-.44,1.53,1.53,0,0,1-.42-1.11,1.38,1.38,0,0,1,.49-1.13,2,2,0,0,1,1.34-.42,3.73,3.73,0,0,1,.72.06l.55.14V59.54a1.72,1.72,0,0,0-.5-.12,4.79,4.79,0,0,0-.81-.06,3.7,3.7,0,0,0-1,.16,3.19,3.19,0,0,0-.93.49,2.58,2.58,0,0,0-.68.85,2.53,2.53,0,0,0-.26,1.2,2.38,2.38,0,0,0,.16.91,1.89,1.89,0,0,0,.4.65h-3A9.44,9.44,0,0,1,98.93,63v1.08l.92.26c.35.1.67.21,1,.33a2.92,2.92,0,0,1,.77.42.69.69,0,0,1,.32.54.61.61,0,0,1-.27.49,2.2,2.2,0,0,1-.72.35,5.86,5.86,0,0,1-1.08.22c-.41,0-.84.07-1.29.07a4.84,4.84,0,0,1-2.65-.56,1.93,1.93,0,0,1-.81-1.73V62.62H94v2.06a4,4,0,0,0,.2,1.26,2.33,2.33,0,0,0,.72,1,3.68,3.68,0,0,0,1.39.68,8.54,8.54,0,0,0,2.22.24,9.93,9.93,0,0,0,2-.18,4.22,4.22,0,0,0,1.36-.48,2,2,0,0,0,.75-.69,1.53,1.53,0,0,0,.23-.78,1.64,1.64,0,0,0-.11-.56,1.08,1.08,0,0,0-.25-.44" transform="translate(3.62 0.46)"/><path class="cls-1" d="M138.77,59.41a4,4,0,0,0-1.71.38,5.78,5.78,0,0,0-1.41,1,6.32,6.32,0,0,0-1.06,1.35,7.65,7.65,0,0,0-.7,1.49,1,1,0,0,1-.51-.11.74.74,0,0,1-.29-.29,1.24,1.24,0,0,1-.13-.47c0-.18,0-.38,0-.6v-1.9h-1.1v2.39a1.31,1.31,0,0,1-.08.53.53.53,0,0,1-.26.29,1.2,1.2,0,0,1-.49.13c-.2,0-.45,0-.74,0h-1.49V62.47a3.21,3.21,0,0,0-.73-2.24,2.58,2.58,0,0,0-2-.82,3.8,3.8,0,0,0-2.13.61,5.41,5.41,0,0,0-1.59,1.72V55.2h-1.1v8.42H119.7a1.35,1.35,0,0,1-.57-.11.87.87,0,0,1-.36-.29,1.06,1.06,0,0,1-.18-.46,3,3,0,0,1,0-.61V59.59h-1.1v3.06a1.48,1.48,0,0,1-.07.52.58.58,0,0,1-.23.3.85.85,0,0,1-.38.12,4.22,4.22,0,0,1-.55,0h-3.08c-.4,0-.66-.08-.77-.23a1.33,1.33,0,0,1-.18-.8V55.2h-1.09v7.69a2.26,2.26,0,0,0,.14.88,1.39,1.39,0,0,0,.38.57,1.54,1.54,0,0,0,.6.3,3.21,3.21,0,0,0,.78.09h3.42a4.27,4.27,0,0,0,1.27-.16,1.19,1.19,0,0,0,.75-.71,1.12,1.12,0,0,0,.43.62,1.34,1.34,0,0,0,.83.25h10.54a10.2,10.2,0,0,0,1,0,3.57,3.57,0,0,0,.74-.12,1.55,1.55,0,0,0,.51-.27,1.22,1.22,0,0,0,.32-.44,2.58,2.58,0,0,0,.18.32,1,1,0,0,0,.27.28,1.32,1.32,0,0,0,.43.19,2.59,2.59,0,0,0,.68.08h7.21V62.47a3.22,3.22,0,0,0-.74-2.26,2.68,2.68,0,0,0-2.08-.8m-11.08,4.21h-5.38a6.63,6.63,0,0,1,.53-1.07,5.26,5.26,0,0,1,.77-1,3.89,3.89,0,0,1,1-.74,2.42,2.42,0,0,1,1.19-.3,2.06,2.06,0,0,1,.9.18,1.52,1.52,0,0,1,.59.46,1.8,1.8,0,0,1,.32.7,3.52,3.52,0,0,1,.1.87v.89Zm12.82,0h-5.45a6.56,6.56,0,0,1,.54-1.1,4.47,4.47,0,0,1,.79-1,3.94,3.94,0,0,1,1-.72,2.54,2.54,0,0,1,1.19-.28,2.18,2.18,0,0,1,.89.16,1.57,1.57,0,0,1,.59.45,2,2,0,0,1,.33.7,3.57,3.57,0,0,1,.1.89v.89Z" transform="translate(3.62 0.46)"/><polygon class="cls-1" points="149.55 57.61 149.55 64.08 146.54 64.08 146.54 65.19 154.13 65.19 154.13 55.66 153.03 55.66 153.03 64.08 150.64 64.08 150.64 57.61 149.55 57.61"/><rect class="cls-1" x="156" y="55.66" width="1.1" height="9.53"/><path class="cls-1" d="M160.25,63.41a1.33,1.33,0,0,1-.25-1.25.94.94,0,0,1,.2-.35,1.16,1.16,0,0,1,.35-.25,1.29,1.29,0,0,1,.51-.09,2.27,2.27,0,0,1,.95.18v-1a2.39,2.39,0,0,0-.38-.07,6.45,6.45,0,0,0-.67,0,2.28,2.28,0,0,0-.73.12,2,2,0,0,0-.63.37,1.93,1.93,0,0,0-.44.63,2.21,2.21,0,0,0-.17.89,1.83,1.83,0,0,0,.45,1.25h-1v1h4v-1h-1.26a1.21,1.21,0,0,1-1-.35" transform="translate(3.62 0.46)"/><path class="cls-1" d="M168.92,58.48a2.5,2.5,0,0,0-.16.24,1.77,1.77,0,0,0-.15.31,1.32,1.32,0,0,0-.08.33,12.67,12.67,0,0,1,1.44.81,10.78,10.78,0,0,1,1.24.91,5.57,5.57,0,0,1,.87.9,1.4,1.4,0,0,1,.32.8.69.69,0,0,1-.32.67,1.83,1.83,0,0,1-.83.17h-5.38a1,1,0,0,1-.77-.23,1.36,1.36,0,0,1-.17-.8V55.2h-1.1v7.69a2.46,2.46,0,0,0,.14.88,1.32,1.32,0,0,0,.39.57,1.42,1.42,0,0,0,.6.3,3.21,3.21,0,0,0,.78.09h5.49a2.8,2.8,0,0,0,1.13-.19,1.91,1.91,0,0,0,.69-.47,1.44,1.44,0,0,0,.32-.61,2.44,2.44,0,0,0,.09-.62,2.23,2.23,0,0,0-.18-.84,3.49,3.49,0,0,0-.59-.93,8.13,8.13,0,0,0-1.07-1A14.55,14.55,0,0,0,170,59L174,57.26V56.18l-4.88,2.15-.15.15" transform="translate(3.62 0.46)"/><path class="cls-1" d="M178.13,63.48a2.1,2.1,0,0,1-.86.14h-2.39v1.11h2l.64,0a2.45,2.45,0,0,0,.61-.13,1.63,1.63,0,0,0,.52-.31,1.72,1.72,0,0,0,.38-.57,2.49,2.49,0,0,0,.75.81,1.72,1.72,0,0,0,.92.23h3.18V55.19h-1.1v8.43h-2.08a.74.74,0,0,1-.35-.1,1.81,1.81,0,0,1-.35-.3,3.52,3.52,0,0,1-.38-.52l-.47-.76-1.6-2.66-1,.64L178,62a5,5,0,0,1,.33.55,1.09,1.09,0,0,1,.14.51.45.45,0,0,1-.31.41" transform="translate(3.62 0.46)"/><rect class="cls-1" x="189.4" y="55.66" width="1.1" height="9.53"/><path class="cls-1" d="M193.21,65.88a4.2,4.2,0,0,0,.27-1.63V63a6.64,6.64,0,0,0-.13-1.39,3,3,0,0,0-.42-1.1,2,2,0,0,0-.78-.72,2.52,2.52,0,0,0-1.19-.26,2.44,2.44,0,0,0-2,.88,2.76,2.76,0,0,0-.51.92,3.13,3.13,0,0,0-.18,1,2.88,2.88,0,0,0,.2,1.12,1.86,1.86,0,0,0,.52.72,1.93,1.93,0,0,0,.78.4,3.6,3.6,0,0,0,1,.12,3.26,3.26,0,0,0,1-.12,2.7,2.7,0,0,0,.63-.27v.25a2,2,0,0,1-.21,1,1.45,1.45,0,0,1-.6.55,2.81,2.81,0,0,1-.9.24c-.36,0-.75,0-1.17,0h-.41v1.11h.56a8,8,0,0,0,1.61-.14,2.74,2.74,0,0,0,1.22-.5,2.41,2.41,0,0,0,.75-1m-.85-2.65a1.89,1.89,0,0,1-.59.3,2.93,2.93,0,0,1-.89.13,1.66,1.66,0,0,1-1.08-.33,1.3,1.3,0,0,1-.42-1.09,1.93,1.93,0,0,1,.09-.57,1.82,1.82,0,0,1,.27-.54,1.43,1.43,0,0,1,.47-.4,1.46,1.46,0,0,1,.69-.16,1.36,1.36,0,0,1,.69.17,1.32,1.32,0,0,1,.45.46,1.89,1.89,0,0,1,.25.68,5.87,5.87,0,0,1,.07.86v.49Z" transform="translate(3.62 0.46)"/><polygon class="cls-1" points="215.32 50.39 214.18 50.39 214.18 51.77 215.32 51.12 215.32 50.39"/><polygon class="cls-1" points="213.58 50.39 212.44 50.39 212.44 51.77 213.58 51.12 213.58 50.39"/><polygon class="cls-1" points="203.12 40.36 201.98 40.36 201.98 41.75 203.12 41.09 203.12 40.36"/><polygon class="cls-1" points="201.38 40.36 200.25 40.36 200.25 41.75 201.38 41.09 201.38 40.36"/><polygon class="cls-1" points="149.07 40.36 147.94 40.36 147.94 41.75 149.07 41.09 149.07 40.36"/><polygon class="cls-1" points="147.34 40.36 146.2 40.36 146.2 41.75 147.34 41.09 147.34 40.36"/><polygon class="cls-1" points="156.38 50.38 155.24 50.38 155.24 51.76 156.38 51.11 156.38 50.38"/><polygon class="cls-1" points="154.64 50.38 153.5 50.38 153.5 51.76 154.64 51.11 154.64 50.38"/><polygon class="cls-1" points="127.82 50.38 126.68 50.38 126.68 51.76 127.82 51.11 127.82 50.38"/><polygon class="cls-1" points="126.08 50.38 124.95 50.38 124.95 51.76 126.08 51.11 126.08 50.38"/><polygon class="cls-1" points="131.13 50.38 130 50.38 130 51.76 131.13 51.11 131.13 50.38"/><polygon class="cls-1" points="181.3 57.1 180.16 57.1 180.16 58.49 181.3 57.83 181.3 57.1"/><polygon class="cls-1" points="122.23 57.1 121.09 57.1 121.09 58.49 122.23 57.83 122.23 57.1"/><polygon class="cls-1" points="104.53 41.76 103.4 41.76 103.4 43.15 104.53 42.49 104.53 41.76"/><polygon class="cls-1" points="102.8 41.76 101.67 41.76 101.67 43.15 102.8 42.49 102.8 41.76"/><polygon class="cls-1" points="103.43 69.18 102.29 69.18 102.29 70.57 103.43 69.91 103.43 69.18"/><polygon class="cls-1" points="101.69 69.18 100.56 69.18 100.56 70.57 101.69 69.91 101.69 69.18"/><polygon class="cls-1" points="117.65 40.98 116.51 40.98 116.51 42.36 117.65 41.71 117.65 40.98"/><path class="cls-1" d="M137.83,1.05H125.4V31.12h12.43c10.34,0,17.22-6,17.22-15s-6.88-15-17.22-15m0,23.27h-3.61V7.85h3.61c4.83,0,8.11,3.24,8.11,8.24s-3.28,8.23-8.11,8.23" transform="translate(3.62 0.46)"/><polygon class="cls-1" points="182.07 1.51 168.8 1.51 159.39 31.59 168.93 31.59 170.64 25.71 179.01 20.88 171.91 20.88 175.44 9.2 179.01 20.88 181.95 31.59 191.49 31.59 182.07 1.51"/><polygon class="cls-1" points="229.94 1.51 216.67 1.51 207.26 31.59 216.79 31.59 218.51 25.71 226.87 20.88 219.78 20.88 223.31 9.2 226.87 20.88 229.82 31.59 239.35 31.59 229.94 1.51"/><polygon class="cls-1" points="194.81 6.78 194.81 31.59 203.92 31.59 203.92 1.51 194.81 6.78"/><path class="cls-1" d="M108.64,12.14c-3.32-.38-5.84-.72-5.84-2.86,0-1.59,1.77-2.77,4.33-2.77,3,0,5.2,1.68,5.16,4l6.79-3.92c-1.82-4-6.4-6.58-12.25-6.58C99.31,0,94,4.12,94,10.29c0,7.1,5.8,8.66,12,9.37,3.2.42,5.84.76,5.84,2.94,0,1.81-1.76,3.07-4.4,3.07-3.28,0-5.67-1.89-5.72-4.44h-7.9a10.07,10.07,0,0,0,.85,4.08c1.85,4.14,6.52,6.88,12.47,6.88,7.94,0,13.52-4.37,13.52-10.76,0-7.1-6-8.65-12-9.28" transform="translate(3.62 0.46)"/></g></g></g></g></svg>