<svg xmlns="http://www.w3.org/2000/svg" viewBox="0 0 243.13 201.27"><defs><style>.cls-1{fill:#0c0566;}.cls-2{fill:#4cd7bd;}</style></defs><g id="Layer_2" data-name="Layer 2"><g id="Layer_1-2" data-name="Layer 1"><g id="salwa"><path id="a" class="cls-1" d="M180.61,12h0a40.79,40.79,0,0,0-57.64,0,40.79,40.79,0,0,0-57.64,0l-2.28,2.28v.21a40.77,40.77,0,0,0,2.28,55.2l1.41,1.42,11-11-1.42-1.42a25.24,25.24,0,0,1,0-35.69h0A25.24,25.24,0,0,1,112,22.9L90.07,44.79l11,11L133.92,23a25.24,25.24,0,0,1,35.69,0h0a25.24,25.24,0,0,1,0,35.69l-46.75,46.74-6.3-6.3-11,11h0l11.8,11.8a7.77,7.77,0,0,0,11,0l52.25-52.24a40.79,40.79,0,0,0,0-57.69Z"/><g id="asf"><path class="cls-2" d="M156.78,46.79a7.78,7.78,0,0,0-11-11L99.64,81.94,83.77,66.08l-11,11,26.86,26.86Z"/></g><polygon class="cls-1" points="192.59 155.16 179.32 200.54 166.95 200.54 158.68 168.84 150.41 200.54 137.95 200.54 124.6 155.16 136.23 155.16 144.26 189.73 152.94 155.16 165.07 155.16 173.59 189.65 181.62 155.16 192.59 155.16"/><path class="cls-1" d="M84.13,155.15v6.47a18.11,18.11,0,0,0-6.1-5.15,18.44,18.44,0,0,0-8.89-2.05,20,20,0,0,0-10.53,2.86,20.25,20.25,0,0,0-7.45,8.2,26.24,26.24,0,0,0-2.75,12.21A26.68,26.68,0,0,0,51.16,190a20.73,20.73,0,0,0,7.45,8.32,19.27,19.27,0,0,0,10.45,2.94,18.59,18.59,0,0,0,9-2.08,16.94,16.94,0,0,0,6.1-5.29v6.64H95.68V155.15ZM82.5,185a11.53,11.53,0,0,1-4.43,4.59,11.78,11.78,0,0,1-6,1.6,11.13,11.13,0,0,1-5.85-1.64,11.87,11.87,0,0,1-4.43-4.71,14.68,14.68,0,0,1-1.68-7.16,14.22,14.22,0,0,1,1.68-7.09,11.52,11.52,0,0,1,10.28-6.11,11.88,11.88,0,0,1,6,1.6,11.62,11.62,0,0,1,4.43,4.6,16.54,16.54,0,0,1,0,14.32Z"/><path class="cls-1" d="M231.58,155.15v6.47a18,18,0,0,0-6.1-5.15,18.42,18.42,0,0,0-8.88-2.05,20,20,0,0,0-10.54,2.86,20.23,20.23,0,0,0-7.44,8.2,26.24,26.24,0,0,0-2.75,12.21A26.68,26.68,0,0,0,198.62,190a20.71,20.71,0,0,0,7.44,8.32,19.29,19.29,0,0,0,10.45,2.94,18.56,18.56,0,0,0,9-2.08,16.94,16.94,0,0,0,6.1-5.29v6.64h11.55V155.15ZM230,185a11.46,11.46,0,0,1-4.43,4.59,11.72,11.72,0,0,1-6,1.6,11.17,11.17,0,0,1-5.86-1.64,11.94,11.94,0,0,1-4.43-4.71,14.68,14.68,0,0,1-1.67-7.16,14.22,14.22,0,0,1,1.67-7.09,11.79,11.79,0,0,1,16.26-4.51,11.55,11.55,0,0,1,4.43,4.6A16.54,16.54,0,0,1,230,185Z"/><rect class="cls-1" x="106.9" y="142.54" width="11.47" height="58"/><path class="cls-1" d="M10.44,199.07a17.74,17.74,0,0,1-7.57-5.9A15.5,15.5,0,0,1,0,184.07H12.29a7.93,7.93,0,0,0,2.5,5.58,8.86,8.86,0,0,0,6.18,2,9.53,9.53,0,0,0,6.31-1.92,6.25,6.25,0,0,0,2.29-5A5.87,5.87,0,0,0,28,180.55,11,11,0,0,0,24.13,178a66,66,0,0,0-6.44-2.09,69.45,69.45,0,0,1-9-3.23,15.94,15.94,0,0,1-6-4.84,13.8,13.8,0,0,1-2.5-8.64,15.49,15.49,0,0,1,2.54-8.85,16.21,16.21,0,0,1,7.13-5.77,25.9,25.9,0,0,1,10.49-2q8.84,0,14.37,4.3a16,16,0,0,1,6.11,12H28.18a6.54,6.54,0,0,0-2.5-4.87A9.42,9.42,0,0,0,19.5,152a8,8,0,0,0-5.37,1.72,6.23,6.23,0,0,0-2,5,5.17,5.17,0,0,0,1.52,3.81A11.62,11.62,0,0,0,17.41,165q2.25.94,6.35,2.17a65.53,65.53,0,0,1,9.09,3.28,16.29,16.29,0,0,1,6.06,4.91,13.68,13.68,0,0,1,2.54,8.6,16.2,16.2,0,0,1-2.37,8.52,16.86,16.86,0,0,1-7,6.27,23.7,23.7,0,0,1-10.89,2.33A27.3,27.3,0,0,1,10.44,199.07Z"/></g></g></g></svg>