<svg xmlns="http://www.w3.org/2000/svg" viewBox="0 0 21.06 19.87"><g id="Layer_2" data-name="Layer 2"><g id="Layer_1-2" data-name="Layer 1"><path d="M21.06,15.46a1.31,1.31,0,0,1-.84.7c-.58.15-1.15.33-1.72.48a.49.49,0,0,0-.41.43,3.29,3.29,0,0,1-.15.6c-.09.3-.23.41-.54.38s-.82-.08-1.23-.13a3.16,3.16,0,0,0-2.35.61,6.89,6.89,0,0,1-2.05,1.15,4.31,4.31,0,0,1-3.61-.52,5.58,5.58,0,0,1-.64-.44A3.72,3.72,0,0,0,4.22,18a3.52,3.52,0,0,1-.65.1.4.4,0,0,1-.45-.31c-.07-.22-.13-.44-.18-.67a.49.49,0,0,0-.41-.42c-.59-.15-1.18-.32-1.76-.5a1.08,1.08,0,0,1-.7-.54.45.45,0,0,1,.29-.69c.24-.07.48-.11.71-.19a5.33,5.33,0,0,0,2.77-2.17,11,11,0,0,0,.77-1.33.69.69,0,0,0-.39-1.06L2.8,9.52a1.62,1.62,0,0,1-.41-.27.65.65,0,0,1,0-1.05A1.15,1.15,0,0,1,3.54,8c.29.09.59.17.89.24s.46,0,.45-.39c0-.7-.07-1.41-.08-2.12A6.66,6.66,0,0,1,5,3.63,4.63,4.63,0,0,1,7.63.7,6.85,6.85,0,0,1,11.38,0,5.62,5.62,0,0,1,16.1,3.86a8.36,8.36,0,0,1,.17,2.39c0,.54-.06,1.09-.08,1.63,0,.34.06.41.4.34s.6-.15.89-.24a1.25,1.25,0,0,1,1.17.2.64.64,0,0,1,0,1.12c-.44.28-.93.48-1.4.72-.21.1-.43.18-.63.3a.53.53,0,0,0-.22.77,6.83,6.83,0,0,0,1.95,2.71,5.23,5.23,0,0,0,2.23,1.09.74.74,0,0,1,.5.32Zm-3.57-.19-.06-.07a8.56,8.56,0,0,1-2.6-3.54,2,2,0,0,1,0-1.79c.07-.16.18-.3.27-.46a2.09,2.09,0,0,1-.58-1.73c0-.83.08-1.66.08-2.49A3.07,3.07,0,0,0,13.78,3a4.09,4.09,0,0,0-1.93-1.18A5,5,0,0,0,8,2.39,2.77,2.77,0,0,0,6.53,4.53a13,13,0,0,0-.08,1.54c0,.43,0,.86,0,1.29a2.28,2.28,0,0,1-.6,2.06,2.36,2.36,0,0,1,.23,2.45,8.83,8.83,0,0,1-2.4,3.24l-.19.17a1.6,1.6,0,0,1,.75.77c.08.18.19.2.37.19a5,5,0,0,1,3.62,1c.17.13.33.27.51.39a2.75,2.75,0,0,0,3.4,0c.26-.18.52-.35.78-.54a3.93,3.93,0,0,1,1.9-.78c.52-.06,1.05,0,1.57,0,.07,0,.17,0,.19-.06A2.19,2.19,0,0,1,17.49,15.27Z"/></g></g></svg>