<svg xmlns="http://www.w3.org/2000/svg" viewBox="0 0 17.33 19.91"><g id="Layer_2" data-name="Layer 2"><g id="Layer_1-2" data-name="Layer 1"><path d="M5.8,19.91c-.34-.06-.68-.1-1-.19A6.29,6.29,0,0,1,5.36,7.39,14.54,14.54,0,0,1,7,7.34c.11,0,.17,0,.17.16,0,1.09,0,2.18,0,3.27a.2.2,0,0,1,0,.07l-.43-.08a2.88,2.88,0,1,0,2.46,2.82q0-6.66,0-13.32V0h3.38a4.88,4.88,0,0,0,4.78,4.8V8.17a8,8,0,0,1-2.49-.38,8.67,8.67,0,0,1-2.25-1.14v.27c0,2.2,0,4.41,0,6.61a6.22,6.22,0,0,1-2.5,5.1,6.11,6.11,0,0,1-3.17,1.25.8.8,0,0,0-.15,0Z"/></g></g></svg>