<svg xmlns="http://www.w3.org/2000/svg" viewBox="0 0 32.08 22.67"><defs><style>.cls-1{fill:none;stroke:#030303;stroke-miterlimit:10;}</style></defs><g id="Layer_2" data-name="Layer 2"><g id="Layer_1-2" data-name="Layer 1"><path class="cls-1" d="M16.5.51c2.46,0,5.36,0,8.24.17,1,.07,2,.14,3,.27a4,4,0,0,1,3.3,3.23,27.6,27.6,0,0,1,.48,5.21c0,2.23.05,4.47-.14,6.7a16.33,16.33,0,0,1-.43,2.7,3.93,3.93,0,0,1-3.46,2.95,155,155,0,0,1-17.38.35c-1.92,0-3.83-.18-5.74-.37A4,4,0,0,1,1,18.45a26.87,26.87,0,0,1-.47-4.82A59.93,59.93,0,0,1,.74,5.82a15,15,0,0,1,.36-2A4,4,0,0,1,4.57.92,111.79,111.79,0,0,1,16.5.51ZM12,16.15,21.91,11,12,5.88Z"/><path class="cls-1" d="M12,16.15V5.88L21.91,11Z"/></g></g></svg>